<!-- Generator: Adobe Illustrator 19.1.0, SVG Export Plug-In  -->
<svg version="1.1"
	 xmlns="http://www.w3.org/2000/svg" xmlns:xlink="http://www.w3.org/1999/xlink" xmlns:a="http://ns.adobe.com/AdobeSVGViewerExtensions/3.0/"
	 x="0px" y="0px" width="36px" height="36px" viewBox="0 0 36 36" enable-background="new 0 0 36 36" xml:space="preserve">
<defs>
</defs>
<g>
	<path fill="#3C342A" d="M23.9,10.5c-0.2,0-0.5-0.1-0.7-0.2l0,0c-0.9-0.5-1.5-1.5-1.5-2.5V4.5c0-0.2,0.2-0.4,0.4-0.4l0,0
		c0.3,0,0.5-0.2,0.5-0.5V2.1c0-0.3-0.2-0.6-0.4-0.7C22.1,1.3,22,1.2,22,1V0.6C22,0.3,20.2,0,18,0s-4,0.3-4,0.6V1
		c0,0.1-0.1,0.2-0.2,0.3c-0.3,0.1-0.4,0.4-0.4,0.7v1.5c0,0.3,0.2,0.5,0.5,0.5l0,0c0.2,0,0.4,0.2,0.4,0.4v3.2c0,1.1-0.6,2-1.5,2.5
		l0,0c-0.2,0.1-0.4,0.2-0.7,0.2c-1.9,0.2-3.5,1.8-3.5,3.8v20.4c0,0.8,0.7,1.4,1.5,1.4c1.9-0.1,5.3-0.2,8-0.2c2.6,0,5.9,0,7.8,0.2
		c0.8,0.1,1.5-0.6,1.5-1.4V14.3C27.4,12.3,25.8,10.7,23.9,10.5z M20.1,22.5l-3.2,7.6h-1.5l2.9-6.8c-0.2,0-0.4,0.1-0.8,0.1
		c-0.2,0-0.3,0-0.5,0c0,0.1,0,0.2,0,0.2v0.1c0,1.3-0.9,2-2,2c-1.2,0-2.1-0.7-2.1-2v-0.1c0-1.3,0.9-2,2.1-2c0.3,0,0.6,0.1,0.9,0.2
		c0.6,0.2,1.1,0.3,2,0.3c1,0,1.9-0.2,2.3-0.3L20.1,22.5L20.1,22.5z M20.9,26c1.2,0,2,0.7,2,2v0.1c0,1.3-0.9,2-2,2
		c-1.2,0-2.1-0.7-2.1-2V28C18.8,26.8,19.7,26,20.9,26z M12.2,11.6c0.4,0,0.8-0.1,1.1-0.3c1.3-0.7,2.2-2,2.2-3.5V4.5
		c0-0.6-0.4-1.2-1-1.4V2.3c0.3-0.3,0.5-0.6,0.6-1c0.5-0.1,1.5-0.2,2.9-0.2s2.4,0.1,2.9,0.2c0.1,0.4,0.3,0.7,0.6,1v0.8
		c-0.6,0.2-1,0.8-1,1.4v3.3c0,1.5,0.8,2.8,2.1,3.5c0.4,0.2,0.8,0.3,1.1,0.3c1.4,0.1,2.4,1.3,2.4,2.6v2.4c-5.5,2.1-11-2.4-16.5-0.4
		v-2C9.8,12.9,10.8,11.7,12.2,11.6z M15.8,23.6v0.1c0,0.5-0.3,0.8-0.7,0.8H15c-0.5,0-0.8-0.3-0.8-0.8v-0.1c0-0.5,0.3-0.8,0.8-0.8
		l0,0C15.5,22.8,15.8,23.1,15.8,23.6z M20.1,28.2v-0.1c0-0.5,0.3-0.8,0.8-0.8H21c0.5,0,0.7,0.3,0.7,0.8v0.1c0,0.5-0.3,0.8-0.7,0.8
		h-0.1C20.4,29,20.1,28.7,20.1,28.2z"/>
	<rect fill="none" width="36" height="36"/>
</g>
</svg>
