<!-- Generator: Adobe Illustrator 19.1.0, SVG Export Plug-In  -->
<svg version="1.1"
	 xmlns="http://www.w3.org/2000/svg" xmlns:xlink="http://www.w3.org/1999/xlink" xmlns:a="http://ns.adobe.com/AdobeSVGViewerExtensions/3.0/"
	 x="0px" y="0px" width="96px" height="96px" viewBox="0 0 96 96" enable-background="new 0 0 96 96" xml:space="preserve">
<defs>
</defs>
<g>
	<g>
		<path fill="#FFFFFF" d="M48,0C21.5,0,0,21.5,0,48s21.5,48,48,48s48-21.5,48-48S74.5,0,48,0z M47.7,19.6c4.1,0,7.5,3.3,7.5,7.5
			c0,4.1-3.3,7.5-7.5,7.5s-7.5-3.3-7.5-7.5C40.3,23,43.6,19.6,47.7,19.6z M64.7,72.2L64.7,72.2c-2.1,0-3.8-1.7-3.8-3.8
			c0-0.2-0.2-12.3-5.1-19.1L56,68.3c0.1,4.4-3.5,8-7.9,8.1H48c-4.4,0-7.9-3.5-8-7.9l-0.2-19c-3.8,5.7-4.7,15.4-4.7,19
			c0,2.1-1.7,3.8-3.8,3.8c0,0,0,0,0,0c-2.1,0-3.8-1.7-3.8-3.8c0-0.7-0.1-17.7,8.4-26.3c3.2-3.2,7.2-4.9,11.8-4.9
			c6,0,14.1,2.8,18.3,16.3c2.3,7.3,2.4,14.5,2.4,14.8C68.5,70.5,66.8,72.2,64.7,72.2z"/>
	</g>
</g>
</svg>
