<!-- Generator: Adobe Illustrator 19.1.0, SVG Export Plug-In  -->
<svg version="1.1"
	 xmlns="http://www.w3.org/2000/svg" xmlns:xlink="http://www.w3.org/1999/xlink" xmlns:a="http://ns.adobe.com/AdobeSVGViewerExtensions/3.0/"
	 x="0px" y="0px" width="36px" height="36px" viewBox="0 0 36 36" enable-background="new 0 0 36 36" xml:space="preserve">
<defs>
</defs>
<g>
	<rect fill="none" width="36" height="36"/>
	<path fill="#3C342A" d="M32.5,26.3c-0.9-0.1-1.7-0.3-2.1-0.5c-1-0.6-2.1-1.7-4.9,0.1c-2.8,1.8-5.8,0-5.8,0c0.7,3,4.7,6.6,7.5,6.5
		c2.8,0,5.4-2.7,5.5-5.5C32.5,26.6,32.5,26.5,32.5,26.3z M33.1,31.7c1.1-1.4,1.8-3.1,1.8-4.9c0.1-4.3-5.2-9.8-9.5-10H25l-8,8.1v0.4
		c0.2,4.3,5.8,9.6,10,9.5c1.8,0,3.5-0.7,4.9-1.8l3.1,3c0.5-0.1,1-0.5,1-1.1v-0.2L33.1,31.7z M27.1,33.1c-3.3,0.1-7.9-4.2-8.4-7.6
		l7-7c3.4,0.5,7.7,5,7.6,8.4C33.3,30.1,30.4,33,27.1,33.1z"/>
	<path display="none" fill="none" stroke="#3C342A" stroke-width="2" stroke-linecap="round" stroke-miterlimit="10" d="M7,1.2
		l9.9,16.5c1,1.6,0.6,4.1-1.8,4.1s-6.3-0.3-10.2,1.9c-1.6,0.8-3.3-0.9-3.2-2.6c0.1-3.2,3.6-3.5,3.6-3.5"/>
	<g>
		<path fill="#3C342A" d="M5.3,25.1c-1.4,0.1-2.4-0.2-2.9-0.6c-1.1-0.7-1.9-2.1-1.8-3.4c0.1-3.2,3-4.3,4.6-4.4c0.6,0,1,0.4,1.1,0.9
			c0,0.6-0.4,1-0.9,1.1c-0.3,0-2.6,0.3-2.7,2.5c0,0.6,0.3,1.3,0.9,1.6c0.5,0.3,0.8,0.1,0.9,0.1c3.7-2,7.4-2,9.8-2c0.3,0,0.6,0,0.9,0
			c0.6,0,1-0.2,1.2-0.6c0.3-0.5,0.2-1.4-0.2-2L6.1,1.8C5.8,1.3,6,0.7,6.5,0.4s1.1-0.1,1.4,0.3l9.9,16.5c0.8,1.3,0.9,2.9,0.2,4
			c-0.6,1-1.6,1.7-2.9,1.6C10.3,22.6,9,24.7,5.3,25.1z"/>
	</g>
</g>
</svg>
