<!-- Generator: Adobe Illustrator 19.1.0, SVG Export Plug-In  -->
<svg version="1.1"
	 xmlns="http://www.w3.org/2000/svg" xmlns:xlink="http://www.w3.org/1999/xlink" xmlns:a="http://ns.adobe.com/AdobeSVGViewerExtensions/3.0/"
	 x="0px" y="0px" width="96px" height="96px" viewBox="0 0 96 96" enable-background="new 0 0 96 96" xml:space="preserve">
<defs>
</defs>
<g>
	<g>
		<path fill="#FFFFFF" d="M66.8,48.1c1-2,1.2-4.3,0.5-6.5l-6-13.9l-13.7,4.5l3.6,14.8c1.1,3.3,4.3,5.7,8,5.7c0.9,0,1.8-0.1,2.7-0.4
			C64,51.6,65.8,50.1,66.8,48.1z M61.3,50.7c-3.4,1.1-7.1-0.7-8.3-4.1L51,36.9c3.3-2.3,2.9,5.7,8.8,3.8c4.1-1.3,5.5,1.2,5.8,1.9
			C66.6,45.9,64.7,49.5,61.3,50.7z M26.4,50.2c-0.4,2.1,0,4.3,1.2,6.2c1.2,1.9,3.1,3.2,5.3,3.7h0c4.5,1,9.1-2,10.1-6.5l2-15l-14.1-3
			L26.4,50.2z M33.8,48.2c6.1,1.3,4.8-6.6,8.3-4.7L41,53.4c-0.8,3.5-4.2,5.8-7.8,5c-3.5-0.8-5.7-4.2-5-7.7
			C28.5,50,29.6,47.3,33.8,48.2z M48,0C21.5,0,0,21.5,0,48s21.5,48,48,48s48-21.5,48-48S74.5,0,48,0z M45,23.1
			c1-0.1,1.8,0.7,1.9,1.7c0.1,1-0.7,1.8-1.7,1.9c-1,0.1-1.8-0.7-1.9-1.7C43.3,24,44,23.2,45,23.1z M40.9,28c0.1,1-0.7,1.8-1.7,1.9
			c-1,0.1-1.8-0.7-1.9-1.7c-0.1-1,0.7-1.8,1.7-1.9C40,26.3,40.8,27,40.9,28z M38.1,20c1-0.1,1.8,0.7,1.9,1.7c0.1,1-0.7,1.8-1.7,1.9
			c-1,0.1-1.8-0.7-1.9-1.7C36.4,20.9,37.1,20.1,38.1,20z M72.4,64.5l-11.7,3.9c-0.2,0.1-0.3,0.1-0.5,0.1c-0.7,0-1.4-0.5-1.6-1.3
			c-0.1-0.8,0.4-1.5,1.1-1.8l4.3-1.4l-2.8-8.3c-0.7,0.1-1.4,0.2-2.1,0.2c-5,0-9.4-3.2-11-8l-0.8-3.4l-1.3,9.6
			c-1.2,5.4-5.9,9.3-11.4,9.3c-0.3,0-0.6,0-0.9,0l-1.8,8.5l4.4,1c0.8,0.2,1.4,0.9,1.3,1.7c-0.1,0.8-0.8,1.4-1.6,1.4
			c-0.1,0-0.2,0-0.3,0l-6-1.3c0,0,0,0,0,0l0,0l-6-1.3c-0.8-0.2-1.4-0.9-1.3-1.6c0.1-1,1-1.6,1.9-1.5l4.5,1l1.8-8.5
			c-2.4-0.9-4.4-2.4-5.8-4.6c-1.7-2.6-2.2-5.7-1.6-8.8l4.3-14.1c0.6-1.9,2.6-3.1,4.5-2.7l12.9,2.8l-0.4-1.7c-0.5-2,0.6-4,2.6-4.6
			L59.6,25c1.9-0.6,4,0.3,4.8,2.1l5.8,13.4c1,3.1,0.8,6.2-0.6,9c-1.2,2.3-3,4.1-5.3,5.2l2.8,8.3l4.4-1.5c0.9-0.3,1.9,0.3,2.1,1.3
			C73.7,63.6,73.1,64.3,72.4,64.5z"/>
	</g>
</g>
</svg>
