<!-- Generator: Adobe Illustrator 19.1.0, SVG Export Plug-In  -->
<svg version="1.1"
	 xmlns="http://www.w3.org/2000/svg" xmlns:xlink="http://www.w3.org/1999/xlink" xmlns:a="http://ns.adobe.com/AdobeSVGViewerExtensions/3.0/"
	 x="0px" y="0px" width="96px" height="96px" viewBox="0 0 96 96" enable-background="new 0 0 96 96" xml:space="preserve">
<defs>
</defs>
<g>
	<g>
		<path fill="#FFFFFF" d="M48,0L48,0C21.5,0,0,21.5,0,48l0,0c0,26.5,21.5,48,48,48l0,0c26.5,0,48-21.5,48-48l0,0
			C96,21.5,74.5,0,48,0z M50.8,22.7c0.4-1.4,1.4-2.5,2.7-2.7c-0.5,1.1-0.6,2.1-0.5,2.9c0.1,0.8,0.5,1.4,1,2.2
			c0.1,0.2,0.3,0.4,0.4,0.5c0.2,0.2,0.4,0.5,0.5,0.7c0.3,0.5,0.7,1.1,0.9,1.8c0.1,0.3,0.2,0.7,0.1,1.2c0,0.4-0.2,0.9-0.5,1.2
			c-0.3,0.3-0.7,0.5-1,0.5c-0.3,0-0.7,0-1-0.1c0.3-0.2,0.5-0.4,0.6-0.6c0.2-0.2,0.2-0.4,0.2-0.6c0-0.1-0.1-0.2-0.2-0.4
			c-0.1-0.1-0.2-0.3-0.3-0.4c-0.3-0.3-0.6-0.7-0.9-1l-0.5-0.5c-0.2-0.2-0.4-0.5-0.6-0.7c-0.4-0.5-0.7-1.2-0.9-1.8
			C50.7,24.2,50.6,23.4,50.8,22.7z M44.2,22.7c0.4-1.4,1.4-2.5,2.7-2.7c-0.5,1.1-0.6,2.1-0.5,2.9c0.1,0.8,0.5,1.4,1,2.2
			c0.1,0.2,0.3,0.4,0.4,0.5c0.2,0.2,0.4,0.5,0.5,0.7c0.3,0.5,0.7,1.1,0.9,1.8c0.1,0.3,0.2,0.7,0.1,1.2c0,0.4-0.2,0.9-0.5,1.2
			c-0.3,0.3-0.7,0.5-1,0.5c-0.3,0-0.7,0-1-0.1c0.3-0.2,0.5-0.4,0.6-0.6c0.2-0.2,0.2-0.4,0.2-0.6c0-0.1-0.1-0.2-0.2-0.4
			c-0.1-0.1-0.2-0.3-0.3-0.4c-0.3-0.3-0.6-0.7-0.9-1l-0.5-0.5c-0.2-0.2-0.4-0.5-0.6-0.7c-0.4-0.5-0.7-1.2-0.9-1.8
			C44,24.2,44,23.4,44.2,22.7z M36.9,22.7c0.4-1.4,1.4-2.5,2.7-2.7c-0.5,1.1-0.6,2.1-0.5,2.9c0.1,0.8,0.5,1.4,1,2.2
			c0.1,0.2,0.3,0.4,0.4,0.5c0.2,0.2,0.4,0.5,0.5,0.7c0.3,0.5,0.7,1.1,0.9,1.8c0.1,0.3,0.2,0.7,0.1,1.2c0,0.4-0.2,0.9-0.5,1.2
			c-0.3,0.3-0.7,0.5-1,0.5c-0.3,0-0.7,0-1-0.1c0.2-0.2,0.5-0.4,0.6-0.6c0.2-0.2,0.2-0.4,0.2-0.6c0-0.1-0.1-0.2-0.2-0.4
			c-0.1-0.1-0.2-0.3-0.3-0.4c-0.3-0.3-0.6-0.7-0.9-1l-0.5-0.5c-0.2-0.2-0.4-0.5-0.6-0.7c-0.4-0.5-0.7-1.2-0.9-1.8
			C36.8,24.2,36.7,23.4,36.9,22.7z M33.7,40.2h12c-1.1,0-2-0.9-2-2c0-1.1,0.9-2,2-2h4.9c1.1,0,2,0.9,2,2c0,1.1-0.9,2-2,2h12
			c3.3,0,6.1,3,6.6,6.2H27.1C27.7,43.1,30.4,40.2,33.7,40.2z M76,52.5h-6.7v16.8c0,3.7-3,6.7-6.7,6.7H33.7C30,76,27,73,27,69.3V51.9
			h-7v-2.8h49.3v0.6H76V52.5z"/>
	</g>
</g>
</svg>
