<!-- Generator: Adobe Illustrator 19.1.0, SVG Export Plug-In  -->
<svg version="1.1"
	 xmlns="http://www.w3.org/2000/svg" xmlns:xlink="http://www.w3.org/1999/xlink" xmlns:a="http://ns.adobe.com/AdobeSVGViewerExtensions/3.0/"
	 x="0px" y="0px" width="96px" height="96px" viewBox="0 0 96 96" enable-background="new 0 0 96 96" xml:space="preserve">
<defs>
</defs>
<g>
	<g>
		<path fill="#FFFFFF" d="M48,0C21.5,0,0,21.5,0,48s21.5,48,48,48s48-21.5,48-48S74.5,0,48,0z M68,32.6c0,3.7-3,6.6-6.6,6.6
			c-3.7,0-6.6-3-6.6-6.6s3-6.6,6.6-6.6C65,26,68,28.9,68,32.6z M53.3,18c0.1,0.1,0.2,0.1,0.2,0c1.9-3.2,6.1,0.1,3.5,3.3
			c-1.3,1.6-2.6,2.6-3.2,3c-0.3,0.2-0.6,0.2-0.8,0c-0.7-0.4-2-1.4-3.2-3C47.2,18.1,51.4,14.8,53.3,18z M44,22.3c0,0.1,0.1,0.1,0.2,0
			c1.6-2.7,5.1,0.1,3,2.8c-1.1,1.3-2.2,2.2-2.7,2.5c-0.2,0.1-0.5,0.1-0.7,0c-0.6-0.4-1.7-1.2-2.7-2.5C38.8,22.4,42.4,19.6,44,22.3z
			 M34.2,26c3.7,0,6.6,3,6.6,6.6s-3,6.6-6.6,6.6s-6.6-3-6.6-6.6S30.5,26,34.2,26z M77.8,72.7L77.8,72.7c-1.9,0-3.4-1.5-3.4-3.3
			c0-0.1-0.2-11-4.5-17L70,69.2c0,3.9-3.1,7.1-7,7.2H63c-3.9,0-7-3.1-7.1-7l-0.2-16.9c-3.4,5.1-4.2,13.6-4.1,16.8
			c0,1.9-1.5,3.4-3.3,3.4h0c-0.1,0-0.1,0-0.2,0c-0.1,0-0.1,0-0.2,0h0c-1.8,0-3.4-1.5-3.4-3.3c0-0.1-0.2-11-4.5-17l0.2,16.8
			c0,3.9-3.1,7.1-7,7.2H33c-3.9,0-7-3.1-7.1-7l-0.2-16.9c-3.4,5.1-4.2,13.6-4.1,16.8c0,1.9-1.5,3.4-3.3,3.4h0
			c-1.8,0-3.4-1.5-3.4-3.3c0-0.6-0.1-15.8,7.4-23.3c2.9-2.9,6.4-4.3,10.5-4.3c4.8,0,11.1,2,15.1,11.2c1.1-2.5,2.5-5,4.4-6.9
			c2.9-2.9,6.4-4.3,10.5-4.3c5.3,0,12.5,2.5,16.3,14.5c2,6.5,2.1,12.8,2.1,13.1C81.1,71.2,79.7,72.7,77.8,72.7z"/>
	</g>
</g>
</svg>
