<!-- Generator: Adobe Illustrator 19.1.0, SVG Export Plug-In  -->
<svg version="1.1"
	 xmlns="http://www.w3.org/2000/svg" xmlns:xlink="http://www.w3.org/1999/xlink" xmlns:a="http://ns.adobe.com/AdobeSVGViewerExtensions/3.0/"
	 x="0px" y="0px" width="96px" height="96px" viewBox="0 0 96 96" enable-background="new 0 0 96 96" xml:space="preserve">
<defs>
</defs>
<g>
	<g>
		<path fill="#FFFFFF" d="M48,0L48,0C21.5,0,0,21.5,0,48l0,0c0,26.5,21.5,48,48,48l0,0c26.5,0,48-21.5,48-48l0,0
			C96,21.5,74.5,0,48,0z M48,33.2c0,1-3.7,4.3-4.6,4.7v34.2c0,0.9-0.3,1.7-1,2.3c-0.6,0.6-1.4,1-2.3,1c0,0,0,0,0,0h-0.1c0,0,0,0,0,0
			c-0.9,0-1.6-0.3-2.3-1c-0.7-0.7-1-1.4-1-2.3V37.9c-1-0.3-5.3-3.6-5.3-4.7V19.5c0-0.4,0.2-0.8,0.5-1.2c0.3-0.3,0.7-0.5,1.2-0.5
			c0.4,0,0.8,0.2,1.2,0.5c0.3,0.3,0.5,0.7,0.5,1.2v10.7c0,0.4,0.2,0.8,0.5,1.2c0.3,0.3,0.7,0.5,1.2,0.5c0.4,0,0.8-0.2,1.2-0.5
			c0.3-0.3,0.5-0.7,0.5-1.2V19.5c0-0.4,0.2-0.8,0.5-1.2c0.3-0.3,0.7-0.5,1.2-0.5c0.4,0,0.8,0.2,1.2,0.5c0.3,0.3,0.5,0.7,0.5,1.2
			v10.7c0,0.4,0.2,0.8,0.5,1.2c0.3,0.3,0.7,0.5,1.2,0.5c0.4,0,0.8-0.2,1.2-0.5c0.3-0.3,0.5-0.7,0.5-1.2V19.5c0-0.4,0.2-0.8,0.5-1.2
			c0.3-0.3,0.7-0.5,1.2-0.5c0.4,0,0.8,0.2,1.2,0.5c0.3,0.3,0.5,0.7,0.5,1.2V33.2z M64.4,72.8c0,0.9-0.3,1.7-1,2.3
			c-0.6,0.6-1.4,1-2.3,1c0,0,0,0,0,0h-0.1c0,0,0,0,0,0c-0.9,0-1.6-0.3-2.3-1c-0.7-0.7-1-1.4-1-2.3V46.1h-3.7c-0.2,0-0.4-0.1-0.6-0.2
			c-0.2-0.2-0.2-0.4-0.2-0.6V24.7c0-2.3,0.8-4.2,2.4-5.8s3.6-2.4,5.8-2.4h1.2c0.4,0,0.8,0.2,1.2,0.5c0.3,0.3,0.5,0.7,0.5,1.2V72.8z"
			/>
	</g>
</g>
</svg>
