<!-- Generator: Adobe Illustrator 18.1.1, SVG Export Plug-In  -->
<svg version="1.1"
	 xmlns="http://www.w3.org/2000/svg" xmlns:xlink="http://www.w3.org/1999/xlink" xmlns:a="http://ns.adobe.com/AdobeSVGViewerExtensions/3.0/"
	 x="0px" y="0px" width="32px" height="32px" viewBox="0 0 32 32" enable-background="new 0 0 32 32" xml:space="preserve">
<defs>
</defs>
<g>
	<g>
		<path d="M30,2v28H2V2H30 M32,0H0v32h32V0L32,0z"/>
	</g>
	<path class="icono" d="M14.88,24v-7.51H12.9v-2.7h1.99c0,0,0-1.11,0-2.31c0-1.81,1.17-3.48,3.87-3.48c1.09,0,1.9,0.1,1.9,0.1
		l-0.06,2.52c0,0-0.83-0.01-1.73-0.01c-0.97,0-1.13,0.45-1.13,1.19c0,0.59,0-1.26,0,1.97h2.93l-0.13,2.7h-2.81V24H14.88z"/>
</g>
</svg>
