<!-- Generator: Adobe Illustrator 19.1.0, SVG Export Plug-In  -->
<svg version="1.1"
	 xmlns="http://www.w3.org/2000/svg" xmlns:xlink="http://www.w3.org/1999/xlink" xmlns:a="http://ns.adobe.com/AdobeSVGViewerExtensions/3.0/"
	 x="0px" y="0px" width="96px" height="96px" viewBox="0 0 96 96" enable-background="new 0 0 96 96" xml:space="preserve">
<defs>
</defs>
<g>
	<g>
		<path fill="#FFFFFF" d="M48,0C21.5,0,0,21.5,0,48s21.5,48,48,48s48-21.5,48-48S74.5,0,48,0z M59.9,34c1.2-0.8,2.8-0.6,3.8,0.4
			c0.3,0.2,0.5,0.5,0.6,0.8c-0.1,0.1-0.3,0.2-0.4,0.3c-2.1,1.6-4.8,2.5-7.9,2.9c0.3-0.2,0.6-0.4,0.9-0.6c1.1-0.9,1.9-2,2.6-3.2
			C59.7,34.4,59.8,34.2,59.9,34z M53.1,24.8c3.4,0,6.1,2.7,6.1,6.1c0,3.4-2.7,6.1-6.1,6.1c-3.4,0-6.1-2.7-6.1-6.1
			C47,27.5,49.7,24.8,53.1,24.8z M37.2,24.8c3.4,0,6.1,2.7,6.1,6.1c0,3.4-2.7,6.1-6.1,6.1c-3.4,0-6.1-2.7-6.1-6.1
			C31.1,27.5,33.8,24.8,37.2,24.8z M22.8,41.8c0.5-1.2,1.7-1.9,2.9-1.9c0.4,0,0.8,0.1,1.2,0.2c0.2,0.1,0.4,0.1,0.5,0.2
			c-1.5,1.2-2.7,2.9-3.8,5C22.7,44.4,22.3,43.1,22.8,41.8z M37.5,71.2C37.5,71.2,37.4,71.2,37.5,71.2c-3.6,0-6.6-2.9-6.6-6.4
			l-0.2-16.9c-2.9,4.6-3.7,13.6-3.8,16.9c0,1.7-1.4,3.1-3.1,3.1h0c-1.7,0-3.1-1.4-3.1-3.1c0-0.2,0.1-4.5,1-9.4
			c0.7-3.7,1.7-6.9,3-9.3c0.2-0.4,0.4-0.7,0.6-1.1c1-1.7,2.2-3.1,3.5-4c0,0,0,0,0,0c2.6-1.9,5.9-2.4,9.3-1.4c3.7,1.1,7.1,1.2,10,0.7
			c-1.3,0.3-2.9,0.7-4.7,0.9l-2.1,0.3l0.8,1.1c0,0,0,0,0,0c1,1.1,1.7,2.6,1.7,4.2c0,0,0,0.1,0,0.1l0,1.8l0.2,16.2
			C44,68.2,41.1,71.2,37.5,71.2z M75.2,32.4C75,32.9,72,42.8,59.5,45.5c0.1,0.4,0.1,0.8,0.1,1.2l0.2,18c0,3.6-2.8,6.6-6.4,6.6
			c0,0-0.1,0-0.1,0c-3.6,0-6.5-2.9-6.5-6.4L46.6,48c-0.5,0.1-1.1,0.2-1.6,0.3l0-1.6c0,0,0-0.1,0-0.1c0-1.6-0.6-3.1-1.5-4.4
			c4.5-0.5,7.7-1.7,8.3-2c0.4-0.2,0.9-0.3,1.3-0.3c5.4,0,9.1-1.5,11.5-3.3c3.6-2.6,4.6-5.8,4.6-5.9c0.5-1.6,2.2-2.6,3.9-2.1
			C74.7,29,75.7,30.8,75.2,32.4z"/>
	</g>
</g>
</svg>
