<!-- Generator: Adobe Illustrator 19.1.0, SVG Export Plug-In  -->
<svg version="1.1"
	 xmlns="http://www.w3.org/2000/svg" xmlns:xlink="http://www.w3.org/1999/xlink" xmlns:a="http://ns.adobe.com/AdobeSVGViewerExtensions/3.0/"
	 x="0px" y="0px" width="96px" height="96px" viewBox="0 0 96 96" enable-background="new 0 0 96 96" xml:space="preserve">
<defs>
</defs>
<g>
	<g>
		<path fill="#FFFFFF" d="M65.5,25.2c0-1.4-1.9-1.8-3.5-1.8c-3.6,0-6.3,1.6-8,3.4l0.1,0.1H62C63.6,27,65.5,26.7,65.5,25.2z M48,30.5
			L48,30.5L48,30.5L48,30.5z M30.5,25.2c0,1.4,1.9,1.8,3.5,1.8h7.7l0.2-0.3c-1.8-1.7-4.4-3.2-7.9-3.2C32.4,23.5,30.5,23.8,30.5,25.2
			z M48,0C21.5,0,0,21.5,0,48s21.5,48,48,48s48-21.5,48-48S74.5,0,48,0z M44.5,76H27c-1.9,0-3.5-1.6-3.5-3.5V48h21V76z M44.5,44.5
			H20v-7c0-1.9,1.6-3.5,3.5-3.5h21V44.5z M34,30.5c-4.8,0-7-2.4-7-5.2s2.2-5.2,7-5.2c4.5,0,8,2,10.4,4.3c1-0.6,2.2-0.9,3.5-0.9
			c1.3,0,2.5,0.4,3.6,1C53.9,22,57.5,20,62,20c4.8,0,7,2.4,7,5.2s-2.2,5.2-7,5.2H48H34z M72.5,72.5c0,1.9-1.6,3.5-3.5,3.5H51.6V48
			h20.9V72.5z M76,44.5H51.6V34h20.9c1.9,0,3.5,1.6,3.5,3.5V44.5z"/>
	</g>
</g>
</svg>
