<?xml version="1.0" encoding="utf-8"?>
<svg version="1.1" id="Capa_1" xmlns="http://www.w3.org/2000/svg" xmlns:xlink="http://www.w3.org/1999/xlink" x="0px" y="0px"
	 viewBox="0 0 32 32" style="enable-background:new 0 0 32 32;" xml:space="preserve">
		<path d="M30,2v28H2V2H30 M32,0H0v32h32V0L32,0z"/>
	<path d="M16.7,9.3c0.1,0.1,0.3,0.2,0.4,0.4c0.2,0.1,0.3,0.3,0.4,0.5c0.1,0.2,0.3,0.5,0.4,0.7c0.1,0.3,0.2,0.6,0.2,1
		c0,0.4,0,0.7-0.1,0.9c-0.1,0.3-0.2,0.5-0.4,0.7c-0.2,0.2-0.3,0.4-0.5,0.6c-0.2,0.2-0.4,0.3-0.6,0.5c-0.1,0.1-0.3,0.3-0.4,0.4
		c-0.1,0.1-0.2,0.3-0.2,0.5c0,0.2,0.1,0.4,0.2,0.5c0.1,0.1,0.2,0.2,0.3,0.3l0.7,0.5c0.2,0.2,0.4,0.4,0.6,0.5
		c0.2,0.2,0.4,0.4,0.5,0.6c0.1,0.2,0.3,0.4,0.4,0.7c0.1,0.3,0.1,0.6,0.1,0.9c0,0.4-0.1,0.9-0.3,1.3c-0.2,0.4-0.5,0.8-1,1.2
		c-0.4,0.3-1,0.6-1.6,0.8c-0.6,0.2-1.4,0.3-2.2,0.3c-0.7,0-1.3-0.1-1.8-0.2c-0.5-0.2-1-0.4-1.3-0.6c-0.3-0.3-0.6-0.5-0.8-0.9
		c-0.2-0.3-0.3-0.7-0.3-1c0-0.3,0.1-0.7,0.3-1.2c0.2-0.4,0.6-0.8,1.2-1.2c0.3-0.2,0.6-0.3,1-0.4c0.3-0.1,0.7-0.2,1-0.3
		c0.3-0.1,0.6-0.1,0.9-0.1c0.3,0,0.6,0,0.8-0.1c-0.1-0.2-0.3-0.4-0.4-0.6c-0.1-0.2-0.2-0.4-0.2-0.7c0-0.2,0-0.3,0.1-0.4
		c0-0.1,0.1-0.2,0.1-0.3c-0.1,0-0.2,0-0.3,0c-0.1,0-0.2,0-0.3,0c-0.5,0-1-0.1-1.4-0.3c-0.4-0.2-0.7-0.4-1-0.7
		c-0.3-0.3-0.5-0.6-0.6-1c-0.1-0.4-0.2-0.7-0.2-1.1c0-0.4,0.1-0.9,0.3-1.4c0.2-0.5,0.5-0.9,0.9-1.2c0.6-0.4,1.1-0.7,1.7-0.9
		c0.6-0.1,1.2-0.2,1.7-0.2h4l-1.2,0.7H16.7z M17.4,20.4c0-0.2,0-0.5-0.1-0.7c-0.1-0.2-0.2-0.4-0.4-0.6c-0.2-0.2-0.4-0.4-0.7-0.6
		c-0.3-0.2-0.6-0.4-0.9-0.7c-0.1,0-0.1,0-0.2,0c-0.1,0-0.1,0-0.2,0c0,0-0.1,0-0.3,0c-0.1,0-0.3,0-0.5,0c-0.2,0-0.4,0.1-0.6,0.1
		c-0.2,0-0.4,0.1-0.6,0.2c-0.1,0-0.2,0.1-0.4,0.2c-0.2,0.1-0.4,0.2-0.5,0.4c-0.2,0.2-0.3,0.3-0.5,0.6c-0.1,0.2-0.2,0.5-0.2,0.9
		c0,0.7,0.3,1.3,0.9,1.7c0.6,0.4,1.4,0.7,2.5,0.7c0.9,0,1.6-0.2,2.1-0.6C17.2,21.5,17.4,21,17.4,20.4z M14.6,14.8
		c0.2,0,0.5-0.1,0.7-0.2c0.2-0.1,0.4-0.2,0.6-0.4c0.2-0.2,0.4-0.5,0.4-0.7c0.1-0.3,0.1-0.5,0.1-0.7c0-0.3-0.1-0.7-0.2-1.1
		c-0.1-0.4-0.3-0.8-0.5-1.2c-0.2-0.4-0.5-0.7-0.8-0.9c-0.3-0.2-0.7-0.4-1-0.4c-0.3,0-0.5,0.1-0.8,0.2c-0.2,0.1-0.4,0.3-0.6,0.5
		c-0.2,0.2-0.3,0.4-0.3,0.7c-0.1,0.2-0.1,0.5-0.1,0.8c0,0.3,0,0.7,0.1,1.1c0.1,0.4,0.2,0.8,0.4,1.1c0.2,0.3,0.4,0.6,0.8,0.9
		C13.8,14.7,14.2,14.8,14.6,14.8z M24,15.1h-1.9v-1.9h-0.8v1.9h-1.9v0.8h1.9v1.9h0.8v-1.9H24V15.1z"/>
</svg>
