<!-- Generator: Adobe Illustrator 18.1.1, SVG Export Plug-In  -->
<svg version="1.1"
	 xmlns="http://www.w3.org/2000/svg" xmlns:xlink="http://www.w3.org/1999/xlink" xmlns:a="http://ns.adobe.com/AdobeSVGViewerExtensions/3.0/"
	 x="0px" y="0px" width="32px" height="32px" viewBox="0 0 32 32" enable-background="new 0 0 32 32" xml:space="preserve">
<defs>
</defs>
<g>
	<g>
		<path d="M30,2v28H2V2H30 M32,0H0v32h32V0L32,0z"/>
	</g>
	<path class="icono" d="M16.72,9.34c0.12,0.09,0.25,0.21,0.4,0.36c0.15,0.15,0.3,0.33,0.44,0.54c0.14,0.21,0.26,0.46,0.37,0.74
		c0.1,0.28,0.15,0.6,0.15,0.96c0,0.36-0.04,0.67-0.14,0.94c-0.09,0.27-0.21,0.51-0.36,0.72c-0.16,0.21-0.33,0.4-0.52,0.58
		c-0.19,0.17-0.39,0.34-0.6,0.49c-0.13,0.13-0.25,0.26-0.36,0.4c-0.12,0.14-0.17,0.32-0.17,0.54c0,0.22,0.06,0.39,0.17,0.51
		c0.11,0.12,0.22,0.23,0.33,0.32l0.69,0.54c0.21,0.18,0.41,0.36,0.61,0.54c0.2,0.18,0.37,0.37,0.52,0.58
		c0.15,0.21,0.27,0.44,0.36,0.69c0.09,0.26,0.14,0.55,0.14,0.89c0,0.45-0.11,0.89-0.33,1.33c-0.22,0.44-0.54,0.83-0.96,1.17
		c-0.42,0.34-0.95,0.62-1.59,0.83c-0.63,0.21-1.36,0.32-2.19,0.32c-0.69,0-1.3-0.08-1.82-0.23c-0.52-0.15-0.95-0.36-1.3-0.62
		c-0.35-0.26-0.6-0.55-0.77-0.88c-0.17-0.33-0.25-0.67-0.25-1.03c0-0.35,0.11-0.74,0.32-1.18c0.21-0.44,0.6-0.83,1.16-1.16
		c0.29-0.18,0.61-0.32,0.95-0.43c0.34-0.11,0.68-0.2,1.01-0.26c0.33-0.07,0.65-0.11,0.94-0.13c0.29-0.03,0.55-0.05,0.77-0.06
		c-0.14-0.18-0.27-0.37-0.39-0.57c-0.12-0.2-0.18-0.45-0.18-0.74c0-0.17,0.02-0.3,0.06-0.41c0.04-0.11,0.08-0.22,0.13-0.34
		c-0.1,0.01-0.21,0.02-0.31,0.03c-0.1,0.01-0.21,0.01-0.31,0.01c-0.51,0-0.97-0.09-1.37-0.26c-0.4-0.17-0.73-0.4-1-0.68
		c-0.27-0.28-0.48-0.61-0.62-0.97c-0.14-0.37-0.21-0.73-0.21-1.11c0-0.45,0.1-0.9,0.31-1.36c0.2-0.45,0.51-0.86,0.92-1.22
		c0.55-0.45,1.13-0.74,1.74-0.87c0.61-0.13,1.18-0.19,1.7-0.19h3.96l-1.23,0.67H16.72z M17.45,20.44c0-0.24-0.04-0.47-0.13-0.66
		c-0.08-0.2-0.21-0.39-0.37-0.59c-0.17-0.19-0.39-0.39-0.65-0.6c-0.27-0.21-0.58-0.44-0.94-0.69c-0.08-0.01-0.14-0.02-0.2-0.02
		c-0.06,0-0.14,0-0.24,0c-0.04,0-0.13,0-0.27,0.01c-0.14,0.01-0.31,0.02-0.5,0.04c-0.19,0.02-0.4,0.05-0.62,0.1
		c-0.22,0.05-0.43,0.1-0.64,0.16c-0.1,0.04-0.25,0.1-0.43,0.18c-0.18,0.08-0.37,0.2-0.55,0.36c-0.18,0.15-0.34,0.35-0.47,0.58
		c-0.13,0.23-0.2,0.52-0.2,0.87c0,0.69,0.3,1.26,0.91,1.69c0.61,0.44,1.43,0.65,2.47,0.65c0.92,0,1.63-0.2,2.11-0.59
		C17.21,21.54,17.45,21.05,17.45,20.44z M14.6,14.79c0.24,0,0.49-0.05,0.72-0.15c0.24-0.1,0.43-0.23,0.59-0.39
		c0.22-0.22,0.35-0.46,0.4-0.73c0.05-0.27,0.08-0.49,0.08-0.68c0-0.35-0.05-0.73-0.15-1.14c-0.1-0.41-0.26-0.8-0.46-1.16
		c-0.21-0.36-0.46-0.66-0.76-0.9c-0.3-0.24-0.65-0.36-1.05-0.36c-0.26,0-0.51,0.06-0.75,0.17c-0.24,0.12-0.44,0.27-0.6,0.46
		c-0.17,0.21-0.28,0.43-0.34,0.68c-0.06,0.24-0.09,0.5-0.09,0.75c0,0.32,0.05,0.68,0.14,1.08c0.1,0.4,0.24,0.77,0.44,1.12
		c0.2,0.35,0.45,0.64,0.75,0.88C13.83,14.67,14.19,14.79,14.6,14.79z M24.04,15.08h-1.91v-1.91h-0.81v1.91H19.4v0.81h1.91v1.91h0.81
		v-1.91h1.91V15.08z"/>
</g>
</svg>
