<!-- Generator: Adobe Illustrator 19.1.0, SVG Export Plug-In  -->
<svg version="1.1"
	 xmlns="http://www.w3.org/2000/svg" xmlns:xlink="http://www.w3.org/1999/xlink" xmlns:a="http://ns.adobe.com/AdobeSVGViewerExtensions/3.0/"
	 x="0px" y="0px" width="36px" height="36px" viewBox="0 0 36 36" enable-background="new 0 0 36 36" xml:space="preserve">
<defs>
</defs>
<g>
	<g>
		<g>
			<g>
				<path fill="#3C342A" d="M33.5,23c0-2-0.9-3.8-2.3-5.1C31.1,17.9,31,18,31,18v10c0,0.1,0.1,0.1,0.2,0.1
					C32.6,26.9,33.5,25,33.5,23z"/>
				<path fill="#3C342A" d="M30.3,28.4V17.6c0-0.1-0.1-0.3-0.2-0.4c-0.8-0.4-1.6-0.7-2.5-0.8c-0.2,0-0.3,0.1-0.3,0.3v12.7
					c0,0.2,0.1,0.3,0.3,0.3c0.9-0.1,1.7-0.4,2.5-0.8C30.2,28.7,30.3,28.6,30.3,28.4z"/>
				<path fill="#3C342A" d="M23.7,17.4v11.2c0,0.2,0.1,0.3,0.2,0.4c0.8,0.4,1.6,0.6,2.5,0.7c0.2,0,0.3-0.1,0.3-0.3V16.7
					c0-0.2-0.1-0.3-0.3-0.3c-0.9,0.1-1.7,0.3-2.5,0.7C23.7,17.1,23.7,17.3,23.7,17.4z"/>
				<path fill="#3C342A" d="M20.2,23c0,2.2,1,4.1,2.7,5.3c0.1,0,0.2,0,0.2-0.1V17.8c0-0.1-0.1-0.1-0.2-0.1
					C21.2,18.9,20.2,20.8,20.2,23z"/>
			</g>
			<g>
				<path fill="#3C342A" d="M25.1,15.7L25,15.4c0-0.1-0.1-0.2-0.2-0.1c-1.1,0.3-2.2,0.8-3.1,1.6c-0.1,0.1-0.1,0.2,0,0.3l0.2,0.2
					c0.1,0.1,0.2,0.1,0.2,0c0.8-0.7,1.8-1.2,2.8-1.5C25,15.9,25.1,15.8,25.1,15.7z"/>
				<path fill="#3C342A" d="M21.4,17.8l-0.2-0.2c-0.1-0.1-0.2-0.1-0.3,0c-0.8,0.9-1.4,1.9-1.7,3c0,0.1,0,0.2,0.1,0.2l0.3,0.1
					c0.1,0,0.2,0,0.2-0.1c0.3-1,0.9-2,1.6-2.7C21.5,18,21.5,17.9,21.4,17.8z"/>
				<path fill="#3C342A" d="M29.3,15.9l0.1-0.3c0-0.1,0-0.2-0.1-0.2c-1.1-0.4-2.3-0.5-3.5-0.3c-0.1,0-0.2,0.1-0.2,0.2v0.3
					c0,0.1,0.1,0.2,0.2,0.2c1.1-0.1,2.1,0,3.2,0.3C29.2,16.1,29.3,16,29.3,15.9z"/>
				<path fill="#3C342A" d="M34.3,22.3h0.3c0.1,0,0.2-0.1,0.2-0.2c-0.1-1.2-0.5-2.3-1.1-3.3c-0.1-0.1-0.2-0.1-0.3-0.1l-0.3,0.2
					c-0.1,0.1-0.1,0.2,0,0.3c0.6,0.9,0.9,1.9,1,3C34.1,22.3,34.2,22.3,34.3,22.3z"/>
				<path fill="#3C342A" d="M32.7,18.4l0.2-0.2c0.1-0.1,0.1-0.2,0-0.3c-0.7-0.9-1.7-1.6-2.7-2.2c-0.1,0-0.2,0-0.2,0.1l-0.1,0.3
					c0,0.1,0,0.2,0.1,0.2c1,0.5,1.8,1.1,2.5,2C32.6,18.4,32.7,18.5,32.7,18.4z"/>
				<path fill="#3C342A" d="M30.5,29.6l0.2,0.3C30.8,30,30.9,30,31,30c1-0.6,1.9-1.4,2.5-2.4c0.1-0.1,0-0.2-0.1-0.3l-0.3-0.2
					c-0.1-0.1-0.2,0-0.2,0.1c-0.6,0.9-1.4,1.6-2.3,2.2C30.5,29.4,30.5,29.5,30.5,29.6z"/>
				<path fill="#3C342A" d="M34.1,23.2c0,1.1-0.3,2.1-0.7,3.1c0,0.1,0,0.2,0.1,0.2l0.3,0.1c0.1,0,0.2,0,0.2-0.1
					c0.5-1,0.8-2.4,0.8-3.4c0-0.1-0.1-0.2-0.2-0.2h-0.3C34.2,23,34.1,23.1,34.1,23.2z"/>
				<path fill="#3C342A" d="M26.4,30.5v0.3c0,0.1,0.1,0.2,0.2,0.2c1.2,0,2.3-0.2,3.4-0.6c0.1,0,0.1-0.2,0.1-0.2L30,29.9
					c0-0.1-0.1-0.1-0.2-0.1c-0.9,0.4-2,0.6-3.1,0.6C26.5,30.4,26.4,30.4,26.4,30.5z"/>
				<path fill="#3C342A" d="M22.3,29.6c1,0.7,2.1,1.1,3.2,1.3c0.1,0,0.2-0.1,0.2-0.2v-0.3c0-0.1-0.1-0.2-0.1-0.2
					c-1.1-0.2-2.1-0.6-2.9-1.2c-0.1-0.1-0.2,0-0.2,0l-0.2,0.2C22.2,29.5,22.2,29.6,22.3,29.6z"/>
				<path fill="#3C342A" d="M19.5,23c0-0.4,0-0.8,0.1-1.3c0-0.1,0-0.2-0.1-0.2l-0.3-0.1c-0.1,0-0.2,0-0.2,0.1
					c-0.1,0.5-0.1,0.9-0.1,1.4c0,0.7,0.1,1.4,0.3,2.1c0,0.1,0.1,0.2,0.2,0.1l0.3-0.1c0.1,0,0.1-0.1,0.1-0.2
					C19.5,24.3,19.5,23.7,19.5,23z"/>
				<path fill="#3C342A" d="M19.8,25.8l-0.3,0.1c-0.1,0-0.1,0.1-0.1,0.2c0.5,1.1,1.1,2,2,2.8c0.1,0.1,0.2,0.1,0.3,0l0.2-0.2
					c0.1-0.1,0.1-0.2,0-0.2c-0.8-0.7-1.4-1.6-1.8-2.6C20,25.8,19.9,25.7,19.8,25.8z"/>
			</g>
		</g>
		<path fill="#3C342A" d="M26.8,31.9c-2,0-3.8-0.6-5.3-1.5c-0.1-0.1-0.3,0-0.4,0.1l-2.2,5.1C18.8,35.8,19,36,19.2,36h1.9
			c0.1,0,0.2,0,0.3-0.1c1.6-1.6,3.8-2.5,6.2-2.2c1.8,0.2,3.4,1,4.7,2.2c0.1,0.1,0.2,0.1,0.3,0.1h2c0.2,0,0.4-0.2,0.3-0.4l-2.2-5.1
			c-0.1-0.1-0.2-0.2-0.4-0.1C30.6,31.4,28.8,31.9,26.8,31.9z"/>
		<g>
			<g>
				<path fill="#3C342A" d="M15.9,23c0-2-0.9-3.8-2.3-5.1c-0.1-0.1-0.2,0-0.2,0.1v10c0,0.1,0.1,0.1,0.2,0.1C15,26.9,15.9,25,15.9,23
					z"/>
				<path fill="#3C342A" d="M12.7,28.4V17.6c0-0.1-0.1-0.3-0.2-0.4c-0.8-0.4-1.6-0.7-2.5-0.8c-0.2,0-0.3,0.1-0.3,0.3v12.7
					c0,0.2,0.1,0.3,0.3,0.3c0.9-0.1,1.7-0.4,2.5-0.8C12.6,28.7,12.7,28.6,12.7,28.4z"/>
				<path fill="#3C342A" d="M6.1,17.4v11.2c0,0.2,0.1,0.3,0.2,0.4c0.8,0.4,1.6,0.6,2.5,0.7c0.2,0,0.3-0.1,0.3-0.3V16.7
					c0-0.2-0.1-0.3-0.3-0.3c-0.9,0.1-1.7,0.3-2.5,0.7C6.1,17.1,6.1,17.3,6.1,17.4z"/>
				<path fill="#3C342A" d="M2.6,23c0,2.2,1,4.1,2.7,5.3c0.1,0,0.2,0,0.2-0.1V17.8c0-0.1-0.1-0.1-0.2-0.1C3.6,18.9,2.6,20.8,2.6,23z
					"/>
			</g>
			<g>
				<path fill="#3C342A" d="M7.5,15.7l-0.1-0.3c0-0.1-0.1-0.2-0.2-0.1c-1.1,0.3-2.2,0.8-3.1,1.6c-0.1,0-0.1,0.1,0,0.2l0.2,0.2
					c0.1,0.1,0.2,0.1,0.2,0c0.8-0.7,1.8-1.2,2.8-1.5C7.4,15.9,7.5,15.8,7.5,15.7z"/>
				<path fill="#3C342A" d="M3.8,17.8l-0.2-0.2c-0.1-0.1-0.2-0.1-0.3,0c-0.8,0.9-1.4,1.9-1.7,3c0,0.1,0,0.2,0.1,0.2L2,20.9
					c0.1,0,0.2,0,0.2-0.1c0.3-1,0.9-2,1.6-2.7C3.9,18,3.9,17.9,3.8,17.8z"/>
				<path fill="#3C342A" d="M11.7,15.9l0.1-0.3c0-0.1,0-0.2-0.1-0.2c-1.1-0.4-2.3-0.5-3.5-0.3c-0.1,0-0.2,0.1-0.2,0.2v0.3
					c0,0.1,0.1,0.2,0.2,0.2c1.1-0.1,2.1,0,3.2,0.3C11.6,16.1,11.7,16,11.7,15.9z"/>
				<path fill="#3C342A" d="M16.7,22.3H17c0.1,0,0.2-0.1,0.2-0.2c-0.1-1.2-0.5-2.3-1.1-3.3c-0.1-0.1-0.2-0.1-0.3-0.1l-0.3,0.2
					c-0.1,0.1-0.1,0.2-0.1,0.2c0.6,0.9,0.9,1.9,1,3C16.5,22.3,16.6,22.3,16.7,22.3z"/>
				<path fill="#3C342A" d="M15.2,18.4l0.2-0.2c0.1-0.1,0.1-0.2,0-0.3c-0.7-0.9-1.7-1.6-2.7-2.2c-0.1,0-0.2,0-0.2,0.1l-0.1,0.3
					c0,0.1,0,0.2,0.1,0.2c1,0.5,1.8,1.1,2.5,2C15,18.4,15.1,18.5,15.2,18.4z"/>
				<path fill="#3C342A" d="M12.9,29.6l0.2,0.3c0.1,0.1,0.2,0.1,0.3,0.1c1-0.6,1.9-1.4,2.5-2.4c0.1-0.1,0-0.2-0.1-0.3l-0.3-0.2
					c-0.1-0.1-0.2,0-0.2,0.1c-0.6,0.9-1.4,1.6-2.3,2.2C12.9,29.4,12.9,29.5,12.9,29.6z"/>
				<path fill="#3C342A" d="M16.6,23.2c0,1.1-0.3,2.1-0.7,3.1c0,0.1,0,0.2,0.1,0.2l0.3,0.1c0.1,0,0.2,0,0.2-0.1
					c0.5-1,0.8-2.4,0.8-3.4c0-0.1-0.1-0.2-0.2-0.2h-0.3C16.6,23,16.6,23.1,16.6,23.2z"/>
				<path fill="#3C342A" d="M8.8,30.5v0.3C8.8,30.9,8.9,31,9,31c1.2,0,2.3-0.2,3.4-0.6c0.1,0,0.1-0.2,0.1-0.2l-0.1-0.3
					c0-0.1-0.1-0.1-0.2-0.1c-0.9,0.4-2,0.6-3.1,0.6C8.9,30.4,8.8,30.4,8.8,30.5z"/>
				<path fill="#3C342A" d="M4.7,29.6c1,0.7,2.1,1.1,3.2,1.3c0.1,0,0.2-0.1,0.2-0.2v-0.3c0-0.1-0.1-0.2-0.1-0.2
					C6.9,30,5.9,29.6,5.1,29c-0.1-0.1-0.2,0-0.2,0l-0.2,0.2C4.6,29.5,4.6,29.6,4.7,29.6z"/>
				<path fill="#3C342A" d="M1.9,23c0-0.4,0-0.8,0.1-1.3c0-0.1,0-0.2-0.1-0.2l-0.3-0.1c-0.1,0-0.2,0-0.2,0.1
					c-0.1,0.5-0.1,0.9-0.1,1.4c0,0.7,0.1,1.4,0.3,2.1c0,0.1,0.1,0.2,0.2,0.1L2,25.2c0.1,0,0.1-0.1,0.1-0.2C2,24.3,1.9,23.7,1.9,23z"
					/>
				<path fill="#3C342A" d="M2.2,25.8l-0.3,0.1c-0.1,0-0.1,0.1-0.1,0.2c0.5,1.1,1.1,2,2,2.8C3.9,29,4,29,4.1,29l0.2-0.2
					c0.1-0.1,0.1-0.2,0-0.2C3.5,27.9,2.9,27,2.5,26C2.4,25.8,2.3,25.7,2.2,25.8z"/>
			</g>
		</g>
		<g>
			<g>
				<path fill="#3C342A" d="M24.7,8c0-2-0.9-3.8-2.3-5.1c-0.1-0.1-0.2,0-0.2,0.1v10c0,0.1,0.1,0.1,0.2,0.1C23.8,11.9,24.7,10,24.7,8
					z"/>
				<path fill="#3C342A" d="M21.5,13.4V2.6c0-0.1-0.1-0.3-0.2-0.4c-0.8-0.4-1.6-0.7-2.5-0.8c-0.2,0-0.3,0.1-0.3,0.3v12.7
					c0,0.2,0.1,0.3,0.3,0.3c0.9-0.1,1.7-0.4,2.5-0.8C21.4,13.7,21.5,13.6,21.5,13.4z"/>
				<path fill="#3C342A" d="M14.9,2.4v11.2c0,0.2,0.1,0.3,0.2,0.4c0.8,0.4,1.6,0.6,2.5,0.7c0.2,0,0.3-0.1,0.3-0.3V1.6
					c0-0.2-0.1-0.3-0.3-0.3c-0.9,0.1-1.7,0.3-2.5,0.7C14.9,2.1,14.9,2.3,14.9,2.4z"/>
				<path fill="#3C342A" d="M11.4,8c0,2.2,1,4.1,2.7,5.3c0.1,0,0.2,0,0.2-0.1V2.8c0-0.1-0.1-0.1-0.2-0.1C12.4,3.9,11.4,5.8,11.4,8z"
					/>
			</g>
			<g>
				<path fill="#3C342A" d="M16.3,0.7l-0.1-0.3c0-0.1-0.1-0.2-0.2-0.1c-1.1,0.3-2.2,0.8-3.1,1.6c-0.1,0.1-0.1,0.2,0,0.3l0.2,0.2
					c0.1,0.1,0.2,0.1,0.2,0c0.8-0.7,1.8-1.2,2.8-1.5C16.2,0.9,16.3,0.8,16.3,0.7z"/>
				<path fill="#3C342A" d="M12.6,2.8l-0.2-0.2c-0.1-0.1-0.2-0.1-0.3,0c-0.8,0.9-1.4,1.9-1.7,3c0,0.1,0,0.2,0.1,0.2l0.3,0.1
					c0.1,0,0.2,0,0.2-0.1c0.3-1,0.9-2,1.6-2.7C12.7,3,12.7,2.9,12.6,2.8z"/>
				<path fill="#3C342A" d="M20.5,0.9l0.1-0.3c0-0.1,0-0.2-0.1-0.2C19.4,0,18.2-0.1,17,0.1c-0.1,0-0.2,0.1-0.2,0.2v0.3
					c0,0.1,0.1,0.2,0.2,0.2c1.1-0.1,2.1,0,3.2,0.3C20.4,1.1,20.5,1,20.5,0.9z"/>
				<path fill="#3C342A" d="M25.5,7.3h0.3c0.1,0,0.2-0.1,0.2-0.2c-0.1-1.2-0.5-2.3-1.1-3.3c-0.1-0.1-0.2-0.1-0.3-0.1l-0.3,0.2
					c-0.1,0.1-0.1,0.2-0.1,0.2c0.6,0.9,0.9,1.9,1,3C25.3,7.3,25.4,7.3,25.5,7.3z"/>
				<path fill="#3C342A" d="M24,3.4l0.2-0.2c0.1-0.1,0.1-0.2,0-0.3c-0.7-0.9-1.7-1.6-2.7-2.2c-0.1,0-0.2,0-0.2,0.1l-0.1,0.3
					c0,0.1,0,0.2,0.1,0.2c1,0.5,1.8,1.1,2.5,2C23.8,3.4,23.9,3.4,24,3.4z"/>
				<path fill="#3C342A" d="M21.7,14.6l0.2,0.3C22,15,22.1,15,22.2,15c1-0.6,1.9-1.4,2.5-2.4c0.1-0.1,0-0.2-0.1-0.3l-0.3-0.2
					c-0.1-0.1-0.2,0-0.2,0.1c-0.6,0.9-1.4,1.6-2.3,2.2C21.7,14.4,21.7,14.5,21.7,14.6z"/>
				<path fill="#3C342A" d="M25.3,8.2c0,1.1-0.3,2.1-0.7,3.1c0,0.1,0,0.2,0.1,0.2l0.3,0.1c0.1,0,0.2,0,0.2-0.1
					c0.5-1,0.8-2.4,0.8-3.4c0,0-0.1-0.1-0.2-0.1h-0.3C25.4,8,25.3,8.1,25.3,8.2z"/>
				<path fill="#3C342A" d="M17.6,15.5v0.3c0,0.1,0.1,0.2,0.2,0.2c1.2,0,2.3-0.2,3.4-0.6c0.1,0,0.1-0.2,0.1-0.2l-0.1-0.3
					c0-0.1-0.1-0.1-0.2-0.1c-0.9,0.4-2,0.6-3.1,0.6C17.7,15.4,17.6,15.4,17.6,15.5z"/>
				<path fill="#3C342A" d="M13.5,14.6c1,0.7,2.1,1.1,3.2,1.3c0.1,0,0.2-0.1,0.2-0.2v-0.3c0-0.1-0.1-0.2-0.1-0.2
					c-1.1-0.2-2.1-0.6-2.9-1.2c-0.1-0.1-0.2,0-0.2,0l-0.2,0.2C13.4,14.5,13.4,14.6,13.5,14.6z"/>
				<path fill="#3C342A" d="M10.7,8c0-0.4,0-0.8,0.1-1.3c0-0.1,0-0.2-0.1-0.2l-0.3-0.1c-0.1,0-0.2,0-0.2,0.1C10,7.1,10,7.6,10,8
					c0,0.7,0.1,1.4,0.3,2.1c0,0.1,0.1,0.2,0.2,0.1l0.3-0.1c0.1,0,0.1-0.1,0.1-0.2C10.7,9.3,10.7,8.7,10.7,8z"/>
				<path fill="#3C342A" d="M11,10.8l-0.3,0.1c-0.1,0-0.1,0.1-0.1,0.2c0.5,1.1,1.1,2,2,2.8c0.1,0.1,0.2,0.1,0.3,0l0.2-0.2
					c0.1-0.1,0.1-0.2,0-0.2c-0.8-0.7-1.4-1.6-1.8-2.6C11.2,10.8,11.1,10.7,11,10.8z"/>
			</g>
		</g>
		<path fill="#3C342A" d="M9.2,31.9c-2,0-3.8-0.6-5.3-1.5c-0.1-0.1-0.3,0-0.4,0.1l-2.2,5.1c-0.1,0.2,0,0.4,0.3,0.4h1.9
			c0.1,0,0.2,0,0.3-0.1c1.6-1.6,3.8-2.5,6.2-2.2c1.8,0.2,3.4,1,4.7,2.2C14.8,36,14.9,36,15,36h2c0.2,0,0.4-0.2,0.3-0.4l-2.2-5.1
			c-0.1-0.1-0.2-0.2-0.4-0.1C13,31.4,11.2,31.9,9.2,31.9z"/>
	</g>
	<rect y="0" fill="none" width="36" height="36"/>
</g>
</svg>
