<!-- Generator: Adobe Illustrator 18.1.1, SVG Export Plug-In  -->
<svg version="1.1"
	 xmlns="http://www.w3.org/2000/svg" xmlns:xlink="http://www.w3.org/1999/xlink" xmlns:a="http://ns.adobe.com/AdobeSVGViewerExtensions/3.0/"
	 x="0px" y="0px" width="32px" height="32px" viewBox="0 0 32 32" enable-background="new 0 0 32 32" xml:space="preserve">
<defs>
</defs>
<g>
	<g>
		<path d="M30,2v28H2V2H30 M32,0H0v32h32V0L32,0z"/>
	</g>
	<path class="icono" d="M22.74,8.46H9.83c-0.85,0-1.54,0.69-1.54,1.54v10.24c0,0.85,0.69,1.54,1.54,1.54h12.91
		c0.85,0,1.54-0.69,1.54-1.54V10C24.29,9.15,23.6,8.46,22.74,8.46z M21.36,10.46l-5.07,5.15l-5.07-5.15H21.36z M10.29,19.79v-8.37
		l5.53,5.61c0.13,0.13,0.3,0.2,0.47,0.2c0.18,0,0.35-0.07,0.47-0.2l5.53-5.6v8.37H10.29z"/>
</g>
</svg>
