<!-- Generator: Adobe Illustrator 19.1.0, SVG Export Plug-In  -->
<svg version="1.1"
	 xmlns="http://www.w3.org/2000/svg" xmlns:xlink="http://www.w3.org/1999/xlink" xmlns:a="http://ns.adobe.com/AdobeSVGViewerExtensions/3.0/"
	 x="0px" y="0px" width="168.5px" height="43.3px" viewBox="0 0 168.5 43.3" enable-background="new 0 0 168.5 43.3"
	 xml:space="preserve">
<defs>
</defs>
<path d="M48,24.7c0.4-0.3,1.2-1,1.7-0.2c0.5,0.8,0,2-0.7,2.2c-0.7,0.2,0.7-0.5-4.2,2C40,31.3,34,34.2,30.7,33.1
	c-3.3-1.1-2.8-5.4-2.8-5.4s-4.5,6.2-6.6,5.6c-2.6-0.7-2.3-4.8-2.4-6.9c-0.1-2.1,0.6-9.8,0.6-9.8s0.2-1-0.9,1.7
	C17,22.2,11.3,32.2,11,32.8c-0.4,0.6-0.7,0.6-1.3,0.7c-0.6,0.1-0.4-0.9-0.4-1.1c0-0.2,1.2-5,2.7-15.8c1.5-10.8,1.3-13,1.2-13.5
	c0-0.5,0-1.7-2.4,2.9c-2.4,4.6-5.5,14.8-5.6,15.2C5,21.6,2,31.4,2,31.4s-0.7,2.6-1.5,2.3c-1.1-0.5-0.2-3,0.6-5.4
	c0.7-2.2,2-6,2.2-6.8l0,0c0.5-1.6,1.3-6.2-0.7-7.2c-0.4-0.2-0.5-0.6-0.3-0.9c0.2-0.3,0.3-0.9,0.7-0.8c1.2,0.6,2.3,1.4,2.5,2.6
	C6.8,11.6,9.8,3.2,12.1,1c2.9-2.7,2.6,2.5,2.3,7.7c-0.3,5.2-2.4,16.5-2.6,18.6c-0.2,2,7.5-13.9,7.9-15c0.2-0.5,0.3-1.1,1.2-0.6
	c0.6,0.4,0.4,1.1,0.4,2.1C21.3,15.3,21,17,21,17s-1.4,13.6,0.6,14.4c2,0.8,6.7-7.7,7-8.1c0.3-0.4,0.2-1.6,1.2-1.5
	c1,0.1,0.9,1.8,0.5,2.3c-0.4,0.5-0.8,2.2-0.9,3.2c-0.2,1-0.9,6.5,7.7,3.2C45.7,27.1,47.6,25,48,24.7 M167.9,21.9
	c0.5,0.5,0.9,0.5,0.2,1.1c-0.6,0.5-5,5.4-13.6,4.3c0,0-2.8,6.8-5.8,6.3c-2.6-0.5-1.4-6.3-1.4-6.3c-1.4,0.8-12.5,7-14.5,6.2
	c-2-0.8-1.1-7.8-1.1-7.8c-3.3,3.6-11.7,6.8-12.8,7.2c-1.1,0.3-2.1,0.7-2.5,0.1c-0.4-0.6-0.2-1.1,0.7-1.5c1-0.5,4.6-3.5,3.9-6
	c-0.7-2.4-5.2,4.3-5.2,4.3s-2.4,3.7-3.3,3.7c-0.9,0-0.6-1.1-0.6-1.1l0.9-4.5c0-0.2,0.1-0.4,0.1-0.6c-2.1,2.2-6.9,5.5-10.9,5.4
	c-4.7-0.1-5.2-3.6-5.2-3.6c-12.3,7.4-10.5-0.9-10.5-0.9s-2.6,6.2-6.8,5.3c-4.2-0.9-1.5-8.2-1.5-8.2c-4.7,2.1-10.8,3-11.6,3.1
	c-0.9,0.1-0.8-0.9-0.7-1.5c0-0.6,3.2-0.6,4.8-1c1.6-0.5,3.5-2.9,3.5-2.9c6.2-9.7,4-20.4-0.7-16C69.1,10.7,63,28.7,63,28.7
	s-2.1,14.6-4.3,14.7c-2.2,0.1,2.9-14.6,2.9-14.6s2.6-15.5,3.3-20.8c0.7-5.3,0.9-6.3,0.9-6.3s0.1-1.2,0.9-1.2c0.8,0,0.8,0.7,0.6,2
	c-0.2,1.3-2.6,15.9-2.8,17.6c-0.2,1.7,0,1.2,0.3,0.6C65,19.9,71.2,1.9,76.3,3.1c5.1,1.3,3.5,16.1-1.5,21.2c0,0-0.2,0.4,0.2,0.2
	c0.5-0.2,2.7-1.3,4.4-2.8c1.7-1.5,1.9,0.4,1.3,1.9c-0.6,1.5-3.3,7.5-0.3,7.7c3,0.2,5.3-5.4,5.7-6.6c0.4-1.2,2-1.7,1.9-0.9
	c0,0.8-0.7,5.3,0.6,5.9c1.4,0.7,3.3,0.1,7.9-2.4c0,0,0-2.6,2.3-4.7c2.3-2.1,7.3-0.4,2.9,3.5c-1.5,1.2-3.6,2.2-3.6,2.2s0,2.7,4.6,2.7
	c4,0,8.6-4.3,11.1-7.4c0.1-0.5,0.3-1.3,0.3-1.3c0.9-3.1,4.2-14.9,6.1-19c2.2-4.7,3.4-2.7,3.7-1.5c0.3,1.2-1.7,11.5-8.9,23.2
	l-0.9,3.5c0,0-0.6,1.9,0.5,0.5c1.1-1.4,4.7-7.3,7-5.2c2.3,2-0.7,6.4-0.7,6.4s3.6-0.6,11.1-6.6c0,0,2.6-12.8,5-18.7
	c2.5-5.9,3.9-5.6,3.8-3.3c-0.1,2.3-0.6,13.3-7.5,23.4c0,0-1.3,7.3,0.2,6.9c1.5-0.4,10.4-3.8,14.2-6.8c0,0,3-3.5,3.9-2.5
	c0.9,0.9-2.7,3.8-2.7,3.8s-1.5,5.2,0,5.4c1.5,0.2,3.7-3.9,3.9-4.3c0,0-1.4-1.8,0-2.6c1.5-0.7,1.8,1.1,5.5,0.8
	c3.6-0.3,7.6-3.2,8.1-3.5C167,21.8,167.4,21.4,167.9,21.9 M139.5,3.3c0.2-3.1-4.9,13.5-5.3,17c0,0,0,0.3,0.3-0.3
	C134.8,19.4,138.8,11.8,139.5,3.3 M101.6,23.3c-0.4-0.8-3.7,1.7-3.6,3.3C98,26.7,102.2,24.5,101.6,23.3 M121.2,4.6
	c-1.4,4.1-4.8,14.3-4.5,14.6c0,0,3.2-5.2,4.9-11.2C123.1,2.1,122.6,0.5,121.2,4.6 M31.9,16.7c0.5,0,0.5-0.8,0.7-1.6
	c0.2-0.8-1.3-0.9-1.7-0.8c-0.4,0.1-0.5,1.8-0.5,1.8C30.3,16.9,31.4,16.7,31.9,16.7"/>
</svg>
