<!-- Generator: Adobe Illustrator 18.1.1, SVG Export Plug-In  -->
<svg version="1.1"
	 xmlns="http://www.w3.org/2000/svg" xmlns:xlink="http://www.w3.org/1999/xlink" xmlns:a="http://ns.adobe.com/AdobeSVGViewerExtensions/3.0/"
	 x="0px" y="0px" width="38.13px" height="44px" viewBox="0 0 38.13 44" enable-background="new 0 0 38.13 44" xml:space="preserve"
	>
<defs>
</defs>
<g>
	<path fill="#FFFFFF" d="M19.06,6.83C8.8,6.83,0.48,15.15,0.48,25.42C0.48,35.68,8.8,44,19.06,44s18.58-8.32,18.58-18.58
		C37.65,15.15,29.33,6.83,19.06,6.83z M31,36.56l-2.18-2.18c-0.11-0.11-0.25-0.16-0.4-0.16c-0.14,0-0.29,0.05-0.4,0.16
		c-0.22,0.22-0.22,0.57,0,0.79l2.18,2.18c-2.79,2.61-6.5,4.25-10.59,4.39v-3.1c0-0.31-0.25-0.56-0.56-0.56
		c-0.31,0-0.56,0.25-0.56,0.56v3.1c-4.08-0.14-7.79-1.78-10.59-4.39l2.18-2.18c0.22-0.22,0.22-0.57,0-0.79
		c-0.22-0.22-0.57-0.22-0.79,0l-2.18,2.18c-2.61-2.79-4.25-6.5-4.39-10.59h3.1c0.31,0,0.56-0.25,0.56-0.56
		c0-0.31-0.25-0.56-0.56-0.56h-3.1c0.14-4.08,1.78-7.79,4.39-10.59l2.18,2.18c0.11,0.11,0.25,0.16,0.4,0.16
		c0.14,0,0.29-0.05,0.4-0.16c0.22-0.22,0.22-0.57,0-0.79l-2.18-2.18c2.92-2.73,6.84-4.41,11.15-4.41c9.01,0,16.34,7.33,16.34,16.34
		C35.41,29.72,33.73,33.64,31,36.56z"/>
	<path fill="#FFFFFF" d="M32.3,24.24h1.41c-0.24-3.08-1.46-6-3.46-8.36l-0.99,0.99c-0.22,0.22-0.52,0.34-0.83,0.34
		c-0.31,0-0.61-0.12-0.83-0.34c-0.22-0.22-0.34-0.52-0.34-0.83c0-0.31,0.12-0.61,0.34-0.83l1-1c-2.35-2-5.28-3.22-8.36-3.46v1.41
		c0,0.42-0.22,0.79-0.56,1l0,11.83l13.12,5.64c0.5-1.3,0.8-2.66,0.91-4.06H32.3c-0.65,0-1.17-0.53-1.17-1.17
		C31.13,24.77,31.65,24.24,32.3,24.24z"/>
	<path fill="#FFFFFF" d="M16.56,5.97h5c1.65,0,2.99-1.34,2.99-2.99S23.21,0,21.56,0h-5c-1.65,0-2.99,1.34-2.99,2.99
		S14.92,5.97,16.56,5.97z"/>
	<path fill="#FFFFFF" d="M34.34,13.12c0.43,0.42,0.99,0.62,1.55,0.62c0.59,0,1.18-0.23,1.62-0.69c0.86-0.89,0.83-2.31-0.06-3.17
		l-3.61-3.46c-0.89-0.86-2.31-0.83-3.17,0.06c-0.86,0.89-0.83,2.31,0.06,3.17L34.34,13.12z"/>
	<path fill="#FFFFFF" d="M2.24,13.75c0.56,0,1.12-0.21,1.55-0.62L7.4,9.66C8.29,8.8,8.32,7.39,7.46,6.49S5.19,5.57,4.29,6.43
		L0.69,9.89c-0.89,0.86-0.92,2.27-0.06,3.17C1.06,13.52,1.65,13.75,2.24,13.75z"/>
</g>
</svg>
