<!-- Generator: Adobe Illustrator 19.1.0, SVG Export Plug-In  -->
<svg version="1.1"
	 xmlns="http://www.w3.org/2000/svg" xmlns:xlink="http://www.w3.org/1999/xlink" xmlns:a="http://ns.adobe.com/AdobeSVGViewerExtensions/3.0/"
	 x="0px" y="0px" width="96px" height="96px" viewBox="0 0 96 96" enable-background="new 0 0 96 96" xml:space="preserve">
<defs>
</defs>
<g>
	<g>
		<path fill="#FFFFFF" d="M37.8,50.6v8.1c2.2-0.6,3.4-2,3.4-3.9v-0.2C41.1,52.6,40.3,51.3,37.8,50.6z M30,41v0.2c0,2,0.8,3.3,4,4
			v-8.1C31.5,37.5,30,39,30,41z M55.1,41v0.2c0,2,0.8,3.3,4,4v-8.1C56.7,37.5,55.1,39,55.1,41z M48,0C21.5,0,0,21.5,0,48
			s21.5,48,48,48s48-21.5,48-48S74.5,0,48,0z M46.9,54.5c0,4.9-3.3,8.1-9.1,8.7v2c0,0.4-0.3,0.7-0.7,0.7h-2.4
			c-0.4,0-0.7-0.3-0.7-0.7v-1.9c-6.3-0.4-9.8-3.5-10-9.8c0-0.4,0.3-0.7,0.7-0.7l4.3,0c0.4,0,0.6,0.3,0.7,0.6c0.2,3.3,1.8,5,4.4,5.3
			v-9c-6.7-0.9-9.7-3.4-9.7-8.2v-0.4c0-4.9,3.6-8.1,9.7-8.6v-2c0-0.4,0.3-0.7,0.7-0.7h2.4c0.4,0,0.7,0.3,0.7,0.7v2
			c5.5,0.6,8.6,3.6,8.8,10.1c0,0.4-0.3,0.7-0.7,0.7l-4.3,0c-0.4,0-0.6-0.3-0.7-0.6c-0.1-3.1-1.1-4.8-3.2-5.5v8.5
			c6.2,1,9.1,3.4,9.1,8.2V54.5z M72.1,54.5c0,4.9-3.3,8.1-9.1,8.7v2c0,0.4-0.3,0.7-0.7,0.7h-2.4c-0.4,0-0.7-0.3-0.7-0.7v-1.9
			c-6.3-0.4-9.8-3.5-10-9.8c0-0.4,0.3-0.7,0.7-0.7l4.3,0c0.4,0,0.6,0.3,0.7,0.6c0.2,3.3,1.8,5,4.4,5.3v-9c-6.7-0.9-9.7-3.4-9.7-8.2
			v-0.4c0-4.9,3.6-8.1,9.7-8.6v-2c0-0.4,0.3-0.7,0.7-0.7h2.4c0.4,0,0.7,0.3,0.7,0.7v2c5.5,0.6,8.6,3.6,8.8,10.1
			c0,0.4-0.3,0.7-0.7,0.7l-4.3,0c-0.4,0-0.6-0.3-0.7-0.6c-0.1-3.1-1.1-4.8-3.2-5.5v8.5c6.2,1,9.1,3.4,9.1,8.2V54.5z M63,50.6v8.1
			c2.2-0.6,3.4-2,3.4-3.9v-0.2C66.3,52.6,65.4,51.3,63,50.6z"/>
	</g>
</g>
</svg>
