<!-- Generator: Adobe Illustrator 19.1.0, SVG Export Plug-In  -->
<svg version="1.1"
	 xmlns="http://www.w3.org/2000/svg" xmlns:xlink="http://www.w3.org/1999/xlink" xmlns:a="http://ns.adobe.com/AdobeSVGViewerExtensions/3.0/"
	 x="0px" y="0px" width="96px" height="96px" viewBox="0 0 96 96" enable-background="new 0 0 96 96" xml:space="preserve">
<defs>
</defs>
<g>
	<g>
		<path fill="#FFFFFF" d="M48,0L48,0C21.5,0,0,21.5,0,48l0,0c0,26.5,21.5,48,48,48l0,0c26.5,0,48-21.5,48-48l0,0
			C96,21.5,74.5,0,48,0z M72.7,41v5.3h-7.1l0.1-0.1l4.9-7.3C71.7,38.9,72.7,39.9,72.7,41z M67.5,20.5c1-0.3,2.1,0.4,2.4,1.4l1.4,5.3
			l-2,0.5l-6.7-6L67.5,20.5z M62.9,38.9L58,46.2l-0.1,0.1h-7.8l0.1-0.1l4.9-7.3H62.9z M55.1,23.6l6.7,6l-7.6,1.9l-6.7-6L55.1,23.6z
			 M40.1,27.4l6.7,6l-7.6,1.9l-6.7-6L40.1,27.4z M47.5,38.9l-4.9,7.3l-0.1,0.1h-7.8l0.1-0.1l4.9-7.3H47.5z M25.2,31.2l6.7,6
			l-6.7,1.7h7l-4.9,7.3l-0.1,0.1h-1.9v-7.4l-1.4-5.3C23.5,32.6,24.1,31.5,25.2,31.2z M72.7,68.3c0,4.3-3.5,7.7-7.7,7.7H32.9
			c-4.3,0-7.7-3.5-7.7-7.7v-20h47.6V68.3z"/>
	</g>
</g>
</svg>
