<!-- Generator: Adobe Illustrator 19.1.0, SVG Export Plug-In  -->
<svg version="1.1"
	 xmlns="http://www.w3.org/2000/svg" xmlns:xlink="http://www.w3.org/1999/xlink" xmlns:a="http://ns.adobe.com/AdobeSVGViewerExtensions/3.0/"
	 x="0px" y="0px" width="96px" height="96px" viewBox="0 0 96 96" enable-background="new 0 0 96 96" xml:space="preserve">
<defs>
</defs>
<g>
	<g>
		<path fill="#FFFFFF" d="M48,0L48,0C21.5,0,0,21.5,0,48l0,0c0,26.5,21.5,48,48,48l0,0c26.5,0,48-21.5,48-48l0,0
			C96,21.5,74.5,0,48,0z M72.5,58.8L72.5,58.8c-0.5,4.9-4.7,8.8-9.7,8.8c-5.7,0-10.3-4.9-9.7-10.8c0.5-4.4,4-8,8.3-8.6
			c2.4-0.3,4.6,0.2,6.4,1.3V32.9L43,40v26.2c0,5.4-4.4,9.7-9.7,9.7c-5.7,0-10.3-4.9-9.7-10.8c0.5-4.4,4-8,8.3-8.6
			c2.4-0.3,4.6,0.2,6.4,1.3V33.2c0-2,1.3-3.7,3.2-4.3l25.2-7.2c2.8-0.8,5.7,1.3,5.7,4.3V58.8z"/>
	</g>
</g>
</svg>
