<!-- Generator: Adobe Illustrator 19.1.0, SVG Export Plug-In  -->
<svg version="1.1"
	 xmlns="http://www.w3.org/2000/svg" xmlns:xlink="http://www.w3.org/1999/xlink" xmlns:a="http://ns.adobe.com/AdobeSVGViewerExtensions/3.0/"
	 x="0px" y="0px" width="36.1px" height="36px" viewBox="0 0 36.1 36" enable-background="new 0 0 36.1 36" xml:space="preserve">
<defs>
</defs>
<g>
	<g>
		<path fill="#3C342A" d="M20.9,12.2c-1.4,0.3,2.2,2.9,2.6,3.2c1.5,1,3,1.8,4.6,2.6c2.3,1.1,5.3,2.1,6,1.7c1-0.6-1.8-4.3-2.5-4.8
			c-1.4-0.9-0.8-2.2-2.2-3.2c-0.6-0.4-1.2-0.6-1.8-1c-0.7-0.5-1.2-0.9-2.1-0.6C24,10.6,22.7,11.8,20.9,12.2z"/>
		<g>
			<path fill="#3C342A" d="M10.6,14.8c0.6,0.2,1,0.6,1.5,0.7c0.3,0.1,1,0.1,1.2,0.4s-0.1,0.8-0.5,0.7c-0.5-0.2-1-0.2-1.5-0.4
				c-0.2-0.1-0.3-0.3-0.5-0.4c-0.7-0.2-2.5-1.2-3-0.8c1,0.3,1.7,0.9,2.7,1.2c0.4,0.1,2.4,0.5,1.6,1.2c-0.4,0.4-2.3-0.5-2.7-0.7
				c-0.7-0.4-1.9-1.5-2.6-0.8c0.9,0.4,2,0.7,2.9,1.1c0.2,0.1,2.5,1.2,1.2,1.5c-0.5,0.1-1.5-0.7-2-0.8c-0.8-0.2-2.4-1.5-3-0.9
				c0.8,0.5,2,1.1,2.9,1.3c0.3,0.1,1.1,0.5,1.3,0.9c0.2,0.3,0,0.8-0.5,0.7C8.8,19.4,7.7,19,7,18.5c-0.6-0.5-1.8-1.1-2.3-0.7
				c0.9,0.4,1.8,0.8,2.6,1.2c0.3,0.2,2.4,0.5,1.7,1.3c-0.5,0.5-2-0.4-2.4-0.7c-0.7-0.5-2.3-1.5-3-0.9c0.6,0.1,1.6,0.7,2.3,1
				c0.3,0.1,3.1,1.4,1.9,1.9c-0.6,0.2-1.9-1-2.6-1.2s-2.1-1.2-2.7-0.8c0.5,0.3,5.1,2.1,4.4,2.8c-0.5,0.6-2-0.8-2.6-0.9
				c-1.1-0.2-2.1-1.6-3-0.9c0.7,0.1,5.3,2.2,4.6,2.9c-0.5,0.5-2-1.1-2.6-1.1c-1-0.1-2.3-1.5-3.3-1c2.3,1,4.4,2.5,6.7,3.3
				c-0.4-0.4,0.2-1,0.6-0.6c0.2,0.3,0.6,0.9,1,0.9c0.7,0,0.8,0.4,1.3,0.6c0.9,0.4,1.9,0.5,2.9,0.6c-0.3-0.3-0.5-0.3-0.9-0.4
				c-0.6-0.1-0.8-0.8-1.3-0.9s-2.9-1-2.9-1.4c0-1.3,2.4,0.5,2.8,0.5c0.7,0.1,0.7,0.5,1.3,0.8c0.8,0.4,1.3,0.1,1.8,1
				c0.3,0.4,2.3,0.2,2.9,0.1c-0.5-0.4-1.4-0.3-2-0.6c-0.3-0.2-0.5-0.3-0.8-0.5s-0.4-0.1-0.7-0.2c-0.2-0.1-0.4-0.3-0.5-0.5
				c-0.3,0-0.8,0-1.1-0.2c-0.7-0.5-1-0.6-1.8-0.9c-1-0.3-0.8-1.8-0.1-1.2c0.6,0.5,1.1,0.5,1.8,1c0.5,0.4,1.8,0.3,1.9,0.9
				c0.3,0.2,0.6,0,1,0.2c0.4,0.3,0.8,0.8,1.3,0.8c0.9,0,1.4,0.6,2.2,0.9c0.5,0.3,2.4,0.1,2.9-0.3c0.8-0.7,0.9-2,1.4-2.8
				c0.3-0.6,0.8-1.1,1.1-1.7c0.3-0.5,0.6-2.1,1.4-2.1c0.9,0.1-0.2,1.4-0.3,1.7c-0.3,0.8-0.7,1.5-1.1,2.2c-0.6,0.9-0.8,2.2-1.6,2.9
				c1.2,0,0.8-1.8,1.6-2.3c1-0.7,1.6-2.8,2.1-3.9c0.2-0.5,0.9,0,0.7,0.4c-0.3,0.7-0.8,1.4-1,2.1c-0.1,0.5-0.4,1.1-0.7,1.6
				c-0.6,0.7-0.7,1.5-1.2,2.2c0.1,0,0.3,0,0.4,0c0.6-0.8,0.7-1.8,1.2-2.6c0.3-0.5,1.5-3.4,2-3.5c1.1-0.2-0.6,3-0.9,3.4
				c-0.7,0.9-0.8,1.9-1.3,2.8c0.6,0,1.1-1.5,1.4-1.9c0.4-0.6,1.2-3.8,2.2-3.8c0.9,0-0.9,3-1.1,3.5s-0.4,1.1-0.8,1.4
				c-0.3,0.3-0.2,0.6-0.5,0.9c0.7,0,0.7-0.1,0.9-0.8c0.2-0.5,0.6-0.9,0.7-1.4s1.4-3.5,2-3.2c0.7,0.4-1.7,4.6-2.1,5.4
				c1.6-0.1,1.9-5,3.4-4.8c0.9,0.1-0.5,1.8-0.6,2.2c-0.3,0.8-0.8,1.9-1.4,2.5c1-0.2,1.2-1.1,1.6-2c0.2-0.5,0.8-2,1.2-2.3
				c1-0.6,0.3,1.2,0.2,1.3c-0.5,0.9-0.8,1.8-1.4,2.6c1-0.2,1.9-2.3,2.3-3.3c0.3-0.7,0.9,0,0.5,0.7s-0.8,1.4-1.2,2.2
				c1.1-0.2,1.3-1.8,2-2.6c0.3-0.4,0.8,0.2,0.5,0.5c-0.4,0.5-0.7,1.1-1,1.6c1-0.4,1.1-0.8,1.5-1.7c0.3-0.6,0.7,0.2,0.5,0.6
				c2.5-1.8-1-1.9-2.4-2.4c-3.1-1-6.2-2.4-8.9-4.2c-2.6-1.8-4.8-4-6.9-6.3c-2-2.2-6.5,2.2-8.1,3.6C9.5,14.4,10.1,14.6,10.6,14.8
				C10.8,14.8,10.1,14.6,10.6,14.8z M19.1,25.3c-0.2,0-1.4-0.5-0.7-0.5c-1,0.1-1.6-0.6-2.5-0.9c-0.7-0.2-1.6-0.8-2.3-0.8
				c-0.3,0-0.8-0.3-1.1-0.3c-0.6-0.2-1.2-0.4-1.7-0.8c-1-0.7-0.9-1.8,0.2-0.9c1.5,1.2,3.6,1.2,5.3,2c0.5,0.3,1.1,0.3,1.5,0.7
				c0.4,0.4,0.3,0.1,0.8,0.2c0.2,0.1,1,0.5,1.1,0.7C19.9,24.9,19.5,25.4,19.1,25.3C18.8,25.3,19.7,25.4,19.1,25.3z M20.1,23.6
				c-1-0.3-1.8-0.4-2.7-0.9c-0.7-0.4-1.7-0.1-2.3-0.8c-0.2-0.3-2-0.6-2.5-0.8c-0.6-0.2-1.1-0.3-1.7-0.6c-0.4-0.2-0.2-0.7,0.2-0.8
				c0.8-0.1,2,0.8,2.8,0.9c0.9,0.1,1.5,0.7,2.4,0.8c0.9,0.1,1.6,0.8,2.4,0.9c0.5,0,1.5,0.1,1.8,0.5C20.8,23.2,20.5,23.7,20.1,23.6
				C19.6,23.4,20.7,23.7,20.1,23.6z M21.1,22.1c-0.8,0-1.3-0.4-1.9-0.4c-0.8,0-2.6-0.5-3.1-1.2c-0.1-0.1-1.6-0.4-2-0.5
				c-0.3-0.1-3.1-0.8-1.9-1.4c0.3-0.2,2.2,0.3,2.5,0.6c0.4,0.4,1,0.4,1.5,0.6c0.5,0.1,0.8,0.6,1.3,0.7c0.7,0.2,2.1,0.1,2.6,0.6
				c0.4,0.4,1,0,1.3,0.3C21.7,21.6,21.5,22.1,21.1,22.1C20.8,22.1,21.7,22.1,21.1,22.1z M14.4,16.5c0.9-0.1,2.2,0.4,3.1,0.6
				c0.8,0.2,1.6,0.4,2.4,0.4c0.9,0,1.7,0.5,2.5,0.7c1.3,0.3,0.7,1.3,0.1,0.9c-0.5-0.4-0.7,0-1.2-0.1c-0.4-0.1-0.6-0.3-1-0.4
				s-0.7,0-1.1,0c-0.5,0-0.7-0.4-1.2-0.4c-1-0.2-1.9-0.2-2.9-0.6c-0.3-0.1-0.9,0-1.1-0.2C13.8,17.1,14.1,16.5,14.4,16.5
				C15.3,16.4,13.9,16.5,14.4,16.5z M15.9,18.1c0.8,0.1,1.5,0.5,2.3,0.6c1,0.1,1.5,0.7,2.4,0.9c0.4,0.1,2-0.1,1.8,0.7
				c-0.2,0.6-2.3,0.1-2.7-0.1c-0.7-0.4-1.2-0.7-2.2-0.7c-0.6,0-0.9-0.4-1.3-0.5c-0.6-0.1-1.1,0-1.7-0.2c-0.4-0.2-1.8-0.6-1.4-1.3
				C13.4,17,15.4,18.1,15.9,18.1C16.7,18.2,15,18.1,15.9,18.1z"/>
			<path fill="#3C342A" d="M3.7,19.6L3.7,19.6L3.7,19.6z"/>
		</g>
	</g>
	<rect x="0.1" fill="none" width="36" height="36"/>
</g>
</svg>
