<!-- Generator: Adobe Illustrator 18.1.1, SVG Export Plug-In  -->
<svg version="1.1"
	 xmlns="http://www.w3.org/2000/svg" xmlns:xlink="http://www.w3.org/1999/xlink" xmlns:a="http://ns.adobe.com/AdobeSVGViewerExtensions/3.0/"
	 x="0px" y="0px" width="58.9px" height="44px" viewBox="0 0 58.9 44" enable-background="new 0 0 58.9 44" xml:space="preserve">
<defs>
</defs>
<g>
	<path fill="#FFFFFF" d="M4.73,14.2c0.59-1.1,0.59-2.06,0.55-3.75C5.24,8.87,4.76,2.26,4.69,1.36c0-0.06-0.05-0.1-0.11-0.1H4.54
		c-0.06,0-0.11,0.05-0.11,0.11v9.62c0,0.13-0.11,0.23-0.24,0.22C4.08,11.19,4,11.1,3.99,10.99L3.55,1.36c0-0.06-0.05-0.11-0.11-0.11
		c-0.06,0-0.11,0.05-0.11,0.11l-0.41,9.61c-0.01,0.14-0.12,0.25-0.26,0.25c-0.14,0-0.26-0.11-0.26-0.25L1.98,1.36
		c0-0.06-0.05-0.11-0.11-0.11c-0.06,0-0.11,0.05-0.11,0.11L1.3,10.99c-0.01,0.11-0.09,0.2-0.19,0.21c-0.13,0.01-0.24-0.09-0.24-0.22
		V1.36c0-0.06-0.05-0.11-0.11-0.11H0.72c-0.06,0-0.11,0.04-0.11,0.1c-0.07,0.91-0.54,7.52-0.59,9.09c-0.05,1.69-0.05,2.65,0.55,3.75
		c0.59,1.1,1.47,2.47,1.47,3.52l-0.1,2.05C1.65,24.8,0.85,37.27,0.87,39.2c0,0.05,0,0.09,0,0.14c0.05,2.26,0.95,3.4,1.78,3.4
		c0.83,0,1.72-1.14,1.78-3.4c0-0.05,0-0.09,0-0.14c0.02-1.93-0.78-14.4-1.07-19.43l-0.1-2.05C3.26,16.67,4.14,15.3,4.73,14.2z"/>
	<path fill="#FFFFFF" d="M58.47,34.71L58.47,34.71l-0.6-12.15c-0.01-0.29,0.03-0.59,0.13-0.86l0,0c0.03-0.09,0.05-0.18,0.05-0.28
		c0.02-1.84,0.28-20.69,0.28-20.89c0-0.21-0.6-1.75-2.14,2.17c-1.54,3.93-1.44,15.71-1.33,16.23s0.7,0.84,1.05,1.93
		c0.15,0.48,0.28,1.07,0.39,1.67c0.04,0.24,0.06,0.49,0.04,0.73l-0.57,11.45l0.01-0.01c-0.27,3.06-0.43,6.03-0.43,6.67
		c0,1.41,0.8,2.56,1.78,2.56c0.98,0,1.78-1.15,1.78-2.56C58.9,40.74,58.74,37.77,58.47,34.71z"/>
	<g>
		<g>
			<path fill="#FFFFFF" d="M30.05,0c-12.15,0-22,9.85-22,22s9.85,22,22,22s22-9.85,22-22S42.2,0,30.05,0z M30.05,35.98
				c-7.72,0-13.98-6.26-13.98-13.98c0-7.72,6.26-13.98,13.98-13.98c7.72,0,13.98,6.26,13.98,13.98
				C44.03,29.72,37.77,35.98,30.05,35.98z M30.05,9.95C23.39,9.95,18,15.34,18,22s5.4,12.05,12.05,12.05S42.1,28.66,42.1,22
				S36.7,9.95,30.05,9.95z"/>
		</g>
	</g>
</g>
</svg>
