<!-- Generator: Adobe Illustrator 19.1.0, SVG Export Plug-In  -->
<svg version="1.1"
	 xmlns="http://www.w3.org/2000/svg" xmlns:xlink="http://www.w3.org/1999/xlink" xmlns:a="http://ns.adobe.com/AdobeSVGViewerExtensions/3.0/"
	 x="0px" y="0px" width="36px" height="36px" viewBox="0 0 36 36" enable-background="new 0 0 36 36" xml:space="preserve">
<defs>
</defs>
<g>
	<rect fill="none" width="36" height="36"/>
	<path fill="#3C342A" d="M27.5,14.7H24v-0.1V7.9c0-1.7-1.4-3.1-3.1-3.1h-6c-1.7,0-3.1,1.4-3.1,3.1v6.7v0.1H8.5c-0.5,0-1,0.4-1,1
		v14.8c0,0.5,0.4,1,1,1h19.1c0.5,0,1-0.4,1-1V15.7C28.5,15.1,28.1,14.7,27.5,14.7z M13.4,14.6V7.9c0-0.9,0.7-1.6,1.6-1.6h6
		c0.9,0,1.6,0.7,1.6,1.6v6.7v0.1h-9.2C13.4,14.6,13.4,14.6,13.4,14.6z M16,27.1c0.4-1.6,0.8-3.2,1.1-4.7c-0.7-0.3-1.1-1-1.1-1.8
		c0-1.1,0.9-2,2-2s2,0.9,2,2c0,0.8-0.5,1.5-1.1,1.8c0.4,1.6,0.8,3.2,1.1,4.7C18.7,27.4,17.3,27.4,16,27.1z"/>
</g>
</svg>
