<!-- Generator: Adobe Illustrator 19.1.0, SVG Export Plug-In  -->
<svg version="1.1"
	 xmlns="http://www.w3.org/2000/svg" xmlns:xlink="http://www.w3.org/1999/xlink" xmlns:a="http://ns.adobe.com/AdobeSVGViewerExtensions/3.0/"
	 x="0px" y="0px" width="175.8px" height="63.2px" viewBox="0 0 175.8 63.2" enable-background="new 0 0 175.8 63.2"
	 xml:space="preserve">
<defs>
</defs>
<path d="M44.7,23.4c-0.3,0.4-1.7,2.4-4.3,6l-3.1,4.3c-2.9,4.1-5.1,7.7-6.6,10.9c-0.2,0.6-1,0.8-2.2,0.8c-0.5,0-0.8-0.1-0.8-0.3
	c0-0.1,0-0.2,0.1-0.3c1.6-3.4,3.8-7.1,6.5-10.9l9.5-13.3c0.6-0.9,2.6-3.6,5.9-8.3l4-5.7c0.3-0.5,1.1-0.7,2.4-0.7
	c0.4,0,0.6,0.1,0.7,0.2c0,0.1,0,0.2-0.1,0.2L44.7,23.4z M82,24.5c1.6-1.4,2.8-2.9,3.6-4.6c0.4-1,0.6-2.1,0.6-3.3
	c0-3.4-1.7-6.4-5.1-9c-3.9-3-9.5-5.2-16.9-6.5C59.9,0.4,55.4,0,50.7,0c-3.8,0-7.8,0.2-12.1,0.7C21.9,2.5,10.1,6.9,3.1,13.9
	c-2.5,2.6-3.5,4.9-3,7.1c0.6,2.1,2.1,3.2,4.8,3.2c0.6,0,1.5-0.1,2.4-0.4c1.2-0.3,1.7-0.7,1.6-1.2c-0.1-0.3-0.4-0.4-0.8-0.4
	c-0.2,0-0.5,0.1-1,0.2c-0.4,0.1-0.7,0.2-1,0.2c-0.7,0-1.3-0.3-1.9-0.8s-0.9-1.1-1.1-1.9c-0.6-2.5,0.9-5.1,4.5-7.7
	C12.1,9,17.8,6.5,24.8,4.7C29.7,3.4,35.3,2.5,41.4,2c2.9-0.2,5.5-0.4,7.8-0.4c6.3,0,12.3,0.7,18,2.2c3.5,0.9,6.6,2.3,9.5,4.1
	c3.5,2.3,5.6,4.7,6.3,7.5c0.1,0.5,0.2,1.1,0.2,1.7c0,1.2-0.3,2.4-0.9,3.7c-1.7,3.4-5.5,6-11.4,7.6c-4.5,1.2-9.6,1.9-15.2,1.9
	c-2.2,0-5.4-0.1-9.5-0.4c-0.3,0-0.7,0.1-1.4,0.5c-0.6,0.4-0.9,0.7-0.9,0.9c0.1,0.2,0.3,0.2,0.6,0.3C48,31.9,51.3,32,54.6,32
	C67.1,31.9,76.3,29.4,82,24.5z M130.9,35.2c0-0.8,0.6-1.2,1.7-1.2c1.1,0,1.7,0.4,1.7,1.2s-0.6,1.2-1.7,1.2S130.9,36,130.9,35.2z
	 M175.7,38.1c-0.1-0.1-0.2,0-0.3,0c-1.2,1.3-2.8,2.6-4.7,4c-2.2,1.6-3.8,2.4-4.7,2.4c-0.6,0-1-0.2-1.4-0.6c1.7-1.5,2.6-2.9,2.6-4.5
	c0-1.4-0.7-2-2.2-2s-3.3,0.9-5.5,2.6c-0.6,0.5-1.1,1-1.6,1.5c-1.1,0.8-2.2,1.5-3.2,2.1c-2.3,1.3-4,1.9-5.3,1.9
	c-1.8,0-2.9-1.1-3.3-3.4c5.2-3.8,9-6.9,11.6-9.1c7.3-6.6,11-11.1,11-13.4c0-1.4-0.6-2.1-1.9-2.1c-2.3,0-5.4,1.9-9.3,5.7
	c-3.3,3.2-6.1,6.6-8.5,10.3c-1.3,1.9-1.9,3-2,3.2c-0.9,1.6-1.6,3.3-2.1,5.1c-1,0.7-2.2,1.3-3.6,1.9c-1.5,0.6-2.5,1-3.2,1
	c-0.9,0-1.4-0.4-1.4-1.1c0-0.6,0.4-1.4,1.2-2.2c0.1-0.1,0.1-0.1,0.2-0.2c0.6-0.5,1.4-1.1,2.2-1.8c0.8-0.6,1.6-0.8,2.2-0.8
	c0.9,0,1.4,0.1,1.5,0.4c0.1,0.3,0.2,0.5,0.3,0.8s0.2,0.4,0.3,0.3c0.5-0.1,0.7-0.5,0.7-1.2c0-0.3-0.2-0.6-0.5-0.9
	c-0.3-0.3-0.8-0.4-1.3-0.4c-0.8,0-1.7,0.2-2.5,0.5l0,0c-0.1,0-0.2,0-0.3,0s-0.1,0.1-0.2,0.1c-1.2,0.5-2.3,1.2-3.6,2.2
	c-0.6,0.5-1,0.9-1.4,1.4c-2.9,2-4.8,3-5.6,3c-1.1,0-1.6-0.6-1.6-1.8c0-0.9,0.4-1.9,1.3-2.9c0.9-1.1,1.3-1.7,1.3-1.9
	s-0.2-0.4-0.6-0.4c-0.6,0.1-1.3,0.7-2.1,1.6c-4.4,3.3-7.4,5.2-9.1,5.7c1.5-2.2,2.2-4,2.2-5.3c0-1-0.4-1.7-1.1-2.3s-1.6-0.9-2.8-0.9
	c-1.6,0-3.2,0.5-5,1.6c-0.9,0.5-1.6,1.1-2,1.6c-1.7,1.3-2.8,2.1-3.3,2.4c-2.9,1.9-5,2.9-6.6,2.9c-0.6,0-1.1-0.2-1.6-0.5
	c-0.7-0.4-0.9-1-0.8-1.8l0,0c1.3-0.6,2.4-1.3,3.2-2.1c0.5-0.4,1-0.9,1.5-1.4s0.8-1,0.8-1.5c0-0.3-0.2-0.6-0.5-0.9
	c-0.3-0.3-0.6-0.4-1-0.4c-1.1,0-2.4,0.8-3.9,2.4c-1.3,1.4-2.1,2.8-2.2,4c-2,1.2-3.7,1.8-5,1.8c-1.2,0-1.8-0.5-1.8-1.4
	c0-1.4,1.4-3.8,4.3-7.1c0.3-0.3,2.4-2.5,6.3-6.6h9c1.4,0,2.1,0,2.1,0c1.1-0.1,1.7-0.5,1.7-1.1L101.2,28l3.8-3.3
	c0.1-0.1,0.1-0.2,0-0.5c-0.1-0.2-0.3-0.3-0.4-0.3c-0.5,0-0.9,0.1-1.1,0.3L99.7,28H83.4c-0.5,0-0.8,0.1-0.9,0.4
	c-0.1,0.5,0,0.7,0.4,0.7L98.4,30c-2.1,2.2-4.2,4.4-6.3,6.5c-0.8,1-1.6,1.8-2.2,2.7c-1.1,1-2.3,2-3.7,3c-2.2,1.6-3.8,2.4-4.7,2.4
	c-0.6,0-1-0.2-1.4-0.6c1.7-1.5,2.6-2.9,2.6-4.5c0-1.4-0.7-2-2.2-2s-3.3,0.9-5.5,2.6c-0.5,0.5-1,0.9-1.4,1.4
	c-0.7,0.5-1.2,0.9-1.5,1.1c-3.1,2-5.5,3-7.2,3c-0.5,0-0.9-0.2-1.2-0.5s-0.5-0.7-0.5-1.1c0-0.6,0.6-1.5,1.8-2.6
	c1.2-1.1,1.8-2,1.8-2.7c0-0.6-0.4-0.9-1.3-0.9c-0.4,0-1.2,0.1-2.4,0.4c0.9-0.9,1.4-1.6,1.4-2.3c0-0.4-0.3-0.6-0.8-0.6
	c-0.6,0-1.4,0.5-2.4,1.6c-1,1-1.5,1.8-1.5,2.4c0,0.2,0.1,0.4,0.3,0.6c-3.3,2.5-5.7,4-7.4,4.7c-0.3,0.3-0.4,0.6-0.4,0.8
	s0.2,0.2,0.7,0.2c2.1-0.9,4.7-2.7,7.9-5.4H61c0.4,0,1-0.1,1.6-0.2c0.7-0.1,1.3-0.2,1.9-0.2c-0.7,0.8-1.4,1.6-2.2,2.4
	c-0.8,1-1.2,1.7-1.2,2.3s0.3,1.2,0.8,1.7s1.1,0.7,1.7,0.7c2.3,0,5-1,8.1-3.1l0.1-0.1c-0.2,0.5-0.4,1.1-0.4,1.6
	c0,1.1,0.7,1.7,2.2,1.7c1,0,2.2-0.3,3.4-1c1-0.6,1.7-1,1.9-1.4c0.6,0.6,1.3,0.8,2.1,0.8c1.1,0,2.9-0.8,5.1-2.5c0.7-0.5,1.4-1,2-1.5
	c-0.5,1-0.8,1.8-0.8,2.5s0.2,1.4,0.7,1.9c0.4,0.5,1,0.8,1.7,0.8c1.7,0,3.7-0.8,6.1-2.3c0.2,1.5,1.2,2.3,3,2.3c2.2,0,4.8-1,7.7-2.9
	c0.6-0.4,1.6-1.1,2.8-2.1c0,0.6,0.2,1.2,0.6,1.6c0.4,0.4,0.9,0.6,1.6,0.6c1.1,0,2.3-0.4,3.7-1.1c0.8-0.5,1.6-1,2.4-1.5l0.3-0.6
	c-0.7,0.4-1.4,0.7-2.1,1.1c-1.3,0.6-2.3,0.9-3,0.9c-1,0-1.4-0.6-1.4-1.8c0-0.9,0.6-1.6,1.7-2.3c1.1-0.6,2.2-0.9,3.5-0.9
	c1.6,0,2.4,0.7,2.4,2.1c0,2-1,4.2-3.1,6.4c-0.6,0.2-3,1-7,2.2s-6.9,2.2-8.6,2.8c-7.4,2.8-11.1,5.9-11.1,9.4c0,0.8,0.3,1.4,0.9,1.9
	s1.4,0.8,2.4,0.8c3.7,0,8.7-2.4,15-7.3c4.6-3.6,7.9-6.6,9.9-9.2c2.7-0.9,5.2-2.2,7.4-3.8c0.1-0.1,0.5-0.4,1.2-1
	c-0.3,0.7-0.5,1.3-0.5,1.9c0,0.6,0.4,1.2,1,1.7c0.7,0.5,1.5,0.7,2.3,0.7c1.2,0,2.9-0.8,5.1-2.3V44c0,0.6,0.2,1.1,0.7,1.5
	s1,0.6,1.7,0.6c1.3,0,2.7-0.3,4.1-1c1.3-0.7,2.5-1.4,3.8-2.1c0.6,2.6,2,3.9,4,3.9c1.6,0,3.5-0.6,5.6-1.9c0.5-0.3,1.2-0.7,2-1.3
	c-0.2,0.5-0.3,1-0.3,1.5c0,1.1,0.7,1.7,2.2,1.7c1,0,2.2-0.3,3.4-1c1.1-0.6,1.7-1,2-1.4c0.6,0.6,1.3,0.8,2.1,0.8
	c1.1,0,2.9-0.8,5.1-2.5c2.1-1.5,3.7-2.8,4.7-4.1c0.1-0.1,0.2-0.3,0.2-0.5C175.8,38.2,175.8,38.2,175.7,38.1z M151.3,31.6
	c2.5-3.4,5.2-6.5,8.1-9.1c2.9-2.6,5-3.9,6.3-3.9c0.7,0,1.1,0.4,1.1,1.2c0,1.3-1,3.2-3,5.7c-1.8,2.4-3.9,4.6-6.4,6.7
	c-3.3,2.9-7.1,5.9-11.3,9C146.9,38.5,148.6,35.3,151.3,31.6z M74.9,45.5c-0.9,0-1.3-0.5-1.3-1.6c0-0.7,0.3-1.4,0.8-2
	c0.7-0.5,1.4-1.2,2.3-1.9c0.6-0.4,1.3-0.7,2-1c-0.5,0.5-0.8,1.4-0.8,2.6c0,0.9,0.3,1.6,0.8,2.2C77.4,45,76.1,45.5,74.9,45.5z
	 M78.9,41.1c0-0.7,0.3-1.3,0.7-1.9c0.5-0.6,1-0.9,1.7-0.9c0.5,0,0.8,0.3,0.8,0.8c0,1.3-0.9,2.6-2.6,4C79.1,42.8,78.9,42.1,78.9,41.1
	z M99.5,39.5c0.8-0.9,1.5-1.3,1.9-1.3c0.3,0,0.5,0.1,0.5,0.3c0,0.3-0.1,0.5-0.3,0.8c-1,0.7-2,1.5-3,2.2c-0.2,0.1-0.3,0.1-0.4,0.1
	C98.3,41.1,98.7,40.3,99.5,39.5z M103.6,58.5c-1.5,1-3.1,1.9-4.9,2.6c-1.7,0.7-3,1-3.9,1c-0.8,0-1.6-0.2-2.3-0.6
	c-0.8-0.5-1.2-1.2-1.2-1.9c0-2,1.8-3.9,5.5-5.8c2.6-1.4,6.2-2.7,10.8-4.1c2.7-0.8,5.4-1.5,8.1-2.3C113.6,50.5,109.5,54.3,103.6,58.5
	z M159.3,45.5c-0.9,0-1.3-0.5-1.3-1.6c0-0.6,0.2-1.3,0.7-1.9c0.2-0.1,0.4-0.3,0.6-0.5c0.8-0.7,1.5-1.2,2.1-1.7
	c0.5-0.3,1.1-0.6,1.8-0.9c-0.5,0.5-0.8,1.4-0.8,2.6c0,0.9,0.3,1.6,0.8,2.2C161.8,45,160.5,45.5,159.3,45.5z M163.3,41.1
	c0-0.7,0.2-1.3,0.7-1.9c0.5-0.6,1-0.9,1.7-0.9c0.5,0,0.8,0.3,0.8,0.8c0,1.3-0.9,2.6-2.6,4C163.5,42.8,163.3,42.1,163.3,41.1z"/>
</svg>
