<!-- Generator: Adobe Illustrator 18.1.1, SVG Export Plug-In  -->
<svg version="1.1"
	 xmlns="http://www.w3.org/2000/svg" xmlns:xlink="http://www.w3.org/1999/xlink" xmlns:a="http://ns.adobe.com/AdobeSVGViewerExtensions/3.0/"
	 x="0px" y="0px" width="20px" height="19.34px" viewBox="0 0 20 19.34" enable-background="new 0 0 20 19.34" xml:space="preserve"
	>
<defs>
</defs>
<path id="search_2_" d="M20,17.54l-4.28-4.28c0.89-1.35,1.41-2.96,1.41-4.7C17.13,3.84,13.29,0,8.57,0
	C3.84,0,0,3.84,0,8.57c0,4.72,3.84,8.56,8.57,8.56c2.07,0,3.98-0.74,5.46-1.97l4.18,4.18L20,17.54z M8.57,14.59
	c-3.32,0-6.03-2.7-6.03-6.03c0-3.32,2.7-6.03,6.03-6.03c3.32,0,6.03,2.7,6.03,6.03C14.59,11.89,11.89,14.59,8.57,14.59z"/>
</svg>
