<!-- Generator: Adobe Illustrator 19.1.0, SVG Export Plug-In  -->
<svg version="1.1"
	 xmlns="http://www.w3.org/2000/svg" xmlns:xlink="http://www.w3.org/1999/xlink" xmlns:a="http://ns.adobe.com/AdobeSVGViewerExtensions/3.0/"
	 x="0px" y="0px" width="96px" height="96px" viewBox="0 0 96 96" enable-background="new 0 0 96 96" xml:space="preserve">
<defs>
</defs>
<g>
	<g>
		<path fill="#FFFFFF" d="M48,0C21.5,0,0,21.5,0,48s21.5,48,48,48s48-21.5,48-48S74.5,0,48,0z M62.3,50.6L37.8,68.8
			c-0.5,0.4-1.2,0.6-1.8,0.6c-0.9,0-1.8-0.4-2.4-1.2c-1-1.3-0.7-3.2,0.6-4.2l21.3-15.8L33.7,32c-1.3-1-1.6-2.9-0.6-4.2
			c1-1.3,2.9-1.6,4.2-0.6l25,18.6c0.8,0.6,1.2,1.5,1.2,2.4S63,50,62.3,50.6z"/>
	</g>
</g>
</svg>
