<!-- Generator: Adobe Illustrator 19.1.0, SVG Export Plug-In  -->
<svg version="1.1"
	 xmlns="http://www.w3.org/2000/svg" xmlns:xlink="http://www.w3.org/1999/xlink" xmlns:a="http://ns.adobe.com/AdobeSVGViewerExtensions/3.0/"
	 x="0px" y="0px" width="240px" height="18.2px" viewBox="0 0 240 18.2" enable-background="new 0 0 240 18.2" xml:space="preserve"
	>
<defs>
</defs>
<path d="M112.9,6v12.1h-2.4V6h-4.3V4.1h11V6H112.9z M136.8,18.1l-5.8-14h-1.9l-5.7,14h2.5l1.1-2.8h6.2l1.1,2.8H136.8z M132.5,13.4
	h-4.8l2.4-6.2L132.5,13.4z M147.8,18.2c2.9,0,5.2-1.6,5.2-4.5V4.2h-2.4v9.4c0,1.8-1.1,2.8-2.8,2.8c-1.1,0-1.7-0.3-2.2-0.8L144,17
	C145.1,17.8,146.2,18.2,147.8,18.2 M174.9,18l-5.8-13.9h-1.9l-5.7,14h2.5l1.1-2.8h6.2l1.1,2.8L174.9,18z M170.6,13.4h-4.8l2.4-6.2
	L170.6,13.4z M197.5,18V4h-2.4l-4.5,8.7L186,4h-2.4v14h2.4V8.7l3.7,6.8h1.8l3.6-6.8V18H197.5z M219.7,18L214,4h-1.9l-5.7,14h2.5
	l1.1-2.8h6.2l1.1,2.8H219.7z M215.5,13.3h-4.8l2.4-6.2L215.5,13.3z M240,17.9l-3.6-6.2c1.8-0.4,3.1-1.7,3.1-3.7
	c0-2.4-1.9-4.1-4.9-4.1h-6.1v14h2.4V12h3l3.3,5.9H240z M234.5,5.9c1.6,0,2.7,0.8,2.7,2.2s-1.1,2.2-2.7,2.2H231V5.9H234.5 M15.2,17.8
	L8.7,0.2H6.5L0,17.8h2.9l1.2-3.5h7l1.2,3.5H15.2z M10.4,12H4.9l2.8-7.8L10.4,12z M37.5,17.8v-2.4h-8.6V0.2h-2.7v17.6H37.5z
	 M57.9,2.6V0.2H45.4v2.4h4.9v15.2H53V2.6L57.9,2.6z M79.4,16c1.7-1.7,1.7-3.7,1.7-7.1s0-5.3-1.7-7.1C78.2,0.7,76.6,0,74.7,0
	S71.3,0.7,70,1.9c-1.7,1.7-1.7,3.7-1.7,7.1s0,5.3,1.7,7.1c1.2,1.2,2.8,1.9,4.7,1.9C76.6,17.9,78.2,17.2,79.4,16 M77.4,3.5
	c0.9,0.9,1.1,1.9,1.1,5.5c0,3.5-0.2,4.5-1,5.5c-0.6,0.7-1.6,1.1-2.6,1.1s-2-0.4-2.6-1.1c-0.9-0.9-1.1-1.9-1.1-5.5
	c0-3.5,0.2-4.5,1-5.5c0.6-0.7,1.6-1.1,2.6-1.1S76.8,2.8,77.4,3.5"/>
</svg>
