<!-- Generator: Adobe Illustrator 19.1.0, SVG Export Plug-In  -->
<svg version="1.1"
	 xmlns="http://www.w3.org/2000/svg" xmlns:xlink="http://www.w3.org/1999/xlink" xmlns:a="http://ns.adobe.com/AdobeSVGViewerExtensions/3.0/"
	 x="0px" y="0px" width="36px" height="36px" viewBox="0 0 36 36" enable-background="new 0 0 36 36" xml:space="preserve">
<defs>
</defs>
<g>
	<g>
		<g>
			<g>
				<path fill="#3C342A" d="M18,36c-3,0-5.4-2.4-5.4-5.4c0-1.8,0.9-3.5,2.5-4.5V2.9C15.1,1.3,16.4,0,18,0s2.9,1.3,2.9,2.9v23.2
					c1.5,1,2.5,2.7,2.5,4.5C23.4,33.6,21,36,18,36z M18,1.1c-1,0-1.8,0.8-1.8,1.8v23.9L15.9,27c-1.3,0.7-2.2,2.2-2.2,3.7
					c0,2.3,1.9,4.2,4.2,4.2s4.2-1.9,4.2-4.2c0-1.5-0.8-2.9-2.2-3.7l-0.3-0.2V2.9C19.8,1.9,19,1.1,18,1.1z"/>
			</g>
		</g>
		<g>
			<circle fill="#3C342A" cx="18" cy="30.6" r="3.2"/>
		</g>
		<g>
			<rect x="17.4" y="16.1" fill="#3C342A" width="1.2" height="14.6"/>
		</g>
	</g>
	<rect fill="none" width="36" height="36"/>
</g>
</svg>
