<!-- Generator: Adobe Illustrator 18.1.1, SVG Export Plug-In  -->
<svg version="1.1"
	 xmlns="http://www.w3.org/2000/svg" xmlns:xlink="http://www.w3.org/1999/xlink" xmlns:a="http://ns.adobe.com/AdobeSVGViewerExtensions/3.0/"
	 x="0px" y="0px" width="32px" height="32px" viewBox="0 0 32 32" enable-background="new 0 0 32 32" xml:space="preserve">
<defs>
</defs>
<g>
	<g>
		<path d="M30,2v28H2V2H30 M32,0H0v32h32V0L32,0z"/>
	</g>
	<path class="icono" d="M23.65,12.58c0.01,0.14,0.01,0.28,0.01,0.42c0,4.34-3.3,9.34-9.34,9.34c-1.85,0-3.58-0.54-5.03-1.47
		c0.26,0.03,0.52,0.05,0.78,0.05c1.54,0,2.95-0.52,4.08-1.41c-1.44-0.03-2.65-0.98-3.07-2.28c0.2,0.04,0.41,0.06,0.62,0.06
		c0.3,0,0.59-0.04,0.86-0.12c-1.5-0.3-2.63-1.63-2.63-3.22c0-0.01,0-0.03,0-0.04c0.44,0.25,0.95,0.39,1.49,0.41
		c-0.88-0.59-1.46-1.59-1.46-2.73c0-0.6,0.16-1.17,0.44-1.65c1.62,1.99,4.04,3.29,6.77,3.43c-0.06-0.24-0.09-0.49-0.09-0.75
		c0-1.81,1.47-3.28,3.28-3.28c0.94,0,1.8,0.4,2.4,1.04c0.75-0.15,1.45-0.42,2.08-0.8c-0.25,0.77-0.77,1.41-1.44,1.82
		c0.66-0.08,1.3-0.26,1.89-0.52C24.85,11.54,24.29,12.12,23.65,12.58z"/>
</g>
</svg>
