<!-- Generator: Adobe Illustrator 19.1.0, SVG Export Plug-In  -->
<svg version="1.1"
	 xmlns="http://www.w3.org/2000/svg" xmlns:xlink="http://www.w3.org/1999/xlink" xmlns:a="http://ns.adobe.com/AdobeSVGViewerExtensions/3.0/"
	 x="0px" y="0px" width="36px" height="36px" viewBox="0 0 36 36" enable-background="new 0 0 36 36" xml:space="preserve">
<defs>
</defs>
<g>
	<g>
		<ellipse transform="matrix(-0.2177 -0.976 0.976 -0.2177 3.2938 32.0635)" fill="#3C342A" cx="14.5" cy="14.7" rx="3.2" ry="3"/>
		<path fill="#3C342A" d="M24,14.4c-0.4,1.6-1.9,2.7-3.4,2.4c-1.5-0.2-2.3-1.7-1.9-3.3s1.9-2.7,3.4-2.4S24.4,12.8,24,14.4z"/>
		
			<ellipse transform="matrix(-3.835056e-02 -0.9993 0.9993 -3.835056e-02 -9.5874 42.1744)" fill="#3C342A" cx="15.5" cy="25.7" rx="2.8" ry="2.5"/>
		<ellipse fill="#3C342A" cx="21.7" cy="25.3" rx="2.6" ry="2.8"/>
		<ellipse fill="#3C342A" cx="9.3" cy="16.3" rx="2.2" ry="2.4"/>
		<ellipse fill="#3C342A" cx="26.7" cy="14.5" rx="2.2" ry="2.4"/>
		
			<ellipse transform="matrix(7.169213e-03 -1 1 7.169213e-03 -11.8344 49.2815)" fill="#3C342A" cx="18.9" cy="30.6" rx="2.8" ry="2.6"/>
		
			<ellipse transform="matrix(-0.3143 -0.9493 0.9493 -0.3143 -2.9636 39.8522)" fill="#3C342A" cx="12.9" cy="21" rx="2.7" ry="2.5"/>
		<ellipse transform="matrix(-0.2334 -0.9724 0.9724 -0.2334 3.6032 42.8601)" fill="#3C342A" cx="18.7" cy="20" rx="3" ry="2.7"/>
		<path fill="#3C342A" d="M27.4,19.5c0.3,1.6-0.5,2.9-1.9,3.1s-2.8-1-3.1-2.5c-0.3-1.6,0.5-2.9,1.9-3.1S27.1,18,27.4,19.5z"/>
		<path fill="#3C342A" d="M17.6,11.3c0,0,0-0.2-0.1-0.5c0-0.1,0-0.2,0-0.2c0-0.1,0-0.2-0.1-0.3c0-0.2-0.1-0.4-0.2-0.6
			c0-0.1-0.1-0.2-0.1-0.4c0-0.1,0-0.2-0.1-0.3c-0.1-0.3-0.3-0.5-0.4-0.8c-0.2-0.2-0.3-0.5-0.5-0.7c-0.2-0.2-0.4-0.4-0.6-0.7
			c-0.2-0.2-0.5-0.4-0.7-0.5C14.6,6.1,14.3,6,14,5.9s-0.5-0.2-0.8-0.3c-0.1,0-0.2-0.1-0.4-0.1c-0.1,0-0.2,0-0.3-0.1
			c-0.2-0.1-0.4-0.1-0.6-0.1c-0.2,0-0.3,0-0.5,0c-0.3,0-0.4,0-0.4,0h-0.1c-0.5,0-1-0.4-1-1c0-0.5,0.4-1,1-1H11c0,0,0.2,0,0.5,0.1
			c0.2,0,0.4,0,0.6,0.1c0.2,0,0.5,0.1,0.8,0.2c0.1,0,0.3,0.1,0.4,0.1c0.1,0.1,0.3,0.1,0.4,0.2c0.3,0.1,0.6,0.3,0.9,0.5
			c0.3,0.2,0.6,0.4,0.9,0.6c0.3,0.2,0.5,0.5,0.8,0.8c0.2,0.3,0.5,0.6,0.7,0.9s0.4,0.6,0.5,0.9c0.1,0.3,0.3,0.6,0.4,0.9
			C17.9,8.7,18,8.9,18,9c0,0.1,0.1,0.3,0.1,0.4c0.1,0.3,0.1,0.5,0.1,0.7c0,0.1,0,0.2,0,0.3s0,0.2,0,0.2c0,0.3,0,0.5,0,0.5
			c0,0.2-0.1,0.3-0.3,0.3C17.7,11.6,17.6,11.5,17.6,11.3z"/>
		<path fill="#3C342A" d="M17,8.1c0,0,0-0.1-0.1-0.2c0-0.1-0.1-0.2-0.1-0.3c0-0.1-0.1-0.3-0.1-0.4s-0.1-0.3-0.1-0.5s0-0.4,0-0.5
			c0-0.2,0-0.4,0.1-0.6c0-0.2,0.1-0.4,0.1-0.6c0.1-0.2,0.1-0.4,0.2-0.6s0.2-0.3,0.3-0.5c0.1-0.2,0.2-0.3,0.4-0.4
			c0.1-0.1,0.2-0.3,0.4-0.4c0.2-0.2,0.5-0.4,0.6-0.4C18.9,2.6,19,2.6,19,2.6c0.3-0.2,0.7-0.1,0.9,0.3c0.2,0.3,0.1,0.7-0.3,0.9
			c0,0,0,0-0.1,0h-0.1c0,0-0.1,0-0.2,0.1c-0.1,0-0.3,0.1-0.5,0.2c-0.1,0.1-0.2,0.1-0.3,0.2c-0.1,0.1-0.2,0.2-0.3,0.3
			c0,0.2-0.1,0.3-0.2,0.4s-0.2,0.3-0.2,0.4c-0.1,0.1-0.1,0.3-0.2,0.4s-0.1,0.3-0.1,0.4s0,0.3,0,0.4s0,0.3,0,0.4s0,0.2,0,0.3
			c0,0.1,0,0.2,0.1,0.3c0,0.2,0.1,0.2,0.1,0.2c0,0.2,0,0.3-0.2,0.4C17.2,8.4,17,8.3,17,8.1z"/>
	</g>
	<rect fill="none" width="36" height="36"/>
</g>
</svg>
