<!-- Generator: Adobe Illustrator 18.1.1, SVG Export Plug-In  -->
<svg version="1.1"
	 xmlns="http://www.w3.org/2000/svg" xmlns:xlink="http://www.w3.org/1999/xlink" xmlns:a="http://ns.adobe.com/AdobeSVGViewerExtensions/3.0/"
	 x="0px" y="0px" width="32px" height="32px" viewBox="0 0 32 32" enable-background="new 0 0 32 32" xml:space="preserve">
<defs>
</defs>
<g>
	<g>
		<path d="M30,2v28H2V2H30 M32,0H0v32h32V0L32,0z"/>
	</g>
	<path class="icono" d="M24.79,15.79c0,4.3-3.52,7.8-7.85,7.8c-1.38,0-2.67-0.35-3.8-0.97L8.79,24l1.42-4.18
		c-0.72-1.17-1.13-2.55-1.13-4.02c0-4.3,3.52-7.8,7.86-7.8C21.27,8,24.79,11.49,24.79,15.79z M16.93,9.24
		c-3.64,0-6.61,2.94-6.61,6.55c0,1.44,0.47,2.76,1.26,3.84l-0.82,2.43l2.54-0.8c1.04,0.69,2.29,1.08,3.63,1.08
		c3.64,0,6.6-2.94,6.6-6.56C23.54,12.18,20.57,9.24,16.93,9.24z M20.9,17.59c-0.05-0.08-0.17-0.13-0.36-0.23
		c-0.2-0.1-1.14-0.55-1.32-0.61c-0.17-0.06-0.3-0.1-0.43,0.09c-0.13,0.19-0.5,0.62-0.61,0.75c-0.12,0.13-0.23,0.14-0.42,0.05
		c-0.19-0.09-0.81-0.3-1.55-0.95c-0.57-0.5-0.96-1.13-1.07-1.32c-0.11-0.19-0.01-0.3,0.08-0.39c0.09-0.09,0.19-0.23,0.29-0.34
		c0.1-0.11,0.13-0.19,0.19-0.32c0.06-0.13,0.03-0.24-0.02-0.34c-0.05-0.1-0.44-1.03-0.59-1.42c-0.16-0.38-0.32-0.32-0.43-0.32
		c-0.12,0-0.24-0.02-0.37-0.02c-0.13,0-0.34,0.05-0.51,0.24c-0.17,0.19-0.67,0.65-0.67,1.59c0,0.94,0.69,1.85,0.79,1.98
		c0.1,0.13,1.33,2.11,3.29,2.88c1.96,0.77,1.96,0.51,2.31,0.48c0.35-0.03,1.14-0.46,1.3-0.91C20.95,18.05,20.95,17.67,20.9,17.59z"
		/>
</g>
</svg>
