<svg style="display: none;"><defs>                                            <symbol id="youtube-youtube" viewBox="-11 -8.42 22 16.84"> <g> <path class="icono" d="M10.72,4.52l-0.01,0.07c-0.03,0.26-0.1,0.51-0.19,0.74h0.01c-0.35,1.48-2.01,2.61-4.08,2.8l-0.1,0.01
				c-4.22,0.37-8.48,0.37-12.7,0l-0.1-0.01c-2.07-0.18-3.73-1.32-4.08-2.8h0c-0.09-0.24-0.16-0.48-0.19-0.74l-0.01-0.07
				c-0.37-3.02-0.37-6.07,0-9.09l0.01-0.07c0.05-0.38,0.16-0.74,0.32-1.07C-9.87-7-8.34-7.97-6.44-8.13l0.1-0.01
				c4.22-0.37,8.48-0.37,12.7,0l0.1,0.01c1.95,0.17,3.52,1.19,3.99,2.54c0.13,0.3,0.23,0.62,0.27,0.95l0.01,0.07
				C11.09-1.55,11.09,1.5,10.72,4.52z M-4.11-4.66v9.33L5.22,0L-4.11-4.66z"/> </g> </symbol> </defs><symbol viewBox="0 0 36 36" id="shape-alcohol"><title>alcohol</title>  <g> <path fill="#3C342A" d="M23.9,10.5c-0.2,0-0.5-0.1-0.7-0.2l0,0c-0.9-0.5-1.5-1.5-1.5-2.5V4.5c0-0.2,0.2-0.4,0.4-0.4l0,0
		c0.3,0,0.5-0.2,0.5-0.5V2.1c0-0.3-0.2-0.6-0.4-0.7C22.1,1.3,22,1.2,22,1V0.6C22,0.3,20.2,0,18,0s-4,0.3-4,0.6V1
		c0,0.1-0.1,0.2-0.2,0.3c-0.3,0.1-0.4,0.4-0.4,0.7v1.5c0,0.3,0.2,0.5,0.5,0.5l0,0c0.2,0,0.4,0.2,0.4,0.4v3.2c0,1.1-0.6,2-1.5,2.5
		l0,0c-0.2,0.1-0.4,0.2-0.7,0.2c-1.9,0.2-3.5,1.8-3.5,3.8v20.4c0,0.8,0.7,1.4,1.5,1.4c1.9-0.1,5.3-0.2,8-0.2c2.6,0,5.9,0,7.8,0.2
		c0.8,0.1,1.5-0.6,1.5-1.4V14.3C27.4,12.3,25.8,10.7,23.9,10.5z M20.1,22.5l-3.2,7.6h-1.5l2.9-6.8c-0.2,0-0.4,0.1-0.8,0.1
		c-0.2,0-0.3,0-0.5,0c0,0.1,0,0.2,0,0.2v0.1c0,1.3-0.9,2-2,2c-1.2,0-2.1-0.7-2.1-2v-0.1c0-1.3,0.9-2,2.1-2c0.3,0,0.6,0.1,0.9,0.2
		c0.6,0.2,1.1,0.3,2,0.3c1,0,1.9-0.2,2.3-0.3L20.1,22.5L20.1,22.5z M20.9,26c1.2,0,2,0.7,2,2v0.1c0,1.3-0.9,2-2,2
		c-1.2,0-2.1-0.7-2.1-2V28C18.8,26.8,19.7,26,20.9,26z M12.2,11.6c0.4,0,0.8-0.1,1.1-0.3c1.3-0.7,2.2-2,2.2-3.5V4.5
		c0-0.6-0.4-1.2-1-1.4V2.3c0.3-0.3,0.5-0.6,0.6-1c0.5-0.1,1.5-0.2,2.9-0.2s2.4,0.1,2.9,0.2c0.1,0.4,0.3,0.7,0.6,1v0.8
		c-0.6,0.2-1,0.8-1,1.4v3.3c0,1.5,0.8,2.8,2.1,3.5c0.4,0.2,0.8,0.3,1.1,0.3c1.4,0.1,2.4,1.3,2.4,2.6v2.4c-5.5,2.1-11-2.4-16.5-0.4
		v-2C9.8,12.9,10.8,11.7,12.2,11.6z M15.8,23.6v0.1c0,0.5-0.3,0.8-0.7,0.8H15c-0.5,0-0.8-0.3-0.8-0.8v-0.1c0-0.5,0.3-0.8,0.8-0.8
		l0,0C15.5,22.8,15.8,23.1,15.8,23.6z M20.1,28.2v-0.1c0-0.5,0.3-0.8,0.8-0.8H21c0.5,0,0.7,0.3,0.7,0.8v0.1c0,0.5-0.3,0.8-0.7,0.8
		h-0.1C20.4,29,20.1,28.7,20.1,28.2z"/> <rect fill="none" width="36" height="36"/> </g> </symbol><symbol viewBox="0 0 96 96" id="shape-alone"><title>alone</title>  <g> <g> <path fill="#FFFFFF" d="M48,0C21.5,0,0,21.5,0,48s21.5,48,48,48s48-21.5,48-48S74.5,0,48,0z M47.7,19.6c4.1,0,7.5,3.3,7.5,7.5
			c0,4.1-3.3,7.5-7.5,7.5s-7.5-3.3-7.5-7.5C40.3,23,43.6,19.6,47.7,19.6z M64.7,72.2L64.7,72.2c-2.1,0-3.8-1.7-3.8-3.8
			c0-0.2-0.2-12.3-5.1-19.1L56,68.3c0.1,4.4-3.5,8-7.9,8.1H48c-4.4,0-7.9-3.5-8-7.9l-0.2-19c-3.8,5.7-4.7,15.4-4.7,19
			c0,2.1-1.7,3.8-3.8,3.8c0,0,0,0,0,0c-2.1,0-3.8-1.7-3.8-3.8c0-0.7-0.1-17.7,8.4-26.3c3.2-3.2,7.2-4.9,11.8-4.9
			c6,0,14.1,2.8,18.3,16.3c2.3,7.3,2.4,14.5,2.4,14.8C68.5,70.5,66.8,72.2,64.7,72.2z"/> </g> </g> </symbol><symbol viewBox="0 0 36 36" id="shape-cata"><title>cata</title>  <g> <rect fill="none" width="36" height="36"/> <path fill="#3C342A" d="M32.5,26.3c-0.9-0.1-1.7-0.3-2.1-0.5c-1-0.6-2.1-1.7-4.9,0.1c-2.8,1.8-5.8,0-5.8,0c0.7,3,4.7,6.6,7.5,6.5
		c2.8,0,5.4-2.7,5.5-5.5C32.5,26.6,32.5,26.5,32.5,26.3z M33.1,31.7c1.1-1.4,1.8-3.1,1.8-4.9c0.1-4.3-5.2-9.8-9.5-10H25l-8,8.1v0.4
		c0.2,4.3,5.8,9.6,10,9.5c1.8,0,3.5-0.7,4.9-1.8l3.1,3c0.5-0.1,1-0.5,1-1.1v-0.2L33.1,31.7z M27.1,33.1c-3.3,0.1-7.9-4.2-8.4-7.6
		l7-7c3.4,0.5,7.7,5,7.6,8.4C33.3,30.1,30.4,33,27.1,33.1z"/> <path display="none" fill="none" stroke="#3C342A" stroke-width="2" stroke-linecap="round" stroke-miterlimit="10" d="M7,1.2
		l9.9,16.5c1,1.6,0.6,4.1-1.8,4.1s-6.3-0.3-10.2,1.9c-1.6,0.8-3.3-0.9-3.2-2.6c0.1-3.2,3.6-3.5,3.6-3.5"/> <g> <path fill="#3C342A" d="M5.3,25.1c-1.4,0.1-2.4-0.2-2.9-0.6c-1.1-0.7-1.9-2.1-1.8-3.4c0.1-3.2,3-4.3,4.6-4.4c0.6,0,1,0.4,1.1,0.9
			c0,0.6-0.4,1-0.9,1.1c-0.3,0-2.6,0.3-2.7,2.5c0,0.6,0.3,1.3,0.9,1.6c0.5,0.3,0.8,0.1,0.9,0.1c3.7-2,7.4-2,9.8-2c0.3,0,0.6,0,0.9,0
			c0.6,0,1-0.2,1.2-0.6c0.3-0.5,0.2-1.4-0.2-2L6.1,1.8C5.8,1.3,6,0.7,6.5,0.4s1.1-0.1,1.4,0.3l9.9,16.5c0.8,1.3,0.9,2.9,0.2,4
			c-0.6,1-1.6,1.7-2.9,1.6C10.3,22.6,9,24.7,5.3,25.1z"/> </g> </g> </symbol><symbol viewBox="0 0 96 96" id="shape-celebrate"><title>celebrate</title>  <g> <g> <path fill="#FFFFFF" d="M66.8,48.1c1-2,1.2-4.3,0.5-6.5l-6-13.9l-13.7,4.5l3.6,14.8c1.1,3.3,4.3,5.7,8,5.7c0.9,0,1.8-0.1,2.7-0.4
			C64,51.6,65.8,50.1,66.8,48.1z M61.3,50.7c-3.4,1.1-7.1-0.7-8.3-4.1L51,36.9c3.3-2.3,2.9,5.7,8.8,3.8c4.1-1.3,5.5,1.2,5.8,1.9
			C66.6,45.9,64.7,49.5,61.3,50.7z M26.4,50.2c-0.4,2.1,0,4.3,1.2,6.2c1.2,1.9,3.1,3.2,5.3,3.7h0c4.5,1,9.1-2,10.1-6.5l2-15l-14.1-3
			L26.4,50.2z M33.8,48.2c6.1,1.3,4.8-6.6,8.3-4.7L41,53.4c-0.8,3.5-4.2,5.8-7.8,5c-3.5-0.8-5.7-4.2-5-7.7
			C28.5,50,29.6,47.3,33.8,48.2z M48,0C21.5,0,0,21.5,0,48s21.5,48,48,48s48-21.5,48-48S74.5,0,48,0z M45,23.1
			c1-0.1,1.8,0.7,1.9,1.7c0.1,1-0.7,1.8-1.7,1.9c-1,0.1-1.8-0.7-1.9-1.7C43.3,24,44,23.2,45,23.1z M40.9,28c0.1,1-0.7,1.8-1.7,1.9
			c-1,0.1-1.8-0.7-1.9-1.7c-0.1-1,0.7-1.8,1.7-1.9C40,26.3,40.8,27,40.9,28z M38.1,20c1-0.1,1.8,0.7,1.9,1.7c0.1,1-0.7,1.8-1.7,1.9
			c-1,0.1-1.8-0.7-1.9-1.7C36.4,20.9,37.1,20.1,38.1,20z M72.4,64.5l-11.7,3.9c-0.2,0.1-0.3,0.1-0.5,0.1c-0.7,0-1.4-0.5-1.6-1.3
			c-0.1-0.8,0.4-1.5,1.1-1.8l4.3-1.4l-2.8-8.3c-0.7,0.1-1.4,0.2-2.1,0.2c-5,0-9.4-3.2-11-8l-0.8-3.4l-1.3,9.6
			c-1.2,5.4-5.9,9.3-11.4,9.3c-0.3,0-0.6,0-0.9,0l-1.8,8.5l4.4,1c0.8,0.2,1.4,0.9,1.3,1.7c-0.1,0.8-0.8,1.4-1.6,1.4
			c-0.1,0-0.2,0-0.3,0l-6-1.3c0,0,0,0,0,0l0,0l-6-1.3c-0.8-0.2-1.4-0.9-1.3-1.6c0.1-1,1-1.6,1.9-1.5l4.5,1l1.8-8.5
			c-2.4-0.9-4.4-2.4-5.8-4.6c-1.7-2.6-2.2-5.7-1.6-8.8l4.3-14.1c0.6-1.9,2.6-3.1,4.5-2.7l12.9,2.8l-0.4-1.7c-0.5-2,0.6-4,2.6-4.6
			L59.6,25c1.9-0.6,4,0.3,4.8,2.1l5.8,13.4c1,3.1,0.8,6.2-0.6,9c-1.2,2.3-3,4.1-5.3,5.2l2.8,8.3l4.4-1.5c0.9-0.3,1.9,0.3,2.1,1.3
			C73.7,63.6,73.1,64.3,72.4,64.5z"/> </g> </g> </symbol><symbol viewBox="0 0 96 96" id="shape-cook"><title>cook</title>  <g> <g> <path fill="#FFFFFF" d="M48,0L48,0C21.5,0,0,21.5,0,48l0,0c0,26.5,21.5,48,48,48l0,0c26.5,0,48-21.5,48-48l0,0
			C96,21.5,74.5,0,48,0z M50.8,22.7c0.4-1.4,1.4-2.5,2.7-2.7c-0.5,1.1-0.6,2.1-0.5,2.9c0.1,0.8,0.5,1.4,1,2.2
			c0.1,0.2,0.3,0.4,0.4,0.5c0.2,0.2,0.4,0.5,0.5,0.7c0.3,0.5,0.7,1.1,0.9,1.8c0.1,0.3,0.2,0.7,0.1,1.2c0,0.4-0.2,0.9-0.5,1.2
			c-0.3,0.3-0.7,0.5-1,0.5c-0.3,0-0.7,0-1-0.1c0.3-0.2,0.5-0.4,0.6-0.6c0.2-0.2,0.2-0.4,0.2-0.6c0-0.1-0.1-0.2-0.2-0.4
			c-0.1-0.1-0.2-0.3-0.3-0.4c-0.3-0.3-0.6-0.7-0.9-1l-0.5-0.5c-0.2-0.2-0.4-0.5-0.6-0.7c-0.4-0.5-0.7-1.2-0.9-1.8
			C50.7,24.2,50.6,23.4,50.8,22.7z M44.2,22.7c0.4-1.4,1.4-2.5,2.7-2.7c-0.5,1.1-0.6,2.1-0.5,2.9c0.1,0.8,0.5,1.4,1,2.2
			c0.1,0.2,0.3,0.4,0.4,0.5c0.2,0.2,0.4,0.5,0.5,0.7c0.3,0.5,0.7,1.1,0.9,1.8c0.1,0.3,0.2,0.7,0.1,1.2c0,0.4-0.2,0.9-0.5,1.2
			c-0.3,0.3-0.7,0.5-1,0.5c-0.3,0-0.7,0-1-0.1c0.3-0.2,0.5-0.4,0.6-0.6c0.2-0.2,0.2-0.4,0.2-0.6c0-0.1-0.1-0.2-0.2-0.4
			c-0.1-0.1-0.2-0.3-0.3-0.4c-0.3-0.3-0.6-0.7-0.9-1l-0.5-0.5c-0.2-0.2-0.4-0.5-0.6-0.7c-0.4-0.5-0.7-1.2-0.9-1.8
			C44,24.2,44,23.4,44.2,22.7z M36.9,22.7c0.4-1.4,1.4-2.5,2.7-2.7c-0.5,1.1-0.6,2.1-0.5,2.9c0.1,0.8,0.5,1.4,1,2.2
			c0.1,0.2,0.3,0.4,0.4,0.5c0.2,0.2,0.4,0.5,0.5,0.7c0.3,0.5,0.7,1.1,0.9,1.8c0.1,0.3,0.2,0.7,0.1,1.2c0,0.4-0.2,0.9-0.5,1.2
			c-0.3,0.3-0.7,0.5-1,0.5c-0.3,0-0.7,0-1-0.1c0.2-0.2,0.5-0.4,0.6-0.6c0.2-0.2,0.2-0.4,0.2-0.6c0-0.1-0.1-0.2-0.2-0.4
			c-0.1-0.1-0.2-0.3-0.3-0.4c-0.3-0.3-0.6-0.7-0.9-1l-0.5-0.5c-0.2-0.2-0.4-0.5-0.6-0.7c-0.4-0.5-0.7-1.2-0.9-1.8
			C36.8,24.2,36.7,23.4,36.9,22.7z M33.7,40.2h12c-1.1,0-2-0.9-2-2c0-1.1,0.9-2,2-2h4.9c1.1,0,2,0.9,2,2c0,1.1-0.9,2-2,2h12
			c3.3,0,6.1,3,6.6,6.2H27.1C27.7,43.1,30.4,40.2,33.7,40.2z M76,52.5h-6.7v16.8c0,3.7-3,6.7-6.7,6.7H33.7C30,76,27,73,27,69.3V51.9
			h-7v-2.8h49.3v0.6H76V52.5z"/> </g> </g> </symbol><symbol viewBox="0 0 96 96" id="shape-couple"><title>couple</title>  <g> <g> <path fill="#FFFFFF" d="M48,0C21.5,0,0,21.5,0,48s21.5,48,48,48s48-21.5,48-48S74.5,0,48,0z M68,32.6c0,3.7-3,6.6-6.6,6.6
			c-3.7,0-6.6-3-6.6-6.6s3-6.6,6.6-6.6C65,26,68,28.9,68,32.6z M53.3,18c0.1,0.1,0.2,0.1,0.2,0c1.9-3.2,6.1,0.1,3.5,3.3
			c-1.3,1.6-2.6,2.6-3.2,3c-0.3,0.2-0.6,0.2-0.8,0c-0.7-0.4-2-1.4-3.2-3C47.2,18.1,51.4,14.8,53.3,18z M44,22.3c0,0.1,0.1,0.1,0.2,0
			c1.6-2.7,5.1,0.1,3,2.8c-1.1,1.3-2.2,2.2-2.7,2.5c-0.2,0.1-0.5,0.1-0.7,0c-0.6-0.4-1.7-1.2-2.7-2.5C38.8,22.4,42.4,19.6,44,22.3z
			 M34.2,26c3.7,0,6.6,3,6.6,6.6s-3,6.6-6.6,6.6s-6.6-3-6.6-6.6S30.5,26,34.2,26z M77.8,72.7L77.8,72.7c-1.9,0-3.4-1.5-3.4-3.3
			c0-0.1-0.2-11-4.5-17L70,69.2c0,3.9-3.1,7.1-7,7.2H63c-3.9,0-7-3.1-7.1-7l-0.2-16.9c-3.4,5.1-4.2,13.6-4.1,16.8
			c0,1.9-1.5,3.4-3.3,3.4h0c-0.1,0-0.1,0-0.2,0c-0.1,0-0.1,0-0.2,0h0c-1.8,0-3.4-1.5-3.4-3.3c0-0.1-0.2-11-4.5-17l0.2,16.8
			c0,3.9-3.1,7.1-7,7.2H33c-3.9,0-7-3.1-7.1-7l-0.2-16.9c-3.4,5.1-4.2,13.6-4.1,16.8c0,1.9-1.5,3.4-3.3,3.4h0
			c-1.8,0-3.4-1.5-3.4-3.3c0-0.6-0.1-15.8,7.4-23.3c2.9-2.9,6.4-4.3,10.5-4.3c4.8,0,11.1,2,15.1,11.2c1.1-2.5,2.5-5,4.4-6.9
			c2.9-2.9,6.4-4.3,10.5-4.3c5.3,0,12.5,2.5,16.3,14.5c2,6.5,2.1,12.8,2.1,13.1C81.1,71.2,79.7,72.7,77.8,72.7z"/> </g> </g> </symbol><symbol viewBox="0 0 21.5 12.56" id="shape-dropdown"><title>dropdown</title>  <polyline fill="none" stroke-width="2" stroke-miterlimit="10" points="20.77,0.69 10.75,11.11 0.72,0.69 "/> </symbol><symbol viewBox="0 0 96 96" id="shape-eat"><title>eat</title>  <g> <g> <path fill="#FFFFFF" d="M48,0L48,0C21.5,0,0,21.5,0,48l0,0c0,26.5,21.5,48,48,48l0,0c26.5,0,48-21.5,48-48l0,0
			C96,21.5,74.5,0,48,0z M48,33.2c0,1-3.7,4.3-4.6,4.7v34.2c0,0.9-0.3,1.7-1,2.3c-0.6,0.6-1.4,1-2.3,1c0,0,0,0,0,0h-0.1c0,0,0,0,0,0
			c-0.9,0-1.6-0.3-2.3-1c-0.7-0.7-1-1.4-1-2.3V37.9c-1-0.3-5.3-3.6-5.3-4.7V19.5c0-0.4,0.2-0.8,0.5-1.2c0.3-0.3,0.7-0.5,1.2-0.5
			c0.4,0,0.8,0.2,1.2,0.5c0.3,0.3,0.5,0.7,0.5,1.2v10.7c0,0.4,0.2,0.8,0.5,1.2c0.3,0.3,0.7,0.5,1.2,0.5c0.4,0,0.8-0.2,1.2-0.5
			c0.3-0.3,0.5-0.7,0.5-1.2V19.5c0-0.4,0.2-0.8,0.5-1.2c0.3-0.3,0.7-0.5,1.2-0.5c0.4,0,0.8,0.2,1.2,0.5c0.3,0.3,0.5,0.7,0.5,1.2
			v10.7c0,0.4,0.2,0.8,0.5,1.2c0.3,0.3,0.7,0.5,1.2,0.5c0.4,0,0.8-0.2,1.2-0.5c0.3-0.3,0.5-0.7,0.5-1.2V19.5c0-0.4,0.2-0.8,0.5-1.2
			c0.3-0.3,0.7-0.5,1.2-0.5c0.4,0,0.8,0.2,1.2,0.5c0.3,0.3,0.5,0.7,0.5,1.2V33.2z M64.4,72.8c0,0.9-0.3,1.7-1,2.3
			c-0.6,0.6-1.4,1-2.3,1c0,0,0,0,0,0h-0.1c0,0,0,0,0,0c-0.9,0-1.6-0.3-2.3-1c-0.7-0.7-1-1.4-1-2.3V46.1h-3.7c-0.2,0-0.4-0.1-0.6-0.2
			c-0.2-0.2-0.2-0.4-0.2-0.6V24.7c0-2.3,0.8-4.2,2.4-5.8s3.6-2.4,5.8-2.4h1.2c0.4,0,0.8,0.2,1.2,0.5c0.3,0.3,0.5,0.7,0.5,1.2V72.8z"/> </g> </g> </symbol><symbol viewBox="0 0 32 32" id="shape-facebook"><title>facebook</title>  <g> <g> <path d="M30,2v28H2V2H30 M32,0H0v32h32V0L32,0z"/> </g> <path class="icono" d="M14.88,24v-7.51H12.9v-2.7h1.99c0,0,0-1.11,0-2.31c0-1.81,1.17-3.48,3.87-3.48c1.09,0,1.9,0.1,1.9,0.1
		l-0.06,2.52c0,0-0.83-0.01-1.73-0.01c-0.97,0-1.13,0.45-1.13,1.19c0,0.59,0-1.26,0,1.97h2.93l-0.13,2.7h-2.81V24H14.88z"/> </g> </symbol><symbol viewBox="0 0 96 96" id="shape-family"><title>family</title>  <g> <g> <path fill="#FFFFFF" d="M48,0C21.5,0,0,21.5,0,48s21.5,48,48,48s48-21.5,48-48S74.5,0,48,0z M59.9,34c1.2-0.8,2.8-0.6,3.8,0.4
			c0.3,0.2,0.5,0.5,0.6,0.8c-0.1,0.1-0.3,0.2-0.4,0.3c-2.1,1.6-4.8,2.5-7.9,2.9c0.3-0.2,0.6-0.4,0.9-0.6c1.1-0.9,1.9-2,2.6-3.2
			C59.7,34.4,59.8,34.2,59.9,34z M53.1,24.8c3.4,0,6.1,2.7,6.1,6.1c0,3.4-2.7,6.1-6.1,6.1c-3.4,0-6.1-2.7-6.1-6.1
			C47,27.5,49.7,24.8,53.1,24.8z M37.2,24.8c3.4,0,6.1,2.7,6.1,6.1c0,3.4-2.7,6.1-6.1,6.1c-3.4,0-6.1-2.7-6.1-6.1
			C31.1,27.5,33.8,24.8,37.2,24.8z M22.8,41.8c0.5-1.2,1.7-1.9,2.9-1.9c0.4,0,0.8,0.1,1.2,0.2c0.2,0.1,0.4,0.1,0.5,0.2
			c-1.5,1.2-2.7,2.9-3.8,5C22.7,44.4,22.3,43.1,22.8,41.8z M37.5,71.2C37.5,71.2,37.4,71.2,37.5,71.2c-3.6,0-6.6-2.9-6.6-6.4
			l-0.2-16.9c-2.9,4.6-3.7,13.6-3.8,16.9c0,1.7-1.4,3.1-3.1,3.1h0c-1.7,0-3.1-1.4-3.1-3.1c0-0.2,0.1-4.5,1-9.4
			c0.7-3.7,1.7-6.9,3-9.3c0.2-0.4,0.4-0.7,0.6-1.1c1-1.7,2.2-3.1,3.5-4c0,0,0,0,0,0c2.6-1.9,5.9-2.4,9.3-1.4c3.7,1.1,7.1,1.2,10,0.7
			c-1.3,0.3-2.9,0.7-4.7,0.9l-2.1,0.3l0.8,1.1c0,0,0,0,0,0c1,1.1,1.7,2.6,1.7,4.2c0,0,0,0.1,0,0.1l0,1.8l0.2,16.2
			C44,68.2,41.1,71.2,37.5,71.2z M75.2,32.4C75,32.9,72,42.8,59.5,45.5c0.1,0.4,0.1,0.8,0.1,1.2l0.2,18c0,3.6-2.8,6.6-6.4,6.6
			c0,0-0.1,0-0.1,0c-3.6,0-6.5-2.9-6.5-6.4L46.6,48c-0.5,0.1-1.1,0.2-1.6,0.3l0-1.6c0,0,0-0.1,0-0.1c0-1.6-0.6-3.1-1.5-4.4
			c4.5-0.5,7.7-1.7,8.3-2c0.4-0.2,0.9-0.3,1.3-0.3c5.4,0,9.1-1.5,11.5-3.3c3.6-2.6,4.6-5.8,4.6-5.9c0.5-1.6,2.2-2.6,3.9-2.1
			C74.7,29,75.7,30.8,75.2,32.4z"/> </g> </g> </symbol><symbol viewBox="0 0 18.12 33.41" id="shape-flex-next"><title>flex-next</title>  <polyline fill="none" stroke-width="2" stroke-miterlimit="10" points="0.71,0.71 16.71,16.71 0.71,32.71 "/> </symbol><symbol viewBox="0 0 18.12 33.41" id="shape-flex-prev"><title>flex-prev</title>  <polyline fill="none" stroke-width="2" stroke-miterlimit="10" points="17.41,32.71 1.41,16.71 17.41,0.71 "/> </symbol><symbol viewBox="0 0 96 96" id="shape-gift"><title>gift</title>  <g> <g> <path fill="#FFFFFF" d="M65.5,25.2c0-1.4-1.9-1.8-3.5-1.8c-3.6,0-6.3,1.6-8,3.4l0.1,0.1H62C63.6,27,65.5,26.7,65.5,25.2z M48,30.5
			L48,30.5L48,30.5L48,30.5z M30.5,25.2c0,1.4,1.9,1.8,3.5,1.8h7.7l0.2-0.3c-1.8-1.7-4.4-3.2-7.9-3.2C32.4,23.5,30.5,23.8,30.5,25.2
			z M48,0C21.5,0,0,21.5,0,48s21.5,48,48,48s48-21.5,48-48S74.5,0,48,0z M44.5,76H27c-1.9,0-3.5-1.6-3.5-3.5V48h21V76z M44.5,44.5
			H20v-7c0-1.9,1.6-3.5,3.5-3.5h21V44.5z M34,30.5c-4.8,0-7-2.4-7-5.2s2.2-5.2,7-5.2c4.5,0,8,2,10.4,4.3c1-0.6,2.2-0.9,3.5-0.9
			c1.3,0,2.5,0.4,3.6,1C53.9,22,57.5,20,62,20c4.8,0,7,2.4,7,5.2s-2.2,5.2-7,5.2H48H34z M72.5,72.5c0,1.9-1.6,3.5-3.5,3.5H51.6V48
			h20.9V72.5z M76,44.5H51.6V34h20.9c1.9,0,3.5,1.6,3.5,3.5V44.5z"/> </g> </g> </symbol><symbol viewBox="0 0 32 32" id="shape-google-plus"><title>google-plus</title> <path d="M30,2v28H2V2H30 M32,0H0v32h32V0L32,0z"/> <path d="M16.7,9.3c0.1,0.1,0.3,0.2,0.4,0.4c0.2,0.1,0.3,0.3,0.4,0.5c0.1,0.2,0.3,0.5,0.4,0.7c0.1,0.3,0.2,0.6,0.2,1
		c0,0.4,0,0.7-0.1,0.9c-0.1,0.3-0.2,0.5-0.4,0.7c-0.2,0.2-0.3,0.4-0.5,0.6c-0.2,0.2-0.4,0.3-0.6,0.5c-0.1,0.1-0.3,0.3-0.4,0.4
		c-0.1,0.1-0.2,0.3-0.2,0.5c0,0.2,0.1,0.4,0.2,0.5c0.1,0.1,0.2,0.2,0.3,0.3l0.7,0.5c0.2,0.2,0.4,0.4,0.6,0.5
		c0.2,0.2,0.4,0.4,0.5,0.6c0.1,0.2,0.3,0.4,0.4,0.7c0.1,0.3,0.1,0.6,0.1,0.9c0,0.4-0.1,0.9-0.3,1.3c-0.2,0.4-0.5,0.8-1,1.2
		c-0.4,0.3-1,0.6-1.6,0.8c-0.6,0.2-1.4,0.3-2.2,0.3c-0.7,0-1.3-0.1-1.8-0.2c-0.5-0.2-1-0.4-1.3-0.6c-0.3-0.3-0.6-0.5-0.8-0.9
		c-0.2-0.3-0.3-0.7-0.3-1c0-0.3,0.1-0.7,0.3-1.2c0.2-0.4,0.6-0.8,1.2-1.2c0.3-0.2,0.6-0.3,1-0.4c0.3-0.1,0.7-0.2,1-0.3
		c0.3-0.1,0.6-0.1,0.9-0.1c0.3,0,0.6,0,0.8-0.1c-0.1-0.2-0.3-0.4-0.4-0.6c-0.1-0.2-0.2-0.4-0.2-0.7c0-0.2,0-0.3,0.1-0.4
		c0-0.1,0.1-0.2,0.1-0.3c-0.1,0-0.2,0-0.3,0c-0.1,0-0.2,0-0.3,0c-0.5,0-1-0.1-1.4-0.3c-0.4-0.2-0.7-0.4-1-0.7
		c-0.3-0.3-0.5-0.6-0.6-1c-0.1-0.4-0.2-0.7-0.2-1.1c0-0.4,0.1-0.9,0.3-1.4c0.2-0.5,0.5-0.9,0.9-1.2c0.6-0.4,1.1-0.7,1.7-0.9
		c0.6-0.1,1.2-0.2,1.7-0.2h4l-1.2,0.7H16.7z M17.4,20.4c0-0.2,0-0.5-0.1-0.7c-0.1-0.2-0.2-0.4-0.4-0.6c-0.2-0.2-0.4-0.4-0.7-0.6
		c-0.3-0.2-0.6-0.4-0.9-0.7c-0.1,0-0.1,0-0.2,0c-0.1,0-0.1,0-0.2,0c0,0-0.1,0-0.3,0c-0.1,0-0.3,0-0.5,0c-0.2,0-0.4,0.1-0.6,0.1
		c-0.2,0-0.4,0.1-0.6,0.2c-0.1,0-0.2,0.1-0.4,0.2c-0.2,0.1-0.4,0.2-0.5,0.4c-0.2,0.2-0.3,0.3-0.5,0.6c-0.1,0.2-0.2,0.5-0.2,0.9
		c0,0.7,0.3,1.3,0.9,1.7c0.6,0.4,1.4,0.7,2.5,0.7c0.9,0,1.6-0.2,2.1-0.6C17.2,21.5,17.4,21,17.4,20.4z M14.6,14.8
		c0.2,0,0.5-0.1,0.7-0.2c0.2-0.1,0.4-0.2,0.6-0.4c0.2-0.2,0.4-0.5,0.4-0.7c0.1-0.3,0.1-0.5,0.1-0.7c0-0.3-0.1-0.7-0.2-1.1
		c-0.1-0.4-0.3-0.8-0.5-1.2c-0.2-0.4-0.5-0.7-0.8-0.9c-0.3-0.2-0.7-0.4-1-0.4c-0.3,0-0.5,0.1-0.8,0.2c-0.2,0.1-0.4,0.3-0.6,0.5
		c-0.2,0.2-0.3,0.4-0.3,0.7c-0.1,0.2-0.1,0.5-0.1,0.8c0,0.3,0,0.7,0.1,1.1c0.1,0.4,0.2,0.8,0.4,1.1c0.2,0.3,0.4,0.6,0.8,0.9
		C13.8,14.7,14.2,14.8,14.6,14.8z M24,15.1h-1.9v-1.9h-0.8v1.9h-1.9v0.8h1.9v1.9h0.8v-1.9H24V15.1z"/> </symbol><symbol viewBox="0 0 32 32" id="shape-gplus"><title>gplus</title>  <g> <g> <path d="M30,2v28H2V2H30 M32,0H0v32h32V0L32,0z"/> </g> <path class="icono" d="M16.72,9.34c0.12,0.09,0.25,0.21,0.4,0.36c0.15,0.15,0.3,0.33,0.44,0.54c0.14,0.21,0.26,0.46,0.37,0.74
		c0.1,0.28,0.15,0.6,0.15,0.96c0,0.36-0.04,0.67-0.14,0.94c-0.09,0.27-0.21,0.51-0.36,0.72c-0.16,0.21-0.33,0.4-0.52,0.58
		c-0.19,0.17-0.39,0.34-0.6,0.49c-0.13,0.13-0.25,0.26-0.36,0.4c-0.12,0.14-0.17,0.32-0.17,0.54c0,0.22,0.06,0.39,0.17,0.51
		c0.11,0.12,0.22,0.23,0.33,0.32l0.69,0.54c0.21,0.18,0.41,0.36,0.61,0.54c0.2,0.18,0.37,0.37,0.52,0.58
		c0.15,0.21,0.27,0.44,0.36,0.69c0.09,0.26,0.14,0.55,0.14,0.89c0,0.45-0.11,0.89-0.33,1.33c-0.22,0.44-0.54,0.83-0.96,1.17
		c-0.42,0.34-0.95,0.62-1.59,0.83c-0.63,0.21-1.36,0.32-2.19,0.32c-0.69,0-1.3-0.08-1.82-0.23c-0.52-0.15-0.95-0.36-1.3-0.62
		c-0.35-0.26-0.6-0.55-0.77-0.88c-0.17-0.33-0.25-0.67-0.25-1.03c0-0.35,0.11-0.74,0.32-1.18c0.21-0.44,0.6-0.83,1.16-1.16
		c0.29-0.18,0.61-0.32,0.95-0.43c0.34-0.11,0.68-0.2,1.01-0.26c0.33-0.07,0.65-0.11,0.94-0.13c0.29-0.03,0.55-0.05,0.77-0.06
		c-0.14-0.18-0.27-0.37-0.39-0.57c-0.12-0.2-0.18-0.45-0.18-0.74c0-0.17,0.02-0.3,0.06-0.41c0.04-0.11,0.08-0.22,0.13-0.34
		c-0.1,0.01-0.21,0.02-0.31,0.03c-0.1,0.01-0.21,0.01-0.31,0.01c-0.51,0-0.97-0.09-1.37-0.26c-0.4-0.17-0.73-0.4-1-0.68
		c-0.27-0.28-0.48-0.61-0.62-0.97c-0.14-0.37-0.21-0.73-0.21-1.11c0-0.45,0.1-0.9,0.31-1.36c0.2-0.45,0.51-0.86,0.92-1.22
		c0.55-0.45,1.13-0.74,1.74-0.87c0.61-0.13,1.18-0.19,1.7-0.19h3.96l-1.23,0.67H16.72z M17.45,20.44c0-0.24-0.04-0.47-0.13-0.66
		c-0.08-0.2-0.21-0.39-0.37-0.59c-0.17-0.19-0.39-0.39-0.65-0.6c-0.27-0.21-0.58-0.44-0.94-0.69c-0.08-0.01-0.14-0.02-0.2-0.02
		c-0.06,0-0.14,0-0.24,0c-0.04,0-0.13,0-0.27,0.01c-0.14,0.01-0.31,0.02-0.5,0.04c-0.19,0.02-0.4,0.05-0.62,0.1
		c-0.22,0.05-0.43,0.1-0.64,0.16c-0.1,0.04-0.25,0.1-0.43,0.18c-0.18,0.08-0.37,0.2-0.55,0.36c-0.18,0.15-0.34,0.35-0.47,0.58
		c-0.13,0.23-0.2,0.52-0.2,0.87c0,0.69,0.3,1.26,0.91,1.69c0.61,0.44,1.43,0.65,2.47,0.65c0.92,0,1.63-0.2,2.11-0.59
		C17.21,21.54,17.45,21.05,17.45,20.44z M14.6,14.79c0.24,0,0.49-0.05,0.72-0.15c0.24-0.1,0.43-0.23,0.59-0.39
		c0.22-0.22,0.35-0.46,0.4-0.73c0.05-0.27,0.08-0.49,0.08-0.68c0-0.35-0.05-0.73-0.15-1.14c-0.1-0.41-0.26-0.8-0.46-1.16
		c-0.21-0.36-0.46-0.66-0.76-0.9c-0.3-0.24-0.65-0.36-1.05-0.36c-0.26,0-0.51,0.06-0.75,0.17c-0.24,0.12-0.44,0.27-0.6,0.46
		c-0.17,0.21-0.28,0.43-0.34,0.68c-0.06,0.24-0.09,0.5-0.09,0.75c0,0.32,0.05,0.68,0.14,1.08c0.1,0.4,0.24,0.77,0.44,1.12
		c0.2,0.35,0.45,0.64,0.75,0.88C13.83,14.67,14.19,14.79,14.6,14.79z M24.04,15.08h-1.91v-1.91h-0.81v1.91H19.4v0.81h1.91v1.91h0.81
		v-1.91h1.91V15.08z"/> </g> </symbol><symbol viewBox="0 0 36 36" id="shape-guarda"><title>guarda</title>  <g> <g> <g> <g> <path fill="#3C342A" d="M33.5,23c0-2-0.9-3.8-2.3-5.1C31.1,17.9,31,18,31,18v10c0,0.1,0.1,0.1,0.2,0.1
					C32.6,26.9,33.5,25,33.5,23z"/> <path fill="#3C342A" d="M30.3,28.4V17.6c0-0.1-0.1-0.3-0.2-0.4c-0.8-0.4-1.6-0.7-2.5-0.8c-0.2,0-0.3,0.1-0.3,0.3v12.7
					c0,0.2,0.1,0.3,0.3,0.3c0.9-0.1,1.7-0.4,2.5-0.8C30.2,28.7,30.3,28.6,30.3,28.4z"/> <path fill="#3C342A" d="M23.7,17.4v11.2c0,0.2,0.1,0.3,0.2,0.4c0.8,0.4,1.6,0.6,2.5,0.7c0.2,0,0.3-0.1,0.3-0.3V16.7
					c0-0.2-0.1-0.3-0.3-0.3c-0.9,0.1-1.7,0.3-2.5,0.7C23.7,17.1,23.7,17.3,23.7,17.4z"/> <path fill="#3C342A" d="M20.2,23c0,2.2,1,4.1,2.7,5.3c0.1,0,0.2,0,0.2-0.1V17.8c0-0.1-0.1-0.1-0.2-0.1
					C21.2,18.9,20.2,20.8,20.2,23z"/> </g> <g> <path fill="#3C342A" d="M25.1,15.7L25,15.4c0-0.1-0.1-0.2-0.2-0.1c-1.1,0.3-2.2,0.8-3.1,1.6c-0.1,0.1-0.1,0.2,0,0.3l0.2,0.2
					c0.1,0.1,0.2,0.1,0.2,0c0.8-0.7,1.8-1.2,2.8-1.5C25,15.9,25.1,15.8,25.1,15.7z"/> <path fill="#3C342A" d="M21.4,17.8l-0.2-0.2c-0.1-0.1-0.2-0.1-0.3,0c-0.8,0.9-1.4,1.9-1.7,3c0,0.1,0,0.2,0.1,0.2l0.3,0.1
					c0.1,0,0.2,0,0.2-0.1c0.3-1,0.9-2,1.6-2.7C21.5,18,21.5,17.9,21.4,17.8z"/> <path fill="#3C342A" d="M29.3,15.9l0.1-0.3c0-0.1,0-0.2-0.1-0.2c-1.1-0.4-2.3-0.5-3.5-0.3c-0.1,0-0.2,0.1-0.2,0.2v0.3
					c0,0.1,0.1,0.2,0.2,0.2c1.1-0.1,2.1,0,3.2,0.3C29.2,16.1,29.3,16,29.3,15.9z"/> <path fill="#3C342A" d="M34.3,22.3h0.3c0.1,0,0.2-0.1,0.2-0.2c-0.1-1.2-0.5-2.3-1.1-3.3c-0.1-0.1-0.2-0.1-0.3-0.1l-0.3,0.2
					c-0.1,0.1-0.1,0.2,0,0.3c0.6,0.9,0.9,1.9,1,3C34.1,22.3,34.2,22.3,34.3,22.3z"/> <path fill="#3C342A" d="M32.7,18.4l0.2-0.2c0.1-0.1,0.1-0.2,0-0.3c-0.7-0.9-1.7-1.6-2.7-2.2c-0.1,0-0.2,0-0.2,0.1l-0.1,0.3
					c0,0.1,0,0.2,0.1,0.2c1,0.5,1.8,1.1,2.5,2C32.6,18.4,32.7,18.5,32.7,18.4z"/> <path fill="#3C342A" d="M30.5,29.6l0.2,0.3C30.8,30,30.9,30,31,30c1-0.6,1.9-1.4,2.5-2.4c0.1-0.1,0-0.2-0.1-0.3l-0.3-0.2
					c-0.1-0.1-0.2,0-0.2,0.1c-0.6,0.9-1.4,1.6-2.3,2.2C30.5,29.4,30.5,29.5,30.5,29.6z"/> <path fill="#3C342A" d="M34.1,23.2c0,1.1-0.3,2.1-0.7,3.1c0,0.1,0,0.2,0.1,0.2l0.3,0.1c0.1,0,0.2,0,0.2-0.1
					c0.5-1,0.8-2.4,0.8-3.4c0-0.1-0.1-0.2-0.2-0.2h-0.3C34.2,23,34.1,23.1,34.1,23.2z"/> <path fill="#3C342A" d="M26.4,30.5v0.3c0,0.1,0.1,0.2,0.2,0.2c1.2,0,2.3-0.2,3.4-0.6c0.1,0,0.1-0.2,0.1-0.2L30,29.9
					c0-0.1-0.1-0.1-0.2-0.1c-0.9,0.4-2,0.6-3.1,0.6C26.5,30.4,26.4,30.4,26.4,30.5z"/> <path fill="#3C342A" d="M22.3,29.6c1,0.7,2.1,1.1,3.2,1.3c0.1,0,0.2-0.1,0.2-0.2v-0.3c0-0.1-0.1-0.2-0.1-0.2
					c-1.1-0.2-2.1-0.6-2.9-1.2c-0.1-0.1-0.2,0-0.2,0l-0.2,0.2C22.2,29.5,22.2,29.6,22.3,29.6z"/> <path fill="#3C342A" d="M19.5,23c0-0.4,0-0.8,0.1-1.3c0-0.1,0-0.2-0.1-0.2l-0.3-0.1c-0.1,0-0.2,0-0.2,0.1
					c-0.1,0.5-0.1,0.9-0.1,1.4c0,0.7,0.1,1.4,0.3,2.1c0,0.1,0.1,0.2,0.2,0.1l0.3-0.1c0.1,0,0.1-0.1,0.1-0.2
					C19.5,24.3,19.5,23.7,19.5,23z"/> <path fill="#3C342A" d="M19.8,25.8l-0.3,0.1c-0.1,0-0.1,0.1-0.1,0.2c0.5,1.1,1.1,2,2,2.8c0.1,0.1,0.2,0.1,0.3,0l0.2-0.2
					c0.1-0.1,0.1-0.2,0-0.2c-0.8-0.7-1.4-1.6-1.8-2.6C20,25.8,19.9,25.7,19.8,25.8z"/> </g> </g> <path fill="#3C342A" d="M26.8,31.9c-2,0-3.8-0.6-5.3-1.5c-0.1-0.1-0.3,0-0.4,0.1l-2.2,5.1C18.8,35.8,19,36,19.2,36h1.9
			c0.1,0,0.2,0,0.3-0.1c1.6-1.6,3.8-2.5,6.2-2.2c1.8,0.2,3.4,1,4.7,2.2c0.1,0.1,0.2,0.1,0.3,0.1h2c0.2,0,0.4-0.2,0.3-0.4l-2.2-5.1
			c-0.1-0.1-0.2-0.2-0.4-0.1C30.6,31.4,28.8,31.9,26.8,31.9z"/> <g> <g> <path fill="#3C342A" d="M15.9,23c0-2-0.9-3.8-2.3-5.1c-0.1-0.1-0.2,0-0.2,0.1v10c0,0.1,0.1,0.1,0.2,0.1C15,26.9,15.9,25,15.9,23
					z"/> <path fill="#3C342A" d="M12.7,28.4V17.6c0-0.1-0.1-0.3-0.2-0.4c-0.8-0.4-1.6-0.7-2.5-0.8c-0.2,0-0.3,0.1-0.3,0.3v12.7
					c0,0.2,0.1,0.3,0.3,0.3c0.9-0.1,1.7-0.4,2.5-0.8C12.6,28.7,12.7,28.6,12.7,28.4z"/> <path fill="#3C342A" d="M6.1,17.4v11.2c0,0.2,0.1,0.3,0.2,0.4c0.8,0.4,1.6,0.6,2.5,0.7c0.2,0,0.3-0.1,0.3-0.3V16.7
					c0-0.2-0.1-0.3-0.3-0.3c-0.9,0.1-1.7,0.3-2.5,0.7C6.1,17.1,6.1,17.3,6.1,17.4z"/> <path fill="#3C342A" d="M2.6,23c0,2.2,1,4.1,2.7,5.3c0.1,0,0.2,0,0.2-0.1V17.8c0-0.1-0.1-0.1-0.2-0.1C3.6,18.9,2.6,20.8,2.6,23z
					"/> </g> <g> <path fill="#3C342A" d="M7.5,15.7l-0.1-0.3c0-0.1-0.1-0.2-0.2-0.1c-1.1,0.3-2.2,0.8-3.1,1.6c-0.1,0-0.1,0.1,0,0.2l0.2,0.2
					c0.1,0.1,0.2,0.1,0.2,0c0.8-0.7,1.8-1.2,2.8-1.5C7.4,15.9,7.5,15.8,7.5,15.7z"/> <path fill="#3C342A" d="M3.8,17.8l-0.2-0.2c-0.1-0.1-0.2-0.1-0.3,0c-0.8,0.9-1.4,1.9-1.7,3c0,0.1,0,0.2,0.1,0.2L2,20.9
					c0.1,0,0.2,0,0.2-0.1c0.3-1,0.9-2,1.6-2.7C3.9,18,3.9,17.9,3.8,17.8z"/> <path fill="#3C342A" d="M11.7,15.9l0.1-0.3c0-0.1,0-0.2-0.1-0.2c-1.1-0.4-2.3-0.5-3.5-0.3c-0.1,0-0.2,0.1-0.2,0.2v0.3
					c0,0.1,0.1,0.2,0.2,0.2c1.1-0.1,2.1,0,3.2,0.3C11.6,16.1,11.7,16,11.7,15.9z"/> <path fill="#3C342A" d="M16.7,22.3H17c0.1,0,0.2-0.1,0.2-0.2c-0.1-1.2-0.5-2.3-1.1-3.3c-0.1-0.1-0.2-0.1-0.3-0.1l-0.3,0.2
					c-0.1,0.1-0.1,0.2-0.1,0.2c0.6,0.9,0.9,1.9,1,3C16.5,22.3,16.6,22.3,16.7,22.3z"/> <path fill="#3C342A" d="M15.2,18.4l0.2-0.2c0.1-0.1,0.1-0.2,0-0.3c-0.7-0.9-1.7-1.6-2.7-2.2c-0.1,0-0.2,0-0.2,0.1l-0.1,0.3
					c0,0.1,0,0.2,0.1,0.2c1,0.5,1.8,1.1,2.5,2C15,18.4,15.1,18.5,15.2,18.4z"/> <path fill="#3C342A" d="M12.9,29.6l0.2,0.3c0.1,0.1,0.2,0.1,0.3,0.1c1-0.6,1.9-1.4,2.5-2.4c0.1-0.1,0-0.2-0.1-0.3l-0.3-0.2
					c-0.1-0.1-0.2,0-0.2,0.1c-0.6,0.9-1.4,1.6-2.3,2.2C12.9,29.4,12.9,29.5,12.9,29.6z"/> <path fill="#3C342A" d="M16.6,23.2c0,1.1-0.3,2.1-0.7,3.1c0,0.1,0,0.2,0.1,0.2l0.3,0.1c0.1,0,0.2,0,0.2-0.1
					c0.5-1,0.8-2.4,0.8-3.4c0-0.1-0.1-0.2-0.2-0.2h-0.3C16.6,23,16.6,23.1,16.6,23.2z"/> <path fill="#3C342A" d="M8.8,30.5v0.3C8.8,30.9,8.9,31,9,31c1.2,0,2.3-0.2,3.4-0.6c0.1,0,0.1-0.2,0.1-0.2l-0.1-0.3
					c0-0.1-0.1-0.1-0.2-0.1c-0.9,0.4-2,0.6-3.1,0.6C8.9,30.4,8.8,30.4,8.8,30.5z"/> <path fill="#3C342A" d="M4.7,29.6c1,0.7,2.1,1.1,3.2,1.3c0.1,0,0.2-0.1,0.2-0.2v-0.3c0-0.1-0.1-0.2-0.1-0.2
					C6.9,30,5.9,29.6,5.1,29c-0.1-0.1-0.2,0-0.2,0l-0.2,0.2C4.6,29.5,4.6,29.6,4.7,29.6z"/> <path fill="#3C342A" d="M1.9,23c0-0.4,0-0.8,0.1-1.3c0-0.1,0-0.2-0.1-0.2l-0.3-0.1c-0.1,0-0.2,0-0.2,0.1
					c-0.1,0.5-0.1,0.9-0.1,1.4c0,0.7,0.1,1.4,0.3,2.1c0,0.1,0.1,0.2,0.2,0.1L2,25.2c0.1,0,0.1-0.1,0.1-0.2C2,24.3,1.9,23.7,1.9,23z"/> <path fill="#3C342A" d="M2.2,25.8l-0.3,0.1c-0.1,0-0.1,0.1-0.1,0.2c0.5,1.1,1.1,2,2,2.8C3.9,29,4,29,4.1,29l0.2-0.2
					c0.1-0.1,0.1-0.2,0-0.2C3.5,27.9,2.9,27,2.5,26C2.4,25.8,2.3,25.7,2.2,25.8z"/> </g> </g> <g> <g> <path fill="#3C342A" d="M24.7,8c0-2-0.9-3.8-2.3-5.1c-0.1-0.1-0.2,0-0.2,0.1v10c0,0.1,0.1,0.1,0.2,0.1C23.8,11.9,24.7,10,24.7,8
					z"/> <path fill="#3C342A" d="M21.5,13.4V2.6c0-0.1-0.1-0.3-0.2-0.4c-0.8-0.4-1.6-0.7-2.5-0.8c-0.2,0-0.3,0.1-0.3,0.3v12.7
					c0,0.2,0.1,0.3,0.3,0.3c0.9-0.1,1.7-0.4,2.5-0.8C21.4,13.7,21.5,13.6,21.5,13.4z"/> <path fill="#3C342A" d="M14.9,2.4v11.2c0,0.2,0.1,0.3,0.2,0.4c0.8,0.4,1.6,0.6,2.5,0.7c0.2,0,0.3-0.1,0.3-0.3V1.6
					c0-0.2-0.1-0.3-0.3-0.3c-0.9,0.1-1.7,0.3-2.5,0.7C14.9,2.1,14.9,2.3,14.9,2.4z"/> <path fill="#3C342A" d="M11.4,8c0,2.2,1,4.1,2.7,5.3c0.1,0,0.2,0,0.2-0.1V2.8c0-0.1-0.1-0.1-0.2-0.1C12.4,3.9,11.4,5.8,11.4,8z"/> </g> <g> <path fill="#3C342A" d="M16.3,0.7l-0.1-0.3c0-0.1-0.1-0.2-0.2-0.1c-1.1,0.3-2.2,0.8-3.1,1.6c-0.1,0.1-0.1,0.2,0,0.3l0.2,0.2
					c0.1,0.1,0.2,0.1,0.2,0c0.8-0.7,1.8-1.2,2.8-1.5C16.2,0.9,16.3,0.8,16.3,0.7z"/> <path fill="#3C342A" d="M12.6,2.8l-0.2-0.2c-0.1-0.1-0.2-0.1-0.3,0c-0.8,0.9-1.4,1.9-1.7,3c0,0.1,0,0.2,0.1,0.2l0.3,0.1
					c0.1,0,0.2,0,0.2-0.1c0.3-1,0.9-2,1.6-2.7C12.7,3,12.7,2.9,12.6,2.8z"/> <path fill="#3C342A" d="M20.5,0.9l0.1-0.3c0-0.1,0-0.2-0.1-0.2C19.4,0,18.2-0.1,17,0.1c-0.1,0-0.2,0.1-0.2,0.2v0.3
					c0,0.1,0.1,0.2,0.2,0.2c1.1-0.1,2.1,0,3.2,0.3C20.4,1.1,20.5,1,20.5,0.9z"/> <path fill="#3C342A" d="M25.5,7.3h0.3c0.1,0,0.2-0.1,0.2-0.2c-0.1-1.2-0.5-2.3-1.1-3.3c-0.1-0.1-0.2-0.1-0.3-0.1l-0.3,0.2
					c-0.1,0.1-0.1,0.2-0.1,0.2c0.6,0.9,0.9,1.9,1,3C25.3,7.3,25.4,7.3,25.5,7.3z"/> <path fill="#3C342A" d="M24,3.4l0.2-0.2c0.1-0.1,0.1-0.2,0-0.3c-0.7-0.9-1.7-1.6-2.7-2.2c-0.1,0-0.2,0-0.2,0.1l-0.1,0.3
					c0,0.1,0,0.2,0.1,0.2c1,0.5,1.8,1.1,2.5,2C23.8,3.4,23.9,3.4,24,3.4z"/> <path fill="#3C342A" d="M21.7,14.6l0.2,0.3C22,15,22.1,15,22.2,15c1-0.6,1.9-1.4,2.5-2.4c0.1-0.1,0-0.2-0.1-0.3l-0.3-0.2
					c-0.1-0.1-0.2,0-0.2,0.1c-0.6,0.9-1.4,1.6-2.3,2.2C21.7,14.4,21.7,14.5,21.7,14.6z"/> <path fill="#3C342A" d="M25.3,8.2c0,1.1-0.3,2.1-0.7,3.1c0,0.1,0,0.2,0.1,0.2l0.3,0.1c0.1,0,0.2,0,0.2-0.1
					c0.5-1,0.8-2.4,0.8-3.4c0,0-0.1-0.1-0.2-0.1h-0.3C25.4,8,25.3,8.1,25.3,8.2z"/> <path fill="#3C342A" d="M17.6,15.5v0.3c0,0.1,0.1,0.2,0.2,0.2c1.2,0,2.3-0.2,3.4-0.6c0.1,0,0.1-0.2,0.1-0.2l-0.1-0.3
					c0-0.1-0.1-0.1-0.2-0.1c-0.9,0.4-2,0.6-3.1,0.6C17.7,15.4,17.6,15.4,17.6,15.5z"/> <path fill="#3C342A" d="M13.5,14.6c1,0.7,2.1,1.1,3.2,1.3c0.1,0,0.2-0.1,0.2-0.2v-0.3c0-0.1-0.1-0.2-0.1-0.2
					c-1.1-0.2-2.1-0.6-2.9-1.2c-0.1-0.1-0.2,0-0.2,0l-0.2,0.2C13.4,14.5,13.4,14.6,13.5,14.6z"/> <path fill="#3C342A" d="M10.7,8c0-0.4,0-0.8,0.1-1.3c0-0.1,0-0.2-0.1-0.2l-0.3-0.1c-0.1,0-0.2,0-0.2,0.1C10,7.1,10,7.6,10,8
					c0,0.7,0.1,1.4,0.3,2.1c0,0.1,0.1,0.2,0.2,0.1l0.3-0.1c0.1,0,0.1-0.1,0.1-0.2C10.7,9.3,10.7,8.7,10.7,8z"/> <path fill="#3C342A" d="M11,10.8l-0.3,0.1c-0.1,0-0.1,0.1-0.1,0.2c0.5,1.1,1.1,2,2,2.8c0.1,0.1,0.2,0.1,0.3,0l0.2-0.2
					c0.1-0.1,0.1-0.2,0-0.2c-0.8-0.7-1.4-1.6-1.8-2.6C11.2,10.8,11.1,10.7,11,10.8z"/> </g> </g> <path fill="#3C342A" d="M9.2,31.9c-2,0-3.8-0.6-5.3-1.5c-0.1-0.1-0.3,0-0.4,0.1l-2.2,5.1c-0.1,0.2,0,0.4,0.3,0.4h1.9
			c0.1,0,0.2,0,0.3-0.1c1.6-1.6,3.8-2.5,6.2-2.2c1.8,0.2,3.4,1,4.7,2.2C14.8,36,14.9,36,15,36h2c0.2,0,0.4-0.2,0.3-0.4l-2.2-5.1
			c-0.1-0.1-0.2-0.2-0.4-0.1C13,31.4,11.2,31.9,9.2,31.9z"/> </g> <rect y="0" fill="none" width="36" height="36"/> </g> </symbol><symbol viewBox="0 0 24 24" id="shape-icon-close"><title>icon-close</title>  <g> <g> <path d="M22,2v20H2V2H22 M24,0H0v24h24V0L24,0z"/> </g> <rect x="11.5" y="2" transform="matrix(0.7071 -0.7071 0.7071 0.7071 -4.9706 12)" width="1" height="20"/> <rect x="11.5" y="2" transform="matrix(0.7071 0.7071 -0.7071 0.7071 12 -4.9706)" width="1" height="20"/> </g> </symbol><symbol viewBox="0 0 9 12.5" id="shape-icon-next"><title>icon-next</title>  <path d="M1,12.5c-0.3,0-0.5-0.1-0.7-0.4c-0.3-0.4-0.2-0.9,0.2-1.2l6.2-4.6L0.4,1.6C0,1.3-0.1,0.7,0.2,0.4
	C0.5,0,1-0.1,1.4,0.2l7.3,5.4C8.9,5.8,9,6,9,6.3C9,6.6,8.9,6.8,8.7,7l-7.1,5.3C1.4,12.4,1.2,12.5,1,12.5z"/> </symbol><symbol viewBox="0 0 9 12.5" id="shape-icon-prev"><title>icon-prev</title>  <path d="M8,0c0.3,0,0.5,0.1,0.7,0.4C9,0.7,8.9,1.3,8.5,1.6L2.3,6.2l6.3,4.7c0.4,0.3,0.5,0.8,0.2,1.2
	c-0.3,0.4-0.8,0.5-1.2,0.2L0.4,6.9C0.1,6.7,0,6.5,0,6.2c0-0.3,0.1-0.5,0.4-0.7l7.1-5.3C7.6,0.1,7.8,0,8,0z"/> </symbol><symbol viewBox="0 0 24 24" id="shape-lightbox-back"><title>lightbox-back</title>  <g> <g> <g> <path fill="#FFFFFF" d="M22,2v20H2V2H22 M24,0H0v24h24V0L24,0z"/> </g> </g> <polygon fill="#FFFFFF" points="13.4,18.1 7.3,12 13.4,5.9 14.1,6.6 8.7,12 14.1,17.4 	"/> </g> </symbol><symbol viewBox="0 0 239.8 14" id="shape-limited"><title>limited</title>  <path d="M228.3,3.6c0-0.4-0.2-0.6-0.6-0.7c-0.4-0.1-0.8-0.1-1-0.1h-0.2V1.6h0.2c0.6,0,1.1,0,1.7,0c0.5,0,1.1,0,1.6,0l7,8.1V4.2
	c0-0.8-0.2-1.1-0.4-1.2c-0.2-0.2-0.6-0.2-1.3-0.2H235V1.6h0.2c0.8,0,1.6,0,2.3,0s1.4,0,2.1,0h0.2v1.1h-0.2c-1.1,0-1.4,0-1.4,1V14
	h-0.9l-7.7-9v5.7c0,1.6,0.2,1.9,1.8,1.9h0.2v1.1h-0.2c-0.8,0-1.7,0-2.5,0s-1.6,0-2.4,0h-0.2v-1.1h0.2c1.7,0,1.7-0.7,1.7-2.4
	L228.3,3.6L228.3,3.6z M10.3,13.7h-0.2c-1.6,0-3.2,0-4.8,0c-1.7,0-3.4,0-5,0H0.1v-1h0.3c0.9,0.1,1.5-0.2,1.5-1V2.1
	C1.7,1,1.3,1,0.2,1H0V0h0.2C1.1,0,2,0,2.9,0s1.7,0,2.7,0h0.2v1H5.6c-1,0-1.5,0-1.5,1.1v8.8c0,1.2,0.1,1.8,2.8,1.8
	c2.1,0,2.8-0.5,3.3-2.2l0.1-0.2l0.9,0.2L10.3,13.7z M17.6,3.5c0-0.7-0.4-0.8-1.5-0.8h-0.2V1.6h0.2c0.9,0,1.8,0,2.7,0
	c0.9,0,1.9,0,2.8,0h0.2v1.1h-0.2c-1.2,0-1.5,0.2-1.5,0.8v8.3c0,0.7,0.4,0.8,1.5,0.8h0.2v1.1h-0.2c-0.9,0-1.9,0-2.8,0s-1.8,0-2.7,0
	h-0.2v-1.1h0.2c1.2,0,1.5-0.2,1.5-0.8V3.5z M40.9,1.6h0.2c0.5,0,1.1,0,1.7,0c0.6,0,1.3,0,1.9,0h0.2v1.1h-0.2c-1.2,0-1.4,0.2-1.4,0.5
	c0,0.4,0,0.7,0,1.3l0.2,6.2c0.1,1.9,0.3,1.9,1.7,1.9h0.2v1.1h-0.2c-0.9,0-1.9,0-2.8,0c-0.9,0-1.9,0-2.8,0h-0.2v-1.1h0.2
	c1.2,0,1.5-0.1,1.5-1c0-1.6-0.1-3.9-0.2-6.8l-4.2,9H36L31.8,5c-0.2,2.4-0.4,5.8-0.4,6.5s0.4,1.1,1.6,1.1h0.2v1.1H33
	c-0.7,0-1.4,0-2.1,0c-0.8,0-1.7,0-2.4,0h-0.2v-1.1h0.2c1.4,0,1.6-0.4,1.6-1.4L30.5,5c0.1-0.9,0.1-1.4,0.1-2c0-0.2,0-0.3-0.2-0.3
	c-0.2-0.1-0.6-0.1-1.3-0.1h-0.2v-1h0.2c0.7,0,1.4,0,2.1,0c0.5,0,1,0,1.5,0h0.1l4.1,8.4L40.9,1.6z M53.5,3.5c0-0.7-0.4-0.8-1.5-0.8
	h-0.2V1.6H52c0.9,0,1.8,0,2.7,0s1.9,0,2.8,0h0.2v1.1h-0.2c-1.2,0-1.5,0.2-1.5,0.8v8.3c0,0.7,0.4,0.8,1.5,0.8h0.2v1.1h-0.2
	c-0.9,0-1.9,0-2.8,0c-0.9,0-1.8,0-2.7,0h-0.2v-1.1H52c1.2,0,1.5-0.2,1.5-0.8V3.5z M68.1,2.9h-1.6c-1.3,0-1.5,0.1-1.9,1.6v0.2h-1.1
	l0.4-3.6h0.9v0.2c0,0.1,0,0.2,0.2,0.2c0.2,0.1,0.4,0.1,0.6,0.1h7.6c0.3,0,0.4,0,0.6-0.1c0.1-0.1,0.3-0.2,0.5-0.4L75.2,1l-0.3,3.6
	h-1.1V4.4c-0.1-1.5-0.3-1.6-1.1-1.6h-2.1v9c0,0.6,0.4,0.8,1.7,0.8h0.2v1.1h-0.2c-1,0-2,0-3,0c-0.9,0-1.8,0-2.9,0h-0.2v-1.1h0.2
	c1.3,0,1.7-0.2,1.7-0.8C68.1,11.8,68.1,2.9,68.1,2.9z M90.8,13.7h-0.2c-1.7,0-3.4,0-5.1,0c-1.5,0-3.1,0-4.6,0h-0.2v-1.1h0.2
	c1.2,0,1.5-0.2,1.5-0.8V3.5c0-0.7-0.4-0.8-1.5-0.8h-0.2V1.6h0.2c1.1,0,2.1,0,3.2,0c1.9,0,3.9,0,5.8,0h0.2l0.2,3h-0.9V4.4
	c-0.3-1.4-0.5-1.6-2.9-1.6H85v4h1.7c0.3,0,0.5,0,0.7,0s0.3-0.1,0.4-0.1c0.2-0.1,0.3-0.4,0.3-1.3V5.2h1.1v0.2c0,0.6,0,1.3,0,1.9
	s0,1.3,0,2v0.2h-1.1V9.3c0-1.1-0.1-1.2-1.5-1.2H85v3.2c0,0.8,0.3,1.2,2.3,1.2c1.2,0,1.8-0.1,2.2-0.3c0.4-0.2,0.6-0.6,1.1-1.4
	l1.1-0.1L90.8,13.7z M99.4,3.5c0-0.7-0.4-0.8-1.5-0.8h-0.2V1.6h0.2c0.9,0,1.8,0,2.8,0c1.2,0,2.4,0,3.6,0c4.9,0,7.1,3.1,7.1,5.9
	c0,4.7-3.7,6.2-7.2,6.2c-1,0-2.2,0-3.2,0c-1.1,0-2.1,0-3.2,0h-0.2v-1.1h0.2c1.2,0,1.5-0.2,1.5-0.8L99.4,3.5L99.4,3.5z M101.9,11.3
	c0,1.1,0.5,1.3,1.7,1.3c2.2,0,5-0.7,5-4.7c0-2.8-1.3-5-4.3-5c-0.6,0-1.6,0-2.4,0.1C101.9,3,101.9,11.3,101.9,11.3z M132,6h2.3
	c0.7,0,1-0.3,1.1-0.5c0.1-0.1,0.1-0.3,0.2-0.5l0.1-0.4V4.4h0.9v0.3c0,0.4-0.1,1.4-0.1,2.1c0,0.6,0.1,1.5,0.1,2.1v0.2h-0.8V8.9
	c0-0.9-0.2-1.2-0.4-1.4c-0.3-0.2-0.7-0.2-1.4-0.2h-2v3c0,2.1,0.1,2.4,1.7,2.4h1.2c1.8-0.1,2.5-0.3,3.2-2.2l0.1-0.2l0.9,0.2l-0.1,0.3
	c-0.3,0.9-0.6,1.9-0.8,2.9v0.2H138c-1.9,0-3.8,0-5.7,0c-1.4,0-2.8,0-4.2,0h-0.2v-1h0.2c1.5,0,1.6-0.1,1.6-1.9V2.4
	c0-1.4-0.2-1.4-1.6-1.5h-0.2V0h0.2c1.3,0,2.6,0,3.8,0c1.8,0,3.6,0,5.5,0h0.2v3.3l-0.8,0.2V3.2c-0.3-1.6-1-2.1-2.8-2.1h-2V6z
	 M145.6,3.5c0-0.7-0.4-0.8-1.5-0.8h-0.2V1.6h0.2c0.9,0,1.8,0,2.8,0c1.2,0,2.4,0,3.6,0c4.9,0,7.1,3.1,7.1,5.9c0,4.7-3.7,6.2-7.2,6.2
	c-1,0-2.2,0-3.2,0c-1.1,0-2.1,0-3.2,0h-0.2v-1.1h0.2c1.2,0,1.5-0.2,1.5-0.8L145.6,3.5L145.6,3.5z M148.1,11.3c0,1.1,0.5,1.3,1.7,1.3
	c2.2,0,5-0.7,5-4.7c0-2.8-1.3-5-4.3-5c-0.6,0-1.6,0-2.4,0.1V11.3z M166.2,3.5c0-0.7-0.4-0.8-1.5-0.8h-0.2V1.6h0.2c0.9,0,1.8,0,2.7,0
	s1.9,0,2.8,0h0.2v1.1h-0.2c-1.2,0-1.5,0.2-1.5,0.8v8.3c0,0.7,0.4,0.8,1.5,0.8h0.2v1.1h-0.2c-0.9,0-1.9,0-2.8,0c-0.9,0-1.8,0-2.7,0
	h-0.2v-1.1h0.2c1.2,0,1.5-0.2,1.5-0.8V3.5z M180.8,2.9h-1.6c-1.3,0-1.5,0.1-1.9,1.6v0.2h-1.1l0.4-3.6h0.9v0.2c0,0.1,0,0.2,0.2,0.2
	c0.2,0.1,0.4,0.1,0.6,0.1h7.6c0.3,0,0.4,0,0.6-0.1c0.1-0.1,0.3-0.2,0.5-0.4l0.9-0.1l-0.3,3.6h-1.1V4.4c-0.1-1.5-0.3-1.6-1.1-1.6
	h-2.1v9c0,0.6,0.4,0.8,1.7,0.8h0.2v1.1H185c-1,0-2,0-3,0c-0.9,0-1.8,0-2.9,0h-0.2v-1.1h0.2c1.3,0,1.7-0.2,1.7-0.8L180.8,2.9
	L180.8,2.9z M195.4,3.5c0-0.7-0.4-0.8-1.5-0.8h-0.2V1.6h0.2c0.9,0,1.8,0,2.7,0s1.9,0,2.8,0h0.2v1.1h-0.2c-1.1,0-1.5,0.2-1.5,0.8v8.3
	c0,0.7,0.4,0.8,1.5,0.8h0.2v1.1h-0.2c-0.9,0-1.9,0-2.8,0c-0.9,0-1.8,0-2.7,0h-0.2v-1.1h0.2c1.2,0,1.5-0.2,1.5-0.8V3.5z M213.4,1.3
	c4,0,6.6,2.7,6.6,6.3c0,3.1-2.5,6.4-6.8,6.4c-4,0-6.7-2.6-6.7-6.4C206.5,3.7,209.8,1.3,213.4,1.3z M213.5,12.8
	c2.8,0,3.7-2.4,3.7-4.9c0-3.2-1.8-5.3-4.2-5.3c-2.6,0-3.8,2.3-3.8,4.8C209.3,10.5,211.2,12.8,213.5,12.8z"/> </symbol><symbol viewBox="0 0 16 16" id="shape-logo-reactor"><title>logo-reactor</title>  <path d="M8,0C3.58,0,0,3.58,0,8c0,4.42,3.58,8,8,8s8-3.58,8-8C16,3.58,12.42,0,8,0z M8,12.58
	c-2.53,0-4.58-2.05-4.58-4.58c0-2.53,2.05-4.58,4.58-4.58S12.58,5.47,12.58,8C12.58,10.53,10.53,12.58,8,12.58z"/> </symbol><symbol viewBox="0 0 32 32" id="shape-mail"><title>mail</title>  <g> <g> <path d="M30,2v28H2V2H30 M32,0H0v32h32V0L32,0z"/> </g> <path class="icono" d="M22.74,8.46H9.83c-0.85,0-1.54,0.69-1.54,1.54v10.24c0,0.85,0.69,1.54,1.54,1.54h12.91
		c0.85,0,1.54-0.69,1.54-1.54V10C24.29,9.15,23.6,8.46,22.74,8.46z M21.36,10.46l-5.07,5.15l-5.07-5.15H21.36z M10.29,19.79v-8.37
		l5.53,5.61c0.13,0.13,0.3,0.2,0.47,0.2c0.18,0,0.35-0.07,0.47-0.2l5.53-5.6v8.37H10.29z"/> </g> </symbol><symbol viewBox="0 0 36 36" id="shape-maridaje"><title>maridaje</title>  <g> <g> <path fill="#3C342A" d="M2.9,13.2c0.4-0.7,0.4-1.3,0.3-2.3c0-1-0.3-5-0.4-5.6c0,0,0-0.1-0.1-0.1l0,0c0,0-0.1,0-0.1,0.1v5.9
			c0,0.1-0.1,0.1-0.1,0.1c-0.1,0-0.1-0.1-0.1-0.1L2.2,5.4c0,0,0-0.1-0.1-0.1c0,0-0.1,0-0.1,0.1l-0.2,5.9c0,0.1-0.1,0.2-0.2,0.2
			s-0.2-0.1-0.2-0.2L1.2,5.4c0,0,0-0.1-0.1-0.1c0,0-0.1,0-0.1,0.1l-0.3,5.9c0,0.1-0.1,0.1-0.1,0.1c-0.1,0-0.1-0.1-0.1-0.1V5.4
			c0,0,0-0.1-0.1-0.1l0,0c0,0-0.1,0-0.1,0.1C0.3,5.9,0,10,0,10.9c0,1,0,1.6,0.3,2.3c0.4,0.7,0.9,1.5,0.9,2.2l-0.1,1.3
			c-0.1,3-0.6,10.6-0.6,11.8v0.1c0,1.4,0.6,2.1,1.1,2.1s1.1-0.7,1.1-2.1v-0.1c0-1.2-0.5-8.8-0.7-11.9v-1.2C2,14.7,2.5,13.9,2.9,13.2
			z"/> <path fill="#3C342A" d="M35.7,25.8L35.7,25.8l-0.4-7.4c0-0.2,0-0.4,0.1-0.5l0,0c0-0.1,0-0.1,0-0.2c0-1.1,0.2-12.6,0.2-12.8
			c0-0.1-0.4-1.1-1.3,1.3c-0.9,2.4-0.9,9.6-0.8,9.9c0.1,0.3,0.4,0.5,0.6,1.2c0.1,0.3,0.2,0.7,0.2,1c0,0.1,0,0.3,0,0.4l-0.4,7l0,0
			c-0.2,1.9-0.3,3.7-0.3,4.1c0,0.9,0.5,1.6,1.1,1.6s1.1-0.7,1.1-1.6C36,29.5,35.9,27.6,35.7,25.8z"/> <g> <g> <path fill="#3C342A" d="M18.4,4.6C11,4.6,5,10.6,5,18s6,13.4,13.4,13.4s13.4-6,13.4-13.4S25.8,4.6,18.4,4.6z M18.4,26.5
					c-4.7,0-8.5-3.8-8.5-8.5s3.8-8.5,8.5-8.5s8.5,3.8,8.5,8.5S23.1,26.5,18.4,26.5z M18.4,10.6c-4.1,0-7.4,3.3-7.4,7.4
					s3.3,7.4,7.4,7.4s7.4-3.3,7.4-7.4S22.4,10.6,18.4,10.6z"/> </g> </g> </g> <rect fill="none" width="36" height="36"/> </g> </symbol><symbol viewBox="0 0 168.5 43.3" id="shape-mi-pueblo"><title>mi-pueblo</title>  <path d="M48,24.7c0.4-0.3,1.2-1,1.7-0.2c0.5,0.8,0,2-0.7,2.2c-0.7,0.2,0.7-0.5-4.2,2C40,31.3,34,34.2,30.7,33.1
	c-3.3-1.1-2.8-5.4-2.8-5.4s-4.5,6.2-6.6,5.6c-2.6-0.7-2.3-4.8-2.4-6.9c-0.1-2.1,0.6-9.8,0.6-9.8s0.2-1-0.9,1.7
	C17,22.2,11.3,32.2,11,32.8c-0.4,0.6-0.7,0.6-1.3,0.7c-0.6,0.1-0.4-0.9-0.4-1.1c0-0.2,1.2-5,2.7-15.8c1.5-10.8,1.3-13,1.2-13.5
	c0-0.5,0-1.7-2.4,2.9c-2.4,4.6-5.5,14.8-5.6,15.2C5,21.6,2,31.4,2,31.4s-0.7,2.6-1.5,2.3c-1.1-0.5-0.2-3,0.6-5.4
	c0.7-2.2,2-6,2.2-6.8l0,0c0.5-1.6,1.3-6.2-0.7-7.2c-0.4-0.2-0.5-0.6-0.3-0.9c0.2-0.3,0.3-0.9,0.7-0.8c1.2,0.6,2.3,1.4,2.5,2.6
	C6.8,11.6,9.8,3.2,12.1,1c2.9-2.7,2.6,2.5,2.3,7.7c-0.3,5.2-2.4,16.5-2.6,18.6c-0.2,2,7.5-13.9,7.9-15c0.2-0.5,0.3-1.1,1.2-0.6
	c0.6,0.4,0.4,1.1,0.4,2.1C21.3,15.3,21,17,21,17s-1.4,13.6,0.6,14.4c2,0.8,6.7-7.7,7-8.1c0.3-0.4,0.2-1.6,1.2-1.5
	c1,0.1,0.9,1.8,0.5,2.3c-0.4,0.5-0.8,2.2-0.9,3.2c-0.2,1-0.9,6.5,7.7,3.2C45.7,27.1,47.6,25,48,24.7 M167.9,21.9
	c0.5,0.5,0.9,0.5,0.2,1.1c-0.6,0.5-5,5.4-13.6,4.3c0,0-2.8,6.8-5.8,6.3c-2.6-0.5-1.4-6.3-1.4-6.3c-1.4,0.8-12.5,7-14.5,6.2
	c-2-0.8-1.1-7.8-1.1-7.8c-3.3,3.6-11.7,6.8-12.8,7.2c-1.1,0.3-2.1,0.7-2.5,0.1c-0.4-0.6-0.2-1.1,0.7-1.5c1-0.5,4.6-3.5,3.9-6
	c-0.7-2.4-5.2,4.3-5.2,4.3s-2.4,3.7-3.3,3.7c-0.9,0-0.6-1.1-0.6-1.1l0.9-4.5c0-0.2,0.1-0.4,0.1-0.6c-2.1,2.2-6.9,5.5-10.9,5.4
	c-4.7-0.1-5.2-3.6-5.2-3.6c-12.3,7.4-10.5-0.9-10.5-0.9s-2.6,6.2-6.8,5.3c-4.2-0.9-1.5-8.2-1.5-8.2c-4.7,2.1-10.8,3-11.6,3.1
	c-0.9,0.1-0.8-0.9-0.7-1.5c0-0.6,3.2-0.6,4.8-1c1.6-0.5,3.5-2.9,3.5-2.9c6.2-9.7,4-20.4-0.7-16C69.1,10.7,63,28.7,63,28.7
	s-2.1,14.6-4.3,14.7c-2.2,0.1,2.9-14.6,2.9-14.6s2.6-15.5,3.3-20.8c0.7-5.3,0.9-6.3,0.9-6.3s0.1-1.2,0.9-1.2c0.8,0,0.8,0.7,0.6,2
	c-0.2,1.3-2.6,15.9-2.8,17.6c-0.2,1.7,0,1.2,0.3,0.6C65,19.9,71.2,1.9,76.3,3.1c5.1,1.3,3.5,16.1-1.5,21.2c0,0-0.2,0.4,0.2,0.2
	c0.5-0.2,2.7-1.3,4.4-2.8c1.7-1.5,1.9,0.4,1.3,1.9c-0.6,1.5-3.3,7.5-0.3,7.7c3,0.2,5.3-5.4,5.7-6.6c0.4-1.2,2-1.7,1.9-0.9
	c0,0.8-0.7,5.3,0.6,5.9c1.4,0.7,3.3,0.1,7.9-2.4c0,0,0-2.6,2.3-4.7c2.3-2.1,7.3-0.4,2.9,3.5c-1.5,1.2-3.6,2.2-3.6,2.2s0,2.7,4.6,2.7
	c4,0,8.6-4.3,11.1-7.4c0.1-0.5,0.3-1.3,0.3-1.3c0.9-3.1,4.2-14.9,6.1-19c2.2-4.7,3.4-2.7,3.7-1.5c0.3,1.2-1.7,11.5-8.9,23.2
	l-0.9,3.5c0,0-0.6,1.9,0.5,0.5c1.1-1.4,4.7-7.3,7-5.2c2.3,2-0.7,6.4-0.7,6.4s3.6-0.6,11.1-6.6c0,0,2.6-12.8,5-18.7
	c2.5-5.9,3.9-5.6,3.8-3.3c-0.1,2.3-0.6,13.3-7.5,23.4c0,0-1.3,7.3,0.2,6.9c1.5-0.4,10.4-3.8,14.2-6.8c0,0,3-3.5,3.9-2.5
	c0.9,0.9-2.7,3.8-2.7,3.8s-1.5,5.2,0,5.4c1.5,0.2,3.7-3.9,3.9-4.3c0,0-1.4-1.8,0-2.6c1.5-0.7,1.8,1.1,5.5,0.8
	c3.6-0.3,7.6-3.2,8.1-3.5C167,21.8,167.4,21.4,167.9,21.9 M139.5,3.3c0.2-3.1-4.9,13.5-5.3,17c0,0,0,0.3,0.3-0.3
	C134.8,19.4,138.8,11.8,139.5,3.3 M101.6,23.3c-0.4-0.8-3.7,1.7-3.6,3.3C98,26.7,102.2,24.5,101.6,23.3 M121.2,4.6
	c-1.4,4.1-4.8,14.3-4.5,14.6c0,0,3.2-5.2,4.9-11.2C123.1,2.1,122.6,0.5,121.2,4.6 M31.9,16.7c0.5,0,0.5-0.8,0.7-1.6
	c0.2-0.8-1.3-0.9-1.7-0.8c-0.4,0.1-0.5,1.8-0.5,1.8C30.3,16.9,31.4,16.7,31.9,16.7"/> </symbol><symbol viewBox="0 0 38.13 44" id="shape-minutos"><title>minutos</title>  <g> <path fill="#FFFFFF" d="M19.06,6.83C8.8,6.83,0.48,15.15,0.48,25.42C0.48,35.68,8.8,44,19.06,44s18.58-8.32,18.58-18.58
		C37.65,15.15,29.33,6.83,19.06,6.83z M31,36.56l-2.18-2.18c-0.11-0.11-0.25-0.16-0.4-0.16c-0.14,0-0.29,0.05-0.4,0.16
		c-0.22,0.22-0.22,0.57,0,0.79l2.18,2.18c-2.79,2.61-6.5,4.25-10.59,4.39v-3.1c0-0.31-0.25-0.56-0.56-0.56
		c-0.31,0-0.56,0.25-0.56,0.56v3.1c-4.08-0.14-7.79-1.78-10.59-4.39l2.18-2.18c0.22-0.22,0.22-0.57,0-0.79
		c-0.22-0.22-0.57-0.22-0.79,0l-2.18,2.18c-2.61-2.79-4.25-6.5-4.39-10.59h3.1c0.31,0,0.56-0.25,0.56-0.56
		c0-0.31-0.25-0.56-0.56-0.56h-3.1c0.14-4.08,1.78-7.79,4.39-10.59l2.18,2.18c0.11,0.11,0.25,0.16,0.4,0.16
		c0.14,0,0.29-0.05,0.4-0.16c0.22-0.22,0.22-0.57,0-0.79l-2.18-2.18c2.92-2.73,6.84-4.41,11.15-4.41c9.01,0,16.34,7.33,16.34,16.34
		C35.41,29.72,33.73,33.64,31,36.56z"/> <path fill="#FFFFFF" d="M32.3,24.24h1.41c-0.24-3.08-1.46-6-3.46-8.36l-0.99,0.99c-0.22,0.22-0.52,0.34-0.83,0.34
		c-0.31,0-0.61-0.12-0.83-0.34c-0.22-0.22-0.34-0.52-0.34-0.83c0-0.31,0.12-0.61,0.34-0.83l1-1c-2.35-2-5.28-3.22-8.36-3.46v1.41
		c0,0.42-0.22,0.79-0.56,1l0,11.83l13.12,5.64c0.5-1.3,0.8-2.66,0.91-4.06H32.3c-0.65,0-1.17-0.53-1.17-1.17
		C31.13,24.77,31.65,24.24,32.3,24.24z"/> <path fill="#FFFFFF" d="M16.56,5.97h5c1.65,0,2.99-1.34,2.99-2.99S23.21,0,21.56,0h-5c-1.65,0-2.99,1.34-2.99,2.99
		S14.92,5.97,16.56,5.97z"/> <path fill="#FFFFFF" d="M34.34,13.12c0.43,0.42,0.99,0.62,1.55,0.62c0.59,0,1.18-0.23,1.62-0.69c0.86-0.89,0.83-2.31-0.06-3.17
		l-3.61-3.46c-0.89-0.86-2.31-0.83-3.17,0.06c-0.86,0.89-0.83,2.31,0.06,3.17L34.34,13.12z"/> <path fill="#FFFFFF" d="M2.24,13.75c0.56,0,1.12-0.21,1.55-0.62L7.4,9.66C8.29,8.8,8.32,7.39,7.46,6.49S5.19,5.57,4.29,6.43
		L0.69,9.89c-0.89,0.86-0.92,2.27-0.06,3.17C1.06,13.52,1.65,13.75,2.24,13.75z"/> </g> </symbol><symbol viewBox="0 0 96 96" id="shape-money-little"><title>money-little</title>  <g> <g> <path fill="#FFFFFF" d="M50.4,50.6v8.1c2.2-0.6,3.4-2,3.4-3.9v-0.2C53.7,52.6,52.8,51.3,50.4,50.6z M42.6,41v0.2c0,2,0.8,3.3,4,4
			v-8.1C44.1,37.5,42.6,39,42.6,41z M48,0C21.5,0,0,21.5,0,48s21.5,48,48,48s48-21.5,48-48S74.5,0,48,0z M59.5,54.5
			c0,4.9-3.3,8.1-9.1,8.7v2c0,0.4-0.3,0.7-0.7,0.7h-2.4c-0.4,0-0.7-0.3-0.7-0.7v-1.9c-6.3-0.4-9.8-3.5-10-9.8c0-0.4,0.3-0.7,0.7-0.7
			l4.3,0c0.4,0,0.6,0.3,0.7,0.6c0.2,3.3,1.8,5,4.4,5.3v-9c-6.7-0.9-9.7-3.4-9.7-8.2v-0.4c0-4.9,3.6-8.1,9.7-8.6v-2
			c0-0.4,0.3-0.7,0.7-0.7h2.4c0.4,0,0.7,0.3,0.7,0.7v2c5.5,0.6,8.6,3.6,8.8,10.1c0,0.4-0.3,0.7-0.7,0.7l-4.3,0
			c-0.4,0-0.6-0.3-0.7-0.6c-0.1-3.1-1.1-4.8-3.2-5.5v8.5c6.2,1,9.1,3.4,9.1,8.2V54.5z"/> </g> </g> </symbol><symbol viewBox="0 0 96 96" id="shape-money-lots"><title>money-lots</title>  <g> <g> <path fill="#FFFFFF" d="M42.3,41v0.2c0,2,0.8,3.3,4,4v-8.1C43.8,37.5,42.3,39,42.3,41z M17.6,41v0.2c0,2,0.8,3.3,4,4v-8.1
			C19.2,37.5,17.6,39,17.6,41z M50.1,50.6v8.1c2.2-0.6,3.4-2,3.4-3.9v-0.2C53.5,52.6,52.6,51.3,50.1,50.6z M25.5,50.6v8.1
			c2.2-0.6,3.4-2,3.4-3.9v-0.2C28.8,52.6,27.9,51.3,25.5,50.6z M75.3,50.6v8.1c2.2-0.6,3.4-2,3.4-3.9v-0.2
			C78.6,52.6,77.8,51.3,75.3,50.6z M48,0C21.5,0,0,21.5,0,48s21.5,48,48,48s48-21.5,48-48S74.5,0,48,0z M34.6,54.5
			c0,4.9-3.3,8.1-9.1,8.7v2c0,0.4-0.3,0.7-0.7,0.7h-2.4c-0.4,0-0.7-0.3-0.7-0.7v-1.9c-6.3-0.4-9.8-3.5-10-9.8c0-0.4,0.3-0.7,0.7-0.7
			l4.3,0c0.4,0,0.6,0.3,0.7,0.6c0.2,3.3,1.8,5,4.4,5.3v-9c-6.7-0.9-9.7-3.4-9.7-8.2v-0.4c0-4.9,3.6-8.1,9.7-8.6v-2
			c0-0.4,0.3-0.7,0.7-0.7h2.4c0.4,0,0.7,0.3,0.7,0.7v2c5.5,0.6,8.6,3.6,8.8,10.1c0,0.4-0.3,0.7-0.7,0.7l-4.3,0
			c-0.4,0-0.6-0.3-0.7-0.6c-0.1-3.1-1.1-4.8-3.2-5.5v8.5c6.2,1,9.1,3.4,9.1,8.2V54.5z M59.2,54.5c0,4.9-3.3,8.1-9.1,8.7v2
			c0,0.4-0.3,0.7-0.7,0.7H47c-0.4,0-0.7-0.3-0.7-0.7v-1.9c-6.3-0.4-9.8-3.5-10-9.8c0-0.4,0.3-0.7,0.7-0.7l4.3,0
			c0.4,0,0.6,0.3,0.7,0.6c0.2,3.3,1.8,5,4.4,5.3v-9c-6.7-0.9-9.7-3.4-9.7-8.2v-0.4c0-4.9,3.6-8.1,9.7-8.6v-2c0-0.4,0.3-0.7,0.7-0.7
			h2.4c0.4,0,0.7,0.3,0.7,0.7v2c5.5,0.6,8.6,3.6,8.8,10.1c0,0.4-0.3,0.7-0.7,0.7l-4.3,0c-0.4,0-0.6-0.3-0.7-0.6
			c-0.1-3.1-1.1-4.8-3.2-5.5v8.5c6.2,1,9.1,3.4,9.1,8.2V54.5z M75.3,63.3v2c0,0.4-0.3,0.7-0.7,0.7h-2.4c-0.4,0-0.7-0.3-0.7-0.7v-1.9
			c-6.3-0.4-9.8-3.5-10-9.8c0-0.4,0.3-0.7,0.7-0.7l4.3,0c0.4,0,0.6,0.3,0.7,0.6c0.2,3.3,1.8,5,4.4,5.3v-9c-6.7-0.9-9.7-3.4-9.7-8.2
			v-0.4c0-4.9,3.6-8.1,9.7-8.6v-2c0-0.4,0.3-0.7,0.7-0.7h2.4c0.4,0,0.7,0.3,0.7,0.7v2c5.5,0.6,8.6,3.6,8.8,10.1
			c0,0.4-0.3,0.7-0.7,0.7l-4.3,0c-0.4,0-0.6-0.3-0.7-0.6c-0.1-3.1-1.1-4.8-3.2-5.5v8.5c6.2,1,9.1,3.4,9.1,8.2v0.4
			C84.4,59.5,81.1,62.6,75.3,63.3z M67.5,41v0.2c0,2,0.8,3.3,4,4v-8.1C69,37.5,67.5,39,67.5,41z"/> </g> </g> </symbol><symbol viewBox="0 0 96 96" id="shape-money-medium"><title>money-medium</title>  <g> <g> <path fill="#FFFFFF" d="M37.8,50.6v8.1c2.2-0.6,3.4-2,3.4-3.9v-0.2C41.1,52.6,40.3,51.3,37.8,50.6z M30,41v0.2c0,2,0.8,3.3,4,4
			v-8.1C31.5,37.5,30,39,30,41z M55.1,41v0.2c0,2,0.8,3.3,4,4v-8.1C56.7,37.5,55.1,39,55.1,41z M48,0C21.5,0,0,21.5,0,48
			s21.5,48,48,48s48-21.5,48-48S74.5,0,48,0z M46.9,54.5c0,4.9-3.3,8.1-9.1,8.7v2c0,0.4-0.3,0.7-0.7,0.7h-2.4
			c-0.4,0-0.7-0.3-0.7-0.7v-1.9c-6.3-0.4-9.8-3.5-10-9.8c0-0.4,0.3-0.7,0.7-0.7l4.3,0c0.4,0,0.6,0.3,0.7,0.6c0.2,3.3,1.8,5,4.4,5.3
			v-9c-6.7-0.9-9.7-3.4-9.7-8.2v-0.4c0-4.9,3.6-8.1,9.7-8.6v-2c0-0.4,0.3-0.7,0.7-0.7h2.4c0.4,0,0.7,0.3,0.7,0.7v2
			c5.5,0.6,8.6,3.6,8.8,10.1c0,0.4-0.3,0.7-0.7,0.7l-4.3,0c-0.4,0-0.6-0.3-0.7-0.6c-0.1-3.1-1.1-4.8-3.2-5.5v8.5
			c6.2,1,9.1,3.4,9.1,8.2V54.5z M72.1,54.5c0,4.9-3.3,8.1-9.1,8.7v2c0,0.4-0.3,0.7-0.7,0.7h-2.4c-0.4,0-0.7-0.3-0.7-0.7v-1.9
			c-6.3-0.4-9.8-3.5-10-9.8c0-0.4,0.3-0.7,0.7-0.7l4.3,0c0.4,0,0.6,0.3,0.7,0.6c0.2,3.3,1.8,5,4.4,5.3v-9c-6.7-0.9-9.7-3.4-9.7-8.2
			v-0.4c0-4.9,3.6-8.1,9.7-8.6v-2c0-0.4,0.3-0.7,0.7-0.7h2.4c0.4,0,0.7,0.3,0.7,0.7v2c5.5,0.6,8.6,3.6,8.8,10.1
			c0,0.4-0.3,0.7-0.7,0.7l-4.3,0c-0.4,0-0.6-0.3-0.7-0.6c-0.1-3.1-1.1-4.8-3.2-5.5v8.5c6.2,1,9.1,3.4,9.1,8.2V54.5z M63,50.6v8.1
			c2.2-0.6,3.4-2,3.4-3.9v-0.2C66.3,52.6,65.4,51.3,63,50.6z"/> </g> </g> </symbol><symbol viewBox="0 0 96 96" id="shape-movie"><title>movie</title>  <g> <g> <path fill="#FFFFFF" d="M48,0L48,0C21.5,0,0,21.5,0,48l0,0c0,26.5,21.5,48,48,48l0,0c26.5,0,48-21.5,48-48l0,0
			C96,21.5,74.5,0,48,0z M72.7,41v5.3h-7.1l0.1-0.1l4.9-7.3C71.7,38.9,72.7,39.9,72.7,41z M67.5,20.5c1-0.3,2.1,0.4,2.4,1.4l1.4,5.3
			l-2,0.5l-6.7-6L67.5,20.5z M62.9,38.9L58,46.2l-0.1,0.1h-7.8l0.1-0.1l4.9-7.3H62.9z M55.1,23.6l6.7,6l-7.6,1.9l-6.7-6L55.1,23.6z
			 M40.1,27.4l6.7,6l-7.6,1.9l-6.7-6L40.1,27.4z M47.5,38.9l-4.9,7.3l-0.1,0.1h-7.8l0.1-0.1l4.9-7.3H47.5z M25.2,31.2l6.7,6
			l-6.7,1.7h7l-4.9,7.3l-0.1,0.1h-1.9v-7.4l-1.4-5.3C23.5,32.6,24.1,31.5,25.2,31.2z M72.7,68.3c0,4.3-3.5,7.7-7.7,7.7H32.9
			c-4.3,0-7.7-3.5-7.7-7.7v-20h47.6V68.3z"/> </g> </g> </symbol><symbol viewBox="0 0 96 96" id="shape-music"><title>music</title>  <g> <g> <path fill="#FFFFFF" d="M48,0L48,0C21.5,0,0,21.5,0,48l0,0c0,26.5,21.5,48,48,48l0,0c26.5,0,48-21.5,48-48l0,0
			C96,21.5,74.5,0,48,0z M72.5,58.8L72.5,58.8c-0.5,4.9-4.7,8.8-9.7,8.8c-5.7,0-10.3-4.9-9.7-10.8c0.5-4.4,4-8,8.3-8.6
			c2.4-0.3,4.6,0.2,6.4,1.3V32.9L43,40v26.2c0,5.4-4.4,9.7-9.7,9.7c-5.7,0-10.3-4.9-9.7-10.8c0.5-4.4,4-8,8.3-8.6
			c2.4-0.3,4.6,0.2,6.4,1.3V33.2c0-2,1.3-3.7,3.2-4.3l25.2-7.2c2.8-0.8,5.7,1.3,5.7,4.3V58.8z"/> </g> </g> </symbol><symbol viewBox="0 0 18.12 33.41" id="shape-next"><title>next</title>  <polyline fill="none" stroke="#3D352B" stroke-width="2" stroke-miterlimit="10" points="0.71,0.71 16.71,16.71 0.71,32.71 "/> </symbol><symbol viewBox="0 0 36.1 36" id="shape-origen"><title>origen</title>  <g> <g> <path fill="#3C342A" d="M20.9,12.2c-1.4,0.3,2.2,2.9,2.6,3.2c1.5,1,3,1.8,4.6,2.6c2.3,1.1,5.3,2.1,6,1.7c1-0.6-1.8-4.3-2.5-4.8
			c-1.4-0.9-0.8-2.2-2.2-3.2c-0.6-0.4-1.2-0.6-1.8-1c-0.7-0.5-1.2-0.9-2.1-0.6C24,10.6,22.7,11.8,20.9,12.2z"/> <g> <path fill="#3C342A" d="M10.6,14.8c0.6,0.2,1,0.6,1.5,0.7c0.3,0.1,1,0.1,1.2,0.4s-0.1,0.8-0.5,0.7c-0.5-0.2-1-0.2-1.5-0.4
				c-0.2-0.1-0.3-0.3-0.5-0.4c-0.7-0.2-2.5-1.2-3-0.8c1,0.3,1.7,0.9,2.7,1.2c0.4,0.1,2.4,0.5,1.6,1.2c-0.4,0.4-2.3-0.5-2.7-0.7
				c-0.7-0.4-1.9-1.5-2.6-0.8c0.9,0.4,2,0.7,2.9,1.1c0.2,0.1,2.5,1.2,1.2,1.5c-0.5,0.1-1.5-0.7-2-0.8c-0.8-0.2-2.4-1.5-3-0.9
				c0.8,0.5,2,1.1,2.9,1.3c0.3,0.1,1.1,0.5,1.3,0.9c0.2,0.3,0,0.8-0.5,0.7C8.8,19.4,7.7,19,7,18.5c-0.6-0.5-1.8-1.1-2.3-0.7
				c0.9,0.4,1.8,0.8,2.6,1.2c0.3,0.2,2.4,0.5,1.7,1.3c-0.5,0.5-2-0.4-2.4-0.7c-0.7-0.5-2.3-1.5-3-0.9c0.6,0.1,1.6,0.7,2.3,1
				c0.3,0.1,3.1,1.4,1.9,1.9c-0.6,0.2-1.9-1-2.6-1.2s-2.1-1.2-2.7-0.8c0.5,0.3,5.1,2.1,4.4,2.8c-0.5,0.6-2-0.8-2.6-0.9
				c-1.1-0.2-2.1-1.6-3-0.9c0.7,0.1,5.3,2.2,4.6,2.9c-0.5,0.5-2-1.1-2.6-1.1c-1-0.1-2.3-1.5-3.3-1c2.3,1,4.4,2.5,6.7,3.3
				c-0.4-0.4,0.2-1,0.6-0.6c0.2,0.3,0.6,0.9,1,0.9c0.7,0,0.8,0.4,1.3,0.6c0.9,0.4,1.9,0.5,2.9,0.6c-0.3-0.3-0.5-0.3-0.9-0.4
				c-0.6-0.1-0.8-0.8-1.3-0.9s-2.9-1-2.9-1.4c0-1.3,2.4,0.5,2.8,0.5c0.7,0.1,0.7,0.5,1.3,0.8c0.8,0.4,1.3,0.1,1.8,1
				c0.3,0.4,2.3,0.2,2.9,0.1c-0.5-0.4-1.4-0.3-2-0.6c-0.3-0.2-0.5-0.3-0.8-0.5s-0.4-0.1-0.7-0.2c-0.2-0.1-0.4-0.3-0.5-0.5
				c-0.3,0-0.8,0-1.1-0.2c-0.7-0.5-1-0.6-1.8-0.9c-1-0.3-0.8-1.8-0.1-1.2c0.6,0.5,1.1,0.5,1.8,1c0.5,0.4,1.8,0.3,1.9,0.9
				c0.3,0.2,0.6,0,1,0.2c0.4,0.3,0.8,0.8,1.3,0.8c0.9,0,1.4,0.6,2.2,0.9c0.5,0.3,2.4,0.1,2.9-0.3c0.8-0.7,0.9-2,1.4-2.8
				c0.3-0.6,0.8-1.1,1.1-1.7c0.3-0.5,0.6-2.1,1.4-2.1c0.9,0.1-0.2,1.4-0.3,1.7c-0.3,0.8-0.7,1.5-1.1,2.2c-0.6,0.9-0.8,2.2-1.6,2.9
				c1.2,0,0.8-1.8,1.6-2.3c1-0.7,1.6-2.8,2.1-3.9c0.2-0.5,0.9,0,0.7,0.4c-0.3,0.7-0.8,1.4-1,2.1c-0.1,0.5-0.4,1.1-0.7,1.6
				c-0.6,0.7-0.7,1.5-1.2,2.2c0.1,0,0.3,0,0.4,0c0.6-0.8,0.7-1.8,1.2-2.6c0.3-0.5,1.5-3.4,2-3.5c1.1-0.2-0.6,3-0.9,3.4
				c-0.7,0.9-0.8,1.9-1.3,2.8c0.6,0,1.1-1.5,1.4-1.9c0.4-0.6,1.2-3.8,2.2-3.8c0.9,0-0.9,3-1.1,3.5s-0.4,1.1-0.8,1.4
				c-0.3,0.3-0.2,0.6-0.5,0.9c0.7,0,0.7-0.1,0.9-0.8c0.2-0.5,0.6-0.9,0.7-1.4s1.4-3.5,2-3.2c0.7,0.4-1.7,4.6-2.1,5.4
				c1.6-0.1,1.9-5,3.4-4.8c0.9,0.1-0.5,1.8-0.6,2.2c-0.3,0.8-0.8,1.9-1.4,2.5c1-0.2,1.2-1.1,1.6-2c0.2-0.5,0.8-2,1.2-2.3
				c1-0.6,0.3,1.2,0.2,1.3c-0.5,0.9-0.8,1.8-1.4,2.6c1-0.2,1.9-2.3,2.3-3.3c0.3-0.7,0.9,0,0.5,0.7s-0.8,1.4-1.2,2.2
				c1.1-0.2,1.3-1.8,2-2.6c0.3-0.4,0.8,0.2,0.5,0.5c-0.4,0.5-0.7,1.1-1,1.6c1-0.4,1.1-0.8,1.5-1.7c0.3-0.6,0.7,0.2,0.5,0.6
				c2.5-1.8-1-1.9-2.4-2.4c-3.1-1-6.2-2.4-8.9-4.2c-2.6-1.8-4.8-4-6.9-6.3c-2-2.2-6.5,2.2-8.1,3.6C9.5,14.4,10.1,14.6,10.6,14.8
				C10.8,14.8,10.1,14.6,10.6,14.8z M19.1,25.3c-0.2,0-1.4-0.5-0.7-0.5c-1,0.1-1.6-0.6-2.5-0.9c-0.7-0.2-1.6-0.8-2.3-0.8
				c-0.3,0-0.8-0.3-1.1-0.3c-0.6-0.2-1.2-0.4-1.7-0.8c-1-0.7-0.9-1.8,0.2-0.9c1.5,1.2,3.6,1.2,5.3,2c0.5,0.3,1.1,0.3,1.5,0.7
				c0.4,0.4,0.3,0.1,0.8,0.2c0.2,0.1,1,0.5,1.1,0.7C19.9,24.9,19.5,25.4,19.1,25.3C18.8,25.3,19.7,25.4,19.1,25.3z M20.1,23.6
				c-1-0.3-1.8-0.4-2.7-0.9c-0.7-0.4-1.7-0.1-2.3-0.8c-0.2-0.3-2-0.6-2.5-0.8c-0.6-0.2-1.1-0.3-1.7-0.6c-0.4-0.2-0.2-0.7,0.2-0.8
				c0.8-0.1,2,0.8,2.8,0.9c0.9,0.1,1.5,0.7,2.4,0.8c0.9,0.1,1.6,0.8,2.4,0.9c0.5,0,1.5,0.1,1.8,0.5C20.8,23.2,20.5,23.7,20.1,23.6
				C19.6,23.4,20.7,23.7,20.1,23.6z M21.1,22.1c-0.8,0-1.3-0.4-1.9-0.4c-0.8,0-2.6-0.5-3.1-1.2c-0.1-0.1-1.6-0.4-2-0.5
				c-0.3-0.1-3.1-0.8-1.9-1.4c0.3-0.2,2.2,0.3,2.5,0.6c0.4,0.4,1,0.4,1.5,0.6c0.5,0.1,0.8,0.6,1.3,0.7c0.7,0.2,2.1,0.1,2.6,0.6
				c0.4,0.4,1,0,1.3,0.3C21.7,21.6,21.5,22.1,21.1,22.1C20.8,22.1,21.7,22.1,21.1,22.1z M14.4,16.5c0.9-0.1,2.2,0.4,3.1,0.6
				c0.8,0.2,1.6,0.4,2.4,0.4c0.9,0,1.7,0.5,2.5,0.7c1.3,0.3,0.7,1.3,0.1,0.9c-0.5-0.4-0.7,0-1.2-0.1c-0.4-0.1-0.6-0.3-1-0.4
				s-0.7,0-1.1,0c-0.5,0-0.7-0.4-1.2-0.4c-1-0.2-1.9-0.2-2.9-0.6c-0.3-0.1-0.9,0-1.1-0.2C13.8,17.1,14.1,16.5,14.4,16.5
				C15.3,16.4,13.9,16.5,14.4,16.5z M15.9,18.1c0.8,0.1,1.5,0.5,2.3,0.6c1,0.1,1.5,0.7,2.4,0.9c0.4,0.1,2-0.1,1.8,0.7
				c-0.2,0.6-2.3,0.1-2.7-0.1c-0.7-0.4-1.2-0.7-2.2-0.7c-0.6,0-0.9-0.4-1.3-0.5c-0.6-0.1-1.1,0-1.7-0.2c-0.4-0.2-1.8-0.6-1.4-1.3
				C13.4,17,15.4,18.1,15.9,18.1C16.7,18.2,15,18.1,15.9,18.1z"/> <path fill="#3C342A" d="M3.7,19.6L3.7,19.6L3.7,19.6z"/> </g> </g> <rect x="0.1" fill="none" width="36" height="36"/> </g> </symbol><symbol viewBox="0 0 58.9 44" id="shape-personas"><title>personas</title>  <g> <path fill="#FFFFFF" d="M4.73,14.2c0.59-1.1,0.59-2.06,0.55-3.75C5.24,8.87,4.76,2.26,4.69,1.36c0-0.06-0.05-0.1-0.11-0.1H4.54
		c-0.06,0-0.11,0.05-0.11,0.11v9.62c0,0.13-0.11,0.23-0.24,0.22C4.08,11.19,4,11.1,3.99,10.99L3.55,1.36c0-0.06-0.05-0.11-0.11-0.11
		c-0.06,0-0.11,0.05-0.11,0.11l-0.41,9.61c-0.01,0.14-0.12,0.25-0.26,0.25c-0.14,0-0.26-0.11-0.26-0.25L1.98,1.36
		c0-0.06-0.05-0.11-0.11-0.11c-0.06,0-0.11,0.05-0.11,0.11L1.3,10.99c-0.01,0.11-0.09,0.2-0.19,0.21c-0.13,0.01-0.24-0.09-0.24-0.22
		V1.36c0-0.06-0.05-0.11-0.11-0.11H0.72c-0.06,0-0.11,0.04-0.11,0.1c-0.07,0.91-0.54,7.52-0.59,9.09c-0.05,1.69-0.05,2.65,0.55,3.75
		c0.59,1.1,1.47,2.47,1.47,3.52l-0.1,2.05C1.65,24.8,0.85,37.27,0.87,39.2c0,0.05,0,0.09,0,0.14c0.05,2.26,0.95,3.4,1.78,3.4
		c0.83,0,1.72-1.14,1.78-3.4c0-0.05,0-0.09,0-0.14c0.02-1.93-0.78-14.4-1.07-19.43l-0.1-2.05C3.26,16.67,4.14,15.3,4.73,14.2z"/> <path fill="#FFFFFF" d="M58.47,34.71L58.47,34.71l-0.6-12.15c-0.01-0.29,0.03-0.59,0.13-0.86l0,0c0.03-0.09,0.05-0.18,0.05-0.28
		c0.02-1.84,0.28-20.69,0.28-20.89c0-0.21-0.6-1.75-2.14,2.17c-1.54,3.93-1.44,15.71-1.33,16.23s0.7,0.84,1.05,1.93
		c0.15,0.48,0.28,1.07,0.39,1.67c0.04,0.24,0.06,0.49,0.04,0.73l-0.57,11.45l0.01-0.01c-0.27,3.06-0.43,6.03-0.43,6.67
		c0,1.41,0.8,2.56,1.78,2.56c0.98,0,1.78-1.15,1.78-2.56C58.9,40.74,58.74,37.77,58.47,34.71z"/> <g> <g> <path fill="#FFFFFF" d="M30.05,0c-12.15,0-22,9.85-22,22s9.85,22,22,22s22-9.85,22-22S42.2,0,30.05,0z M30.05,35.98
				c-7.72,0-13.98-6.26-13.98-13.98c0-7.72,6.26-13.98,13.98-13.98c7.72,0,13.98,6.26,13.98,13.98
				C44.03,29.72,37.77,35.98,30.05,35.98z M30.05,9.95C23.39,9.95,18,15.34,18,22s5.4,12.05,12.05,12.05S42.1,28.66,42.1,22
				S36.7,9.95,30.05,9.95z"/> </g> </g> </g> </symbol><symbol viewBox="0 0 36 36" id="shape-potencial"><title>potencial</title>  <g> <rect fill="none" width="36" height="36"/> <path fill="#3C342A" d="M27.5,14.7H24v-0.1V7.9c0-1.7-1.4-3.1-3.1-3.1h-6c-1.7,0-3.1,1.4-3.1,3.1v6.7v0.1H8.5c-0.5,0-1,0.4-1,1
		v14.8c0,0.5,0.4,1,1,1h19.1c0.5,0,1-0.4,1-1V15.7C28.5,15.1,28.1,14.7,27.5,14.7z M13.4,14.6V7.9c0-0.9,0.7-1.6,1.6-1.6h6
		c0.9,0,1.6,0.7,1.6,1.6v6.7v0.1h-9.2C13.4,14.6,13.4,14.6,13.4,14.6z M16,27.1c0.4-1.6,0.8-3.2,1.1-4.7c-0.7-0.3-1.1-1-1.1-1.8
		c0-1.1,0.9-2,2-2s2,0.9,2,2c0,0.8-0.5,1.5-1.1,1.8c0.4,1.6,0.8,3.2,1.1,4.7C18.7,27.4,17.3,27.4,16,27.1z"/> </g> </symbol><symbol viewBox="0 0 18.12 33.41" id="shape-prev"><title>prev</title>  <polyline fill="none" stroke="#3D352B" stroke-width="2" stroke-miterlimit="10" points="17.41,32.71 1.41,16.71 17.41,0.71 "/> </symbol><symbol viewBox="0 0 175.8 63.2" id="shape-protegido"><title>protegido</title>  <path d="M44.7,23.4c-0.3,0.4-1.7,2.4-4.3,6l-3.1,4.3c-2.9,4.1-5.1,7.7-6.6,10.9c-0.2,0.6-1,0.8-2.2,0.8c-0.5,0-0.8-0.1-0.8-0.3
	c0-0.1,0-0.2,0.1-0.3c1.6-3.4,3.8-7.1,6.5-10.9l9.5-13.3c0.6-0.9,2.6-3.6,5.9-8.3l4-5.7c0.3-0.5,1.1-0.7,2.4-0.7
	c0.4,0,0.6,0.1,0.7,0.2c0,0.1,0,0.2-0.1,0.2L44.7,23.4z M82,24.5c1.6-1.4,2.8-2.9,3.6-4.6c0.4-1,0.6-2.1,0.6-3.3
	c0-3.4-1.7-6.4-5.1-9c-3.9-3-9.5-5.2-16.9-6.5C59.9,0.4,55.4,0,50.7,0c-3.8,0-7.8,0.2-12.1,0.7C21.9,2.5,10.1,6.9,3.1,13.9
	c-2.5,2.6-3.5,4.9-3,7.1c0.6,2.1,2.1,3.2,4.8,3.2c0.6,0,1.5-0.1,2.4-0.4c1.2-0.3,1.7-0.7,1.6-1.2c-0.1-0.3-0.4-0.4-0.8-0.4
	c-0.2,0-0.5,0.1-1,0.2c-0.4,0.1-0.7,0.2-1,0.2c-0.7,0-1.3-0.3-1.9-0.8s-0.9-1.1-1.1-1.9c-0.6-2.5,0.9-5.1,4.5-7.7
	C12.1,9,17.8,6.5,24.8,4.7C29.7,3.4,35.3,2.5,41.4,2c2.9-0.2,5.5-0.4,7.8-0.4c6.3,0,12.3,0.7,18,2.2c3.5,0.9,6.6,2.3,9.5,4.1
	c3.5,2.3,5.6,4.7,6.3,7.5c0.1,0.5,0.2,1.1,0.2,1.7c0,1.2-0.3,2.4-0.9,3.7c-1.7,3.4-5.5,6-11.4,7.6c-4.5,1.2-9.6,1.9-15.2,1.9
	c-2.2,0-5.4-0.1-9.5-0.4c-0.3,0-0.7,0.1-1.4,0.5c-0.6,0.4-0.9,0.7-0.9,0.9c0.1,0.2,0.3,0.2,0.6,0.3C48,31.9,51.3,32,54.6,32
	C67.1,31.9,76.3,29.4,82,24.5z M130.9,35.2c0-0.8,0.6-1.2,1.7-1.2c1.1,0,1.7,0.4,1.7,1.2s-0.6,1.2-1.7,1.2S130.9,36,130.9,35.2z
	 M175.7,38.1c-0.1-0.1-0.2,0-0.3,0c-1.2,1.3-2.8,2.6-4.7,4c-2.2,1.6-3.8,2.4-4.7,2.4c-0.6,0-1-0.2-1.4-0.6c1.7-1.5,2.6-2.9,2.6-4.5
	c0-1.4-0.7-2-2.2-2s-3.3,0.9-5.5,2.6c-0.6,0.5-1.1,1-1.6,1.5c-1.1,0.8-2.2,1.5-3.2,2.1c-2.3,1.3-4,1.9-5.3,1.9
	c-1.8,0-2.9-1.1-3.3-3.4c5.2-3.8,9-6.9,11.6-9.1c7.3-6.6,11-11.1,11-13.4c0-1.4-0.6-2.1-1.9-2.1c-2.3,0-5.4,1.9-9.3,5.7
	c-3.3,3.2-6.1,6.6-8.5,10.3c-1.3,1.9-1.9,3-2,3.2c-0.9,1.6-1.6,3.3-2.1,5.1c-1,0.7-2.2,1.3-3.6,1.9c-1.5,0.6-2.5,1-3.2,1
	c-0.9,0-1.4-0.4-1.4-1.1c0-0.6,0.4-1.4,1.2-2.2c0.1-0.1,0.1-0.1,0.2-0.2c0.6-0.5,1.4-1.1,2.2-1.8c0.8-0.6,1.6-0.8,2.2-0.8
	c0.9,0,1.4,0.1,1.5,0.4c0.1,0.3,0.2,0.5,0.3,0.8s0.2,0.4,0.3,0.3c0.5-0.1,0.7-0.5,0.7-1.2c0-0.3-0.2-0.6-0.5-0.9
	c-0.3-0.3-0.8-0.4-1.3-0.4c-0.8,0-1.7,0.2-2.5,0.5l0,0c-0.1,0-0.2,0-0.3,0s-0.1,0.1-0.2,0.1c-1.2,0.5-2.3,1.2-3.6,2.2
	c-0.6,0.5-1,0.9-1.4,1.4c-2.9,2-4.8,3-5.6,3c-1.1,0-1.6-0.6-1.6-1.8c0-0.9,0.4-1.9,1.3-2.9c0.9-1.1,1.3-1.7,1.3-1.9
	s-0.2-0.4-0.6-0.4c-0.6,0.1-1.3,0.7-2.1,1.6c-4.4,3.3-7.4,5.2-9.1,5.7c1.5-2.2,2.2-4,2.2-5.3c0-1-0.4-1.7-1.1-2.3s-1.6-0.9-2.8-0.9
	c-1.6,0-3.2,0.5-5,1.6c-0.9,0.5-1.6,1.1-2,1.6c-1.7,1.3-2.8,2.1-3.3,2.4c-2.9,1.9-5,2.9-6.6,2.9c-0.6,0-1.1-0.2-1.6-0.5
	c-0.7-0.4-0.9-1-0.8-1.8l0,0c1.3-0.6,2.4-1.3,3.2-2.1c0.5-0.4,1-0.9,1.5-1.4s0.8-1,0.8-1.5c0-0.3-0.2-0.6-0.5-0.9
	c-0.3-0.3-0.6-0.4-1-0.4c-1.1,0-2.4,0.8-3.9,2.4c-1.3,1.4-2.1,2.8-2.2,4c-2,1.2-3.7,1.8-5,1.8c-1.2,0-1.8-0.5-1.8-1.4
	c0-1.4,1.4-3.8,4.3-7.1c0.3-0.3,2.4-2.5,6.3-6.6h9c1.4,0,2.1,0,2.1,0c1.1-0.1,1.7-0.5,1.7-1.1L101.2,28l3.8-3.3
	c0.1-0.1,0.1-0.2,0-0.5c-0.1-0.2-0.3-0.3-0.4-0.3c-0.5,0-0.9,0.1-1.1,0.3L99.7,28H83.4c-0.5,0-0.8,0.1-0.9,0.4
	c-0.1,0.5,0,0.7,0.4,0.7L98.4,30c-2.1,2.2-4.2,4.4-6.3,6.5c-0.8,1-1.6,1.8-2.2,2.7c-1.1,1-2.3,2-3.7,3c-2.2,1.6-3.8,2.4-4.7,2.4
	c-0.6,0-1-0.2-1.4-0.6c1.7-1.5,2.6-2.9,2.6-4.5c0-1.4-0.7-2-2.2-2s-3.3,0.9-5.5,2.6c-0.5,0.5-1,0.9-1.4,1.4
	c-0.7,0.5-1.2,0.9-1.5,1.1c-3.1,2-5.5,3-7.2,3c-0.5,0-0.9-0.2-1.2-0.5s-0.5-0.7-0.5-1.1c0-0.6,0.6-1.5,1.8-2.6
	c1.2-1.1,1.8-2,1.8-2.7c0-0.6-0.4-0.9-1.3-0.9c-0.4,0-1.2,0.1-2.4,0.4c0.9-0.9,1.4-1.6,1.4-2.3c0-0.4-0.3-0.6-0.8-0.6
	c-0.6,0-1.4,0.5-2.4,1.6c-1,1-1.5,1.8-1.5,2.4c0,0.2,0.1,0.4,0.3,0.6c-3.3,2.5-5.7,4-7.4,4.7c-0.3,0.3-0.4,0.6-0.4,0.8
	s0.2,0.2,0.7,0.2c2.1-0.9,4.7-2.7,7.9-5.4H61c0.4,0,1-0.1,1.6-0.2c0.7-0.1,1.3-0.2,1.9-0.2c-0.7,0.8-1.4,1.6-2.2,2.4
	c-0.8,1-1.2,1.7-1.2,2.3s0.3,1.2,0.8,1.7s1.1,0.7,1.7,0.7c2.3,0,5-1,8.1-3.1l0.1-0.1c-0.2,0.5-0.4,1.1-0.4,1.6
	c0,1.1,0.7,1.7,2.2,1.7c1,0,2.2-0.3,3.4-1c1-0.6,1.7-1,1.9-1.4c0.6,0.6,1.3,0.8,2.1,0.8c1.1,0,2.9-0.8,5.1-2.5c0.7-0.5,1.4-1,2-1.5
	c-0.5,1-0.8,1.8-0.8,2.5s0.2,1.4,0.7,1.9c0.4,0.5,1,0.8,1.7,0.8c1.7,0,3.7-0.8,6.1-2.3c0.2,1.5,1.2,2.3,3,2.3c2.2,0,4.8-1,7.7-2.9
	c0.6-0.4,1.6-1.1,2.8-2.1c0,0.6,0.2,1.2,0.6,1.6c0.4,0.4,0.9,0.6,1.6,0.6c1.1,0,2.3-0.4,3.7-1.1c0.8-0.5,1.6-1,2.4-1.5l0.3-0.6
	c-0.7,0.4-1.4,0.7-2.1,1.1c-1.3,0.6-2.3,0.9-3,0.9c-1,0-1.4-0.6-1.4-1.8c0-0.9,0.6-1.6,1.7-2.3c1.1-0.6,2.2-0.9,3.5-0.9
	c1.6,0,2.4,0.7,2.4,2.1c0,2-1,4.2-3.1,6.4c-0.6,0.2-3,1-7,2.2s-6.9,2.2-8.6,2.8c-7.4,2.8-11.1,5.9-11.1,9.4c0,0.8,0.3,1.4,0.9,1.9
	s1.4,0.8,2.4,0.8c3.7,0,8.7-2.4,15-7.3c4.6-3.6,7.9-6.6,9.9-9.2c2.7-0.9,5.2-2.2,7.4-3.8c0.1-0.1,0.5-0.4,1.2-1
	c-0.3,0.7-0.5,1.3-0.5,1.9c0,0.6,0.4,1.2,1,1.7c0.7,0.5,1.5,0.7,2.3,0.7c1.2,0,2.9-0.8,5.1-2.3V44c0,0.6,0.2,1.1,0.7,1.5
	s1,0.6,1.7,0.6c1.3,0,2.7-0.3,4.1-1c1.3-0.7,2.5-1.4,3.8-2.1c0.6,2.6,2,3.9,4,3.9c1.6,0,3.5-0.6,5.6-1.9c0.5-0.3,1.2-0.7,2-1.3
	c-0.2,0.5-0.3,1-0.3,1.5c0,1.1,0.7,1.7,2.2,1.7c1,0,2.2-0.3,3.4-1c1.1-0.6,1.7-1,2-1.4c0.6,0.6,1.3,0.8,2.1,0.8
	c1.1,0,2.9-0.8,5.1-2.5c2.1-1.5,3.7-2.8,4.7-4.1c0.1-0.1,0.2-0.3,0.2-0.5C175.8,38.2,175.8,38.2,175.7,38.1z M151.3,31.6
	c2.5-3.4,5.2-6.5,8.1-9.1c2.9-2.6,5-3.9,6.3-3.9c0.7,0,1.1,0.4,1.1,1.2c0,1.3-1,3.2-3,5.7c-1.8,2.4-3.9,4.6-6.4,6.7
	c-3.3,2.9-7.1,5.9-11.3,9C146.9,38.5,148.6,35.3,151.3,31.6z M74.9,45.5c-0.9,0-1.3-0.5-1.3-1.6c0-0.7,0.3-1.4,0.8-2
	c0.7-0.5,1.4-1.2,2.3-1.9c0.6-0.4,1.3-0.7,2-1c-0.5,0.5-0.8,1.4-0.8,2.6c0,0.9,0.3,1.6,0.8,2.2C77.4,45,76.1,45.5,74.9,45.5z
	 M78.9,41.1c0-0.7,0.3-1.3,0.7-1.9c0.5-0.6,1-0.9,1.7-0.9c0.5,0,0.8,0.3,0.8,0.8c0,1.3-0.9,2.6-2.6,4C79.1,42.8,78.9,42.1,78.9,41.1
	z M99.5,39.5c0.8-0.9,1.5-1.3,1.9-1.3c0.3,0,0.5,0.1,0.5,0.3c0,0.3-0.1,0.5-0.3,0.8c-1,0.7-2,1.5-3,2.2c-0.2,0.1-0.3,0.1-0.4,0.1
	C98.3,41.1,98.7,40.3,99.5,39.5z M103.6,58.5c-1.5,1-3.1,1.9-4.9,2.6c-1.7,0.7-3,1-3.9,1c-0.8,0-1.6-0.2-2.3-0.6
	c-0.8-0.5-1.2-1.2-1.2-1.9c0-2,1.8-3.9,5.5-5.8c2.6-1.4,6.2-2.7,10.8-4.1c2.7-0.8,5.4-1.5,8.1-2.3C113.6,50.5,109.5,54.3,103.6,58.5
	z M159.3,45.5c-0.9,0-1.3-0.5-1.3-1.6c0-0.6,0.2-1.3,0.7-1.9c0.2-0.1,0.4-0.3,0.6-0.5c0.8-0.7,1.5-1.2,2.1-1.7
	c0.5-0.3,1.1-0.6,1.8-0.9c-0.5,0.5-0.8,1.4-0.8,2.6c0,0.9,0.3,1.6,0.8,2.2C161.8,45,160.5,45.5,159.3,45.5z M163.3,41.1
	c0-0.7,0.2-1.3,0.7-1.9c0.5-0.6,1-0.9,1.7-0.9c0.5,0,0.8,0.3,0.8,0.8c0,1.3-0.9,2.6-2.6,4C163.5,42.8,163.3,42.1,163.3,41.1z"/> </symbol><symbol viewBox="0 0 20 19.34" id="shape-search"><title>search</title>  <path id="search-search_2_" d="M20,17.54l-4.28-4.28c0.89-1.35,1.41-2.96,1.41-4.7C17.13,3.84,13.29,0,8.57,0
	C3.84,0,0,3.84,0,8.57c0,4.72,3.84,8.56,8.57,8.56c2.07,0,3.98-0.74,5.46-1.97l4.18,4.18L20,17.54z M8.57,14.59
	c-3.32,0-6.03-2.7-6.03-6.03c0-3.32,2.7-6.03,6.03-6.03c3.32,0,6.03,2.7,6.03,6.03C14.59,11.89,11.89,14.59,8.57,14.59z"/> </symbol><symbol viewBox="0 0 96 96" id="shape-start"><title>start</title>  <g> <g> <path fill="#FFFFFF" d="M48,0C21.5,0,0,21.5,0,48s21.5,48,48,48s48-21.5,48-48S74.5,0,48,0z M62.3,50.6L37.8,68.8
			c-0.5,0.4-1.2,0.6-1.8,0.6c-0.9,0-1.8-0.4-2.4-1.2c-1-1.3-0.7-3.2,0.6-4.2l21.3-15.8L33.7,32c-1.3-1-1.6-2.9-0.6-4.2
			c1-1.3,2.9-1.6,4.2-0.6l25,18.6c0.8,0.6,1.2,1.5,1.2,2.4S63,50,62.3,50.6z"/> </g> </g> </symbol><symbol viewBox="0 0 240 18.2" id="shape-tajamar"><title>tajamar</title>  <path d="M112.9,6v12.1h-2.4V6h-4.3V4.1h11V6H112.9z M136.8,18.1l-5.8-14h-1.9l-5.7,14h2.5l1.1-2.8h6.2l1.1,2.8H136.8z M132.5,13.4
	h-4.8l2.4-6.2L132.5,13.4z M147.8,18.2c2.9,0,5.2-1.6,5.2-4.5V4.2h-2.4v9.4c0,1.8-1.1,2.8-2.8,2.8c-1.1,0-1.7-0.3-2.2-0.8L144,17
	C145.1,17.8,146.2,18.2,147.8,18.2 M174.9,18l-5.8-13.9h-1.9l-5.7,14h2.5l1.1-2.8h6.2l1.1,2.8L174.9,18z M170.6,13.4h-4.8l2.4-6.2
	L170.6,13.4z M197.5,18V4h-2.4l-4.5,8.7L186,4h-2.4v14h2.4V8.7l3.7,6.8h1.8l3.6-6.8V18H197.5z M219.7,18L214,4h-1.9l-5.7,14h2.5
	l1.1-2.8h6.2l1.1,2.8H219.7z M215.5,13.3h-4.8l2.4-6.2L215.5,13.3z M240,17.9l-3.6-6.2c1.8-0.4,3.1-1.7,3.1-3.7
	c0-2.4-1.9-4.1-4.9-4.1h-6.1v14h2.4V12h3l3.3,5.9H240z M234.5,5.9c1.6,0,2.7,0.8,2.7,2.2s-1.1,2.2-2.7,2.2H231V5.9H234.5 M15.2,17.8
	L8.7,0.2H6.5L0,17.8h2.9l1.2-3.5h7l1.2,3.5H15.2z M10.4,12H4.9l2.8-7.8L10.4,12z M37.5,17.8v-2.4h-8.6V0.2h-2.7v17.6H37.5z
	 M57.9,2.6V0.2H45.4v2.4h4.9v15.2H53V2.6L57.9,2.6z M79.4,16c1.7-1.7,1.7-3.7,1.7-7.1s0-5.3-1.7-7.1C78.2,0.7,76.6,0,74.7,0
	S71.3,0.7,70,1.9c-1.7,1.7-1.7,3.7-1.7,7.1s0,5.3,1.7,7.1c1.2,1.2,2.8,1.9,4.7,1.9C76.6,17.9,78.2,17.2,79.4,16 M77.4,3.5
	c0.9,0.9,1.1,1.9,1.1,5.5c0,3.5-0.2,4.5-1,5.5c-0.6,0.7-1.6,1.1-2.6,1.1s-2-0.4-2.6-1.1c-0.9-0.9-1.1-1.9-1.1-5.5
	c0-3.5,0.2-4.5,1-5.5c0.6-0.7,1.6-1.1,2.6-1.1S76.8,2.8,77.4,3.5"/> </symbol><symbol viewBox="0 0 36 36" id="shape-temperatura"><title>temperatura</title>  <g> <g> <g> <g> <path fill="#3C342A" d="M18,36c-3,0-5.4-2.4-5.4-5.4c0-1.8,0.9-3.5,2.5-4.5V2.9C15.1,1.3,16.4,0,18,0s2.9,1.3,2.9,2.9v23.2
					c1.5,1,2.5,2.7,2.5,4.5C23.4,33.6,21,36,18,36z M18,1.1c-1,0-1.8,0.8-1.8,1.8v23.9L15.9,27c-1.3,0.7-2.2,2.2-2.2,3.7
					c0,2.3,1.9,4.2,4.2,4.2s4.2-1.9,4.2-4.2c0-1.5-0.8-2.9-2.2-3.7l-0.3-0.2V2.9C19.8,1.9,19,1.1,18,1.1z"/> </g> </g> <g> <circle fill="#3C342A" cx="18" cy="30.6" r="3.2"/> </g> <g> <rect x="17.4" y="16.1" fill="#3C342A" width="1.2" height="14.6"/> </g> </g> <rect fill="none" width="36" height="36"/> </g> </symbol><symbol viewBox="0 0 32 32" id="shape-twitter"><title>twitter</title>  <g> <g> <path d="M30,2v28H2V2H30 M32,0H0v32h32V0L32,0z"/> </g> <path class="icono" d="M23.65,12.58c0.01,0.14,0.01,0.28,0.01,0.42c0,4.34-3.3,9.34-9.34,9.34c-1.85,0-3.58-0.54-5.03-1.47
		c0.26,0.03,0.52,0.05,0.78,0.05c1.54,0,2.95-0.52,4.08-1.41c-1.44-0.03-2.65-0.98-3.07-2.28c0.2,0.04,0.41,0.06,0.62,0.06
		c0.3,0,0.59-0.04,0.86-0.12c-1.5-0.3-2.63-1.63-2.63-3.22c0-0.01,0-0.03,0-0.04c0.44,0.25,0.95,0.39,1.49,0.41
		c-0.88-0.59-1.46-1.59-1.46-2.73c0-0.6,0.16-1.17,0.44-1.65c1.62,1.99,4.04,3.29,6.77,3.43c-0.06-0.24-0.09-0.49-0.09-0.75
		c0-1.81,1.47-3.28,3.28-3.28c0.94,0,1.8,0.4,2.4,1.04c0.75-0.15,1.45-0.42,2.08-0.8c-0.25,0.77-0.77,1.41-1.44,1.82
		c0.66-0.08,1.3-0.26,1.89-0.52C24.85,11.54,24.29,12.12,23.65,12.58z"/> </g> </symbol><symbol viewBox="0 0 36 36" id="shape-variedad"><title>variedad</title>  <g> <g> <ellipse transform="matrix(-0.2177 -0.976 0.976 -0.2177 3.2938 32.0635)" fill="#3C342A" cx="14.5" cy="14.7" rx="3.2" ry="3"/> <path fill="#3C342A" d="M24,14.4c-0.4,1.6-1.9,2.7-3.4,2.4c-1.5-0.2-2.3-1.7-1.9-3.3s1.9-2.7,3.4-2.4S24.4,12.8,24,14.4z"/> <ellipse transform="matrix(-3.835056e-02 -0.9993 0.9993 -3.835056e-02 -9.5874 42.1744)" fill="#3C342A" cx="15.5" cy="25.7" rx="2.8" ry="2.5"/> <ellipse fill="#3C342A" cx="21.7" cy="25.3" rx="2.6" ry="2.8"/> <ellipse fill="#3C342A" cx="9.3" cy="16.3" rx="2.2" ry="2.4"/> <ellipse fill="#3C342A" cx="26.7" cy="14.5" rx="2.2" ry="2.4"/> <ellipse transform="matrix(7.169213e-03 -1 1 7.169213e-03 -11.8344 49.2815)" fill="#3C342A" cx="18.9" cy="30.6" rx="2.8" ry="2.6"/> <ellipse transform="matrix(-0.3143 -0.9493 0.9493 -0.3143 -2.9636 39.8522)" fill="#3C342A" cx="12.9" cy="21" rx="2.7" ry="2.5"/> <ellipse transform="matrix(-0.2334 -0.9724 0.9724 -0.2334 3.6032 42.8601)" fill="#3C342A" cx="18.7" cy="20" rx="3" ry="2.7"/> <path fill="#3C342A" d="M27.4,19.5c0.3,1.6-0.5,2.9-1.9,3.1s-2.8-1-3.1-2.5c-0.3-1.6,0.5-2.9,1.9-3.1S27.1,18,27.4,19.5z"/> <path fill="#3C342A" d="M17.6,11.3c0,0,0-0.2-0.1-0.5c0-0.1,0-0.2,0-0.2c0-0.1,0-0.2-0.1-0.3c0-0.2-0.1-0.4-0.2-0.6
			c0-0.1-0.1-0.2-0.1-0.4c0-0.1,0-0.2-0.1-0.3c-0.1-0.3-0.3-0.5-0.4-0.8c-0.2-0.2-0.3-0.5-0.5-0.7c-0.2-0.2-0.4-0.4-0.6-0.7
			c-0.2-0.2-0.5-0.4-0.7-0.5C14.6,6.1,14.3,6,14,5.9s-0.5-0.2-0.8-0.3c-0.1,0-0.2-0.1-0.4-0.1c-0.1,0-0.2,0-0.3-0.1
			c-0.2-0.1-0.4-0.1-0.6-0.1c-0.2,0-0.3,0-0.5,0c-0.3,0-0.4,0-0.4,0h-0.1c-0.5,0-1-0.4-1-1c0-0.5,0.4-1,1-1H11c0,0,0.2,0,0.5,0.1
			c0.2,0,0.4,0,0.6,0.1c0.2,0,0.5,0.1,0.8,0.2c0.1,0,0.3,0.1,0.4,0.1c0.1,0.1,0.3,0.1,0.4,0.2c0.3,0.1,0.6,0.3,0.9,0.5
			c0.3,0.2,0.6,0.4,0.9,0.6c0.3,0.2,0.5,0.5,0.8,0.8c0.2,0.3,0.5,0.6,0.7,0.9s0.4,0.6,0.5,0.9c0.1,0.3,0.3,0.6,0.4,0.9
			C17.9,8.7,18,8.9,18,9c0,0.1,0.1,0.3,0.1,0.4c0.1,0.3,0.1,0.5,0.1,0.7c0,0.1,0,0.2,0,0.3s0,0.2,0,0.2c0,0.3,0,0.5,0,0.5
			c0,0.2-0.1,0.3-0.3,0.3C17.7,11.6,17.6,11.5,17.6,11.3z"/> <path fill="#3C342A" d="M17,8.1c0,0,0-0.1-0.1-0.2c0-0.1-0.1-0.2-0.1-0.3c0-0.1-0.1-0.3-0.1-0.4s-0.1-0.3-0.1-0.5s0-0.4,0-0.5
			c0-0.2,0-0.4,0.1-0.6c0-0.2,0.1-0.4,0.1-0.6c0.1-0.2,0.1-0.4,0.2-0.6s0.2-0.3,0.3-0.5c0.1-0.2,0.2-0.3,0.4-0.4
			c0.1-0.1,0.2-0.3,0.4-0.4c0.2-0.2,0.5-0.4,0.6-0.4C18.9,2.6,19,2.6,19,2.6c0.3-0.2,0.7-0.1,0.9,0.3c0.2,0.3,0.1,0.7-0.3,0.9
			c0,0,0,0-0.1,0h-0.1c0,0-0.1,0-0.2,0.1c-0.1,0-0.3,0.1-0.5,0.2c-0.1,0.1-0.2,0.1-0.3,0.2c-0.1,0.1-0.2,0.2-0.3,0.3
			c0,0.2-0.1,0.3-0.2,0.4s-0.2,0.3-0.2,0.4c-0.1,0.1-0.1,0.3-0.2,0.4s-0.1,0.3-0.1,0.4s0,0.3,0,0.4s0,0.3,0,0.4s0,0.2,0,0.3
			c0,0.1,0,0.2,0.1,0.3c0,0.2,0.1,0.2,0.1,0.2c0,0.2,0,0.3-0.2,0.4C17.2,8.4,17,8.3,17,8.1z"/> </g> <rect fill="none" width="36" height="36"/> </g> </symbol><symbol viewBox="0 0 32 32" id="shape-whatsapp"><title>whatsapp</title>  <g> <g> <path d="M30,2v28H2V2H30 M32,0H0v32h32V0L32,0z"/> </g> <path class="icono" d="M24.79,15.79c0,4.3-3.52,7.8-7.85,7.8c-1.38,0-2.67-0.35-3.8-0.97L8.79,24l1.42-4.18
		c-0.72-1.17-1.13-2.55-1.13-4.02c0-4.3,3.52-7.8,7.86-7.8C21.27,8,24.79,11.49,24.79,15.79z M16.93,9.24
		c-3.64,0-6.61,2.94-6.61,6.55c0,1.44,0.47,2.76,1.26,3.84l-0.82,2.43l2.54-0.8c1.04,0.69,2.29,1.08,3.63,1.08
		c3.64,0,6.6-2.94,6.6-6.56C23.54,12.18,20.57,9.24,16.93,9.24z M20.9,17.59c-0.05-0.08-0.17-0.13-0.36-0.23
		c-0.2-0.1-1.14-0.55-1.32-0.61c-0.17-0.06-0.3-0.1-0.43,0.09c-0.13,0.19-0.5,0.62-0.61,0.75c-0.12,0.13-0.23,0.14-0.42,0.05
		c-0.19-0.09-0.81-0.3-1.55-0.95c-0.57-0.5-0.96-1.13-1.07-1.32c-0.11-0.19-0.01-0.3,0.08-0.39c0.09-0.09,0.19-0.23,0.29-0.34
		c0.1-0.11,0.13-0.19,0.19-0.32c0.06-0.13,0.03-0.24-0.02-0.34c-0.05-0.1-0.44-1.03-0.59-1.42c-0.16-0.38-0.32-0.32-0.43-0.32
		c-0.12,0-0.24-0.02-0.37-0.02c-0.13,0-0.34,0.05-0.51,0.24c-0.17,0.19-0.67,0.65-0.67,1.59c0,0.94,0.69,1.85,0.79,1.98
		c0.1,0.13,1.33,2.11,3.29,2.88c1.96,0.77,1.96,0.51,2.31,0.48c0.35-0.03,1.14-0.46,1.3-0.91C20.95,18.05,20.95,17.67,20.9,17.59z"/> </g> </symbol><symbol viewBox="0 0 42 42" id="shape-youtube"><title>youtube</title>  <g> <path d="M40,2v38H2V2H40 M42,0H0v42h42V0L42,0z"/> </g> <use xlink:href="#youtube-youtube" width="22" height="16.84" id="youtube-XMLID_1_" x="-11" y="-8.42" transform="matrix(0.8182 0 0 -0.8182 21.287 20.1256)" overflow="visible"/> </symbol></svg>