<!-- Generator: Adobe Illustrator 19.1.0, SVG Export Plug-In  -->
<svg version="1.1"
	 xmlns="http://www.w3.org/2000/svg" xmlns:xlink="http://www.w3.org/1999/xlink" xmlns:a="http://ns.adobe.com/AdobeSVGViewerExtensions/3.0/"
	 x="0px" y="0px" width="149.7px" height="36.5px" viewBox="0 0 149.7 36.5" style="enable-background:new 0 0 149.7 36.5;"
	 xml:space="preserve">
<style type="text/css">
	.st0{fill-rule:evenodd;clip-rule:evenodd;fill:#3D352B;}
</style>
<defs>
</defs>
<path class="st0" d="M19.9,5.1c-0.3-0.8,0.8-1.1,0.8-2c-1.9-0.2-3.4,1.2-4.8,2.1c-4.2,2.7-7.7,6.5-11.4,9.8
	c-0.9,1.9-2.8,3.5-2.2,6.5c1.5,1.7,3.4,0.3,5.1-0.5c3-1.4,7-3.2,7.7-6.5c-1.9-0.5-2.8,0.9-3.5,2c-0.9-0.2-1.1-1.2-1.6-1.9
	c2.9-2,7.5-2.2,11.3-3.3c0.5,0.3,1.2,0.5,1.9,0.6c-0.9,0.8-2.7,0.8-4,1.3c-0.5,0.2-0.5,0.9-0.8,1.3c-4.5,4.1-7.3,9.9-9.5,16.3
	c0.9,1.8,0.9,6-2,5.8c-0.5-1,0-2,0.3-2.8c-0.8-1.6,0.4-3.1,1-4.6c0.6-1.4,0.7-3,1.3-4.2c0.8-1.8,2.3-3.1,2.7-4.8
	c-3,0.7-4.6,2.9-7.7,3.4c-4.4,0.6-5.4-2.7-4-5.7c0.8-1.7,2.7-3.5,4.2-4.9c2.8-2.6,5.9-5.2,9.1-7.7c2.6-2,5.1-4,7.7-5
	c1.3-0.5,3.6-0.5,3.8,0.9c0.3,1.5-1.3,2.1-2.2,2.7C22.1,4.6,21.1,5.6,19.9,5.1z M60.1,20.5c2.9-0.5,4.8-1,7.2-1.9
	c3.9-1.4,7.4-3.7,10-6c1.5-1.4,3.6-4,1.7-6.4c-1.2-1.6-4.8-2.3-7.8-2.8C61.5,2,51.7,0.6,42.3,2.7c-1,0.2-2.8,0.9-3.1,1.6
	c-0.4,0.8-0.5,3.4,1.3,2.9c1-0.3,0.6-2.1,1.5-2.8c4.7-1.4,11.5-2,17.4-1.3c3.4,0.4,6.8,0.7,10.6,1.5c3.6,0.7,10.5,1.9,7.3,6
	c-1.2,1.6-3.3,2.9-5.5,4.2c-2.7,1.7-5.8,3.1-9.3,3.6c2-3.3,4.7-5.8,6.9-8.8c0.9-0.6,1.6-3.2-0.6-2.9c-0.5,0.2-0.3,1.1-0.5,1.6
	c-2.4,3.1-4.9,6.1-7.4,9.1c-0.9,0.5-1.9,0.8-2.1,2C59,20.1,59.7,20.1,60.1,20.5z M134.6,3c-1.5,1.7-4.5,2.2-5.5,4.4
	c1.2-0.2,1.9-0.9,2.7-1.5c1.2-0.9,3.1-1,3.6-2.6C135.3,3,135,2.9,134.6,3z M120.9,9.2c0.4,0.1,0.3-0.3,0.6-0.3
	c-0.1-0.8-0.4-1.5-1.2-1.6C120,7.9,120.2,9.1,120.9,9.2z M125.2,11c-0.2,0.2-0.1,0.6-0.1,0.9c-1.8,0.9-4.2,3.5-6.6,2.6
	c0.3-1.5,2.9-2.5,1.6-4.1c-2,0.3-3.5,2-5.3,2.8c-1.6,0.7-4.1,1.9-5.9,0.9c0.4-1,0.9-1.9,1.9-2.3c0.5,0,0.1,0.9,0.7,0.8
	c1.3-0.2,0.9-1.6,0.2-2.2c-5-0.4-10.9,1.4-15.8,1.2c-0.8,1.8-1.1,4.1-3.3,4.5c-0.2-1.5-0.1-2.9-1.4-3.1c-1.2-0.2-2.1,1.1-3.4,1.2
	c-0.9,0.9-2.5,1.3-4.1,1.9c-1.3,0.4-3.4,1.8-4.4,0.2c2-0.9,4.1-1.7,5.6-3.1c0.3-0.8,0.4-1.9-0.2-2.4c-3-0.1-4.7,3.8-6.9,5
	c-1,0.6-3.7,0.8-2.3,2.3c1.1,0,1.3-1,2.4-1c0.2,0.4,0.3,1,0.6,1.4c2.9,0.3,5-0.8,7.1-1.7c1.7-0.7,3.3-1.9,5.2-1.7
	c0.5,0.9,0.1,2.6,0.7,3.3c0.1,0,0.2,0,0.2,0.1c2.8-0.4,3.8-2.8,4.9-5c0.7-0.3,2.1-0.5,3-0.2c-0.9,1.4-1.2,4.5,0.7,4.5
	c1.8,0,2.4-3,2.4-4.6c1.3-0.8,3.8-1.1,5.6-1c-0.8,1.3-1.8,3.2,0,4.2c4.4,0.2,6.2-2.1,9.4-3.1c-0.6,1.2-0.8,3.2,0.6,3.5
	c2.4,0.6,5.4-2.8,7-3.1c0.5,1.6,0.8,3.4,3,3.3c1.8-1.3-0.3-3.5-0.8-4.8c1.4-0.2,3.1-1.3,4.5-0.7c-0.2,1.7-1.1,4.1,0.7,4.1
	c1.6,0,2.5-3,4.4-2.8c-0.2,2.7-0.2,5.5,3,5.2c1.6-0.1,3.4-1.1,5.1-1.9c1.8-0.8,3.9-1.3,4.4-2.6c-3.4,1-5.8,2.9-9.9,3.1
	c-2.2-1.1,0.6-5.8-2.4-5.8c-1.5,0-2.1,1.7-3.5,2.2C134.5,7.4,127.8,10.3,125.2,11z M83.7,12.4c-0.7,1-1.8,1.5-2.9,2.1
	C81.6,13.6,82.3,12.6,83.7,12.4z M100.8,12.8c0-0.1,0.2-0.1,0.3-0.1c0.2,1.1,0.2,2.7-0.6,3.3C99.4,15.1,100.8,13.6,100.8,12.8z
	 M126.4,12.8c0.6,0.5,1.2,1,1.2,2.2C126.5,15.1,126.8,13.6,126.4,12.8z M23,13.2c0.6,0,0.7-0.5,1.5-0.3c0.2,2.4-1.4,3.1-1.6,5.1
	c0.2,0.4,0.7,0.6,1.3,0.6c1.5-2.6,3.2-5.1,7-5.5c0.5,0.1,0.5,0.7,1.3,0.6c0.6-0.2,0.7-1.2,0.5-1.9c-2.9-1.7-5.4,1.3-7.2,2.6
	c0.1-1,0.9-2.9-0.2-3.5C24.2,11.2,23.6,12.2,23,13.2z M35,12.7c-2,1.1-4.6,2.3-3.3,4.4c2.1,0.6,2.9-1.1,4.5-1.4
	c0.7,0.5,0.5,1.5,1.4,1.7c0.9,0.2,2.2-0.8,3-1.4c1.8-1.2,3.6-2.4,5.8-2.8c0.2,1.4-1.1,2.2-0.3,3.4c2.2-0.1,2.7-2.9,5.2-3
	c0.3,1-0.2,2.2,0.3,3c1.3,1.3,5.1,1,5.3-1c-1-0.6-2.7,1-3.8,0c-0.6-1.1,0.3-3.6-0.9-4.1c-1.7,0.1-2.6,1.8-3.7,2.1
	c0-0.8,0.3-1.1,0.2-2c-0.2-0.1-0.4-0.3-0.5-0.5c-1.9,0.2-3.4,1.2-5,2c-0.8,0.4-1.6,0.7-2.3,1.2c-0.6,0.4-1.3,1.3-2.2,0.8
	c0.3-1.6,2-1.8,1.6-4.1C38.4,10.6,36.7,11.8,35,12.7z M38.3,12.3c-0.9,1.6-2.4,2.4-4.4,2.9C34.6,13.5,36.5,13,38.3,12.3z"/>
</svg>
