<!-- Generator: Adobe Illustrator 19.1.0, SVG Export Plug-In  -->
<svg version="1.1"
	 xmlns="http://www.w3.org/2000/svg" xmlns:xlink="http://www.w3.org/1999/xlink" xmlns:a="http://ns.adobe.com/AdobeSVGViewerExtensions/3.0/"
	 x="0px" y="0px" width="240px" height="14px" viewBox="0 0 240 14" style="enable-background:new 0 0 240 14;"
	 xml:space="preserve">
<style type="text/css">
	.st0{fill-rule:evenodd;clip-rule:evenodd;fill:#CC814A;}
</style>
<defs>
</defs>
<path class="st0" d="M228.3,3.6c0-0.4-0.2-0.6-0.6-0.7c-0.4-0.1-0.8-0.1-1-0.1h-0.2V1.6l0.2,0c0.6,0,1.1,0,1.7,0c0.5,0,1.1,0,1.6,0
	l7,8.1V4.2c0-0.8-0.2-1.1-0.4-1.2c-0.2-0.2-0.6-0.2-1.3-0.2H235V1.6l0.2,0c0.8,0,1.6,0,2.3,0c0.7,0,1.4,0,2.1,0l0.2,0v1.1h-0.2
	c-1.1,0-1.4,0-1.4,1V14h-0.9l-7.7-9v5.7c0,1.6,0.2,1.9,1.8,1.9h0.2v1.1l-0.2,0c-0.8,0-1.7,0-2.5,0c-0.8,0-1.6,0-2.4,0l-0.2,0v-1.1
	h0.2c1.7,0,1.7-0.7,1.7-2.4V3.6z M10.3,13.7l-0.2,0c-1.6,0-3.2,0-4.8,0c-1.7,0-3.4,0-5,0l-0.2,0v-1l0.3,0c0.9,0.1,1.5-0.2,1.5-1V2.1
	C1.7,1,1.3,1,0.2,1L0,1V0l0.2,0C1.1,0,2,0,2.9,0c0.9,0,1.7,0,2.7,0l0.2,0v1L5.6,1c-1,0-1.5,0-1.5,1.1v8.8c0,1.2,0.1,1.8,2.8,1.8
	c2.1,0,2.8-0.5,3.3-2.2l0.1-0.2l0.9,0.2L10.3,13.7z M17.6,3.5c0-0.7-0.4-0.8-1.5-0.8h-0.2V1.6l0.2,0c0.9,0,1.8,0,2.7,0
	c0.9,0,1.9,0,2.8,0l0.2,0v1.1h-0.2c-1.2,0-1.5,0.2-1.5,0.8v8.3c0,0.7,0.4,0.8,1.5,0.8h0.2v1.1l-0.2,0c-0.9,0-1.9,0-2.8,0
	c-0.9,0-1.8,0-2.7,0l-0.2,0v-1.1h0.2c1.2,0,1.5-0.2,1.5-0.8V3.5z M40.9,1.6l0.2,0c0.5,0,1.1,0,1.7,0c0.6,0,1.3,0,1.9,0l0.2,0v1.1
	h-0.2c-1.2,0-1.4,0.2-1.4,0.5c0,0.4,0,0.7,0,1.3l0.2,6.2c0.1,1.9,0.3,1.9,1.7,1.9h0.2v1.1l-0.2,0c-0.9,0-1.9,0-2.8,0
	c-0.9,0-1.9,0-2.8,0l-0.2,0v-1.1h0.2c1.2,0,1.5-0.1,1.5-1c0-1.6-0.1-3.9-0.2-6.8l-4.2,9H36l-4.2-8.8c-0.2,2.4-0.4,5.8-0.4,6.5
	c0,0.7,0.4,1.1,1.6,1.1h0.2v1.1H33c-0.7,0-1.4,0-2.1,0c-0.8,0-1.7,0-2.4,0l-0.2,0v-1.1h0.2c1.4,0,1.6-0.4,1.6-1.4l0.4-6.2
	c0.1-0.9,0.1-1.4,0.1-2c0-0.2,0-0.3-0.2-0.3c-0.2-0.1-0.6-0.1-1.3-0.1h-0.2V1.6h0.2c0.7,0,1.4,0,2.1,0c0.5,0,1,0,1.5,0h0.1l4.1,8.4
	L40.9,1.6z M53.5,3.5c0-0.7-0.4-0.8-1.5-0.8h-0.2V1.6l0.2,0c0.9,0,1.8,0,2.7,0c0.9,0,1.9,0,2.8,0l0.2,0v1.1h-0.2
	c-1.2,0-1.5,0.2-1.5,0.8v8.3c0,0.7,0.4,0.8,1.5,0.8h0.2v1.1l-0.2,0c-0.9,0-1.9,0-2.8,0c-0.9,0-1.8,0-2.7,0l-0.2,0v-1.1H52
	c1.2,0,1.5-0.2,1.5-0.8V3.5z M68.1,2.9h-1.6c-1.3,0-1.5,0.1-1.9,1.6l0,0.2h-1.1l0.4-3.6h0.9v0.2c0,0.1,0,0.2,0.2,0.2
	c0.2,0.1,0.4,0.1,0.6,0.1h7.6c0.3,0,0.4,0,0.6-0.1c0.1-0.1,0.3-0.2,0.5-0.4l0.9-0.1l-0.3,3.6h-1.1l0-0.2c-0.1-1.5-0.3-1.6-1.1-1.6
	h-2.1v9c0,0.6,0.4,0.8,1.7,0.8h0.2v1.1l-0.2,0c-1,0-2,0-3,0c-0.9,0-1.8,0-2.9,0l-0.2,0v-1.1h0.2c1.3,0,1.7-0.2,1.7-0.8V2.9z
	 M90.8,13.7l-0.2,0c-1.7,0-3.4,0-5.1,0c-1.5,0-3.1,0-4.6,0l-0.2,0v-1.1h0.2c1.2,0,1.5-0.2,1.5-0.8V3.5c0-0.7-0.4-0.8-1.5-0.8h-0.2
	V1.6l0.2,0c1.1,0,2.1,0,3.2,0c1.9,0,3.9,0,5.8,0l0.2,0l0.2,3h-0.9l0-0.2c-0.3-1.4-0.5-1.6-2.9-1.6H85v4h1.7c0.3,0,0.5,0,0.7,0
	c0.2,0,0.3-0.1,0.4-0.1c0.2-0.1,0.3-0.4,0.3-1.3V5.2h1.1l0,0.2c0,0.6,0,1.3,0,1.9c0,0.6,0,1.3,0,2l0,0.2h-1.1V9.3
	c0-1.1-0.1-1.2-1.5-1.2H85v3.2c0,0.8,0.3,1.2,2.3,1.2c1.2,0,1.8-0.1,2.2-0.3c0.4-0.2,0.6-0.6,1.1-1.4l1.1-0.1L90.8,13.7z M99.4,3.5
	c0-0.7-0.4-0.8-1.5-0.8h-0.2V1.6l0.2,0c0.9,0,1.8,0,2.8,0c1.2,0,2.4,0,3.6,0c4.9,0,7.1,3.1,7.1,5.9c0,4.7-3.7,6.2-7.2,6.2
	c-1,0-2.2,0-3.2,0c-1.1,0-2.1,0-3.2,0l-0.2,0v-1.1h0.2c1.2,0,1.5-0.2,1.5-0.8V3.5z M101.9,11.3c0,1.1,0.5,1.3,1.7,1.3
	c2.2,0,5-0.7,5-4.7c0-2.8-1.3-5-4.3-5c-0.6,0-1.6,0-2.4,0.1V11.3z M132,6h2.3c0.7,0,1-0.3,1.1-0.5c0.1-0.1,0.1-0.3,0.2-0.5l0.1-0.4
	l0-0.2h0.9l0,0.3c0,0.4-0.1,1.4-0.1,2.1c0,0.6,0.1,1.5,0.1,2.1l0,0.2h-0.8V8.9c0-0.9-0.2-1.2-0.4-1.4c-0.3-0.2-0.7-0.2-1.4-0.2H132
	v3c0,2.1,0.1,2.4,1.7,2.4h1.2c1.8-0.1,2.5-0.3,3.2-2.2l0.1-0.2l0.9,0.2l-0.1,0.3c-0.3,0.9-0.6,1.9-0.8,2.9l0,0.2H138
	c-1.9,0-3.8,0-5.7,0c-1.4,0-2.8,0-4.2,0l-0.2,0v-1h0.2c1.5,0,1.6-0.1,1.6-1.9V2.4c0-1.4-0.2-1.4-1.6-1.5l-0.2,0V0l0.2,0
	c1.3,0,2.6,0,3.8,0c1.8,0,3.6,0,5.5,0l0.2,0v3.3l-0.8,0.2l0-0.3c-0.3-1.6-1-2.1-2.8-2.1h-2V6z M145.6,3.5c0-0.7-0.4-0.8-1.5-0.8
	h-0.2V1.6l0.2,0c0.9,0,1.8,0,2.8,0c1.2,0,2.4,0,3.6,0c4.9,0,7.1,3.1,7.1,5.9c0,4.7-3.7,6.2-7.2,6.2c-1,0-2.2,0-3.2,0
	c-1.1,0-2.1,0-3.2,0l-0.2,0v-1.1h0.2c1.2,0,1.5-0.2,1.5-0.8V3.5z M148.1,11.3c0,1.1,0.5,1.3,1.7,1.3c2.2,0,5-0.7,5-4.7
	c0-2.8-1.3-5-4.3-5c-0.6,0-1.6,0-2.4,0.1V11.3z M166.2,3.5c0-0.7-0.4-0.8-1.5-0.8h-0.2V1.6l0.2,0c0.9,0,1.8,0,2.7,0
	c0.9,0,1.9,0,2.8,0l0.2,0v1.1h-0.2c-1.2,0-1.5,0.2-1.5,0.8v8.3c0,0.7,0.4,0.8,1.5,0.8h0.2v1.1l-0.2,0c-0.9,0-1.9,0-2.8,0
	c-0.9,0-1.8,0-2.7,0l-0.2,0v-1.1h0.2c1.2,0,1.5-0.2,1.5-0.8V3.5z M180.8,2.9h-1.6c-1.3,0-1.5,0.1-1.9,1.6l0,0.2h-1.1l0.4-3.6h0.9
	v0.2c0,0.1,0,0.2,0.2,0.2c0.2,0.1,0.4,0.1,0.6,0.1h7.6c0.3,0,0.4,0,0.6-0.1c0.1-0.1,0.3-0.2,0.5-0.4l0.9-0.1l-0.3,3.6h-1.1l0-0.2
	c-0.1-1.5-0.3-1.6-1.1-1.6h-2.1v9c0,0.6,0.4,0.8,1.7,0.8h0.2v1.1l-0.2,0c-1,0-2,0-3,0c-0.9,0-1.8,0-2.9,0l-0.2,0v-1.1h0.2
	c1.3,0,1.7-0.2,1.7-0.8V2.9z M195.4,3.5c0-0.7-0.4-0.8-1.5-0.8h-0.2V1.6l0.2,0c0.9,0,1.8,0,2.7,0c0.9,0,1.9,0,2.8,0l0.2,0v1.1h-0.2
	c-1.1,0-1.5,0.2-1.5,0.8v8.3c0,0.7,0.4,0.8,1.5,0.8h0.2v1.1l-0.2,0c-0.9,0-1.9,0-2.8,0c-0.9,0-1.8,0-2.7,0l-0.2,0v-1.1h0.2
	c1.2,0,1.5-0.2,1.5-0.8V3.5z M213.4,1.3c4,0,6.6,2.7,6.6,6.3c0,3.1-2.5,6.4-6.8,6.4c-4,0-6.7-2.6-6.7-6.4
	C206.5,3.7,209.8,1.3,213.4,1.3z M213.5,12.8c2.8,0,3.7-2.4,3.7-4.9c0-3.2-1.8-5.3-4.2-5.3c-2.6,0-3.8,2.3-3.8,4.8
	C209.3,10.5,211.2,12.8,213.5,12.8z"/>
</svg>
