<!-- Generator: Adobe Illustrator 18.1.1, SVG Export Plug-In  -->
<svg version="1.1"
	 xmlns="http://www.w3.org/2000/svg" xmlns:xlink="http://www.w3.org/1999/xlink" xmlns:a="http://ns.adobe.com/AdobeSVGViewerExtensions/3.0/"
	 x="0px" y="0px" width="247.95px" height="60.55px" viewBox="0 0 247.95 60.55" enable-background="new 0 0 247.95 60.55"
	 xml:space="preserve">
<defs>
</defs>
<path fill-rule="evenodd" clip-rule="evenodd" fill="#3D352B" d="M32.96,8.38c-0.44-1.25,1.33-1.84,1.35-3.27
	c-3.14-0.35-5.67,1.99-7.89,3.46c-6.88,4.55-12.71,10.77-18.86,16.17c-1.49,3.23-4.62,5.73-3.66,10.78c2.5,2.88,5.65,0.55,8.47-0.77
	c5.03-2.34,11.61-5.33,12.7-10.78c-3.13-0.88-4.63,1.53-5.77,3.27c-1.52-0.4-1.8-2.05-2.69-3.08c4.73-3.29,12.44-3.6,18.67-5.39
	c0.85,0.5,1.91,0.79,3.08,0.96c-1.52,1.36-4.47,1.31-6.54,2.12c-0.76,0.39-0.89,1.42-1.35,2.12C23.04,30.8,18.4,40.4,14.68,50.92
	c1.42,2.99,1.44,9.91-3.27,9.62c-0.81-1.6-0.01-3.32,0.58-4.62c-1.3-2.71,0.72-5.09,1.73-7.7c0.91-2.36,1.24-4.93,2.12-6.93
	c1.29-2.96,3.83-5.21,4.43-7.89c-5.04,1.17-7.6,4.88-12.7,5.58c-7.29,1-8.9-4.41-6.54-9.43c1.34-2.85,4.42-5.76,6.93-8.08
	c4.61-4.26,9.77-8.65,15.01-12.7c4.3-3.33,8.46-6.68,12.7-8.28c2.11-0.8,5.92-0.83,6.35,1.54c0.46,2.53-2.23,3.41-3.66,4.43
	C36.66,7.66,34.95,9.25,32.96,8.38z M99.56,33.98c4.77-0.82,8.03-1.65,11.93-3.08c6.49-2.37,12.33-6.05,16.55-10.01
	c2.54-2.38,5.9-6.6,2.89-10.59c-1.95-2.58-7.96-3.89-12.9-4.62c-16.2-2.41-32.36-4.76-47.93-1.15c-1.65,0.38-4.58,1.47-5.2,2.69
	c-0.68,1.36-0.9,5.71,2.12,4.81c1.66-0.49,1.07-3.5,2.5-4.62C77.37,5.1,88.62,4.13,98.4,5.3c5.63,0.67,11.32,1.23,17.51,2.5
	c5.93,1.22,17.47,3.16,12.13,10.01c-2.01,2.57-5.54,4.78-9.05,6.93c-4.5,2.76-9.63,5.06-15.4,5.97c3.28-5.39,7.74-9.58,11.36-14.63
	c1.49-0.99,2.62-5.28-0.96-4.81c-0.78,0.37-0.42,1.89-0.77,2.69c-3.9,5.21-8.08,10.14-12.32,15.01c-1.45,0.79-3.2,1.29-3.46,3.27
	C97.71,33.25,98.9,33.35,99.56,33.98z M222.93,4.92c-2.43,2.83-7.51,3.63-9.05,7.31c1.99-0.32,3.07-1.55,4.43-2.5
	c1.94-1.46,5.13-1.67,5.97-4.23C224.13,5,223.66,4.82,222.93,4.92z M200.22,15.31c0.6,0.09,0.51-0.52,0.96-0.58
	c-0.22-1.32-0.64-2.44-1.92-2.69C198.82,13.17,199.07,15.13,200.22,15.31z M207.34,18.2c-0.3,0.28-0.17,0.99-0.19,1.54
	c-3,1.53-6.95,5.79-10.97,4.23c0.53-2.41,4.81-4.12,2.7-6.74c-3.31,0.48-5.83,3.26-8.85,4.62c-2.64,1.19-6.76,3.22-9.82,1.54
	c0.7-1.61,1.5-3.12,3.08-3.85c0.83,0,0.22,1.44,1.15,1.35c2.16-0.26,1.46-2.68,0.38-3.66c-8.25-0.6-18.1,2.34-26.18,1.93
	c-1.28,3.02-1.82,6.77-5.39,7.51c-0.33-2.54-0.25-4.85-2.31-5.2c-1.97-0.33-3.52,1.79-5.58,1.92c-1.47,1.46-4.13,2.17-6.74,3.08
	c-2.07,0.72-5.68,2.94-7.31,0.38c3.34-1.47,6.81-2.81,9.24-5.2c0.42-1.33,0.64-3.21-0.38-4.04c-5-0.17-7.75,6.24-11.36,8.28
	c-1.66,0.94-6.13,1.39-3.85,3.85c1.85-0.08,2.13-1.72,4.04-1.73c0.41,0.68,0.5,1.68,0.96,2.31c4.77,0.47,8.27-1.4,11.74-2.89
	c2.75-1.18,5.41-3.08,8.66-2.89c0.76,1.42,0.14,4.23,1.15,5.39c0.15,0.04,0.38,0.01,0.38,0.19c4.72-0.73,6.34-4.57,8.08-8.28
	c1.17-0.53,3.47-0.86,5-0.39c-1.55,2.4-1.95,7.46,1.15,7.51c2.9,0.05,3.95-4.94,4.04-7.7c2.13-1.4,6.22-1.85,9.24-1.73
	c-1.38,2.1-2.94,5.33,0,6.93c7.22,0.29,10.33-3.53,15.59-5.2c-0.96,2.05-1.25,5.26,0.96,5.77c3.98,0.92,8.87-4.67,11.55-5.2
	c0.87,2.59,1.26,5.67,5,5.39c3.05-2.09-0.42-5.72-1.35-7.89c2.39-0.3,5.07-2.16,7.51-1.16c-0.28,2.79-1.81,6.73,1.15,6.74
	c2.57,0.01,4.13-4.97,7.31-4.62c-0.33,4.48-0.28,9.13,5.01,8.66c2.57-0.23,5.62-1.9,8.47-3.08c3.03-1.25,6.53-2.16,7.31-4.23
	c-5.57,1.62-9.58,4.79-16.36,5.2c-3.59-1.81,1.03-9.69-4.04-9.62c-2.52,0.03-3.5,2.9-5.78,3.66
	C222.86,12.25,211.77,17.12,207.34,18.2z M138.63,20.5c-1.18,1.57-3.04,2.48-4.81,3.46C135.19,22.58,136.29,20.92,138.63,20.5z
	 M166.92,21.27c0.03-0.23,0.35-0.16,0.58-0.19c0.27,1.82,0.32,4.54-0.96,5.39C164.68,25.06,166.98,22.5,166.92,21.27z M209.46,21.27
	c1.02,0.84,2.05,1.67,1.92,3.66C209.5,24.95,210.06,22.53,209.46,21.27z M38.16,21.85c1.02,0,1.24-0.82,2.5-0.58
	c0.33,4.05-2.35,5.1-2.69,8.47c0.41,0.62,1.09,0.96,2.12,0.96c2.55-4.31,5.36-8.37,11.55-9.05c0.89,0.13,0.88,1.17,2.12,0.96
	c0.95-0.32,1.2-1.98,0.77-3.08c-4.76-2.81-8.96,2.17-11.93,4.23c0.15-1.74,1.45-4.88-0.38-5.77C40.11,18.55,39.14,20.21,38.16,21.85
	z M57.98,21.08c-3.23,1.88-7.59,3.77-5.39,7.31c3.49,0.96,4.81-1.84,7.51-2.31c1.21,0.91,0.85,2.55,2.31,2.89
	c1.55,0.36,3.57-1.36,5-2.31c2.95-1.95,6.02-3.93,9.62-4.62c0.37,2.27-1.82,3.68-0.58,5.58c3.57-0.25,4.45-4.76,8.66-5
	c0.45,1.65-0.32,3.61,0.58,5c2.15,2.1,8.39,1.69,8.85-1.73c-1.7-0.96-4.47,1.7-6.35,0c-0.96-1.8,0.5-6.01-1.54-6.74
	c-2.89,0.19-4.28,2.9-6.16,3.47c-0.05-1.27,0.58-1.86,0.38-3.27c-0.34-0.17-0.6-0.43-0.77-0.77c-3.21,0.3-5.71,2-8.28,3.27
	c-1.26,0.63-2.64,1.22-3.85,1.92c-1.06,0.62-2.24,2.14-3.66,1.35c0.51-2.63,3.27-3.02,2.69-6.74
	C63.56,17.58,60.74,19.48,57.98,21.08z M63.37,20.31c-1.43,2.61-4.05,4.03-7.31,4.81C57.38,22.4,60.55,21.53,63.37,20.31z"/>
</svg>
