<!-- Generator: Adobe Illustrator 18.1.1, SVG Export Plug-In  -->
<svg version="1.1"
	 xmlns="http://www.w3.org/2000/svg" xmlns:xlink="http://www.w3.org/1999/xlink" xmlns:a="http://ns.adobe.com/AdobeSVGViewerExtensions/3.0/"
	 x="0px" y="0px" width="121.54px" height="43.5px" viewBox="0 0 121.54 43.5" enable-background="new 0 0 121.54 43.5"
	 xml:space="preserve">
<defs>
</defs>
<g>
	<g>
		<path fill="#8A9999" d="M72.15,38.07c-2.52-0.32-4.7-1.32-6.39-3.42c-0.13,1.95-0.95,3.54-1.75,5.15
			c-0.32-0.11-0.33-0.34-0.3-0.59c0.26-1.86,0.52-3.72,0.79-5.58c0.04-0.26,0.01-0.47-0.13-0.7c-1.11-1.84-2.17-3.7-2.84-5.75
			c-0.29-0.89-0.43-1.82-0.64-2.74c-0.14-0.59-0.32-1.18-0.44-1.78c-0.13-0.65-0.21-1.32-0.31-1.98c-0.3-0.12-0.25,0.14-0.27,0.28
			c-0.17,1.2-0.32,2.41-0.49,3.61c-0.36,2.42-0.72,4.84-1.4,7.21c-0.05,0.16-0.11,0.31-0.15,0.47c-0.21,0.9-0.88,1.47-1.54,2
			c-0.78,0.64-2.16,0.39-2.83-0.43c-0.62-0.76-0.98-1.65-1.3-2.56c-0.63-1.84-1.01-3.73-1.34-5.64c-0.55-3.21-0.9-6.44-1.16-9.68
			c-0.22-2.66-0.77-5.25-1.41-7.84c-0.04-0.18-0.1-0.37-0.21-0.51c-0.11-0.16-0.12-0.3,0.04-0.39c0.12-0.07,0.35-0.14,0.42-0.08
			c0.24,0.21,0.52,0.44,0.64,0.72c0.33,0.75,0.63,1.51,0.85,2.3c0.64,2.3,0.99,4.67,1.29,7.03c0.35,2.72,0.61,5.46,0.98,8.18
			c0.28,2.1,0.64,4.2,1.44,6.18c0.17,0.42,0.39,0.84,0.66,1.2c0.53,0.71,1.19,0.69,1.62-0.09c0.32-0.59,0.57-1.23,0.75-1.88
			c0.73-2.52,1.09-5.11,1.45-7.7c0.12-0.87,0.15-1.75,0.36-2.6c0.16-0.65,0.5-1.27,0.83-1.87c0.33-0.61,1.35-0.49,1.61,0.09
			c0.22,0.51,0.41,1.03,0.53,1.57c0.12,0.52,0.09,1.07,0.21,1.59c0.34,1.52,0.69,3.05,1.1,4.55c0.36,1.32,0.87,2.59,1.57,3.77
			c0.17,0.28,0.35,0.55,0.59,0.91c0.11-0.63,0.21-1.16,0.29-1.7c0.86-5.18,1.73-10.35,2.57-15.53c0.41-2.51,0.8-5.03,1.11-7.56
			c0.2-1.6,0.22-3.23,0.32-4.84c0.02-0.32,0.04-0.63,0.06-0.95c0.01-0.2-0.02-0.43,0.26-0.45c0.28-0.02,0.63-0.13,0.77,0.24
			c0.12,0.31,0.26,0.65,0.25,0.97c-0.05,1.65-0.07,3.3-0.22,4.95c-0.37,4.04-1.16,8.03-1.84,12.02c-0.83,4.85-1.57,9.71-2.34,14.57
			c-0.02,0.11,0.01,0.27,0.08,0.35c1.61,1.78,3.33,3.45,5.46,4.62c0.14,0.08,0.28,0.15,0.42,0.23
			C72.17,38.02,72.16,38.05,72.15,38.07z"/>
		<path fill="#8A9999" d="M0.86,40.65c-0.36-0.63-0.56-1.32-0.7-2.03c-0.25-1.32-0.16-2.64-0.11-3.96c0.1-2.59,0.22-5.18,0.35-7.77
			c0.13-2.53,0.28-5.07,0.43-7.6c0.13-2.34,0.33-4.67,0.38-7.01c0.03-1.08-0.21-2.17-0.33-3.26C0.87,8.83,0.86,8.64,0.81,8.46
			c-0.11-0.34,0.1-0.5,0.34-0.6C1.4,7.75,1.64,7.87,1.74,8.09c0.25,0.54,0.5,1.09,0.65,1.67c0.19,0.76,0.33,1.54,0.4,2.33
			c0.1,1.04,0.51,1.98,0.84,2.95C4.3,17,4.95,18.97,5.7,20.91c0.37,0.96,1.12,1.67,2.13,2.01c0.58,0.2,1.1,0.02,1.48-0.43
			c0.41-0.48,0.8-0.99,1.11-1.54c1.04-1.82,1.72-3.8,2.4-5.78c0.8-2.35,1.61-4.69,2.74-6.91c0.24-0.49,0.56-0.94,0.87-1.39
			c0.23-0.33,0.55-0.49,0.97-0.38c0.41,0.1,0.56,0.42,0.67,0.78c0.19,0.62,0.06,1.24,0,1.86c-0.27,2.62-0.54,5.24-0.81,7.86
			c-0.3,2.89-0.57,5.79-0.91,8.68c-0.23,1.95-0.22,3.91-0.17,5.86c0.03,1.55,0.06,3.11,0.2,4.65c0.21,2.27,0.68,4.48,1.84,6.48
			c0.09,0.16,0.2,0.31,0.29,0.47c0.12,0.21,0.05,0.34-0.19,0.36c-0.46,0.04-0.83-0.17-1.14-0.49c-0.63-0.66-0.96-1.48-1.23-2.33
			c-0.56-1.81-0.99-3.65-1.05-5.56c-0.01-0.38-0.1-0.75-0.16-1.13c-0.01-0.1-0.03-0.19-0.03-0.29c0-1.1-0.02-2.21,0.02-3.31
			c0.09-2.24,0.16-4.48,0.35-6.72c0.27-3.1,0.64-6.2,0.99-9.3c0.18-1.63,0.42-3.25,0.63-4.88c0.02-0.13,0.02-0.27,0.03-0.4
			c-0.03-0.01-0.06-0.02-0.1-0.02c-0.04,0.1-0.09,0.2-0.13,0.3c-1.21,3.2-2.4,6.41-3.65,9.59c-0.47,1.19-1.03,2.35-1.62,3.47
			c-0.77,1.44-2.04,2.04-3.65,1.94c-0.54-0.03-0.98-0.31-1.36-0.66c-1.18-1.07-2.03-2.37-2.51-3.9c-0.34-1.06-0.68-2.12-1.03-3.18
			c-0.02-0.07-0.12-0.12-0.24-0.24c-0.08,1.23-0.17,2.35-0.24,3.47c-0.14,2.28-0.29,4.56-0.41,6.85c-0.12,2.29-0.23,4.59-0.32,6.88
			c-0.09,2.09-0.14,4.18-0.23,6.26c-0.01,0.28-0.16,0.54-0.25,0.82C0.96,40.67,0.91,40.66,0.86,40.65z"/>
		<path fill="#8A9999" d="M98.85,22.46c-0.01-0.59,0.04-1.11,0.43-1.53c0.23-0.24,0.59-0.35,0.82-0.24
			c0.24,0.12,0.48,0.66,0.41,0.93c-0.22,0.8-0.17,1.62-0.02,2.41c0.21,1.09,1,1.72,2.21,1.87c0.19,0.02,0.39,0.03,0.6,0.05
			c0.12-1.71,0.54-3.32,1.06-4.91c0.15-0.46,0.54-0.67,0.86-0.96c0.18-0.16,0.54,0.05,0.56,0.3c0.01,0.15-0.02,0.3-0.05,0.45
			c-0.32,1.55-0.64,3.1-0.96,4.65c-0.02,0.11-0.02,0.23-0.03,0.47c0.78-0.24,1.5-0.46,2.3-0.71c-0.15,0.12-0.23,0.21-0.33,0.28
			c-0.53,0.34-1.06,0.7-1.6,1.02c-0.43,0.25-0.45,0.82,0.04,1.15c0.6-0.72,1.26-1.42,1.79-2.19c0.75-1.09,1.41-2.24,2.09-3.37
			c0.28-0.47,0.72-0.53,1.09-0.15c0.24,0.24,0.31,0.48,0.27,0.82c-0.1,0.74-0.14,1.48-0.21,2.22c-0.07,0.78,0.68,1.58,1.45,1.54
			c0.57-0.03,1.13-0.06,1.75-0.09c-0.25-0.46-0.48-0.83-0.67-1.23c-0.45-0.94-0.36-2.47,0.59-3.11c0.08-0.05,0.12-0.23,0.11-0.34
			c-0.12-1.33-0.22-2.66-0.38-3.98c-0.3-2.45-0.63-4.9-0.95-7.36c-0.08-0.62-0.19-1.23-0.26-1.85c-0.01-0.12,0.03-0.34,0.1-0.36
			c0.12-0.04,0.33-0.02,0.41,0.06c0.19,0.2,0.39,0.44,0.47,0.69c0.33,1.13,0.71,2.26,0.88,3.42c0.4,2.71,0.7,5.45,1.03,8.17
			c0.01,0.05,0.02,0.1,0.1,0.17c0.06-0.11,0.12-0.21,0.17-0.32c0.62-1.21,1.77-1.87,3.03-1.56c1.72,0.42,3.16,1.53,3.44,3.56
			c0.19,1.37-0.1,2.68-0.71,3.91c-0.51,1.02-1.34,1.65-2.5,1.71c-0.78,0.04-1.57,0.04-2.35-0.02c-0.59-0.05-1.13-0.34-1.59-0.72
			c-0.19-0.16-0.34-0.17-0.56-0.08c-0.34,0.15-0.7,0.26-1.03,0.42c-0.57,0.27-1.18,0.27-1.77,0.23c-0.88-0.07-1.42-0.62-1.76-1.39
			c-0.14-0.33-0.24-0.68-0.38-1.06c-0.08,0.11-0.14,0.2-0.21,0.29c-0.72,0.87-1.43,1.77-2.18,2.62c-0.43,0.49-1.01,0.77-1.69,0.72
			c-0.17-0.01-0.37-0.07-0.51-0.17c-0.45-0.33-0.7-0.8-0.83-1.34c-0.03-0.12-0.05-0.23-0.09-0.4c-1.75,0.37-3.1-0.16-3.87-1.85
			c-0.38,0.51-0.71,0.99-1.09,1.44c-0.53,0.63-1.12,1.21-1.96,1.43c-0.53,0.14-1.08,0.18-1.62,0.01c-0.6-0.19-0.96-0.56-1.03-1.22
			c-0.14-1.39,0.22-2.62,1.12-3.69c0.44-0.52,1.05-0.74,1.69-0.94C97.34,22.1,98.07,22.29,98.85,22.46z M115.73,26.57
			c0.53,0.08,1.01,0.18,1.5,0.2c0.74,0.03,1.45-0.13,1.98-0.7c0.77-0.82,1.05-1.87,0.96-2.91c-0.08-0.92-0.53-1.81-1.25-2.47
			c-0.87-0.8-2.17-0.6-2.75,0.43c-0.15,0.27-0.27,0.58-0.35,0.88c-0.29,1.02-0.31,2.07-0.3,3.12c0,0.32,0.03,0.64,0.05,0.98
			c0.21-0.01,0.38-0.02,0.55-0.03C116.25,26.43,115.87,26.35,115.73,26.57z M98.5,23.45c-0.24,0.01-0.43,0.01-0.61,0.03
			c-1.53,0.2-2.69,1.01-2.79,2.66c-0.04,0.59,0.29,0.9,0.85,0.71c0.34-0.12,0.68-0.31,0.95-0.56C97.71,25.52,98.1,24.51,98.5,23.45z
			 M113.65,24.53c0.03-0.01,0.06-0.01,0.08-0.02c-0.08-0.68-0.16-1.36-0.25-2.08C112.94,23.03,113.18,23.67,113.65,24.53z"/>
		<path fill="#8A9999" d="M86.09,23.1c-0.15,0.7-0.28,1.41-0.45,2.1c-0.43,1.8-0.86,3.59-1.31,5.38c-0.07,0.26-0.2,0.54-0.39,0.72
			c-0.34,0.33-0.74,0.28-1.06-0.08c-0.41-0.46-0.49-1.02-0.48-1.6c0.06-2.72,0.12-5.45,0.22-8.17c0.03-0.93,0.19-1.85,0.29-2.77
			c0.03-0.27,0.13-0.46,0.47-0.46c0.33,0,0.51,0.18,0.55,0.45c0.06,0.45,0.09,0.91,0.08,1.37c-0.05,1.96-0.12,3.91-0.18,5.87
			c0,0.1,0.01,0.19,0.09,0.31c0.03-0.12,0.07-0.24,0.1-0.37c0.31-1.25,0.6-2.51,0.93-3.75c0.09-0.35,0.27-0.7,0.45-1.01
			c0.33-0.57,1-0.65,1.41-0.13c0.28,0.35,0.51,0.78,0.62,1.21c0.21,0.86,0.4,1.73,0.45,2.61c0.08,1.3,0.47,2.51,0.88,3.72
			c0.19,0.57,0.45,1.11,0.7,1.66c0.1,0.22,0.24,0.42,0.38,0.61c0.59,0.78,1.17,0.78,1.82,0.02c-0.92-0.79-1.22-1.88-1.49-2.99
			c-0.3-1.24-0.25-2.5-0.27-3.76c-0.05-3.03,0.13-6.06,0.43-9.07c0.23-2.3,0.51-4.58,0.78-6.88c0.02-0.18,0.02-0.39,0.27-0.42
			c0.25-0.03,0.48-0.03,0.61,0.25c0.17,0.38,0.29,0.75,0.26,1.19c-0.29,3.43-0.59,6.87-0.8,10.3c-0.13,2.13-0.15,4.26-0.12,6.39
			c0.02,1.22,0.34,2.42,0.87,3.54c0.26,0.56,0.6,1.05,1.31,1.11c0.06,0,0.13,0.1,0.16,0.17c0.01,0.02-0.08,0.12-0.13,0.14
			c-0.48,0.13-0.94,0.39-1.47,0.22c-0.05-0.02-0.16,0.07-0.22,0.13c-0.23,0.24-0.44,0.52-0.69,0.74c-0.57,0.5-1.7,0.54-2.33-0.14
			c-0.48-0.52-0.8-1.12-1.06-1.76c-0.66-1.64-1.01-3.37-1.31-5.11c-0.08-0.48-0.15-0.97-0.23-1.46c-0.02-0.1-0.04-0.2-0.06-0.3
			C86.16,23.1,86.13,23.1,86.09,23.1z"/>
		<path fill="#8A9999" d="M31.51,27.95c0.05-0.11,0.09-0.23,0.16-0.32c1.89-2.41,3.77-4.83,5.68-7.23c0.29-0.36,0.73-0.6,1.12-0.87
			c0.09-0.06,0.34-0.04,0.39,0.03c0.12,0.17,0.33,0.35,0.14,0.63c-0.89,1.27-1.73,2.58-2.65,3.83c-1.05,1.42-2.16,2.78-3.25,4.16
			c-0.68,0.86-0.72,0.91-0.08,1.79c0.59,0.81,1.26,1.56,1.89,2.35c0.1,0.12,0.2,0.34,0.15,0.44c-0.06,0.13-0.26,0.25-0.42,0.28
			c-0.56,0.12-1.02-0.09-1.43-0.47c-0.63-0.6-1.06-1.33-1.48-2.07c-0.03-0.06-0.07-0.11-0.11-0.19c-0.45,0.55-0.86,1.12-1.33,1.62
			c-0.51,0.55-1.07,1.06-1.62,1.57c-0.18,0.17-0.4,0.18-0.64,0.06c-0.26-0.13-0.34-0.31-0.2-0.56c0.25-0.42,0.51-0.84,0.78-1.25
			c0.21-0.32,0.45-0.61,0.72-0.98c-0.29,0.08-0.51,0.18-0.74,0.21c-0.58,0.08-1.17,0.19-1.76,0.18c-0.97-0.01-1.69-0.53-2.22-1.32
			c-0.13-0.19-0.24-0.39-0.38-0.62c-0.19,0.27-0.36,0.53-0.55,0.78c-0.47,0.65-0.99,1.26-1.66,1.71c-0.77,0.52-1.61,0.61-2.48,0.36
			c-0.64-0.18-0.92-0.62-0.99-1.28c-0.11-0.99,0.11-1.91,0.55-2.79c0.52-1.05,1.38-1.64,2.54-1.79c0.32-0.04,0.63-0.18,0.97-0.06
			c0.32,0.11,0.66,0.14,1.01,0.21c0.02-0.23,0-0.46,0.07-0.65c0.12-0.32,0.25-0.66,0.46-0.92c0.32-0.39,0.77-0.31,1.02,0.13
			c0.13,0.23,0.15,0.46,0.13,0.74c-0.06,0.76-0.11,1.53,0,2.28c0.15,1.07,0.91,1.63,1.93,1.83c0.9,0.18,1.81,0.12,2.71-0.02
			c0.48-0.07,0.72-0.61,0.42-0.98c-0.55-0.69-1.14-1.35-1.7-2.04c-0.1-0.12-0.24-0.35-0.19-0.43c0.11-0.19,0.3-0.38,0.51-0.45
			c0.36-0.12,0.72-0.03,0.99,0.26c0.41,0.45,0.8,0.92,1.19,1.39c0.09,0.11,0.15,0.24,0.22,0.36C31.42,27.9,31.47,27.93,31.51,27.95z
			 M23.33,27.35c-0.4,0.06-0.74,0.09-1.07,0.15c-1.39,0.27-2.21,1.17-2.34,2.56c-0.06,0.61,0.28,0.92,0.86,0.72
			c0.35-0.12,0.7-0.33,0.96-0.58C22.53,29.44,22.92,28.44,23.33,27.35z"/>
		<path fill="#8A9999" d="M70.09,27.9c-0.01,0.48,0.2,0.79,0.69,0.81c0.71,0.03,1.42,0.01,2.12-0.1c1.97-0.29,3.88-0.89,5.79-1.44
			c0.22-0.06,0.21-0.19,0.22-0.36c0.03-1.74,0.04-3.48,0.38-5.2c0.05-0.25,0.14-0.51,0.26-0.74c0.13-0.25,0.31-0.25,0.54-0.08
			c0.34,0.24,0.45,0.53,0.42,0.97c-0.1,1.67-0.19,3.34-0.21,5.02c-0.01,0.67,0.16,1.34,0.25,2.02c0.05,0.36,0.1,0.71,0.15,1.05
			c-0.32,0.26-0.6,0.17-0.88-0.02c-0.46-0.32-0.67-0.8-0.77-1.33c-0.06-0.31-0.09-0.63-0.13-0.99c-0.11,0.07-0.21,0.13-0.3,0.2
			c-1.64,1.12-3.4,1.99-5.37,2.34c-0.97,0.18-1.95,0.27-2.94,0.07c-1.09-0.22-1.51-0.74-1.6-1.84c-0.08-0.94,0.19-1.77,0.61-2.58
			c0.67-1.26,1.53-2.38,2.55-3.36c0.76-0.73,1.72-1.13,2.82-0.95c0.83,0.13,1.16,0.56,1.24,1.39c0.12,1.18-0.41,2.07-1.2,2.86
			c-0.84,0.84-1.83,1.46-2.88,1.98c-0.31,0.15-0.7,0.17-1.05,0.23C70.57,27.89,70.32,27.88,70.09,27.9z M70.66,26.49
			c0.07,0.01,0.09,0.02,0.11,0.01c1.69-0.49,2.87-1.61,3.78-3.07c0.07-0.12,0.04-0.35-0.02-0.48c-0.08-0.17-0.25-0.25-0.47-0.2
			c-0.53,0.11-0.99,0.35-1.39,0.7C71.74,24.28,71.18,25.35,70.66,26.49z"/>
		<path fill="#8A9999" d="M79.27,17.16c-0.09-0.55,0.11-1.03,0.5-1.44c0.34-0.35,0.74-0.43,1.18-0.2c1.23,0.64,1.39,2.14,0.32,2.93
			c-0.11,0.08-0.27,0.16-0.38,0.14c-0.4-0.07-0.82-0.13-1.18-0.31C79.3,18.07,79.28,17.61,79.27,17.16z"/>
	</g>
</g>
</svg>
