<!-- Generator: Adobe Illustrator 19.1.0, SVG Export Plug-In  -->
<svg version="1.1"
	 xmlns="http://www.w3.org/2000/svg" xmlns:xlink="http://www.w3.org/1999/xlink" xmlns:a="http://ns.adobe.com/AdobeSVGViewerExtensions/3.0/"
	 x="0px" y="0px" width="28px" height="28px" viewBox="0 0 28 28" enable-background="new 0 0 28 28" xml:space="preserve">
<defs>
</defs>
<g id="XMLID_1_">
	<g>
		<path fill="#FFFFFF" d="M14,0C6.3,0,0,6.3,0,14s6.3,14,14,14s14-6.3,14-14C28,6.3,21.7,0,14,0z M7.9,20.1c-0.3,0-0.6-0.3-0.6-0.6
			v-11c0-0.3,0.3-0.6,0.6-0.6h12.6c0.3,0,0.6,0.3,0.6,0.6v6.1h-0.9h-0.5V9.3h-11v7.4h0.6l2.5-4l1.7,2.7l0.8,1.3h0.7l-1.2-1.9
			l0.8-1.2l2,3.1h0.8v0.7v1.3v0.8h0.8h1v0.7L7.9,20.1L7.9,20.1z M18.7,11.7c0,0.7-0.5,1.2-1.2,1.2s-1.2-0.5-1.2-1.2s0.5-1.2,1.2-1.2
			S18.7,11.1,18.7,11.7z M21.5,18.6v1.9h-1.3v-0.3v-1.5h-1.9v-1.3h1.9v-1.9h0.9h0.4v1.9h1.9v1.3H21.5z"/>
	</g>
</g>
</svg>
