<!-- Generator: Adobe Illustrator 19.1.0, SVG Export Plug-In  -->
<svg version="1.1"
	 xmlns="http://www.w3.org/2000/svg" xmlns:xlink="http://www.w3.org/1999/xlink" xmlns:a="http://ns.adobe.com/AdobeSVGViewerExtensions/3.0/"
	 x="0px" y="0px" width="12.2px" height="6.8px" viewBox="0 0 12.2 6.8" enable-background="new 0 0 12.2 6.8" xml:space="preserve"
	>
<defs>
	<symbol  id="facebook" viewBox="-5.8 -12 11.7 24">
		<path id="facebook_2_" fill="#FFFFFF" d="M-2.9-12v11.3h-3v4.1h3c0,0,0,1.7,0,3.5C-2.9,9.5-1.1,12,3,12c1.6,0,2.9-0.2,2.9-0.2
			L5.7,8.1c0,0-1.2,0-2.6,0c-1.5,0-1.7-0.7-1.7-1.8c0-0.9,0,1.9,0-3h4.4L5.6-0.7H1.4V-12H-2.9z"/>
	</symbol>
	<symbol  id="twitter" viewBox="-12 -9.8 24 19.5">
		<path id="twitter_2_" fill="#FFFFFF" d="M12,7.4c-0.9-0.4-1.8-0.7-2.8-0.8c1,0.6,1.8,1.6,2.2,2.7c-1-0.6-2-1-3.1-1.2
			C7.3,9.2,6,9.8,4.6,9.8c-2.7,0-4.9-2.2-4.9-4.9c0-0.4,0-0.8,0.1-1.1c-4.1,0.2-7.7,2.2-10.1,5.1C-10.8,8.1-11,7.3-11,6.4
			c0-1.7,0.9-3.2,2.2-4.1c-0.8,0-1.6,0.2-2.2,0.6c0,0,0,0,0-0.1c0-2.4,1.7-4.4,3.9-4.8c-0.4-0.1-0.8-0.2-1.3-0.2
			c-0.3,0-0.6,0-0.9,0.1c0.6-2,2.4-3.4,4.6-3.4c-1.7-1.3-3.8-2.1-6.1-2.1c-0.4,0-0.8,0-1.2,0.1c2.2-1.4,4.8-2.2,7.5-2.2
			c9.1,0,14,7.5,14,14c0,0.2,0,0.4,0,0.6C10.5,5.6,11.3,6.5,12,7.4z"/>
	</symbol>
	<symbol  id="youtube" viewBox="-11 -8.4 22 16.8">
		<path fill="#FFFFFF" d="M10.7,4.5L10.7,4.5c0,0.3-0.1,0.6-0.2,0.8h0c-0.3,1.5-2,2.6-4.1,2.8l-0.1,0c-4.2,0.4-8.5,0.4-12.7,0
			l-0.1,0c-2.1-0.2-3.7-1.3-4.1-2.8h0c-0.1-0.2-0.2-0.5-0.2-0.7l0-0.1c-0.4-3-0.4-6.1,0-9.1l0-0.1c0-0.4,0.2-0.7,0.3-1.1
			C-9.9-7-8.3-8-6.4-8.1l0.1,0c4.2-0.4,8.5-0.4,12.7,0l0.1,0c2,0.2,3.5,1.2,4,2.5c0.1,0.3,0.2,0.6,0.3,1l0,0.1
			C11.1-1.6,11.1,1.5,10.7,4.5z M-4.1-4.7v9.3L5.2,0L-4.1-4.7z"/>
	</symbol>
</defs>
<polygon fill="#FFFFFF" points="0,6.1 6.1,0 12.2,6.1 11.5,6.8 6.1,1.4 0.7,6.8 "/>
</svg>
