<!-- Generator: Adobe Illustrator 19.1.0, SVG Export Plug-In  -->
<svg version="1.1"
	 xmlns="http://www.w3.org/2000/svg" xmlns:xlink="http://www.w3.org/1999/xlink" xmlns:a="http://ns.adobe.com/AdobeSVGViewerExtensions/3.0/"
	 x="0px" y="0px" width="178px" height="100px" viewBox="0 0 178 100" style="enable-background:new 0 0 178 100;"
	 xml:space="preserve">
<style type="text/css">
	.st0{fill:#5F5343;}
	.st1{fill-rule:evenodd;clip-rule:evenodd;fill:#FFFFFF;}
	.st2{fill:#FFFFFF;}
</style>
<defs>
</defs>
<g id="logo_1_">
	<rect class="st0" width="178" height="100"/>
	<g>
		<g>
			<g>
				<path class="st1" d="M58.3,53.5l-0.1,0.2L58.1,53l0.3,0.2l-0.1,0.2C58.3,53.4,58.3,53.4,58.3,53.5z M68.5,48.8
					c0.2,0.2,0.2,0.2,0.2,0.3c0,0.1,0.1,0.2,0,0.5l-0.1,0.7l-0.1,0.4l0.1,0.6l0.1,0.5c0,0.2,0,0.3,0,0.3c0,0,0.1,0,0.1,0l0,0.5
					l-0.2,0.4c0,0.1,0,0.2,0.1,0.4l0,0.4c-0.1,0.2-0.1,0.3-0.1,0.4c0.1,0.1,0,0.3,0,0.4l-0.1,0.8l0.1,0.1c0.1,0.1,0.1,0.2,0.2,0.3
					l-0.1,0.6l0.1,0.6l-0.1,0.4v0.5l-0.1,0.5l0.1,0.4v0.9c-0.1,0.1-0.1,0.1-0.1,0.2l0,0.2c0.1,0.2,0.1,0.2,0.2,0.2l0,0.7l0.1,0.3
					l-0.2,0.6c0,0.1,0,0.2,0.1,0.3L68.8,63l-0.2,0.7l0.1,0.6l0,0.4l-0.2,0.1c-0.2,0-0.2,0.1-0.4,0.3l-0.3-0.7l0.1,0.4l0,0.2l0.1,0.2
					l-0.2,0.5c-0.1-0.1-0.2-0.2-0.2-0.2c0-0.1-0.1-0.1-0.1-0.1l-0.1-1.3l-0.1-0.6l-0.1-0.6l0.1-0.3l0-0.2v-0.7v-0.4
					c-0.1-0.1-0.1-0.2-0.1-0.4c0.1-0.1,0.2-0.3,0-0.6l0-0.5c-0.1,0-0.1-0.1-0.1-0.2c0-0.1,0-0.2,0.1-0.3l-0.3-0.5l0.1-0.4l0.2-0.6
					l0.1-0.5l-0.2-0.4l0-0.5c0.1-0.2,0.2-0.3,0.2-0.4l-0.1-0.3l0-1.3l-0.1-0.8v-0.4l0.3,0l-0.1-0.6c0-0.1,0-0.2-0.1-0.4l0.1-0.6
					l0.1-0.9l0-0.9l-0.2-0.5l0.2-0.4l-0.1-0.6l0.1-0.4l0.2-0.4l-0.3-0.1L67.3,47c-0.1-0.1-0.1-0.2-0.1-0.4c0.1-0.1,0.2-0.2,0.2-0.2
					c0,0,0.1,0,0.2,0l0-0.2c0-0.1,0-0.1,0-0.2c0-0.1-0.1-0.1-0.2-0.3l0.1-0.2c0-0.1,0.1-0.3,0.1-0.4l-0.3-1l0.2,0l-0.1-0.2
					c0-0.2,0-0.3,0-0.5l0.2-0.1l0.2,0l0.2-0.5l0.1,0.5c0.1,0,0.1,0,0.2,0l0.2,0.6L68.5,44l0.2,1.3l-0.2,0.9l0.2,0.3l-0.3,0.9
					c0,0.1,0.1,0.2,0.2,0.3c0.1,0,0.1,0.1,0.1,0.2c0,0.1,0,0.2,0,0.3l-0.1,0.1c0,0.1-0.1,0.2-0.2,0.3L68.5,48.8L68.5,48.8z
					 M60.7,41.9l0.4-0.2l0.2,0.3c0,0.2-0.1,0.2-0.2,0.2C61,42.1,60.9,42,60.7,41.9z M62.4,42.4c-0.1,0-0.1,0-0.2,0
					c-0.2-0.1-0.3-0.2-0.5-0.2c-0.1-0.3-0.1-0.4-0.1-0.5c0.1-0.1,0.1-0.1,0.2-0.2c0.1,0,0.2-0.1,0.3-0.1c0.2,0,0.4-0.1,0.4-0.1
					c0.2,0,0.3,0,0.4,0.1l0.4-0.2l0.5-0.1l0.5,0c0.2,0.1,0.3,0.1,0.4,0.2c0.1-0.1,0.2-0.1,0.4-0.2l0.3,0.3c0-0.1,0.1-0.1,0.1-0.2
					l0.3,0.2c0.2-0.1,0.3-0.1,0.5-0.1l0.5-0.1c0.1,0.1,0.2,0.1,0.2,0.2c0,0.1,0.1,0.2,0.1,0.2c0.2,0,0.3,0.2,0.3,0.5L67,42.3
					c-0.2,0-0.3,0-0.4,0.2l-0.5-0.2c-0.1,0-0.2,0.1-0.4,0.3l-0.2-0.1c-0.1-0.1-0.1-0.2-0.2-0.2c-0.1,0.1-0.3,0.1-0.4,0.1
					c0,0-0.1,0.1-0.1,0.1c-0.1,0-0.2,0-0.4,0.1l-0.6-0.2l-0.2,0.1c-0.1,0.1-0.1,0.1-0.2,0.2l-0.2,0c-0.1,0-0.2,0-0.3-0.1l-0.1-0.1
					C62.6,42.4,62.5,42.4,62.4,42.4z M68.8,39.2l-0.1,0.5c-0.1,0.1-0.1,0.1-0.2,0.2c0,0,0,0.1-0.1,0.2c0,0.1-0.1,0.1-0.1,0.2l0,0.3
					L68,40.1l-0.3-0.4c0-0.1-0.1-0.1,0-0.2c0-0.1,0.1-0.2,0.2-0.3c0-0.1,0-0.2-0.1-0.3l0.2-0.4l-0.1-0.3l0.7,0.1l0,0.6L68.8,39.2z
					 M64.5,34.5c0,0.1,0,0.1,0.1,0.2c0,0.2,0,0.3,0.1,0.4l0.1,1.5l0.1,0.9l0,0.2c0,0,0,0.1,0,0.3l-0.1,0.4c0,0.2,0,0.3-0.1,0.4
					c0,0.2-0.1,0.2-0.2,0.3c-0.1,0.1-0.3,0.1-0.5,0.2l-0.7,0L63,39.4c-0.1,0-0.2-0.1-0.2-0.1c-0.1-0.1-0.2-0.1-0.4-0.2
					c-0.1-0.1-0.3-0.2-0.5-0.5l-0.1-1.2l0.1-0.5l0-0.8l0.1-0.6l-0.1-0.2c0-0.1-0.1-0.2,0-0.4l0.1-0.8l0.1-0.1
					c0.2-0.1,0.2-0.1,0.3-0.2c0.1,0,0.1,0,0.2-0.1l0.1-0.1c0.1,0,0.2-0.1,0.2-0.1l0.7,0l0.4,0.4l0.4,0.1L64.5,34.5z M58,52.3
					l-0.1-0.8c0-0.1-0.1-0.2-0.1-0.3l0.1-0.2c0-0.1,0-0.1,0-0.4V50l-0.2-0.7c0-0.1,0-0.2,0-0.2c0-0.1,0.1-0.2,0.2-0.4l-0.1-0.2
					c-0.1-0.1-0.1-0.2-0.1-0.3l0-0.2c0-0.1,0-0.1-0.1-0.3l0.1-0.4l0-0.3c-0.1-0.1-0.2-0.2-0.4-0.3c0-0.1,0-0.1,0-0.2
					c0.1-0.2,0.1-0.3,0-0.4l0.5-0.5c0-0.1-0.1-0.1-0.2-0.1l0.1-0.5l-0.2-0.3l0.2-0.7l0.1-0.3c0-0.1-0.1-0.2-0.2-0.3l0-1l0.1-0.1
					L57.7,42l0-0.6c-0.1-0.1-0.1-0.2-0.1-0.2c0-0.1,0-0.2,0.1-0.3c0.2,0,0.3,0,0.3,0.1l-0.1-0.1L58,40c-0.1-0.2-0.1-0.3-0.2-0.3
					l0.3-0.1l0-0.1c-0.1-0.1-0.1-0.2-0.2-0.3l0-0.6c0.1-0.1,0.1-0.1,0.1-0.3l0-1l-0.2-0.6l0.2-0.4l0-0.6l0-0.4
					c0.1-0.2,0.1-0.2,0.2-0.4c0.1-0.1,0.2-0.1,0.2-0.2l-0.3-0.1L57.9,34l-0.1-0.4c0.1-0.2,0.1-0.2,0.2-0.2l0.2-0.1L58,32.9l0.1-0.5
					c0-0.1,0-0.1,0-0.2c0,0,0-0.1,0.1-0.2L57.9,31l0.3,0l-0.2-0.3c-0.1-0.1,0-0.3,0.2-0.5c0.2-0.1,0.2,0,0.3,0.1l0.1,0.1l0.5-0.2
					l0.2,0.2l0.1,0.3l-0.4,0.1c0.1,0.1,0.1,0.1,0.2,0.2l0.1,1.3L59,33.2c0.1,0.2,0.1,0.3,0.2,0.5l0,0.4c0,0.1,0,0.2,0,0.2
					c0,0.1,0,0.1,0,0.2c0,0.1,0,0.2,0,0.3c0.1,0.1,0.1,0.3,0,0.5c0,0.1,0,0.3-0.2,0.4l0,0.3c0.1,0,0.1,0,0.1,0.1
					c0.1,0.1,0.2,0.2,0.2,0.3c0.1,0.2,0.1,0.3,0,0.4l-0.1,0.3c0,0.1,0,0.2,0.1,0.3l0,0.2l0,0.3c0,0.1,0,0.2,0,0.2
					c0.1,0.1,0.2,0.2,0,0.5l0.1,0.6l0.1,0.6l-0.1,0.4l0,0.2c0,0,0,0.1,0,0.2c0,0.1,0,0.1,0,0.2c0,0.1,0,0.1,0.1,0.2
					c0,0.1,0,0.1,0,0.2c0,0.1-0.1,0.2-0.2,0.3l0.1,0.6L59.2,43c0.2,0.3,0.2,0.3,0.2,0.4c0.1,0.2,0.1,0.3,0.1,0.4l-0.3,0
					c0,0.1,0.1,0.2,0.2,0.2l0.1,0.7l-0.1,0.4l0.1,0.3l-0.1,0.2l0,0.2c0,0.1,0,0.1-0.1,0.3l0.1,0.6l-0.1,1c0,0.1,0,0.2,0,0.4
					c0.1,0.1,0.1,0.1,0.1,0.1c0.1,0.1,0.2,0.2,0.2,0.3l0,0.2c0,0.1-0.1,0.2-0.1,0.3l0,0.3c0.1,0.2,0.1,0.3,0.1,0.4l-0.1,0.1
					c-0.1,0.1-0.1,0.1-0.1,0.3c0.1,0.2,0.1,0.3,0.2,0.4l-0.2,0.6c0.1,0.2,0.1,0.3,0.1,0.4c-0.1,0.1-0.1,0.2-0.1,0.2l0,0.2
					c0,0.1-0.1,0.1-0.1,0.2l0,0.4c0.1,0.2,0.1,0.3,0.1,0.4c-0.3,0.1-0.4,0.2-0.5,0.3l-0.3-0.7c-0.1,0-0.2,0.1-0.3,0.1L58,52.3z
					 M58.4,29.9c0-0.1,0-0.2,0.1-0.3c0.2-0.1,0.3,0,0.3,0.1c0,0.1,0,0.2-0.1,0.4L58.4,29.9z M61.3,29.2l-0.1,0.2l-0.6,0.1L60.5,29
					l0.3-0.1l0.1-0.1l0.4,0.1c0.1-0.1,0.3-0.1,0.5,0c0,0,0.1-0.1,0.1-0.1l0.1,0c0.1,0,0.1-0.1,0.1-0.1l0.3,0.3l0.1-0.2l0.2,0
					c0,0,0.1,0,0.3-0.1l0.5-0.1l0.2,0c0.1,0,0.2,0,0.4,0l0.2,0c0.1-0.1,0.1-0.1,0.2-0.1l0.2,0l0.2,0c0.1,0,0.2,0,0.3,0.1
					c0.1-0.1,0.3-0.1,0.5,0c0,0.1,0,0.2,0,0.2L65.6,29l0.4,0c-0.2,0.3-0.3,0.4-0.7,0.5l-0.4,0c-0.1-0.1-0.2-0.1-0.4,0l-0.4,0.1
					l-0.1-0.1l-0.2-0.1l0,0.2c-0.2,0.1-0.3,0.1-0.4,0.1c-0.1,0-0.2,0-0.4-0.1l-0.4,0l-0.1-0.2c0,0-0.1,0.1-0.1,0.2L62,29.6
					c0,0-0.1-0.1-0.1-0.2c-0.1,0-0.2,0-0.4,0.1l-0.2-0.2L61.3,29.2z M68.1,37.9L68,37.6l-0.1-0.3l0.1-0.4c-0.1,0-0.2,0-0.3,0
					l0.2-0.2c-0.1,0-0.2-0.1-0.2-0.1l-0.1-0.5c0.1-0.1,0.1-0.2,0.1-0.4l0.1-0.1c0,0,0-0.1,0-0.1l-0.1-0.2l-0.1-0.5l0-1l-0.2-0.5
					l0.2-0.6c0-0.1-0.1-0.1-0.3-0.3c0.1-0.2,0.1-0.2,0.2-0.2c0.1,0,0.1,0,0.2,0c-0.1-0.2-0.1-0.2-0.1-0.3l0.2-0.7
					c-0.1-0.2-0.2-0.3-0.3-0.5l0-0.6c0.1-0.1,0.1-0.1,0.1-0.2l0-0.2l0-0.1c0,0,0-0.1,0-0.1c0-0.2-0.1-0.2-0.2-0.3
					c0.1-0.2,0.1-0.3,0.1-0.5c0.1-0.1,0-0.2-0.1-0.3l0.5,0l0.1-0.1c0.1-0.1,0.2-0.2,0.4-0.2l0,0.4l-0.2,0.4l-0.2,0
					c0.1,0.1,0.1,0.2,0.2,0.3c0,0.1,0,0.1,0,0.1c0,0,0.1,0.1,0.2,0.2l0,0.3l-0.1,0.1c0.1,0.1,0.2,0.3,0.2,0.6l0,0.8l0.1,0.4l0.2,0.6
					l0.1,0.7l-0.2,0.5l0,0.6l0,0.2c0,0.1,0,0.1,0,0.3l-0.1,0.1c0.1,0.2,0.1,0.4,0.1,0.6l0.1,0.2l-0.1,0.5l-0.3,0.1
					c0.1,0.1,0.1,0.1,0.2,0.2l0.2,1.1l-0.1,0.6l0,0.4c-0.1,0.1-0.2,0.1-0.2,0.1c-0.1-0.1-0.2-0.1-0.4-0.1
					C68.1,37.9,68.2,37.9,68.1,37.9z M67.7,37.8c0.1,0,0.1-0.1,0.3-0.1l0.1,0.4C68,38,68,38,67.9,38.1c-0.1,0-0.2,0-0.3,0L67.7,37.8
					L67.7,37.8z M61.7,27.1l0.5-0.1l-0.1,0.5l-0.3-0.1C61.8,27.4,61.7,27.3,61.7,27.1z M63.1,27.2c0.1-0.1,0.1-0.2,0.2-0.4l0.3,0.4
					l-0.5,0.2l-0.2,0.1c-0.1,0-0.2,0.1-0.3,0.2l-0.3-0.5l0.1-0.1c0.1,0,0.2-0.1,0.3-0.3c0.1,0,0.1,0,0.1,0L63.1,27.2z M63.8,27.1
					l0.2,0.1L63.8,27.1L63.6,27l0.6,0.1c0.2-0.1,0.3-0.2,0.4-0.3l0.5,0.3c0.2-0.1,0.3-0.2,0.5-0.3l0.1,0.3l0,0.1
					c0.2-0.1,0.3-0.1,0.5-0.1c0.2-0.1,0.3-0.1,0.4-0.3l0.6,0.2L67,27.6l-0.6-0.1c-0.2,0-0.2,0-0.4,0l-0.2,0.3l-0.3-0.2
					c-0.1-0.1-0.1-0.2-0.1-0.2v0.3c-0.1,0-0.2,0-0.3,0L65,27.6l0,0.2c-0.2,0-0.3,0-0.4-0.1l-0.1-0.1c-0.1,0.1-0.3,0-0.6-0.2l0-0.1
					c0,0.2-0.1,0.3-0.2,0.4c-0.2,0-0.2-0.1-0.2-0.2C63.5,27.4,63.6,27.3,63.8,27.1z M63.4,16H63l-0.5,0.1c-0.1,0.1-0.3,0.2-0.3,0.4
					L62,18.2l-0.4,0.2L61,18.7v0.6l0.4,0.2l0.6,0.2l-0.1,0.8l-0.1,0.4l0.1,0.6l0.2,0.4l-0.6,0.3L61,22.3c-0.3,0.3-0.6,0.2-0.5,0.4
					c-0.1,0-0.2,0.1-0.4,0.1l-0.6,0.5c-0.3,0.2-0.1,0.5-0.4,0.6v0.3c0.3,0.3,0.4,0.3,0.3,0.4H60c0.4,0,0.5,0,0.6,0
					c0.3-0.2,0.5-0.3,0.5-0.4c0.2-0.2,0.4-0.5,0.6-0.5c0.3-0.1,0.4-0.3,0.5-0.3l0.9-0.2l0.5,0c0.3,0,0.3,0.2,0.4,0.3
					c0.2,0,0.2,0.1,0.4,0.1c0.3,0.3,0.3,0.3,0.5,0.3c0.3,0.2,0.4,0.2,0.4,0.2c0.3,0.3,0.4,0.4,0.4,0.6c0.4,0.3,0.4,0.3,0.4,0.3
					c0.4,0.3,0.4,0.3,0.4,0.4l0.5,0.2l0.7,0l0.1-0.5l0.1-0.7l-0.4-0.2l-0.2-0.5l-0.5-0.1c-0.2-0.3-0.2-0.3-0.2-0.4l-0.4-0.1
					c-0.5-0.3-0.6-0.7-0.9-0.6c-0.3-0.2-0.3-0.3-0.4-0.3c-0.2-0.1-0.4-0.1-0.5-0.1l-0.2-0.6L64,19.7l1-0.1c0.3-0.1,0.4-0.3,0.5-0.3
					c0-0.3,0.1-0.2,0.1-0.4c-0.1-0.4-0.3-0.4-0.4-0.4c-0.3-0.1-0.4-0.1-0.6-0.2l-0.4-0.1l-0.1-0.4l-0.1-0.7l-0.2-0.6
					c0.1-0.2-0.1-0.3-0.2-0.4L63.4,16z"/>
			</g>
		</g>
		<g>
			<path class="st2" d="M54.4,64H57l-1.4-3.6L54.4,64z M57.2,64.5h-3l-0.5,1.8c-0.1,0.3-0.1,0.6-0.1,0.8c0,0.4,0.6,0.5,0.9,0.5
				c0.1,0,0.1,0.1,0,0.4c-0.3,0-1.2-0.1-1.5-0.1c-0.3,0-0.9,0.1-1.2,0.1c-0.2,0-0.2,0-0.2-0.3c0-0.1,0.1-0.1,0.4-0.1
				c0.6-0.1,0.7-0.2,1-0.9l2.4-7.2c0.2-0.2,0.5-0.5,0.8-0.6l3.1,7.9c0.2,0.5,0.4,0.8,1.1,0.8c0.1,0,0.2,0.1-0.1,0.4
				c-0.2,0-1-0.1-1.5-0.1c-0.5,0-1,0-1.5,0.1c-0.2,0-0.2,0,0-0.4c0.2,0,0.8,0,0.8-0.3c0-0.1,0-0.3-0.2-0.7L57.2,64.5z M40.2,66.8
				v-6.1c0-0.2,0-0.3-0.1-0.4c-0.1-0.2-0.7-0.7-0.9-0.7l-0.7,0c0,0-0.1-0.1,0-0.4c0.4,0,0.7,0,1,0c0.6,0,1.5,0,1.7,0.1l3.7,4.6
				c0.6,0.7,1.1,1.3,2.1,2.2v-5.5c0-0.8-0.3-0.9-0.7-1l-0.5,0c0,0-0.1-0.1,0-0.4c0.3,0,0.9,0.1,1.5,0.1c0.6,0,1.1-0.1,1.6,0
				l-0.1,0.3h-0.3c-0.9,0-0.9,0.4-0.9,1.5v7.2h-0.3l-6.7-7.7v5.7c0,1.1,0.1,1.2,1.2,1.2c0,0,0.1,0.1,0,0.4c-0.2,0-1-0.1-1.5-0.1
				c-0.6,0-0.9,0.1-1.4,0.1c-0.1,0-0.1-0.1,0.1-0.4C39.6,67.6,40.2,67.5,40.2,66.8z M45.2,57.2h0.3c0,0.3-0.2,0.7-0.4,0.9
				c-0.2,0.2-0.5,0.4-0.9,0.4c-0.4,0-0.7-0.1-1-0.3C43,58.1,42.7,58,42.5,58c-0.4,0-0.6,0.2-0.7,0.5h-0.3c0.2-0.7,0.6-1.3,1.3-1.3
				c0.3,0,0.6,0.1,0.9,0.3c0.3,0.1,0.6,0.3,0.8,0.3C44.8,57.8,45.1,57.5,45.2,57.2z M33.9,60.3v5.4c0,1.8,0,1.8,1.3,2.2
				c0,0.1-0.2,0.1-0.3,0.1c-0.2,0-1-0.1-1.5-0.1c-0.6,0-1.2,0.1-1.9-0.2c0-0.2,0-0.2,0.4-0.2c0.9,0,0.9-0.2,0.9-1.1v-6
				c0-0.7-0.2-0.9-1.3-0.9l0.2-0.3c0.3,0,0.7,0.1,1.6,0.1c0.6,0,1.4-0.1,1.9,0l0,0.3l-0.3,0C34.3,59.6,33.9,59.7,33.9,60.3z
				 M23.3,68.1l-4-9.8c-0.2-0.4-0.8-0.5-1.3-0.6l0.2-0.4c0.6,0,1.5,0.1,1.9,0.1c0.7,0,1.4-0.1,2.1,0l0,0.4l-0.7,0.1
				c-0.2,0-0.5,0.1-0.5,0.3c0,0.1,0.1,0.3,0.1,0.5l1.7,4.5l1,2.3c0.1,0.2,0.1,0.3,0.3,0l2.1-5.7c0.2-0.7,0.4-1.2,0.4-1.4
				c0-0.3-0.1-0.4-0.5-0.4l-0.9-0.1v-0.5c0.6,0,1.2,0.1,1.8,0.1c0.5,0,1.5-0.1,1.7,0l-0.1,0.5l-0.5,0c-0.3,0-0.4,0.2-0.6,0.7
				C26,62,25.6,63.1,24.5,66l-0.8,2C23.6,68.2,23.6,68.2,23.3,68.1z"/>
			<path class="st2" d="M47.8,68.4h-0.3l0,0l-6.6-7.6v5.7c0,1,0.1,1.2,1.2,1.2l0,0c0,0,0,0,0,0c0.1,0.1,0,0.3,0,0.4l0,0h0
				c-0.1,0-0.3,0-0.5,0c-0.3,0-0.7,0-1,0c-0.3,0-0.5,0-0.7,0c-0.2,0-0.4,0-0.7,0c0,0-0.1,0-0.1,0c0,0,0-0.1,0.1-0.4l0,0h0
				c0.7,0,1.1-0.2,1.1-0.7v-6.1c0-0.2,0-0.3-0.1-0.4c-0.1-0.2-0.6-0.6-0.8-0.7l-0.7,0h0c0,0,0,0,0,0c0,0,0-0.2,0-0.4l0,0h0
				c0.2,0,0.4,0,0.5,0c0.2,0,0.3,0,0.4,0c0.6,0,1.5,0,1.7,0.1l0,0l0,0l3.7,4.6c0.6,0.7,1.1,1.4,2,2.2v-5.4c0-0.8-0.3-0.9-0.7-0.9
				l-0.5,0l0,0c0,0,0,0,0,0c0-0.1,0-0.2,0.1-0.4l0,0h0c0.1,0,0.3,0,0.5,0c0.3,0,0.7,0,1,0c0.2,0,0.3,0,0.5,0c0.1,0,0.3,0,0.5,0
				c0.3,0,0.5,0,0.7,0.1l0,0l-0.1,0.4h-0.3c-0.8,0-0.8,0.4-0.8,1.5V68.4z M47.5,68.3h0.3v-7.2c0-1,0-1.5,0.9-1.5h0.3l0.1-0.3
				c-0.2,0-0.4,0-0.6,0c-0.1,0-0.3,0-0.4,0c-0.2,0-0.3,0-0.5,0c-0.4,0-0.7,0-1,0c-0.2,0-0.3,0-0.5,0c-0.1,0.3-0.1,0.4-0.1,0.4l0.5,0
				c0.4,0,0.7,0.2,0.7,1v5.6l0,0c-0.9-0.9-1.5-1.5-2.1-2.2l-3.7-4.6c-0.2,0-1.1-0.1-1.7-0.1c-0.1,0-0.3,0-0.4,0c-0.2,0-0.3,0-0.5,0
				c-0.1,0.2,0,0.3,0,0.3l0.7,0c0.2,0,0.8,0.5,0.9,0.7c0.1,0.1,0.1,0.2,0.1,0.4v6.1c0,0.5-0.4,0.8-1.1,0.8C39,67.9,39,68,39,68
				c0,0,0,0,0,0c0.3,0,0.5,0,0.7,0c0.2,0,0.4,0,0.7,0c0.3,0,0.7,0,1,0c0.2,0,0.4,0,0.5,0c0-0.3,0-0.3,0-0.4c0,0,0,0,0,0
				c-1.1,0-1.2-0.2-1.2-1.3v-5.8l0,0.1L47.5,68.3z M23.6,68.2c-0.1,0-0.1,0-0.3-0.1l0,0l0,0l-4-9.8c-0.2-0.4-0.7-0.5-1.2-0.6l0,0
				l0.2-0.5h0c0.4,0,0.8,0,1.2,0c0.3,0,0.5,0,0.7,0c0.3,0,0.5,0,0.8,0c0.3,0,0.5,0,0.8,0c0.2,0,0.3,0,0.5,0l0,0l-0.1,0.5l-0.7,0.1
				c-0.1,0-0.5,0.1-0.5,0.3c0,0.1,0.1,0.4,0.1,0.4l1.7,4.5l1,2.3c0,0.1,0.1,0.2,0.1,0.2c0,0,0.1-0.1,0.1-0.1l2.1-5.7
				c0.3-0.9,0.4-1.3,0.4-1.4c0-0.3-0.1-0.4-0.5-0.4l-0.9-0.1v-0.5h0c0.3,0,0.6,0,0.9,0c0.3,0,0.6,0,0.9,0c0.2,0,0.4,0,0.7,0
				c0.3,0,0.5,0,0.7,0c0.1,0,0.2,0,0.3,0l0,0l-0.1,0.5l0,0l-0.5,0c-0.3,0-0.4,0.1-0.6,0.7c-0.9,2.2-1.4,3.5-1.9,4.8
				c-0.3,0.8-0.6,1.6-1,2.7l-0.8,2C23.7,68.1,23.7,68.2,23.6,68.2z M23.3,68.1c0.1,0,0.2,0.1,0.2,0.1c0.1,0,0.1,0,0.1-0.2l0.8-2
				c0.4-1.1,0.7-1.9,1-2.7c0.5-1.3,1-2.6,1.9-4.8c0.2-0.5,0.3-0.7,0.7-0.7l0.4,0l0.1-0.4c-0.1,0-0.1,0-0.3,0c-0.2,0-0.5,0-0.7,0
				c-0.2,0-0.5,0-0.7,0c-0.3,0-0.6,0-0.9,0c-0.3,0-0.6,0-0.8,0v0.4l0.8,0.1c0.4,0,0.5,0.2,0.5,0.5c0,0.2-0.1,0.6-0.4,1.4l-2.1,5.7
				c-0.1,0.1-0.1,0.2-0.2,0.2c-0.1,0-0.1-0.1-0.1-0.2l-1-2.3L21,58.7c-0.1-0.1-0.1-0.3-0.1-0.5c0-0.3,0.4-0.4,0.5-0.4l0.7-0.1l0-0.4
				c-0.1,0-0.3,0-0.5,0c-0.3,0-0.6,0-0.8,0c-0.3,0-0.5,0-0.8,0c-0.1,0-0.4,0-0.7,0c-0.4,0-0.8,0-1.2,0l-0.1,0.4
				c0.6,0.1,1.1,0.2,1.3,0.6L23.3,68.1z M60.3,68L60.3,68c-0.1,0-0.3,0-0.5,0c-0.3,0-0.7,0-1,0c-0.4,0-0.9,0-1.5,0.1c0,0,0,0,0,0
				c-0.1,0-0.1,0-0.2,0c0-0.1,0-0.1,0.2-0.4l0,0h0c0,0,0.8,0,0.8-0.3c0-0.1-0.1-0.4-0.2-0.7l-0.8-2h-2.9l-0.5,1.8
				c-0.1,0.3-0.1,0.6-0.1,0.8c0,0.4,0.7,0.5,0.9,0.5c0,0,0.1,0,0.1,0c0,0.1,0,0.2,0,0.4l0,0h0c-0.1,0-0.4,0-0.7,0
				c-0.3,0-0.6,0-0.8,0c-0.2,0-0.4,0-0.6,0c-0.2,0-0.5,0-0.6,0c-0.3,0-0.3-0.1-0.3-0.4c0-0.1,0.1-0.1,0.4-0.1
				c0.6-0.1,0.7-0.2,0.9-0.9l2.4-7.2l0,0c0.1,0,0.1-0.1,0.2-0.1c0.2-0.2,0.4-0.4,0.7-0.5l0,0l3.1,7.9c0.2,0.5,0.4,0.8,1.1,0.8
				c0.1,0,0.1,0,0.1,0.1C60.6,67.7,60.5,67.9,60.3,68L60.3,68z M57.4,67.6c-0.1,0.1-0.2,0.3-0.2,0.3c0,0,0.1,0,0.1,0
				c0.6,0,1-0.1,1.5-0.1c0.3,0,0.7,0,1,0c0.2,0,0.4,0,0.4,0c0.1-0.2,0.2-0.3,0.2-0.3c0,0,0,0-0.1,0c-0.7,0-1-0.3-1.2-0.8l-3.1-7.9
				c-0.2,0.1-0.4,0.3-0.6,0.4c-0.1,0-0.1,0.1-0.2,0.1l-2.4,7.2c-0.2,0.7-0.3,0.8-1,0.9c-0.1,0-0.4,0-0.4,0.1c0,0.3,0,0.3,0.2,0.3
				c0.2,0,0.4,0,0.6,0c0.2,0,0.4,0,0.6,0c0.2,0,0.5,0,0.8,0c0.3,0,0.5,0,0.7,0c0-0.1,0.1-0.3,0-0.3c0,0,0,0-0.1,0
				c-0.5,0-0.9-0.1-0.9-0.5c0-0.2,0.1-0.5,0.1-0.8l0.5-1.8h3l0,0l0.8,2c0.1,0.4,0.2,0.6,0.2,0.7C58.2,67.6,57.6,67.6,57.4,67.6z
				 M34.9,68c-0.1,0-0.2,0-0.4,0c-0.3,0-0.8,0-1.1,0c-0.1,0-0.2,0-0.3,0c-0.1,0-0.2,0-0.3,0c-0.4,0-0.8,0-1.3-0.2l0,0l0,0
				c0-0.2,0.1-0.2,0.4-0.2c0.8,0,0.9-0.2,0.9-1.1v-6c0-0.7-0.2-0.9-1.3-0.9l0,0l0.2-0.4h0c0.1,0,0.3,0,0.4,0c0.3,0,0.6,0,1.1,0
				c0.2,0,0.4,0,0.6,0s0.4,0,0.6,0c0.3,0,0.6,0,0.8,0l0,0l-0.1,0.3l0,0l-0.3,0c-0.5,0-0.9,0.1-0.9,0.6v5.4c0,1.8,0,1.8,1.3,2.2l0,0
				v0C35.3,68,35.1,68,34.9,68z M33.4,67.9c0.3,0,0.8,0,1.1,0c0.2,0,0.3,0,0.4,0c0.2,0,0.2,0,0.3,0c-1.2-0.4-1.3-0.4-1.3-2.2v-5.4
				c0-0.6,0.4-0.7,0.9-0.7l0.3,0l0-0.2c-0.2,0-0.4,0-0.7,0c-0.2,0-0.4,0-0.6,0c-0.2,0-0.4,0-0.6,0c-0.5,0-0.9,0-1.1,0
				c-0.2,0-0.3,0-0.4,0l-0.1,0.3c1,0.1,1.3,0.2,1.3,1v6c0,0.9,0,1.2-0.9,1.2c-0.3,0-0.4,0-0.4,0.1c0.5,0.1,0.9,0.2,1.2,0.2
				c0.1,0,0.2,0,0.3,0C33.2,67.9,33.3,67.9,33.4,67.9z M57,64.1h-2.6l1.2-3.7l0,0.1L57,64.1z M54.4,64h2.5l-1.4-3.5L54.4,64z
				 M44.2,58.6c-0.4,0-0.7-0.2-1-0.3C43,58.2,42.7,58,42.5,58c-0.3,0-0.5,0.2-0.7,0.5l0,0h-0.4l0,0c0.2-0.9,0.7-1.3,1.4-1.3
				c0.3,0,0.6,0.2,0.9,0.3c0.3,0.1,0.6,0.3,0.8,0.3c0.3,0,0.6-0.3,0.6-0.6l0,0h0.4l0,0c-0.1,0.4-0.2,0.7-0.4,0.9
				C44.9,58.4,44.6,58.6,44.2,58.6z M42.5,58c0.3,0,0.5,0.1,0.8,0.3c0.3,0.1,0.6,0.3,1,0.3c0.3,0,0.6-0.1,0.9-0.4
				c0.2-0.2,0.4-0.5,0.4-0.9h-0.3c-0.1,0.3-0.3,0.6-0.7,0.6c-0.3,0-0.5-0.1-0.9-0.3c-0.2-0.1-0.5-0.3-0.9-0.3
				c-0.7,0-1.1,0.4-1.3,1.2h0.3C41.9,58.1,42.1,58,42.5,58z"/>
		</g>
		<g>
			<path class="st2" d="M141,69.4c0-1-0.2-1.9-0.7-2.8c-0.4-0.9-1-1.6-1.8-2.2c-0.8-0.6-1.7-0.9-2.8-0.9h-0.8l-1.8,0.1
				c-0.1,0-0.2,0.2-0.3,0.4V73c0,0.8,0.2,1.4,0.6,1.8c0.4,0.5,1.2,0.7,2.2,0.7c1.1,0,2.1-0.3,2.9-0.8c0.8-0.5,1.4-1.3,1.8-2.2
				C140.8,71.6,141,70.5,141,69.4z M143.3,69.4c0,1.4-0.4,2.7-1.1,3.7c-0.7,1-1.6,1.8-2.8,2.3c-1.1,0.5-2.4,0.8-3.7,0.8
				c-0.8,0-1.4-0.1-1.7-0.2c-0.4-0.1-0.6-0.2-0.8-0.2c-0.3,0-0.4,0.1-0.4,0.4v4.7c0,0.3,0.1,0.5,0.3,0.5c0.2,0.1,0.5,0.1,1,0.1h0.4
				c0.3,0,0.5,0.1,0.5,0.2c0,0.1-0.1,0.2-0.2,0.2c-0.1,0.1-0.3,0.1-0.6,0.1l-3-0.1l-2.4,0.1c-0.3,0-0.4-0.1-0.4-0.3
				c0-0.1,0.1-0.2,0.2-0.2l1.5-0.1c0.3,0,0.5-0.1,0.6-0.3c0.1-0.2,0.1-0.6,0.1-1.2V64.3c0-0.5-0.4-0.7-1.3-0.7h-0.4
				c-0.3,0-0.5-0.1-0.5-0.2c0-0.2,0.3-0.3,0.8-0.3h6c1.8,0,3.2,0.3,4.4,1c1.2,0.6,2,1.4,2.6,2.4C143,67.3,143.3,68.3,143.3,69.4z
				 M124.7,63.3c0,0.1,0,0.2-0.1,0.2H124c-0.5,0-0.8,0.1-1,0.4c-0.2,0.3-0.3,0.7-0.3,1.3v9.3c0,0.6,0.2,0.9,0.7,1l0.8,0.2
				c0.2,0.1,0.2,0.1,0.2,0.2c0,0.1-0.1,0.2-0.3,0.2h-5.3c-0.1,0-0.1-0.1-0.1-0.2c0-0.1,0-0.2,0.1-0.2h0.5c0.5,0,0.8-0.1,1-0.4
				c0.2-0.3,0.3-0.7,0.3-1.3v-9.2c0-0.6-0.2-1-0.7-1.1l-0.9-0.2c-0.1-0.1-0.2-0.1-0.2-0.2c0-0.1,0.1-0.2,0.3-0.2h5.3
				C124.6,63,124.7,63.1,124.7,63.3z M106.3,69.8c0,0.1-0.1,0.2-0.1,0.3c-0.1,0.1-0.1,0.3-0.1,0.4c0,0.2,0.4,0.3,1.2,0.3h2.5
				c0.4,0,0.6-0.1,0.6-0.3l-2.1-5.4L106.3,69.8z M106.6,75.7c0.2,0.3,0.1,0.4-0.2,0.5c-0.1,0-0.4,0-0.8,0l-1.1-0.1
				c-0.4,0-0.7-0.1-0.9-0.1c-0.4,0-0.8,0-1.2,0.1c-0.4,0-0.7,0.1-0.9,0.1c-0.3,0-0.5-0.1-0.5-0.2c0-0.1,0.1-0.2,0.2-0.2
				c0.2,0,0.4,0,0.7,0c0.3,0,0.6-0.1,0.9-0.3c0.3-0.2,0.6-0.6,0.9-1.2l4-9.2c0-0.3-0.2-0.3-0.4-0.4l-0.7-0.3
				c-0.3-0.1-0.5-0.3-0.5-0.4l2.8-0.7c0.2-0.1,0.4-0.1,0.6-0.1c0.2,0,0.2,0.2,0.2,0.7c0,0.1,0,0.2,0,0.4c0,0.2,0.1,0.4,0.1,0.5
				l4.4,9.9c0.2,0.4,0.4,0.6,0.6,0.8c0.3,0.2,0.5,0.3,0.8,0.3c0.3,0,0.4,0,0.5,0.1c0.1,0,0.1,0.1,0.1,0.2c0,0.2-0.1,0.3-0.3,0.2
				l-2.6-0.1l-3.1,0.1c-0.2,0-0.4-0.1-0.4-0.2c0-0.1,0.1-0.2,0.5-0.2l1.2-0.2c0.6-0.1,0.8-0.4,0.6-0.8l-0.9-2.1
				c-0.2-0.4-0.3-0.6-0.4-0.8c-0.1-0.1-0.4-0.2-0.7-0.2h-3.5c-0.2,0-0.4,0-0.6,0c-0.2,0-0.3,0.1-0.4,0.1c-0.2,0.2-0.3,0.4-0.4,0.7
				l-0.8,1.8c-0.1,0.3-0.1,0.6,0.1,0.8c0.2,0.2,0.4,0.4,0.7,0.5c0.3,0.1,0.6,0.1,0.8,0.1H106.6z M98.3,75.8c0,0.2,0,0.3-0.1,0.3
				h-7.4c-0.3,0-0.5-0.1-0.4-0.2c0-0.2,0.1-0.3,0.3-0.3c0.7,0,1.3-0.1,1.8-0.2c0.5-0.1,0.7-0.3,0.7-0.7V61.4l-0.2-0.6l-6,8.9
				c-0.2,0.3-0.4,0.6-0.5,1.1c-0.2,0.4-0.3,0.8-0.5,1.1c-0.2,0.3-0.4,0.5-0.5,0.5c-0.2,0-0.4-0.1-0.5-0.3c-0.1-0.2-0.2-0.4-0.3-0.6
				c-0.4-0.9-0.8-1.9-1.4-2.8l-1.5-2.6l-1.4-2.5c-0.8-1.4-1.3-2.3-1.6-2.7c-0.2-0.4-0.4-0.6-0.4-0.5c-0.1,0-0.2,0.1-0.2,0.2
				C78,60.8,78,61,78,61.2v12.9c0,0.6,0.3,1,1,1.1l0.9,0.2c0.2,0,0.3,0.1,0.4,0.2c0,0.4-0.1,0.5-0.3,0.5h-6.1
				c-0.4,0-0.6-0.1-0.5-0.3c0-0.2,0.1-0.3,0.4-0.3c1.1,0,1.9-0.2,2.4-0.5c0.5-0.3,0.8-0.6,0.8-1V60.3c0-0.4-0.1-0.6-0.4-0.7
				c-0.3-0.1-0.7-0.2-1.3-0.2h-0.5c-0.4,0-0.7-0.1-0.7-0.3c0-0.3,0.3-0.4,1-0.4h5.3l2.3-0.1c0.3,0,0.5,0,0.6,0.1
				c0.1,0.1,0.1,0.2,0.1,0.3c0,0.2-0.2,0.4-0.7,0.4h-0.3c-0.3,0-0.7,0.1-1,0.4v0.3c0,0.2,0.2,0.7,0.6,1.6c0.4,0.9,0.9,1.8,1.4,2.8
				c0.5,1,1,1.8,1.4,2.4l1,1.5c0.1,0.2,0.1,0.3,0.2,0.5c0,0.2,0.2,0.1,0.4-0.1l2.2-3.1c0.1-0.2,0.5-0.7,1-1.5c0.5-0.8,1-1.6,1.5-2.5
				c0.5-0.8,0.7-1.4,0.8-1.7c0-0.2-0.2-0.3-0.5-0.4c-0.3-0.1-0.7-0.1-1.1-0.1h-0.3c-0.5,0-0.7-0.1-0.7-0.4c0-0.1,0-0.2,0.1-0.3
				c0.1-0.1,0.3-0.1,0.6-0.1l2.3,0.1h5.9c0.1,0,0.1,0.1,0.1,0.3c0,0.2,0,0.3-0.2,0.3h-0.7c-0.6,0-1.1,0.2-1.4,0.5
				c-0.3,0.3-0.4,0.9-0.4,1.8v11.6c0,0.8,0.2,1.4,0.5,1.8c0.3,0.3,0.8,0.5,1.4,0.5H98C98.2,75.5,98.3,75.6,98.3,75.8z M160.9,69.5
				c0,1.2-0.3,2.3-0.9,3.4c-0.6,1-1.4,1.9-2.4,2.5c-1,0.6-2.1,1-3.3,1c-1.2,0-2.4-0.3-3.4-1c-1-0.6-1.9-1.5-2.5-2.5
				c-0.6-1-0.9-2.2-1-3.4c0-1.2,0.3-2.3,0.9-3.3c0.6-1,1.4-1.8,2.4-2.4c1-0.6,2.2-0.9,3.4-0.9c1.2,0,2.4,0.3,3.4,0.9
				c1,0.6,1.8,1.4,2.4,2.4C160.6,67.1,160.9,68.2,160.9,69.5z M158.5,69.6c0-2-0.4-3.5-1.1-4.7c-0.7-1.1-1.8-1.7-3.1-1.7
				c-1.4,0-2.5,0.6-3.2,1.7c-0.8,1.1-1.1,2.7-1.2,4.7c0,1.9,0.4,3.3,1.1,4.4c0.7,1.1,1.8,1.7,3.2,1.7c1.4,0,2.4-0.6,3.2-1.7
				C158.1,72.9,158.5,71.5,158.5,69.6z"/>
			<path class="st2" d="M134.3,82.3C134.2,82.3,134.2,82.3,134.3,82.3l-3-0.1l-2.4,0.1c-0.3,0-0.4-0.1-0.4-0.3
				c0-0.1,0.1-0.2,0.2-0.3l0,0l1.5-0.1c0.3,0,0.5-0.1,0.5-0.3c0.1-0.2,0.1-0.6,0.1-1.2V64.3c0-0.5-0.4-0.7-1.1-0.7
				c-0.1,0-0.1,0-0.2,0h-0.4c-0.3,0-0.5-0.1-0.5-0.3c0-0.2,0.3-0.3,0.8-0.3h6c1.8,0,3.2,0.3,4.4,1c1.2,0.6,2,1.4,2.6,2.4
				c0.6,1,0.8,2,0.8,3.1c0,1.4-0.4,2.7-1.1,3.7c-0.7,1-1.6,1.8-2.8,2.3c-1.1,0.5-2.4,0.8-3.8,0.8c-0.8,0-1.4-0.1-1.7-0.2
				c-0.4-0.1-0.6-0.2-0.8-0.2c-0.1,0-0.2,0-0.3,0.1c-0.1,0.1-0.1,0.1-0.1,0.2v4.7c0,0.3,0.1,0.4,0.3,0.5c0.2,0.1,0.5,0.1,1,0.1h0.4
				c0.4,0,0.5,0.1,0.5,0.3c0,0.1-0.1,0.2-0.2,0.3C134.7,82.2,134.5,82.3,134.3,82.3z M131.2,82.1l3,0.1c0,0,0,0,0,0
				c0.2,0,0.4,0,0.5-0.1c0.1-0.1,0.2-0.2,0.2-0.2c0-0.1-0.2-0.2-0.5-0.2h-0.4c-0.5,0-0.8,0-1-0.1c-0.2-0.1-0.3-0.3-0.3-0.6v-4.7
				c0-0.1,0-0.2,0.1-0.3c0.1-0.1,0.2-0.1,0.3-0.1c0.2,0,0.4,0.1,0.8,0.2c0.4,0.1,0.9,0.2,1.7,0.2c1.3,0,2.6-0.3,3.7-0.8
				c1.1-0.5,2.1-1.3,2.8-2.3c0.7-1,1.1-2.2,1.1-3.7c0-1.1-0.3-2.1-0.8-3c-0.6-1-1.4-1.8-2.6-2.4c-1.1-0.6-2.6-0.9-4.4-1h-6
				c-0.5,0-0.7,0.1-0.7,0.3c0,0.1,0.2,0.2,0.5,0.2h0.4c0.1,0,0.1,0,0.2,0c0.8,0,1.2,0.2,1.2,0.7V80c0,0.7,0,1.1-0.1,1.3
				c-0.1,0.2-0.3,0.3-0.6,0.3l-1.5,0.1c-0.1,0-0.2,0.1-0.2,0.2c0,0.2,0.1,0.3,0.4,0.3L131.2,82.1z M154.2,76.3L154.2,76.3
				c-1.2,0-2.4-0.3-3.4-1c-1-0.6-1.9-1.5-2.5-2.5c-0.6-1-0.9-2.2-1-3.4c0-1.2,0.3-2.3,0.9-3.4c0.6-1,1.4-1.8,2.5-2.4
				c1-0.6,2.2-0.9,3.4-0.9c1.2,0,2.4,0.3,3.4,0.9c1,0.6,1.8,1.4,2.4,2.4c0.6,1,0.9,2.1,0.9,3.4c0,1.2-0.3,2.4-0.9,3.4
				s-1.4,1.9-2.4,2.5C156.6,76,155.4,76.3,154.2,76.3z M154.2,62.8c-1.2,0-2.4,0.3-3.4,0.9c-1,0.6-1.8,1.4-2.4,2.4
				c-0.6,1-0.9,2.1-0.9,3.3c0,1.2,0.3,2.4,1,3.4c0.6,1,1.5,1.9,2.5,2.5c1,0.6,2.2,0.9,3.4,1c1.2,0,2.3-0.3,3.3-1
				c1-0.6,1.8-1.5,2.4-2.5c0.6-1,0.9-2.2,0.9-3.4c0-1.2-0.3-2.3-0.9-3.3c-0.6-1-1.4-1.8-2.4-2.4C156.5,63.1,155.4,62.8,154.2,62.8z
				 M106.3,76.2c-0.1,0-0.4,0-0.7,0l-1.1-0.1c-0.4,0-0.7-0.1-0.9-0.1c-0.4,0-0.8,0-1.2,0.1c-0.4,0-0.7,0.1-0.9,0.1
				c-0.4,0-0.5-0.1-0.6-0.2c0-0.2,0.1-0.3,0.3-0.3c0.2,0,0.4,0,0.7,0c0.3,0,0.6-0.1,0.9-0.3c0.3-0.2,0.6-0.6,0.9-1.2l4-9.2
				c0-0.2-0.1-0.3-0.3-0.4l-0.7-0.3c-0.3-0.1-0.5-0.3-0.6-0.4l0,0l0,0l2.8-0.7c0.2-0.1,0.4-0.1,0.6-0.1c0.2,0,0.3,0.2,0.3,0.7
				c0,0.1,0,0.2,0,0.4c0,0.2,0.1,0.4,0.1,0.5l4.4,9.9c0.2,0.4,0.4,0.6,0.6,0.8c0.3,0.2,0.5,0.3,0.8,0.3c0,0,0,0,0.1,0
				c0.2,0,0.4,0,0.5,0.1c0.1,0,0.1,0.1,0.1,0.3c0,0.1,0,0.2-0.1,0.2c0,0.1-0.1,0.1-0.2,0.1l-2.6-0.1l-3.1,0.1c-0.2,0-0.3,0-0.3-0.1
				c0,0-0.1-0.1-0.1-0.2c0,0,0-0.1,0-0.1c0.1-0.1,0.2-0.1,0.5-0.1l1.2-0.2c0.3-0.1,0.6-0.2,0.6-0.3c0.1-0.1,0-0.3-0.1-0.5l-0.9-2.1
				c-0.2-0.4-0.3-0.6-0.4-0.8c-0.1-0.1-0.3-0.2-0.6-0.2c0,0,0,0-0.1,0h-3.5c-0.2,0-0.4,0-0.6,0c-0.2,0-0.3,0.1-0.4,0.1
				c-0.2,0.2-0.3,0.4-0.4,0.7l-0.8,1.8c-0.1,0.3-0.1,0.6,0.1,0.8c0.2,0.2,0.4,0.4,0.7,0.5c0.3,0.1,0.6,0.1,0.8,0.1h0.6l0,0
				c0.1,0.2,0.1,0.3,0.1,0.4c0,0.1-0.1,0.1-0.3,0.1C106.4,76.2,106.4,76.2,106.3,76.2z M103.6,75.9c0.2,0,0.5,0,0.9,0.1l1.1,0.1
				c0.4,0,0.6,0,0.8,0c0.1,0,0.2,0,0.2-0.1c0-0.1,0-0.2-0.1-0.3h-0.5c-0.2,0-0.5-0.1-0.8-0.1c-0.3-0.1-0.6-0.3-0.8-0.5
				c-0.2-0.2-0.2-0.5-0.1-0.8l0.8-1.8c0.1-0.3,0.2-0.5,0.4-0.7c0.1-0.1,0.2-0.1,0.4-0.1c0.2,0,0.4,0,0.6,0h3.5c0,0,0,0,0.1,0
				c0.3,0,0.5,0.1,0.7,0.2c0.1,0.1,0.3,0.4,0.4,0.8l0.9,2.1c0.1,0.2,0.1,0.4,0.1,0.5c-0.1,0.2-0.3,0.3-0.7,0.4l-1.2,0.2
				c-0.3,0-0.4,0.1-0.4,0.1c0,0,0,0,0,0.1l0,0c0,0.1,0,0.1,0,0.1c0,0.1,0.1,0.1,0.3,0.1l3.1-0.1L116,76c0,0,0,0,0,0
				c0.1,0,0.1,0,0.2-0.1c0,0,0-0.1,0-0.2c0-0.1,0-0.2-0.1-0.2c-0.1,0-0.2-0.1-0.5-0.1c0,0,0,0-0.1,0c-0.3,0-0.6-0.1-0.8-0.3
				c-0.3-0.2-0.5-0.5-0.6-0.8l-4.4-9.9c-0.1-0.2-0.1-0.3-0.1-0.5c0-0.2,0-0.3,0-0.4c0-0.4-0.1-0.6-0.2-0.6c-0.2,0-0.4,0.1-0.6,0.1
				l-2.8,0.7c0.1,0.1,0.2,0.2,0.5,0.4l0.7,0.3c0.2,0.1,0.3,0.2,0.4,0.5l0,0l0,0l-4,9.2c-0.3,0.6-0.6,1-0.9,1.2
				c-0.3,0.2-0.6,0.3-0.9,0.3c-0.3,0-0.5,0-0.7,0c-0.1,0-0.2,0.1-0.2,0.2c0,0.1,0.2,0.2,0.5,0.2c0.2,0,0.5,0,0.9-0.1
				C102.9,76,103.3,75.9,103.6,75.9z M80,76.1h-6.1c-0.3,0-0.4-0.1-0.5-0.2c0-0.1-0.1-0.1,0-0.2c0-0.2,0.2-0.3,0.4-0.3h0
				c1.1,0,1.9-0.2,2.4-0.5c0.5-0.3,0.8-0.6,0.8-0.9V60.3c0-0.4-0.1-0.6-0.4-0.7c-0.2-0.1-0.6-0.2-1.2-0.2c0,0-0.1,0-0.1,0h-0.5
				c-0.5,0-0.7-0.1-0.7-0.3c0-0.3,0.3-0.4,1-0.4h5.3l2.3-0.1c0.3,0,0.6,0,0.7,0.1c0.1,0.1,0.2,0.2,0.1,0.3c0,0.3-0.3,0.4-0.8,0.4
				h-0.3c-0.3,0-0.7,0.1-1,0.4v0.3c0,0.2,0.2,0.7,0.6,1.6c0.4,0.9,0.9,1.8,1.4,2.8c0.5,1,1,1.8,1.4,2.4l1,1.5
				c0.1,0.2,0.1,0.4,0.2,0.5C86,69,86,69,86,69c0,0,0.1,0,0.2-0.2l2.2-3.1c0.2-0.2,0.5-0.7,1-1.5c0.5-0.8,1-1.6,1.5-2.5
				c0.5-0.8,0.7-1.4,0.8-1.7c0-0.2-0.2-0.3-0.5-0.4c-0.3-0.1-0.7-0.1-1-0.1h-0.3c-0.5,0-0.7-0.1-0.8-0.4c0-0.2,0-0.3,0.1-0.3
				c0.1-0.1,0.3-0.1,0.7-0.1l2.3,0.1l5.9,0c0.1,0,0.1,0.1,0.1,0.4c0,0.1,0,0.2-0.1,0.3c0,0-0.1,0-0.1,0c0,0,0,0,0,0h-0.7
				c0,0,0,0-0.1,0c-0.6,0-1,0.2-1.3,0.5c-0.3,0.3-0.4,0.9-0.4,1.7v11.6c0,0.8,0.1,1.4,0.5,1.8c0.3,0.3,0.7,0.5,1.3,0.5
				c0,0,0,0,0.1,0H98c0.1,0,0.3,0.1,0.2,0.3c0,0.2-0.1,0.3-0.2,0.3l-7.4,0c-0.3,0-0.4,0-0.4-0.1c0,0,0-0.1,0-0.1c0-0.1,0-0.2,0-0.2
				c0-0.1,0.1-0.1,0.2-0.1c0.7,0,1.3-0.1,1.8-0.2c0.5-0.1,0.7-0.3,0.7-0.7V61.4l-0.2-0.5L87,69.8c-0.2,0.3-0.4,0.6-0.5,1.1
				c-0.2,0.4-0.3,0.8-0.5,1.1c-0.2,0.3-0.4,0.5-0.6,0.5c-0.2,0-0.4-0.1-0.5-0.3c-0.1-0.2-0.2-0.4-0.3-0.6c-0.4-0.9-0.8-1.9-1.4-2.8
				l-1.5-2.6l-1.4-2.5c-0.8-1.4-1.3-2.3-1.6-2.7c-0.3-0.4-0.3-0.5-0.4-0.5l0,0l0,0c-0.1,0-0.1,0.1-0.2,0.2C78,60.8,78,61,78,61.2
				v12.9c0,0.6,0.3,1,1,1.1l0.9,0.2c0.2,0,0.3,0.1,0.4,0.2l0,0c0,0.2,0,0.3-0.1,0.4C80.2,76,80.1,76.1,80,76.1z M79.9,76L79.9,76
				c0.1,0,0.2,0,0.2-0.1c0.1-0.1,0.1-0.2,0.1-0.4c0-0.1-0.1-0.1-0.3-0.2L79,75.2c-0.7-0.1-1-0.5-1-1.2V61.2c0-0.2,0-0.3,0.1-0.5
				c0.1-0.2,0.2-0.2,0.2-0.3c0,0,0,0,0,0c0,0,0.1,0,0.4,0.5c0.2,0.4,0.8,1.3,1.6,2.7l1.4,2.5l1.5,2.6c0.5,0.9,1,1.9,1.4,2.8
				c0.1,0.2,0.2,0.4,0.3,0.6c0.1,0.2,0.3,0.2,0.5,0.3c0.2,0,0.4-0.2,0.5-0.5c0.2-0.3,0.3-0.7,0.5-1.1c0.2-0.4,0.3-0.8,0.5-1.1l6-9
				l0.2,0.6v13.2c0,0.4-0.3,0.6-0.8,0.7c-0.5,0.1-1.1,0.2-1.8,0.2c-0.1,0-0.2,0-0.2,0.1c0,0,0,0.1,0,0.2l0,0l0,0c0,0,0,0,0,0
				c0,0,0.1,0.1,0.4,0.1h7.4c0.1,0,0.1-0.1,0.1-0.3c0-0.2,0-0.2-0.2-0.3h-0.7c0,0,0,0-0.1,0c-0.6,0-1.1-0.2-1.4-0.5
				c-0.3-0.4-0.5-1-0.5-1.8V61.6c0-0.8,0.1-1.4,0.4-1.8c0.3-0.3,0.7-0.5,1.4-0.5c0,0,0,0,0.1,0l0.7,0c0,0,0.1,0,0.1,0
				c0,0,0.1-0.1,0.1-0.2c0-0.2,0-0.3-0.1-0.3h-5.9L90,58.7c-0.3,0-0.5,0-0.6,0.1c-0.1,0.1-0.1,0.1-0.1,0.3c0,0.2,0.2,0.3,0.7,0.3
				h0.3c0.4,0,0.7,0,1.1,0.1c0.3,0.1,0.5,0.2,0.6,0.5c0,0.3-0.3,0.9-0.8,1.7c-0.5,0.8-1,1.7-1.5,2.5c-0.5,0.8-0.9,1.3-1,1.5
				l-2.2,3.1C86.2,68.9,86.1,69,86,69c0,0-0.1,0-0.1-0.1c0-0.2-0.1-0.3-0.2-0.5l-1-1.5c-0.4-0.6-0.9-1.4-1.4-2.4
				c-0.5-1-1-1.9-1.4-2.8c-0.4-0.9-0.6-1.4-0.7-1.6l0-0.3l0,0c0.3-0.2,0.6-0.4,1-0.4h0.3c0.5,0,0.7-0.1,0.7-0.3c0-0.1,0-0.2-0.1-0.3
				c0,0-0.2-0.1-0.4-0.1c-0.1,0-0.1,0-0.2,0l-2.3,0.1l-5.3,0c-0.6,0-0.9,0.1-0.9,0.4c0,0.2,0.2,0.2,0.7,0.3h0.5c0,0,0.1,0,0.1,0
				c0.5,0,0.9,0.1,1.2,0.2c0.3,0.1,0.4,0.4,0.4,0.8V74c0,0.4-0.3,0.7-0.8,1c-0.5,0.3-1.3,0.5-2.4,0.5l0,0c-0.2,0-0.3,0.1-0.3,0.3
				c0,0.1,0,0.1,0,0.1c0.1,0.1,0.2,0.1,0.5,0.2H79.9z M124.1,76C124.1,76,124.1,76,124.1,76l-5.4,0c-0.1,0-0.1-0.1-0.1-0.3
				c0-0.1,0-0.2,0-0.2c0,0,0.1,0,0.1,0l0.6,0c0.4,0,0.8-0.1,1-0.4c0.2-0.2,0.3-0.7,0.3-1.3v-9.2c0-0.6-0.2-1-0.7-1l-0.9-0.2
				c-0.1-0.1-0.2-0.2-0.2-0.3c0-0.1,0-0.1,0.1-0.2c0,0,0.1-0.1,0.2-0.1l5.4,0c0.1,0,0.1,0.1,0.1,0.3c0,0.1,0,0.2-0.1,0.2
				c0,0-0.1,0-0.1,0H124c0,0,0,0,0,0c-0.4,0-0.8,0.1-1,0.4c-0.2,0.2-0.3,0.7-0.3,1.3v9.3c0,0.6,0.2,0.9,0.7,1l0.8,0.2
				c0.2,0.1,0.2,0.2,0.2,0.3c0,0.1,0,0.1-0.1,0.2C124.3,76,124.2,76,124.1,76z M118.8,76h5.3c0,0,0,0,0,0c0.1,0,0.1,0,0.2-0.1
				c0,0,0-0.1,0-0.1l0,0l0,0c0-0.1,0-0.1-0.1-0.2l-0.8-0.2c-0.5-0.1-0.8-0.4-0.8-1v-9.3c0-0.6,0.1-1.1,0.3-1.3
				c0.2-0.3,0.6-0.4,1-0.4c0,0,0,0,0,0l0.5,0c0,0,0,0,0.1,0c0,0,0-0.1,0-0.2c0-0.1,0-0.2-0.1-0.2l-5.3,0c-0.1,0-0.1,0-0.2,0.1
				c0,0,0,0.1,0,0.1c0,0.1,0.1,0.2,0.1,0.2l0.9,0.2c0.5,0.1,0.7,0.4,0.7,1.1v9.2c0,0.6-0.1,1.1-0.3,1.3c-0.2,0.3-0.6,0.4-1,0.4
				l-0.6,0c0,0,0,0-0.1,0c0,0,0,0.1,0,0.2C118.7,75.9,118.7,76,118.8,76z M154.2,75.8c-1.4,0-2.5-0.6-3.2-1.7
				c-0.7-1.1-1.1-2.6-1.1-4.4c0-2,0.4-3.6,1.2-4.7c0.8-1.1,1.9-1.7,3.2-1.7h0c1.3,0,2.4,0.6,3.2,1.7c0.7,1.1,1.1,2.7,1.1,4.7
				c0,1.8-0.4,3.3-1.1,4.4C156.6,75.2,155.6,75.7,154.2,75.8z M154.2,63.3c-1.4,0-2.4,0.6-3.2,1.7c-0.8,1.1-1.1,2.7-1.2,4.6
				c0,1.8,0.4,3.3,1.1,4.4c0.7,1.1,1.8,1.6,3.2,1.7c1.4,0,2.4-0.6,3.2-1.7c0.7-1.1,1.1-2.6,1.1-4.4c0-2-0.4-3.5-1.1-4.6
				C156.6,63.9,155.5,63.3,154.2,63.3z M135.7,75.6c-1,0-1.8-0.2-2.2-0.7c-0.4-0.5-0.7-1.1-0.6-1.9V64c0-0.3,0.1-0.4,0.3-0.5
				l1.9-0.1h0.8c1.1,0,2,0.3,2.8,0.9c0.8,0.6,1.4,1.3,1.8,2.2c0.4,0.9,0.7,1.8,0.7,2.8c0,1.1-0.2,2.2-0.6,3.1
				c-0.4,0.9-1,1.7-1.8,2.2C137.8,75.3,136.8,75.6,135.7,75.6z M134.9,63.6l-1.8,0.1c-0.1,0-0.2,0.2-0.2,0.4V73
				c0,0.8,0.2,1.4,0.6,1.8c0.4,0.4,1.2,0.7,2.2,0.7c1.1,0,2.1-0.3,2.8-0.8c0.8-0.5,1.4-1.3,1.8-2.2c0.4-0.9,0.6-1.9,0.6-3.1
				c0-1-0.2-1.9-0.7-2.8c-0.4-0.9-1-1.6-1.8-2.2c-0.8-0.6-1.7-0.9-2.8-0.9H134.9z M109.7,71h-2.5c-0.7,0-1-0.1-1.2-0.2
				c0,0-0.1-0.1-0.1-0.1c0-0.1,0-0.3,0.1-0.4c0.1-0.2,0.1-0.3,0.1-0.3l2-4.6l0,0.1l2.1,5.4C110.4,70.9,110.2,71,109.7,71z
				 M108.2,65.4l-1.9,4.5c0,0.1-0.1,0.2-0.1,0.3c-0.1,0.1-0.1,0.3-0.1,0.4c0,0,0,0.1,0,0.1c0.1,0.1,0.5,0.2,1.1,0.2h2.5
				c0.4,0,0.6-0.1,0.6-0.2L108.2,65.4z"/>
		</g>
	</g>
	<g>
		<g>
			<path class="st2" d="M7.6,9.1c0-0.6,0.4-1,0.9-1c0.5,0,0.9,0.4,0.9,1c0,0.6-0.4,1-0.9,1C8,10.1,7.6,9.7,7.6,9.1z"/>
		</g>
		<g>
			<path class="st2" d="M12.4,9.1c0-0.6,0.4-1,0.9-1c0.5,0,0.9,0.4,0.9,1c0,0.6-0.4,1-0.9,1C12.7,10.1,12.3,9.7,12.4,9.1z"/>
		</g>
		<g>
			<path class="st2" d="M17.1,9.1c0-0.6,0.4-1,0.9-1c0.5,0,0.9,0.4,0.9,1c0,0.6-0.4,1-0.9,1C17.5,10.1,17.1,9.7,17.1,9.1z"/>
		</g>
		<g>
			<path class="st2" d="M21.8,9.1c0-0.6,0.4-1,0.9-1c0.5,0,0.9,0.4,0.9,1c0,0.6-0.4,1-0.9,1C22.2,10.1,21.8,9.7,21.8,9.1z"/>
		</g>
		<g>
			<path class="st2" d="M26.6,9.1c0-0.6,0.4-1,0.9-1c0.5,0,0.9,0.4,0.9,1c0,0.6-0.4,1-0.9,1C26.9,10.1,26.5,9.7,26.6,9.1z"/>
		</g>
		<g>
			<path class="st2" d="M31.3,9.1c0-0.6,0.4-1,0.9-1c0.5,0,0.9,0.4,0.9,1c0,0.6-0.4,1-0.9,1C31.7,10.1,31.3,9.7,31.3,9.1z"/>
		</g>
		<g>
			<path class="st2" d="M36,9.1c0-0.6,0.4-1,0.9-1c0.5,0,0.9,0.4,0.9,1c0,0.6-0.4,1-0.9,1C36.4,10.1,36,9.7,36,9.1z"/>
		</g>
		<g>
			<path class="st2" d="M40.8,9.1c0-0.6,0.4-1,0.9-1c0.5,0,0.9,0.4,0.9,1c0,0.6-0.4,1-0.9,1C41.1,10.1,40.7,9.7,40.8,9.1z"/>
		</g>
		<g>
			<path class="st2" d="M45.5,9.1c0-0.6,0.4-1,0.9-1c0.5,0,0.9,0.4,0.9,1c0,0.6-0.4,1-0.9,1C45.9,10.1,45.5,9.7,45.5,9.1z"/>
		</g>
		<g>
			<path class="st2" d="M50.2,9.1c0-0.6,0.4-1,0.9-1c0.5,0,0.9,0.4,0.9,1c0,0.6-0.4,1-0.9,1C50.6,10.1,50.2,9.7,50.2,9.1z"/>
		</g>
		<g>
			<path class="st2" d="M55,9.1c0-0.6,0.4-1,0.9-1c0.5,0,0.9,0.4,0.9,1c0,0.6-0.4,1-0.9,1C55.3,10.1,54.9,9.7,55,9.1z"/>
		</g>
		<g>
			<path class="st2" d="M59.7,9.1c0-0.6,0.4-1,0.9-1c0.5,0,0.9,0.4,0.9,1c0,0.6-0.4,1-0.9,1C60.1,10.1,59.7,9.7,59.7,9.1z"/>
		</g>
		<g>
			<path class="st2" d="M64.4,9.1c0-0.6,0.4-1,0.9-1c0.5,0,0.9,0.4,0.9,1c0,0.6-0.4,1-0.9,1C64.8,10.1,64.4,9.7,64.4,9.1z"/>
		</g>
		<g>
			<path class="st2" d="M69.1,9.1c0-0.6,0.4-1,0.9-1c0.5,0,0.9,0.4,0.9,1c0,0.6-0.4,1-0.9,1C69.5,10.1,69.1,9.7,69.1,9.1z"/>
		</g>
		<g>
			<path class="st2" d="M73.9,9.1c0-0.6,0.4-1,0.9-1c0.5,0,0.9,0.4,0.9,1c0,0.6-0.4,1-0.9,1C74.3,10.1,73.9,9.7,73.9,9.1z"/>
		</g>
		<g>
			<path class="st2" d="M78.6,9.1c0-0.6,0.4-1,0.9-1c0.5,0,0.9,0.4,0.9,1c0,0.6-0.4,1-0.9,1C79,10.1,78.6,9.7,78.6,9.1z"/>
		</g>
		<g>
			<path class="st2" d="M83.3,9.1c0-0.6,0.4-1,0.9-1c0.5,0,0.9,0.4,0.9,1c0,0.6-0.4,1-0.9,1C83.7,10.1,83.3,9.7,83.3,9.1z"/>
		</g>
		<g>
			<path class="st2" d="M88.1,9.1c0-0.6,0.4-1,0.9-1c0.5,0,0.9,0.4,0.9,1c0,0.6-0.4,1-0.9,1C88.5,10.1,88.1,9.7,88.1,9.1z"/>
		</g>
		<g>
			<path class="st2" d="M92.8,9.1c0-0.6,0.4-1,0.9-1c0.5,0,0.9,0.4,0.9,1c0,0.6-0.4,1-0.9,1C93.2,10.1,92.8,9.7,92.8,9.1z"/>
		</g>
		<g>
			<path class="st2" d="M97.5,9.1c0-0.6,0.4-1,0.9-1c0.5,0,0.9,0.4,0.9,1c0,0.6-0.4,1-0.9,1C97.9,10.1,97.5,9.7,97.5,9.1z"/>
		</g>
		<g>
			<path class="st2" d="M102.3,9.1c0-0.6,0.4-1,0.9-1c0.5,0,0.9,0.4,0.9,1c0,0.6-0.4,1-0.9,1C102.7,10.1,102.3,9.7,102.3,9.1z"/>
		</g>
		<g>
			<path class="st2" d="M107,9.1c0-0.6,0.4-1,0.9-1c0.5,0,0.9,0.4,0.9,1c0,0.6-0.4,1-0.9,1C107.4,10.1,107,9.7,107,9.1z"/>
		</g>
		<g>
			<path class="st2" d="M111.7,9.1c0-0.6,0.4-1,0.9-1c0.5,0,0.9,0.4,0.9,1c0,0.6-0.4,1-0.9,1C112.1,10.1,111.7,9.7,111.7,9.1z"/>
		</g>
		<g>
			<path class="st2" d="M116.5,9.1c0-0.6,0.4-1,0.9-1c0.5,0,0.9,0.4,0.9,1c0,0.6-0.4,1-0.9,1C116.9,10.1,116.5,9.7,116.5,9.1z"/>
		</g>
		<g>
			<path class="st2" d="M121.2,9.1c0-0.6,0.4-1,0.9-1c0.5,0,0.9,0.4,0.9,1c0,0.6-0.4,1-0.9,1C121.6,10.1,121.2,9.7,121.2,9.1z"/>
		</g>
		<g>
			<path class="st2" d="M125.9,9.1c0-0.6,0.4-1,0.9-1c0.5,0,0.9,0.4,0.9,1c0,0.6-0.4,1-0.9,1C126.3,10.1,125.9,9.7,125.9,9.1z"/>
		</g>
		<g>
			<path class="st2" d="M130.7,9.1c0-0.6,0.4-1,0.9-1c0.5,0,0.9,0.4,0.9,1c0,0.6-0.4,1-0.9,1C131.1,10.1,130.7,9.7,130.7,9.1z"/>
		</g>
		<g>
			<path class="st2" d="M135.4,9.1c0-0.6,0.4-1,0.9-1c0.5,0,0.9,0.4,0.9,1c0,0.6-0.4,1-0.9,1C135.8,10.1,135.4,9.7,135.4,9.1z"/>
		</g>
		<g>
			<path class="st2" d="M140.1,9.1c0-0.6,0.4-1,0.9-1c0.5,0,0.9,0.4,0.9,1c0,0.6-0.4,1-0.9,1C140.5,10.1,140.1,9.7,140.1,9.1z"/>
		</g>
		<g>
			<path class="st2" d="M144.9,9.1c0-0.6,0.4-1,0.9-1c0.5,0,0.9,0.4,0.9,1c0,0.6-0.4,1-0.9,1C145.2,10.1,144.9,9.7,144.9,9.1z"/>
		</g>
		<g>
			<path class="st2" d="M149.6,9.1c0-0.6,0.4-1,0.9-1c0.5,0,0.9,0.4,0.9,1c0,0.6-0.4,1-0.9,1C150,10.1,149.6,9.7,149.6,9.1z"/>
		</g>
		<g>
			<path class="st2" d="M154.3,9.1c0-0.6,0.4-1,0.9-1c0.5,0,0.9,0.4,0.9,1c0,0.6-0.4,1-0.9,1C154.7,10.1,154.3,9.7,154.3,9.1z"/>
		</g>
		<g>
			<path class="st2" d="M159.1,9.1c0-0.6,0.4-1,0.9-1c0.5,0,0.9,0.4,0.9,1c0,0.6-0.4,1-0.9,1C159.4,10.1,159.1,9.7,159.1,9.1z"/>
		</g>
		<g>
			<path class="st2" d="M163.8,9.1c0-0.6,0.4-1,0.9-1c0.5,0,0.9,0.4,0.9,1c0,0.6-0.4,1-0.9,1C164.2,10.1,163.8,9.7,163.8,9.1z"/>
		</g>
		<g>
			<path class="st2" d="M168.5,9.1c0-0.6,0.4-1,0.9-1c0.5,0,0.9,0.4,0.9,1c0,0.6-0.4,1-0.9,1C168.9,10.1,168.5,9.7,168.5,9.1z"/>
		</g>
	</g>
	<g>
		<g>
			<path class="st2" d="M7.6,90.9c0-0.6,0.4-1,0.9-1c0.5,0,0.9,0.4,0.9,1c0,0.6-0.4,1-0.9,1C8,91.9,7.6,91.4,7.6,90.9z"/>
		</g>
		<g>
			<path class="st2" d="M12.4,90.9c0-0.6,0.4-1,0.9-1c0.5,0,0.9,0.4,0.9,1c0,0.6-0.4,1-0.9,1C12.7,91.9,12.3,91.4,12.4,90.9z"/>
		</g>
		<g>
			<path class="st2" d="M17.1,90.9c0-0.6,0.4-1,0.9-1c0.5,0,0.9,0.4,0.9,1c0,0.6-0.4,1-0.9,1C17.5,91.9,17.1,91.4,17.1,90.9z"/>
		</g>
		<g>
			<path class="st2" d="M21.8,90.9c0-0.6,0.4-1,0.9-1c0.5,0,0.9,0.4,0.9,1c0,0.6-0.4,1-0.9,1C22.2,91.9,21.8,91.4,21.8,90.9z"/>
		</g>
		<g>
			<path class="st2" d="M26.6,90.9c0-0.6,0.4-1,0.9-1c0.5,0,0.9,0.4,0.9,1c0,0.6-0.4,1-0.9,1C26.9,91.9,26.5,91.4,26.6,90.9z"/>
		</g>
		<g>
			<path class="st2" d="M31.3,90.9c0-0.6,0.4-1,0.9-1c0.5,0,0.9,0.4,0.9,1c0,0.6-0.4,1-0.9,1C31.7,91.9,31.3,91.4,31.3,90.9z"/>
		</g>
		<g>
			<path class="st2" d="M36,90.9c0-0.6,0.4-1,0.9-1c0.5,0,0.9,0.4,0.9,1c0,0.6-0.4,1-0.9,1C36.4,91.9,36,91.4,36,90.9z"/>
		</g>
		<g>
			<path class="st2" d="M40.8,90.9c0-0.6,0.4-1,0.9-1c0.5,0,0.9,0.4,0.9,1c0,0.6-0.4,1-0.9,1C41.1,91.9,40.7,91.4,40.8,90.9z"/>
		</g>
		<g>
			<path class="st2" d="M45.5,90.9c0-0.6,0.4-1,0.9-1c0.5,0,0.9,0.4,0.9,1c0,0.6-0.4,1-0.9,1C45.9,91.9,45.5,91.4,45.5,90.9z"/>
		</g>
		<g>
			<path class="st2" d="M50.2,90.9c0-0.6,0.4-1,0.9-1c0.5,0,0.9,0.4,0.9,1c0,0.6-0.4,1-0.9,1C50.6,91.9,50.2,91.4,50.2,90.9z"/>
		</g>
		<g>
			<path class="st2" d="M55,90.9c0-0.6,0.4-1,0.9-1c0.5,0,0.9,0.4,0.9,1c0,0.6-0.4,1-0.9,1C55.3,91.9,54.9,91.4,55,90.9z"/>
		</g>
		<g>
			<path class="st2" d="M59.7,90.9c0-0.6,0.4-1,0.9-1c0.5,0,0.9,0.4,0.9,1c0,0.6-0.4,1-0.9,1C60.1,91.9,59.7,91.4,59.7,90.9z"/>
		</g>
		<g>
			<path class="st2" d="M64.4,90.9c0-0.6,0.4-1,0.9-1c0.5,0,0.9,0.4,0.9,1c0,0.6-0.4,1-0.9,1C64.8,91.9,64.4,91.4,64.4,90.9z"/>
		</g>
		<g>
			<path class="st2" d="M69.1,90.9c0-0.6,0.4-1,0.9-1c0.5,0,0.9,0.4,0.9,1c0,0.6-0.4,1-0.9,1C69.5,91.9,69.1,91.4,69.1,90.9z"/>
		</g>
		<g>
			<path class="st2" d="M73.9,90.9c0-0.6,0.4-1,0.9-1c0.5,0,0.9,0.4,0.9,1c0,0.6-0.4,1-0.9,1C74.3,91.9,73.9,91.4,73.9,90.9z"/>
		</g>
		<g>
			<path class="st2" d="M78.6,90.9c0-0.6,0.4-1,0.9-1c0.5,0,0.9,0.4,0.9,1c0,0.6-0.4,1-0.9,1C79,91.9,78.6,91.4,78.6,90.9z"/>
		</g>
		<g>
			<path class="st2" d="M83.3,90.9c0-0.6,0.4-1,0.9-1c0.5,0,0.9,0.4,0.9,1c0,0.6-0.4,1-0.9,1C83.7,91.9,83.3,91.4,83.3,90.9z"/>
		</g>
		<g>
			<path class="st2" d="M88.1,90.9c0-0.6,0.4-1,0.9-1c0.5,0,0.9,0.4,0.9,1c0,0.6-0.4,1-0.9,1C88.5,91.9,88.1,91.4,88.1,90.9z"/>
		</g>
		<g>
			<path class="st2" d="M92.8,90.9c0-0.6,0.4-1,0.9-1c0.5,0,0.9,0.4,0.9,1c0,0.6-0.4,1-0.9,1C93.2,91.9,92.8,91.4,92.8,90.9z"/>
		</g>
		<g>
			<path class="st2" d="M97.5,90.9c0-0.6,0.4-1,0.9-1c0.5,0,0.9,0.4,0.9,1c0,0.6-0.4,1-0.9,1C97.9,91.9,97.5,91.4,97.5,90.9z"/>
		</g>
		<g>
			<path class="st2" d="M102.3,90.9c0-0.6,0.4-1,0.9-1c0.5,0,0.9,0.4,0.9,1c0,0.6-0.4,1-0.9,1C102.7,91.9,102.3,91.4,102.3,90.9z"/>
		</g>
		<g>
			<path class="st2" d="M107,90.9c0-0.6,0.4-1,0.9-1c0.5,0,0.9,0.4,0.9,1c0,0.6-0.4,1-0.9,1C107.4,91.9,107,91.4,107,90.9z"/>
		</g>
		<g>
			<path class="st2" d="M111.7,90.9c0-0.6,0.4-1,0.9-1c0.5,0,0.9,0.4,0.9,1c0,0.6-0.4,1-0.9,1C112.1,91.9,111.7,91.4,111.7,90.9z"/>
		</g>
		<g>
			<path class="st2" d="M116.5,90.9c0-0.6,0.4-1,0.9-1c0.5,0,0.9,0.4,0.9,1c0,0.6-0.4,1-0.9,1C116.9,91.9,116.5,91.4,116.5,90.9z"/>
		</g>
		<g>
			<path class="st2" d="M121.2,90.9c0-0.6,0.4-1,0.9-1c0.5,0,0.9,0.4,0.9,1c0,0.6-0.4,1-0.9,1C121.6,91.9,121.2,91.4,121.2,90.9z"/>
		</g>
		<g>
			<path class="st2" d="M125.9,90.9c0-0.6,0.4-1,0.9-1c0.5,0,0.9,0.4,0.9,1c0,0.6-0.4,1-0.9,1C126.3,91.9,125.9,91.4,125.9,90.9z"/>
		</g>
		<g>
			<path class="st2" d="M130.7,90.9c0-0.6,0.4-1,0.9-1c0.5,0,0.9,0.4,0.9,1c0,0.6-0.4,1-0.9,1C131.1,91.9,130.7,91.4,130.7,90.9z"/>
		</g>
		<g>
			<path class="st2" d="M135.4,90.9c0-0.6,0.4-1,0.9-1c0.5,0,0.9,0.4,0.9,1c0,0.6-0.4,1-0.9,1C135.8,91.9,135.4,91.4,135.4,90.9z"/>
		</g>
		<g>
			<path class="st2" d="M140.1,90.9c0-0.6,0.4-1,0.9-1c0.5,0,0.9,0.4,0.9,1c0,0.6-0.4,1-0.9,1C140.5,91.9,140.1,91.4,140.1,90.9z"/>
		</g>
		<g>
			<path class="st2" d="M144.9,90.9c0-0.6,0.4-1,0.9-1c0.5,0,0.9,0.4,0.9,1c0,0.6-0.4,1-0.9,1C145.2,91.9,144.9,91.4,144.9,90.9z"/>
		</g>
		<g>
			<path class="st2" d="M149.6,90.9c0-0.6,0.4-1,0.9-1c0.5,0,0.9,0.4,0.9,1c0,0.6-0.4,1-0.9,1C150,91.9,149.6,91.4,149.6,90.9z"/>
		</g>
		<g>
			<path class="st2" d="M154.3,90.9c0-0.6,0.4-1,0.9-1c0.5,0,0.9,0.4,0.9,1c0,0.6-0.4,1-0.9,1C154.7,91.9,154.3,91.4,154.3,90.9z"/>
		</g>
		<g>
			<path class="st2" d="M159.1,90.9c0-0.6,0.4-1,0.9-1c0.5,0,0.9,0.4,0.9,1c0,0.6-0.4,1-0.9,1C159.4,91.9,159.1,91.4,159.1,90.9z"/>
		</g>
		<g>
			<path class="st2" d="M163.8,90.9c0-0.6,0.4-1,0.9-1c0.5,0,0.9,0.4,0.9,1c0,0.6-0.4,1-0.9,1C164.2,91.9,163.8,91.4,163.8,90.9z"/>
		</g>
		<g>
			<path class="st2" d="M168.5,90.9c0-0.6,0.4-1,0.9-1c0.5,0,0.9,0.4,0.9,1c0,0.6-0.4,1-0.9,1C168.9,91.9,168.5,91.4,168.5,90.9z"/>
		</g>
	</g>
</g>
</svg>
