<!-- Generator: Adobe Illustrator 19.1.0, SVG Export Plug-In  -->
<svg version="1.1"
	 xmlns="http://www.w3.org/2000/svg" xmlns:xlink="http://www.w3.org/1999/xlink" xmlns:a="http://ns.adobe.com/AdobeSVGViewerExtensions/3.0/"
	 x="0px" y="0px" width="36px" height="36px" viewBox="0 0 36 36" style="enable-background:new 0 0 36 36;" xml:space="preserve">
<style type="text/css">
	.st0{opacity:0.5;fill:none;}
	.st1{fill:#3D352B;}
</style>
<defs>
</defs>
<g>
	<rect class="st0" width="36" height="36"/>
	<g>
		<g>
			<path class="st1" d="M12,13.8c0.9-1.3,2.3-2.4,4.1-2.7c-0.1-0.1-0.2-0.2-0.3-0.2c-0.1-0.6,2.7-2.2,2.4-2.7
				C18,7.5,15,8.7,14.6,8.2c-0.4-0.5,1.4-3.1,1-3.5c-0.5-0.4-2.7,2-3.2,1.7c-0.5-0.3,0-3.5-0.6-3.6c-0.6-0.1-1.5,3-2.1,3
				S8,2.8,7.5,2.9C6.9,3,7.3,6.2,6.8,6.5C6.3,6.7,4.1,4.4,3.6,4.7c-0.5,0.4,1.4,3,1,3.5C4.2,8.7,1.2,7.5,0.9,8.1
				c-0.3,0.5,2.5,2.1,2.4,2.7C3.2,11.4,0,11.6,0,12.2s3.2,0.9,3.4,1.4c0.1,0.6-2.7,2.2-2.4,2.7c0.3,0.5,3.3-0.6,3.6-0.2
				c0.4,0.5-1.4,3.1-1,3.5c0.5,0.4,2.7-2,3.2-1.7c0.5,0.3,0,3.5,0.6,3.6c0.1,0,0.2,0,0.2-0.1C6.9,18.5,8.7,15.3,12,13.8z"/>
		</g>
	</g>
	<path class="st1" d="M36,15.8c0-1.7-1.6-3-3.7-3c-0.9,0-1.7,0.3-2.4,0.7c-0.9-2-3.6-2.8-6.1-1.8c-1.3,0.5-2.4,1.4-3,2.5
		c-0.9-0.9-2.2-1.4-3.7-1.2c-1.7,0.2-3.1,1.2-3.7,2.5c-0.1,0-0.2,0.1-0.3,0.1c-2.7,1.1-4.2,3.7-3.3,5.8c0.6,1.5,2.2,2.4,4.1,2.4
		c0.9,0.9,2.5,1.3,4.1,0.9c0.4-0.1,0.8-0.3,1.1-0.4c0.6,0.2,1.3,0.2,1.9,0c0.6-0.1,1.1-0.4,1.5-0.7c0.9,0.5,2.1,0.7,3.4,0.4
		c1.4-0.3,2.4-1.1,3-2.1c0.8,0.4,1.9,0.5,3,0c0.6-0.2,1-0.6,1.4-1c1-0.1,1.9-0.7,2.2-1.6c0.2-0.6,0.1-1.2-0.1-1.8
		C35.7,17,36,16.4,36,15.8z"/>
</g>
</svg>
